<?xml version="1.0" encoding="UTF-8" standalone="no"?>
<!DOCTYPE svg PUBLIC "-//W3C//DTD SVG 1.1//EN"
 "http://www.w3.org/Graphics/SVG/1.1/DTD/svg11.dtd">
<!-- Generated by graphviz version 12.1.2 (0)
 -->
<!-- Title: diffTree Pages: 1 -->
<svg width="109pt" height="117pt"
 viewBox="0.00 0.00 109.00 117.00" xmlns="http://www.w3.org/2000/svg" xmlns:xlink="http://www.w3.org/1999/xlink">
<g id="graph0" class="graph" transform="scale(1 1) rotate(0) translate(4 113)">
<title>diffTree</title>
<polygon fill="white" stroke="none" points="-4,4 -4,-113 105,-113 105,4 -4,4"/>
<!-- p0x59ce6b22bd50 -->
<g id="node1" class="node">
<title>p0x59ce6b22bd50</title>
<polygon fill="lightpink" stroke="purple" points="23,-72.5 23,-108.5 77,-108.5 77,-72.5 23,-72.5"/>
<text text-anchor="middle" x="49.88" y="-85.45" font-family="Times,serif" font-size="14.00">^</text>
</g>
<!-- p0x59ce6b22b7f0 -->
<g id="node2" class="node">
<title>p0x59ce6b22b7f0</title>
<ellipse fill="lightgreen" stroke="green" cx="18" cy="-18" rx="18" ry="18"/>
<text text-anchor="middle" x="18" y="-12.95" font-family="Times,serif" font-size="14.00">5</text>
</g>
<!-- p0x59ce6b22bd50&#45;&gt;p0x59ce6b22b7f0 -->
<g id="edge1" class="edge">
<title>p0x59ce6b22bd50&#45;&gt;p0x59ce6b22b7f0</title>
<path fill="none" stroke="gray" d="M42.09,-72.07C37.64,-62.26 32.05,-49.95 27.38,-39.66"/>
<polygon fill="gray" stroke="gray" points="28.72,-39.23 25.79,-36.16 26.17,-40.38 28.72,-39.23"/>
</g>
<!-- p0x59ce6b22baa0 -->
<g id="node3" class="node">
<title>p0x59ce6b22baa0</title>
<ellipse fill="lightgreen" stroke="green" cx="83" cy="-18" rx="18" ry="18"/>
<text text-anchor="middle" x="83" y="-12.95" font-family="Times,serif" font-size="14.00">3</text>
</g>
<!-- p0x59ce6b22bd50&#45;&gt;p0x59ce6b22baa0 -->
<g id="edge2" class="edge">
<title>p0x59ce6b22bd50&#45;&gt;p0x59ce6b22baa0</title>
<path fill="none" stroke="gray" d="M58.16,-72.07C62.75,-62.26 68.51,-49.95 73.33,-39.66"/>
<polygon fill="gray" stroke="gray" points="74.54,-40.37 74.97,-36.15 72.01,-39.18 74.54,-40.37"/>
</g>
</g>
</svg>
