<?xml version="1.0" encoding="UTF-8" standalone="no"?>
<!DOCTYPE svg PUBLIC "-//W3C//DTD SVG 1.1//EN"
 "http://www.w3.org/Graphics/SVG/1.1/DTD/svg11.dtd">
<!-- Generated by graphviz version 12.1.2 (0)
 -->
<!-- Title: diffTree Pages: 1 -->
<svg width="523pt" height="577pt"
 viewBox="0.00 0.00 523.00 577.00" xmlns="http://www.w3.org/2000/svg" xmlns:xlink="http://www.w3.org/1999/xlink">
<g id="graph0" class="graph" transform="scale(1 1) rotate(0) translate(4 573)">
<title>diffTree</title>
<polygon fill="white" stroke="none" points="-4,4 -4,-573 519,-573 519,4 -4,4"/>
<!-- p0x6407fd76d960 -->
<g id="node1" class="node">
<title>p0x6407fd76d960</title>
<polygon fill="lightpink" stroke="purple" points="106,-532.5 106,-568.5 160,-568.5 160,-532.5 106,-532.5"/>
<text text-anchor="middle" x="132.62" y="-545.45" font-family="Times,serif" font-size="14.00">+</text>
</g>
<!-- p0x6407fd76d2a0 -->
<g id="node2" class="node">
<title>p0x6407fd76d2a0</title>
<polygon fill="lightpink" stroke="purple" points="65,-459.5 65,-495.5 119,-495.5 119,-459.5 65,-459.5"/>
<text text-anchor="middle" x="91.88" y="-472.45" font-family="Times,serif" font-size="14.00">^</text>
</g>
<!-- p0x6407fd76d960&#45;&gt;p0x6407fd76d2a0 -->
<g id="edge1" class="edge">
<title>p0x6407fd76d960&#45;&gt;p0x6407fd76d2a0</title>
<path fill="none" stroke="gray" d="M123.08,-532.31C117.48,-522.63 110.45,-510.45 104.49,-500.13"/>
<polygon fill="gray" stroke="gray" points="105.8,-499.6 102.59,-496.84 103.38,-501 105.8,-499.6"/>
</g>
<!-- p0x6407fd76d920 -->
<g id="node7" class="node">
<title>p0x6407fd76d920</title>
<polygon fill="lightpink" stroke="purple" points="166,-459.5 166,-495.5 220,-495.5 220,-459.5 166,-459.5"/>
<text text-anchor="middle" x="192.75" y="-472.45" font-family="Times,serif" font-size="14.00">&#45;</text>
</g>
<!-- p0x6407fd76d960&#45;&gt;p0x6407fd76d920 -->
<g id="edge6" class="edge">
<title>p0x6407fd76d960&#45;&gt;p0x6407fd76d920</title>
<path fill="none" stroke="gray" d="M147.52,-532.31C155.85,-522.46 166.37,-510.01 175.19,-499.57"/>
<polygon fill="gray" stroke="gray" points="176.12,-500.64 177.63,-496.68 173.98,-498.84 176.12,-500.64"/>
</g>
<!-- p0x6407fd76d140 -->
<g id="node3" class="node">
<title>p0x6407fd76d140</title>
<ellipse fill="lightgreen" stroke="green" cx="18" cy="-404.5" rx="18" ry="18"/>
<text text-anchor="middle" x="18" y="-399.45" font-family="Times,serif" font-size="14.00">3</text>
</g>
<!-- p0x6407fd76d2a0&#45;&gt;p0x6407fd76d140 -->
<g id="edge2" class="edge">
<title>p0x6407fd76d2a0&#45;&gt;p0x6407fd76d140</title>
<path fill="none" stroke="gray" d="M74.09,-459.31C61.94,-447.66 46.02,-432.39 34.25,-421.09"/>
<polygon fill="gray" stroke="gray" points="35.37,-420.23 31.51,-418.47 33.43,-422.25 35.37,-420.23"/>
</g>
<!-- p0x6407fd76d260 -->
<g id="node4" class="node">
<title>p0x6407fd76d260</title>
<polygon fill="lightpink" stroke="purple" points="65,-386.5 65,-422.5 119,-422.5 119,-386.5 65,-386.5"/>
<text text-anchor="middle" x="91.88" y="-399.45" font-family="Times,serif" font-size="14.00">/</text>
</g>
<!-- p0x6407fd76d2a0&#45;&gt;p0x6407fd76d260 -->
<g id="edge3" class="edge">
<title>p0x6407fd76d2a0&#45;&gt;p0x6407fd76d260</title>
<path fill="none" stroke="gray" d="M92,-459.31C92,-449.89 92,-438.11 92,-427.97"/>
<polygon fill="gray" stroke="gray" points="93.4,-428.04 92,-424.04 90.6,-428.04 93.4,-428.04"/>
</g>
<!-- p0x6407fd76d1a0 -->
<g id="node5" class="node">
<title>p0x6407fd76d1a0</title>
<ellipse fill="lightgreen" stroke="green" cx="27" cy="-328" rx="18" ry="18"/>
<text text-anchor="middle" x="27" y="-322.95" font-family="Times,serif" font-size="14.00">5</text>
</g>
<!-- p0x6407fd76d260&#45;&gt;p0x6407fd76d1a0 -->
<g id="edge4" class="edge">
<title>p0x6407fd76d260&#45;&gt;p0x6407fd76d1a0</title>
<path fill="none" stroke="gray" d="M76.92,-386.22C66.41,-374.17 52.45,-358.16 41.96,-346.15"/>
<polygon fill="gray" stroke="gray" points="43.23,-345.47 39.54,-343.37 41.12,-347.31 43.23,-345.47"/>
</g>
<!-- p0x6407fd76d220 -->
<g id="node6" class="node">
<title>p0x6407fd76d220</title>
<ellipse fill="lightgreen" stroke="green" cx="92" cy="-328" rx="18" ry="18"/>
<text text-anchor="middle" x="92" y="-322.95" font-family="Times,serif" font-size="14.00">4</text>
</g>
<!-- p0x6407fd76d260&#45;&gt;p0x6407fd76d220 -->
<g id="edge5" class="edge">
<title>p0x6407fd76d260&#45;&gt;p0x6407fd76d220</title>
<path fill="none" stroke="gray" d="M92,-386.22C92,-375.95 92,-362.81 92,-351.71"/>
<polygon fill="gray" stroke="gray" points="93.4,-351.96 92,-347.96 90.6,-351.96 93.4,-351.96"/>
</g>
<!-- p0x6407fd76d3e0 -->
<g id="node8" class="node">
<title>p0x6407fd76d3e0</title>
<polygon fill="lightpink" stroke="purple" points="166,-386.5 166,-422.5 220,-422.5 220,-386.5 166,-386.5"/>
<text text-anchor="middle" x="192.88" y="-399.45" font-family="Times,serif" font-size="14.00">*</text>
</g>
<!-- p0x6407fd76d920&#45;&gt;p0x6407fd76d3e0 -->
<g id="edge7" class="edge">
<title>p0x6407fd76d920&#45;&gt;p0x6407fd76d3e0</title>
<path fill="none" stroke="gray" d="M193,-459.31C193,-449.89 193,-438.11 193,-427.97"/>
<polygon fill="gray" stroke="gray" points="194.4,-428.04 193,-424.04 191.6,-428.04 194.4,-428.04"/>
</g>
<!-- p0x6407fd76d8e0 -->
<g id="node11" class="node">
<title>p0x6407fd76d8e0</title>
<polygon fill="lightpink" stroke="purple" points="268,-386.5 268,-422.5 322,-422.5 322,-386.5 268,-386.5"/>
<text text-anchor="middle" x="294.88" y="-399.45" font-family="Times,serif" font-size="14.00">^</text>
</g>
<!-- p0x6407fd76d920&#45;&gt;p0x6407fd76d8e0 -->
<g id="edge10" class="edge">
<title>p0x6407fd76d920&#45;&gt;p0x6407fd76d8e0</title>
<path fill="none" stroke="gray" d="M217.95,-459.13C232.4,-449.07 250.66,-436.36 265.78,-425.84"/>
<polygon fill="gray" stroke="gray" points="266.23,-427.23 268.71,-423.8 264.63,-424.94 266.23,-427.23"/>
</g>
<!-- p0x6407fd76d320 -->
<g id="node9" class="node">
<title>p0x6407fd76d320</title>
<ellipse fill="lightgreen" stroke="green" cx="157" cy="-328" rx="18" ry="18"/>
<text text-anchor="middle" x="157" y="-322.95" font-family="Times,serif" font-size="14.00">5</text>
</g>
<!-- p0x6407fd76d3e0&#45;&gt;p0x6407fd76d320 -->
<g id="edge8" class="edge">
<title>p0x6407fd76d3e0&#45;&gt;p0x6407fd76d320</title>
<path fill="none" stroke="gray" d="M184.65,-386.22C179.34,-375.24 172.45,-360.97 166.87,-349.43"/>
<polygon fill="gray" stroke="gray" points="168.23,-349.02 165.23,-346.03 165.71,-350.24 168.23,-349.02"/>
</g>
<!-- p0x6407fd76d3a0 -->
<g id="node10" class="node">
<title>p0x6407fd76d3a0</title>
<ellipse fill="lightblue" stroke="blue" cx="226" cy="-328" rx="18" ry="18"/>
<ellipse fill="none" stroke="blue" cx="226" cy="-328" rx="22" ry="22"/>
<text text-anchor="middle" x="226" y="-322.95" font-family="Times,serif" font-size="14.00">x</text>
</g>
<!-- p0x6407fd76d3e0&#45;&gt;p0x6407fd76d3a0 -->
<g id="edge9" class="edge">
<title>p0x6407fd76d3e0&#45;&gt;p0x6407fd76d3a0</title>
<path fill="none" stroke="gray" d="M200.65,-386.22C204.98,-376.45 210.46,-364.09 215.21,-353.35"/>
<polygon fill="gray" stroke="gray" points="216.39,-354.16 216.73,-349.93 213.83,-353.02 216.39,-354.16"/>
</g>
<!-- p0x6407fd76d460 -->
<g id="node12" class="node">
<title>p0x6407fd76d460</title>
<ellipse fill="lightgreen" stroke="green" cx="295" cy="-328" rx="18" ry="18"/>
<text text-anchor="middle" x="295" y="-322.95" font-family="Times,serif" font-size="14.00">4</text>
</g>
<!-- p0x6407fd76d8e0&#45;&gt;p0x6407fd76d460 -->
<g id="edge11" class="edge">
<title>p0x6407fd76d8e0&#45;&gt;p0x6407fd76d460</title>
<path fill="none" stroke="gray" d="M295,-386.22C295,-375.95 295,-362.81 295,-351.71"/>
<polygon fill="gray" stroke="gray" points="296.4,-351.96 295,-347.96 293.6,-351.96 296.4,-351.96"/>
</g>
<!-- p0x6407fd76d8a0 -->
<g id="node13" class="node">
<title>p0x6407fd76d8a0</title>
<polygon fill="lightpink" stroke="purple" points="342,-310 342,-346 396,-346 396,-310 342,-310"/>
<text text-anchor="middle" x="369" y="-322.95" font-family="Times,serif" font-size="14.00">cos</text>
</g>
<!-- p0x6407fd76d8e0&#45;&gt;p0x6407fd76d8a0 -->
<g id="edge12" class="edge">
<title>p0x6407fd76d8e0&#45;&gt;p0x6407fd76d8a0</title>
<path fill="none" stroke="gray" d="M312.16,-386.22C322.83,-375.48 336.61,-361.61 347.94,-350.21"/>
<polygon fill="gray" stroke="gray" points="348.78,-351.34 350.61,-347.52 346.79,-349.37 348.78,-351.34"/>
</g>
<!-- p0x6407fd76d860 -->
<g id="node14" class="node">
<title>p0x6407fd76d860</title>
<polygon fill="lightpink" stroke="purple" points="342,-233.5 342,-269.5 396,-269.5 396,-233.5 342,-233.5"/>
<text text-anchor="middle" x="368.62" y="-246.45" font-family="Times,serif" font-size="14.00">+</text>
</g>
<!-- p0x6407fd76d8a0&#45;&gt;p0x6407fd76d860 -->
<g id="edge13" class="edge">
<title>p0x6407fd76d8a0&#45;&gt;p0x6407fd76d860</title>
<path fill="none" stroke="gray" d="M369,-309.72C369,-299.45 369,-286.31 369,-275.21"/>
<polygon fill="gray" stroke="gray" points="370.4,-275.46 369,-271.46 367.6,-275.46 370.4,-275.46"/>
</g>
<!-- p0x6407fd76d680 -->
<g id="node15" class="node">
<title>p0x6407fd76d680</title>
<polygon fill="lightpink" stroke="purple" points="301,-160.5 301,-196.5 355,-196.5 355,-160.5 301,-160.5"/>
<text text-anchor="middle" x="327.88" y="-173.45" font-family="Times,serif" font-size="14.00">^</text>
</g>
<!-- p0x6407fd76d860&#45;&gt;p0x6407fd76d680 -->
<g id="edge14" class="edge">
<title>p0x6407fd76d860&#45;&gt;p0x6407fd76d680</title>
<path fill="none" stroke="gray" d="M359.08,-233.31C353.48,-223.63 346.45,-211.45 340.49,-201.13"/>
<polygon fill="gray" stroke="gray" points="341.8,-200.6 338.59,-197.84 339.38,-202 341.8,-200.6"/>
</g>
<!-- p0x6407fd76d820 -->
<g id="node20" class="node">
<title>p0x6407fd76d820</title>
<polygon fill="lightpink" stroke="purple" points="384,-160.5 384,-196.5 438,-196.5 438,-160.5 384,-160.5"/>
<text text-anchor="middle" x="410.88" y="-173.45" font-family="Times,serif" font-size="14.00">^</text>
</g>
<!-- p0x6407fd76d860&#45;&gt;p0x6407fd76d820 -->
<g id="edge19" class="edge">
<title>p0x6407fd76d860&#45;&gt;p0x6407fd76d820</title>
<path fill="none" stroke="gray" d="M379.17,-233.31C384.89,-223.63 392.1,-211.45 398.21,-201.13"/>
<polygon fill="gray" stroke="gray" points="399.32,-201.99 400.16,-197.83 396.91,-200.56 399.32,-201.99"/>
</g>
<!-- p0x6407fd76d500 -->
<g id="node16" class="node">
<title>p0x6407fd76d500</title>
<ellipse fill="lightblue" stroke="blue" cx="252" cy="-102" rx="18" ry="18"/>
<ellipse fill="none" stroke="blue" cx="252" cy="-102" rx="22" ry="22"/>
<text text-anchor="middle" x="252" y="-96.95" font-family="Times,serif" font-size="14.00">x</text>
</g>
<!-- p0x6407fd76d680&#45;&gt;p0x6407fd76d500 -->
<g id="edge15" class="edge">
<title>p0x6407fd76d680&#45;&gt;p0x6407fd76d500</title>
<path fill="none" stroke="gray" d="M310.37,-160.22C298.71,-148.79 283.42,-133.8 271.41,-122.02"/>
<polygon fill="gray" stroke="gray" points="272.39,-121.03 268.55,-119.23 270.43,-123.03 272.39,-121.03"/>
</g>
<!-- p0x6407fd76d640 -->
<g id="node17" class="node">
<title>p0x6407fd76d640</title>
<polygon fill="lightpink" stroke="purple" points="303,-84 303,-120 357,-120 357,-84 303,-84"/>
<text text-anchor="middle" x="329.88" y="-96.95" font-family="Times,serif" font-size="14.00">/</text>
</g>
<!-- p0x6407fd76d680&#45;&gt;p0x6407fd76d640 -->
<g id="edge16" class="edge">
<title>p0x6407fd76d680&#45;&gt;p0x6407fd76d640</title>
<path fill="none" stroke="gray" d="M328.46,-160.22C328.74,-149.95 329.09,-136.81 329.39,-125.71"/>
<polygon fill="gray" stroke="gray" points="330.78,-125.99 329.49,-121.96 327.98,-125.92 330.78,-125.99"/>
</g>
<!-- p0x6407fd76d580 -->
<g id="node18" class="node">
<title>p0x6407fd76d580</title>
<ellipse fill="lightblue" stroke="blue" cx="295" cy="-22" rx="18" ry="18"/>
<ellipse fill="none" stroke="blue" cx="295" cy="-22" rx="22" ry="22"/>
<text text-anchor="middle" x="295" y="-16.95" font-family="Times,serif" font-size="14.00">x</text>
</g>
<!-- p0x6407fd76d640&#45;&gt;p0x6407fd76d580 -->
<g id="edge17" class="edge">
<title>p0x6407fd76d640&#45;&gt;p0x6407fd76d580</title>
<path fill="none" stroke="gray" d="M322.23,-83.69C317.44,-73.01 311.22,-59.14 305.93,-47.36"/>
<polygon fill="gray" stroke="gray" points="307.26,-46.91 304.35,-43.84 304.71,-48.06 307.26,-46.91"/>
</g>
<!-- p0x6407fd76d600 -->
<g id="node19" class="node">
<title>p0x6407fd76d600</title>
<ellipse fill="lightgreen" stroke="green" cx="365" cy="-22" rx="18.6" ry="18.6"/>
<text text-anchor="middle" x="365" y="-16.95" font-family="Times,serif" font-size="14.00">&#45;3</text>
</g>
<!-- p0x6407fd76d640&#45;&gt;p0x6407fd76d600 -->
<g id="edge18" class="edge">
<title>p0x6407fd76d640&#45;&gt;p0x6407fd76d600</title>
<path fill="none" stroke="gray" d="M337.77,-83.69C342.99,-72.04 349.92,-56.61 355.48,-44.22"/>
<polygon fill="gray" stroke="gray" points="356.63,-45.06 356.99,-40.84 354.08,-43.92 356.63,-45.06"/>
</g>
<!-- p0x6407fd76d700 -->
<g id="node21" class="node">
<title>p0x6407fd76d700</title>
<ellipse fill="lightblue" stroke="blue" cx="410" cy="-102" rx="18" ry="18"/>
<ellipse fill="none" stroke="blue" cx="410" cy="-102" rx="22" ry="22"/>
<text text-anchor="middle" x="410" y="-96.95" font-family="Times,serif" font-size="14.00">x</text>
</g>
<!-- p0x6407fd76d820&#45;&gt;p0x6407fd76d700 -->
<g id="edge20" class="edge">
<title>p0x6407fd76d820&#45;&gt;p0x6407fd76d700</title>
<path fill="none" stroke="gray" d="M410.77,-160.22C410.65,-151.23 410.5,-140.03 410.36,-129.93"/>
<polygon fill="gray" stroke="gray" points="411.76,-129.94 410.31,-125.96 408.96,-129.98 411.76,-129.94"/>
</g>
<!-- p0x6407fd76d7e0 -->
<g id="node22" class="node">
<title>p0x6407fd76d7e0</title>
<polygon fill="lightpink" stroke="purple" points="461,-84 461,-120 515,-120 515,-84 461,-84"/>
<text text-anchor="middle" x="487.75" y="-96.95" font-family="Times,serif" font-size="14.00">exp</text>
</g>
<!-- p0x6407fd76d820&#45;&gt;p0x6407fd76d7e0 -->
<g id="edge21" class="edge">
<title>p0x6407fd76d820&#45;&gt;p0x6407fd76d7e0</title>
<path fill="none" stroke="gray" d="M428.86,-160.22C439.96,-149.48 454.3,-135.61 466.08,-124.21"/>
<polygon fill="gray" stroke="gray" points="466.98,-125.28 468.88,-121.5 465.04,-123.27 466.98,-125.28"/>
</g>
<!-- p0x6407fd76d7a0 -->
<g id="node23" class="node">
<title>p0x6407fd76d7a0</title>
<ellipse fill="lightblue" stroke="blue" cx="488" cy="-22" rx="18" ry="18"/>
<ellipse fill="none" stroke="blue" cx="488" cy="-22" rx="22" ry="22"/>
<text text-anchor="middle" x="488" y="-16.95" font-family="Times,serif" font-size="14.00">x</text>
</g>
<!-- p0x6407fd76d7e0&#45;&gt;p0x6407fd76d7a0 -->
<g id="edge22" class="edge">
<title>p0x6407fd76d7e0&#45;&gt;p0x6407fd76d7a0</title>
<path fill="none" stroke="gray" d="M488,-83.69C488,-73.74 488,-61.02 488,-49.81"/>
<polygon fill="gray" stroke="gray" points="489.4,-49.95 488,-45.95 486.6,-49.95 489.4,-49.95"/>
</g>
</g>
</svg>
