<?xml version="1.0" encoding="UTF-8" standalone="no"?>
<!DOCTYPE svg PUBLIC "-//W3C//DTD SVG 1.1//EN"
 "http://www.w3.org/Graphics/SVG/1.1/DTD/svg11.dtd">
<!-- Generated by graphviz version 12.1.2 (0)
 -->
<!-- Title: diffTree Pages: 1 -->
<svg width="562pt" height="577pt"
 viewBox="0.00 0.00 562.00 577.00" xmlns="http://www.w3.org/2000/svg" xmlns:xlink="http://www.w3.org/1999/xlink">
<g id="graph0" class="graph" transform="scale(1 1) rotate(0) translate(4 573)">
<title>diffTree</title>
<polygon fill="white" stroke="none" points="-4,4 -4,-573 558,-573 558,4 -4,4"/>
<!-- p0x5f6919c210c0 -->
<g id="node1" class="node">
<title>p0x5f6919c210c0</title>
<polygon fill="lightpink" stroke="purple" points="152,-532.5 152,-568.5 206,-568.5 206,-532.5 152,-532.5"/>
<text text-anchor="middle" x="178.75" y="-545.45" font-family="Times,serif" font-size="14.00">&#45;</text>
</g>
<!-- p0x5f6919c20940 -->
<g id="node2" class="node">
<title>p0x5f6919c20940</title>
<polygon fill="lightpink" stroke="purple" points="83,-459.5 83,-495.5 137,-495.5 137,-459.5 83,-459.5"/>
<text text-anchor="middle" x="109.88" y="-472.45" font-family="Times,serif" font-size="14.00">*</text>
</g>
<!-- p0x5f6919c210c0&#45;&gt;p0x5f6919c20940 -->
<g id="edge1" class="edge">
<title>p0x5f6919c210c0&#45;&gt;p0x5f6919c20940</title>
<path fill="none" stroke="gray" d="M162.3,-532.31C152.64,-522.37 140.41,-509.79 130.21,-499.29"/>
<polygon fill="gray" stroke="gray" points="131.4,-498.51 127.6,-496.61 129.39,-500.46 131.4,-498.51"/>
</g>
<!-- p0x5f6919c21080 -->
<g id="node13" class="node">
<title>p0x5f6919c21080</title>
<polygon fill="lightpink" stroke="purple" points="194,-459.5 194,-495.5 248,-495.5 248,-459.5 194,-459.5"/>
<text text-anchor="middle" x="220.62" y="-472.45" font-family="Times,serif" font-size="14.00">+</text>
</g>
<!-- p0x5f6919c210c0&#45;&gt;p0x5f6919c21080 -->
<g id="edge12" class="edge">
<title>p0x5f6919c210c0&#45;&gt;p0x5f6919c21080</title>
<path fill="none" stroke="gray" d="M189.17,-532.31C194.89,-522.63 202.1,-510.45 208.21,-500.13"/>
<polygon fill="gray" stroke="gray" points="209.32,-500.99 210.16,-496.83 206.91,-499.56 209.32,-500.99"/>
</g>
<!-- p0x5f6919c20580 -->
<g id="node3" class="node">
<title>p0x5f6919c20580</title>
<ellipse fill="lightgreen" stroke="green" cx="36" cy="-404.5" rx="18" ry="18"/>
<text text-anchor="middle" x="36" y="-399.45" font-family="Times,serif" font-size="14.00">4</text>
</g>
<!-- p0x5f6919c20940&#45;&gt;p0x5f6919c20580 -->
<g id="edge2" class="edge">
<title>p0x5f6919c20940&#45;&gt;p0x5f6919c20580</title>
<path fill="none" stroke="gray" d="M92.09,-459.31C79.94,-447.66 64.02,-432.39 52.25,-421.09"/>
<polygon fill="gray" stroke="gray" points="53.37,-420.23 49.51,-418.47 51.43,-422.25 53.37,-420.23"/>
</g>
<!-- p0x5f6919c20900 -->
<g id="node4" class="node">
<title>p0x5f6919c20900</title>
<polygon fill="lightpink" stroke="purple" points="83,-386.5 83,-422.5 137,-422.5 137,-386.5 83,-386.5"/>
<text text-anchor="middle" x="109.88" y="-399.45" font-family="Times,serif" font-size="14.00">*</text>
</g>
<!-- p0x5f6919c20940&#45;&gt;p0x5f6919c20900 -->
<g id="edge3" class="edge">
<title>p0x5f6919c20940&#45;&gt;p0x5f6919c20900</title>
<path fill="none" stroke="gray" d="M110,-459.31C110,-449.89 110,-438.11 110,-427.97"/>
<polygon fill="gray" stroke="gray" points="111.4,-428.04 110,-424.04 108.6,-428.04 111.4,-428.04"/>
</g>
<!-- p0x5f6919c20660 -->
<g id="node5" class="node">
<title>p0x5f6919c20660</title>
<polygon fill="lightpink" stroke="purple" points="0,-313.5 0,-349.5 54,-349.5 54,-313.5 0,-313.5"/>
<text text-anchor="middle" x="26.62" y="-326.45" font-family="Times,serif" font-size="14.00">sqrt</text>
</g>
<!-- p0x5f6919c20900&#45;&gt;p0x5f6919c20660 -->
<g id="edge4" class="edge">
<title>p0x5f6919c20900&#45;&gt;p0x5f6919c20660</title>
<path fill="none" stroke="gray" d="M89.91,-386.31C78.27,-376.36 63.54,-363.76 51.26,-353.25"/>
<polygon fill="gray" stroke="gray" points="52.29,-352.3 48.34,-350.76 50.47,-354.42 52.29,-352.3"/>
</g>
<!-- p0x5f6919c208c0 -->
<g id="node7" class="node">
<title>p0x5f6919c208c0</title>
<polygon fill="lightpink" stroke="purple" points="83,-313.5 83,-349.5 137,-349.5 137,-313.5 83,-313.5"/>
<text text-anchor="middle" x="109.88" y="-326.45" font-family="Times,serif" font-size="14.00">*</text>
</g>
<!-- p0x5f6919c20900&#45;&gt;p0x5f6919c208c0 -->
<g id="edge6" class="edge">
<title>p0x5f6919c20900&#45;&gt;p0x5f6919c208c0</title>
<path fill="none" stroke="gray" d="M110,-386.31C110,-376.89 110,-365.11 110,-354.97"/>
<polygon fill="gray" stroke="gray" points="111.4,-355.04 110,-351.04 108.6,-355.04 111.4,-355.04"/>
</g>
<!-- p0x5f6919c20620 -->
<g id="node6" class="node">
<title>p0x5f6919c20620</title>
<ellipse fill="lightblue" stroke="blue" cx="27" cy="-255" rx="18" ry="18"/>
<ellipse fill="none" stroke="blue" cx="27" cy="-255" rx="22" ry="22"/>
<text text-anchor="middle" x="27" y="-249.95" font-family="Times,serif" font-size="14.00">x</text>
</g>
<!-- p0x5f6919c20660&#45;&gt;p0x5f6919c20620 -->
<g id="edge5" class="edge">
<title>p0x5f6919c20660&#45;&gt;p0x5f6919c20620</title>
<path fill="none" stroke="gray" d="M27,-313.22C27,-304.23 27,-293.03 27,-282.93"/>
<polygon fill="gray" stroke="gray" points="28.4,-282.96 27,-278.96 25.6,-282.96 28.4,-282.96"/>
</g>
<!-- p0x5f6919c20800 -->
<g id="node8" class="node">
<title>p0x5f6919c20800</title>
<polygon fill="lightpink" stroke="purple" points="79,-237 79,-273 133,-273 133,-237 79,-237"/>
<text text-anchor="middle" x="105.88" y="-249.95" font-family="Times,serif" font-size="14.00">^</text>
</g>
<!-- p0x5f6919c208c0&#45;&gt;p0x5f6919c20800 -->
<g id="edge7" class="edge">
<title>p0x5f6919c208c0&#45;&gt;p0x5f6919c20800</title>
<path fill="none" stroke="gray" d="M109.07,-313.22C108.52,-302.95 107.82,-289.81 107.22,-278.71"/>
<polygon fill="gray" stroke="gray" points="108.63,-278.87 107.02,-274.95 105.83,-279.02 108.63,-278.87"/>
</g>
<!-- p0x5f6919c20880 -->
<g id="node12" class="node">
<title>p0x5f6919c20880</title>
<ellipse fill="lightgreen" stroke="green" cx="180" cy="-255" rx="18" ry="18"/>
<text text-anchor="middle" x="180" y="-249.95" font-family="Times,serif" font-size="14.00">4</text>
</g>
<!-- p0x5f6919c208c0&#45;&gt;p0x5f6919c20880 -->
<g id="edge11" class="edge">
<title>p0x5f6919c208c0&#45;&gt;p0x5f6919c20880</title>
<path fill="none" stroke="gray" d="M126.24,-313.22C137.7,-301.02 152.98,-284.75 164.32,-272.68"/>
<polygon fill="gray" stroke="gray" points="165.25,-273.74 166.97,-269.87 163.21,-271.82 165.25,-273.74"/>
</g>
<!-- p0x5f6919c20740 -->
<g id="node9" class="node">
<title>p0x5f6919c20740</title>
<polygon fill="lightpink" stroke="purple" points="42,-160.5 42,-196.5 96,-196.5 96,-160.5 42,-160.5"/>
<text text-anchor="middle" x="68.75" y="-173.45" font-family="Times,serif" font-size="14.00">ln</text>
</g>
<!-- p0x5f6919c20800&#45;&gt;p0x5f6919c20740 -->
<g id="edge8" class="edge">
<title>p0x5f6919c20800&#45;&gt;p0x5f6919c20740</title>
<path fill="none" stroke="gray" d="M97.42,-236.72C92.23,-226.26 85.55,-212.83 79.98,-201.6"/>
<polygon fill="gray" stroke="gray" points="81.37,-201.26 78.34,-198.3 78.86,-202.5 81.37,-201.26"/>
</g>
<!-- p0x5f6919c207c0 -->
<g id="node11" class="node">
<title>p0x5f6919c207c0</title>
<ellipse fill="lightgreen" stroke="green" cx="143" cy="-178.5" rx="18" ry="18"/>
<text text-anchor="middle" x="143" y="-173.45" font-family="Times,serif" font-size="14.00">5</text>
</g>
<!-- p0x5f6919c20800&#45;&gt;p0x5f6919c207c0 -->
<g id="edge10" class="edge">
<title>p0x5f6919c20800&#45;&gt;p0x5f6919c207c0</title>
<path fill="none" stroke="gray" d="M114.58,-236.72C120.04,-225.74 127.12,-211.47 132.86,-199.93"/>
<polygon fill="gray" stroke="gray" points="134.02,-200.72 134.55,-196.52 131.51,-199.48 134.02,-200.72"/>
</g>
<!-- p0x5f6919c20700 -->
<g id="node10" class="node">
<title>p0x5f6919c20700</title>
<ellipse fill="lightblue" stroke="blue" cx="69" cy="-102" rx="18" ry="18"/>
<ellipse fill="none" stroke="blue" cx="69" cy="-102" rx="22" ry="22"/>
<text text-anchor="middle" x="69" y="-96.95" font-family="Times,serif" font-size="14.00">x</text>
</g>
<!-- p0x5f6919c20740&#45;&gt;p0x5f6919c20700 -->
<g id="edge9" class="edge">
<title>p0x5f6919c20740&#45;&gt;p0x5f6919c20700</title>
<path fill="none" stroke="gray" d="M69,-160.22C69,-151.23 69,-140.03 69,-129.93"/>
<polygon fill="gray" stroke="gray" points="70.4,-129.96 69,-125.96 67.6,-129.96 70.4,-129.96"/>
</g>
<!-- p0x5f6919c20c00 -->
<g id="node14" class="node">
<title>p0x5f6919c20c00</title>
<polygon fill="lightpink" stroke="purple" points="194,-386.5 194,-422.5 248,-422.5 248,-386.5 194,-386.5"/>
<text text-anchor="middle" x="220.88" y="-399.45" font-family="Times,serif" font-size="14.00">*</text>
</g>
<!-- p0x5f6919c21080&#45;&gt;p0x5f6919c20c00 -->
<g id="edge13" class="edge">
<title>p0x5f6919c21080&#45;&gt;p0x5f6919c20c00</title>
<path fill="none" stroke="gray" d="M221,-459.31C221,-449.89 221,-438.11 221,-427.97"/>
<polygon fill="gray" stroke="gray" points="222.4,-428.04 221,-424.04 219.6,-428.04 222.4,-428.04"/>
</g>
<!-- p0x5f6919c21040 -->
<g id="node21" class="node">
<title>p0x5f6919c21040</title>
<polygon fill="lightpink" stroke="purple" points="305,-386.5 305,-422.5 359,-422.5 359,-386.5 305,-386.5"/>
<text text-anchor="middle" x="331.88" y="-399.45" font-family="Times,serif" font-size="14.00">*</text>
</g>
<!-- p0x5f6919c21080&#45;&gt;p0x5f6919c21040 -->
<g id="edge20" class="edge">
<title>p0x5f6919c21080&#45;&gt;p0x5f6919c21040</title>
<path fill="none" stroke="gray" d="M248.15,-459.13C263.88,-449.07 283.75,-436.36 300.2,-425.84"/>
<polygon fill="gray" stroke="gray" points="300.85,-427.09 303.47,-423.75 299.34,-424.73 300.85,-427.09"/>
</g>
<!-- p0x5f6919c209c0 -->
<g id="node15" class="node">
<title>p0x5f6919c209c0</title>
<ellipse fill="lightgreen" stroke="green" cx="184" cy="-331.5" rx="18" ry="18"/>
<text text-anchor="middle" x="184" y="-326.45" font-family="Times,serif" font-size="14.00">5</text>
</g>
<!-- p0x5f6919c20c00&#45;&gt;p0x5f6919c209c0 -->
<g id="edge14" class="edge">
<title>p0x5f6919c20c00&#45;&gt;p0x5f6919c209c0</title>
<path fill="none" stroke="gray" d="M212.04,-386.31C206.78,-376.21 200.09,-363.37 194.56,-352.77"/>
<polygon fill="gray" stroke="gray" points="195.91,-352.32 192.82,-349.42 193.42,-353.61 195.91,-352.32"/>
</g>
<!-- p0x5f6919c20bc0 -->
<g id="node16" class="node">
<title>p0x5f6919c20bc0</title>
<polygon fill="lightpink" stroke="purple" points="231,-313.5 231,-349.5 285,-349.5 285,-313.5 231,-313.5"/>
<text text-anchor="middle" x="257.88" y="-326.45" font-family="Times,serif" font-size="14.00">*</text>
</g>
<!-- p0x5f6919c20c00&#45;&gt;p0x5f6919c20bc0 -->
<g id="edge15" class="edge">
<title>p0x5f6919c20c00&#45;&gt;p0x5f6919c20bc0</title>
<path fill="none" stroke="gray" d="M229.96,-386.31C234.96,-376.72 241.24,-364.67 246.58,-354.41"/>
<polygon fill="gray" stroke="gray" points="247.82,-355.07 248.43,-350.87 245.34,-353.77 247.82,-355.07"/>
</g>
<!-- p0x5f6919c20a40 -->
<g id="node17" class="node">
<title>p0x5f6919c20a40</title>
<ellipse fill="lightblue" stroke="blue" cx="249" cy="-255" rx="18" ry="18"/>
<ellipse fill="none" stroke="blue" cx="249" cy="-255" rx="22" ry="22"/>
<text text-anchor="middle" x="249" y="-249.95" font-family="Times,serif" font-size="14.00">x</text>
</g>
<!-- p0x5f6919c20bc0&#45;&gt;p0x5f6919c20a40 -->
<g id="edge16" class="edge">
<title>p0x5f6919c20bc0&#45;&gt;p0x5f6919c20a40</title>
<path fill="none" stroke="gray" d="M255.91,-313.22C254.81,-304.07 253.43,-292.64 252.19,-282.4"/>
<polygon fill="gray" stroke="gray" points="253.61,-282.48 251.74,-278.68 250.83,-282.82 253.61,-282.48"/>
</g>
<!-- p0x5f6919c20b80 -->
<g id="node18" class="node">
<title>p0x5f6919c20b80</title>
<polygon fill="lightpink" stroke="purple" points="300,-237 300,-273 354,-273 354,-237 300,-237"/>
<text text-anchor="middle" x="327" y="-249.95" font-family="Times,serif" font-size="14.00">cos</text>
</g>
<!-- p0x5f6919c20bc0&#45;&gt;p0x5f6919c20b80 -->
<g id="edge17" class="edge">
<title>p0x5f6919c20bc0&#45;&gt;p0x5f6919c20b80</title>
<path fill="none" stroke="gray" d="M274,-313.22C283.95,-302.48 296.8,-288.61 307.36,-277.21"/>
<polygon fill="gray" stroke="gray" points="308.12,-278.44 309.82,-274.55 306.07,-276.54 308.12,-278.44"/>
</g>
<!-- p0x5f6919c20b40 -->
<g id="node19" class="node">
<title>p0x5f6919c20b40</title>
<polygon fill="lightpink" stroke="purple" points="300,-160.5 300,-196.5 354,-196.5 354,-160.5 300,-160.5"/>
<text text-anchor="middle" x="326.88" y="-173.45" font-family="Times,serif" font-size="14.00">sin</text>
</g>
<!-- p0x5f6919c20b80&#45;&gt;p0x5f6919c20b40 -->
<g id="edge18" class="edge">
<title>p0x5f6919c20b80&#45;&gt;p0x5f6919c20b40</title>
<path fill="none" stroke="gray" d="M327,-236.72C327,-226.45 327,-213.31 327,-202.21"/>
<polygon fill="gray" stroke="gray" points="328.4,-202.46 327,-198.46 325.6,-202.46 328.4,-202.46"/>
</g>
<!-- p0x5f6919c20b00 -->
<g id="node20" class="node">
<title>p0x5f6919c20b00</title>
<ellipse fill="lightblue" stroke="blue" cx="327" cy="-102" rx="18" ry="18"/>
<ellipse fill="none" stroke="blue" cx="327" cy="-102" rx="22" ry="22"/>
<text text-anchor="middle" x="327" y="-96.95" font-family="Times,serif" font-size="14.00">x</text>
</g>
<!-- p0x5f6919c20b40&#45;&gt;p0x5f6919c20b00 -->
<g id="edge19" class="edge">
<title>p0x5f6919c20b40&#45;&gt;p0x5f6919c20b00</title>
<path fill="none" stroke="gray" d="M327,-160.22C327,-151.23 327,-140.03 327,-129.93"/>
<polygon fill="gray" stroke="gray" points="328.4,-129.96 327,-125.96 325.6,-129.96 328.4,-129.96"/>
</g>
<!-- p0x5f6919c20c80 -->
<g id="node22" class="node">
<title>p0x5f6919c20c80</title>
<ellipse fill="lightgreen" stroke="green" cx="332" cy="-331.5" rx="18" ry="18"/>
<text text-anchor="middle" x="332" y="-326.45" font-family="Times,serif" font-size="14.00">5</text>
</g>
<!-- p0x5f6919c21040&#45;&gt;p0x5f6919c20c80 -->
<g id="edge21" class="edge">
<title>p0x5f6919c21040&#45;&gt;p0x5f6919c20c80</title>
<path fill="none" stroke="gray" d="M332,-386.31C332,-376.89 332,-365.11 332,-354.97"/>
<polygon fill="gray" stroke="gray" points="333.4,-355.04 332,-351.04 330.6,-355.04 333.4,-355.04"/>
</g>
<!-- p0x5f6919c21000 -->
<g id="node23" class="node">
<title>p0x5f6919c21000</title>
<polygon fill="lightpink" stroke="purple" points="379,-313.5 379,-349.5 433,-349.5 433,-313.5 379,-313.5"/>
<text text-anchor="middle" x="405.88" y="-326.45" font-family="Times,serif" font-size="14.00">/</text>
</g>
<!-- p0x5f6919c21040&#45;&gt;p0x5f6919c21000 -->
<g id="edge22" class="edge">
<title>p0x5f6919c21040&#45;&gt;p0x5f6919c21000</title>
<path fill="none" stroke="gray" d="M349.91,-386.31C360.2,-376.44 373.2,-363.97 384.09,-353.52"/>
<polygon fill="gray" stroke="gray" points="384.99,-354.6 386.9,-350.82 383.05,-352.58 384.99,-354.6"/>
</g>
<!-- p0x5f6919c20d00 -->
<g id="node24" class="node">
<title>p0x5f6919c20d00</title>
<ellipse fill="lightblue" stroke="blue" cx="405" cy="-255" rx="18" ry="18"/>
<ellipse fill="none" stroke="blue" cx="405" cy="-255" rx="22" ry="22"/>
<text text-anchor="middle" x="405" y="-249.95" font-family="Times,serif" font-size="14.00">x</text>
</g>
<!-- p0x5f6919c21000&#45;&gt;p0x5f6919c20d00 -->
<g id="edge23" class="edge">
<title>p0x5f6919c21000&#45;&gt;p0x5f6919c20d00</title>
<path fill="none" stroke="gray" d="M405.77,-313.22C405.65,-304.23 405.5,-293.03 405.36,-282.93"/>
<polygon fill="gray" stroke="gray" points="406.76,-282.94 405.31,-278.96 403.96,-282.98 406.76,-282.94"/>
</g>
<!-- p0x5f6919c20fc0 -->
<g id="node25" class="node">
<title>p0x5f6919c20fc0</title>
<polygon fill="lightpink" stroke="purple" points="456,-237 456,-273 510,-273 510,-237 456,-237"/>
<text text-anchor="middle" x="482.88" y="-249.95" font-family="Times,serif" font-size="14.00">/</text>
</g>
<!-- p0x5f6919c21000&#45;&gt;p0x5f6919c20fc0 -->
<g id="edge24" class="edge">
<title>p0x5f6919c21000&#45;&gt;p0x5f6919c20fc0</title>
<path fill="none" stroke="gray" d="M423.86,-313.22C434.96,-302.48 449.3,-288.61 461.08,-277.21"/>
<polygon fill="gray" stroke="gray" points="461.98,-278.28 463.88,-274.5 460.04,-276.27 461.98,-278.28"/>
</g>
<!-- p0x5f6919c20d80 -->
<g id="node26" class="node">
<title>p0x5f6919c20d80</title>
<ellipse fill="lightgreen" stroke="green" cx="431" cy="-178.5" rx="18" ry="18"/>
<text text-anchor="middle" x="431" y="-173.45" font-family="Times,serif" font-size="14.00">4</text>
</g>
<!-- p0x5f6919c20fc0&#45;&gt;p0x5f6919c20d80 -->
<g id="edge25" class="edge">
<title>p0x5f6919c20fc0&#45;&gt;p0x5f6919c20d80</title>
<path fill="none" stroke="gray" d="M470.94,-236.72C462.89,-225.18 452.3,-210.02 444.05,-198.2"/>
<polygon fill="gray" stroke="gray" points="445.21,-197.41 441.77,-194.93 442.91,-199.01 445.21,-197.41"/>
</g>
<!-- p0x5f6919c20f80 -->
<g id="node27" class="node">
<title>p0x5f6919c20f80</title>
<polygon fill="lightpink" stroke="purple" points="478,-160.5 478,-196.5 532,-196.5 532,-160.5 478,-160.5"/>
<text text-anchor="middle" x="504.88" y="-173.45" font-family="Times,serif" font-size="14.00">^</text>
</g>
<!-- p0x5f6919c20fc0&#45;&gt;p0x5f6919c20f80 -->
<g id="edge26" class="edge">
<title>p0x5f6919c20fc0&#45;&gt;p0x5f6919c20f80</title>
<path fill="none" stroke="gray" d="M488.1,-236.72C491.14,-226.45 495.02,-213.31 498.29,-202.21"/>
<polygon fill="gray" stroke="gray" points="499.63,-202.63 499.42,-198.39 496.94,-201.83 499.63,-202.63"/>
</g>
<!-- p0x5f6919c20e60 -->
<g id="node28" class="node">
<title>p0x5f6919c20e60</title>
<polygon fill="lightpink" stroke="purple" points="417,-84 417,-120 471,-120 471,-84 417,-84"/>
<text text-anchor="middle" x="443.88" y="-96.95" font-family="Times,serif" font-size="14.00">sin</text>
</g>
<!-- p0x5f6919c20f80&#45;&gt;p0x5f6919c20e60 -->
<g id="edge27" class="edge">
<title>p0x5f6919c20f80&#45;&gt;p0x5f6919c20e60</title>
<path fill="none" stroke="gray" d="M490.85,-160.22C482.14,-149.58 470.9,-135.85 461.61,-124.5"/>
<polygon fill="gray" stroke="gray" points="462.86,-123.82 459.24,-121.61 460.69,-125.6 462.86,-123.82"/>
</g>
<!-- p0x5f6919c20f40 -->
<g id="node30" class="node">
<title>p0x5f6919c20f40</title>
<polygon fill="lightpink" stroke="purple" points="500,-84 500,-120 554,-120 554,-84 500,-84"/>
<text text-anchor="middle" x="526.75" y="-96.95" font-family="Times,serif" font-size="14.00">exp</text>
</g>
<!-- p0x5f6919c20f80&#45;&gt;p0x5f6919c20f40 -->
<g id="edge29" class="edge">
<title>p0x5f6919c20f80&#45;&gt;p0x5f6919c20f40</title>
<path fill="none" stroke="gray" d="M510.1,-160.22C513.14,-149.95 517.02,-136.81 520.29,-125.71"/>
<polygon fill="gray" stroke="gray" points="521.63,-126.13 521.42,-121.89 518.94,-125.33 521.63,-126.13"/>
</g>
<!-- p0x5f6919c20e20 -->
<g id="node29" class="node">
<title>p0x5f6919c20e20</title>
<ellipse fill="lightblue" stroke="blue" cx="444" cy="-22" rx="18" ry="18"/>
<ellipse fill="none" stroke="blue" cx="444" cy="-22" rx="22" ry="22"/>
<text text-anchor="middle" x="444" y="-16.95" font-family="Times,serif" font-size="14.00">x</text>
</g>
<!-- p0x5f6919c20e60&#45;&gt;p0x5f6919c20e20 -->
<g id="edge28" class="edge">
<title>p0x5f6919c20e60&#45;&gt;p0x5f6919c20e20</title>
<path fill="none" stroke="gray" d="M444,-83.69C444,-73.74 444,-61.02 444,-49.81"/>
<polygon fill="gray" stroke="gray" points="445.4,-49.95 444,-45.95 442.6,-49.95 445.4,-49.95"/>
</g>
<!-- p0x5f6919c20f00 -->
<g id="node31" class="node">
<title>p0x5f6919c20f00</title>
<ellipse fill="lightgreen" stroke="green" cx="527" cy="-22" rx="18" ry="18"/>
<text text-anchor="middle" x="527" y="-16.95" font-family="Times,serif" font-size="14.00">3</text>
</g>
<!-- p0x5f6919c20f40&#45;&gt;p0x5f6919c20f00 -->
<g id="edge30" class="edge">
<title>p0x5f6919c20f40&#45;&gt;p0x5f6919c20f00</title>
<path fill="none" stroke="gray" d="M527,-83.69C527,-72.48 527,-57.77 527,-45.63"/>
<polygon fill="gray" stroke="gray" points="528.4,-45.78 527,-41.78 525.6,-45.78 528.4,-45.78"/>
</g>
</g>
</svg>
