<?xml version="1.0" encoding="UTF-8" standalone="no"?>
<!DOCTYPE svg PUBLIC "-//W3C//DTD SVG 1.1//EN"
 "http://www.w3.org/Graphics/SVG/1.1/DTD/svg11.dtd">
<!-- Generated by graphviz version 12.1.2 (0)
 -->
<!-- Title: diffTree Pages: 1 -->
<svg width="797pt" height="584pt"
 viewBox="0.00 0.00 797.00 584.00" xmlns="http://www.w3.org/2000/svg" xmlns:xlink="http://www.w3.org/1999/xlink">
<g id="graph0" class="graph" transform="scale(1 1) rotate(0) translate(4 580)">
<title>diffTree</title>
<polygon fill="white" stroke="none" points="-4,4 -4,-580 793,-580 793,4 -4,4"/>
<!-- p0x5ec1b051e530 -->
<g id="node1" class="node">
<title>p0x5ec1b051e530</title>
<polygon fill="lightpink" stroke="purple" points="422,-539.5 422,-575.5 476,-575.5 476,-539.5 422,-539.5"/>
<text text-anchor="middle" x="448.88" y="-552.45" font-family="Times,serif" font-size="14.00">*</text>
</g>
<!-- p0x5ec1b051e040 -->
<g id="node2" class="node">
<title>p0x5ec1b051e040</title>
<polygon fill="lightpink" stroke="purple" points="381,-466.5 381,-502.5 435,-502.5 435,-466.5 381,-466.5"/>
<text text-anchor="middle" x="407.62" y="-479.45" font-family="Times,serif" font-size="14.00">+</text>
</g>
<!-- p0x5ec1b051e530&#45;&gt;p0x5ec1b051e040 -->
<g id="edge1" class="edge">
<title>p0x5ec1b051e530&#45;&gt;p0x5ec1b051e040</title>
<path fill="none" stroke="gray" d="M439.08,-539.31C433.48,-529.63 426.45,-517.45 420.49,-507.13"/>
<polygon fill="gray" stroke="gray" points="421.8,-506.6 418.59,-503.84 419.38,-508 421.8,-506.6"/>
</g>
<!-- p0x5ec1b051e4f0 -->
<g id="node26" class="node">
<title>p0x5ec1b051e4f0</title>
<polygon fill="lightpink" stroke="purple" points="531,-466.5 531,-502.5 585,-502.5 585,-466.5 531,-466.5"/>
<text text-anchor="middle" x="558" y="-479.45" font-family="Times,serif" font-size="14.00">cos</text>
</g>
<!-- p0x5ec1b051e530&#45;&gt;p0x5ec1b051e4f0 -->
<g id="edge25" class="edge">
<title>p0x5ec1b051e530&#45;&gt;p0x5ec1b051e4f0</title>
<path fill="none" stroke="gray" d="M475.66,-539.13C491.1,-529.07 510.62,-516.36 526.77,-505.84"/>
<polygon fill="gray" stroke="gray" points="527.38,-507.12 529.96,-503.76 525.85,-504.77 527.38,-507.12"/>
</g>
<!-- p0x5ec1b051d520 -->
<g id="node3" class="node">
<title>p0x5ec1b051d520</title>
<polygon fill="lightpink" stroke="purple" points="169,-393.5 169,-429.5 223,-429.5 223,-393.5 169,-393.5"/>
<text text-anchor="middle" x="195.62" y="-406.45" font-family="Times,serif" font-size="14.00">+</text>
</g>
<!-- p0x5ec1b051e040&#45;&gt;p0x5ec1b051d520 -->
<g id="edge2" class="edge">
<title>p0x5ec1b051e040&#45;&gt;p0x5ec1b051d520</title>
<path fill="none" stroke="gray" d="M380.72,-474.36C341.68,-461.29 270.01,-437.29 228.35,-423.34"/>
<polygon fill="gray" stroke="gray" points="228.85,-422.03 224.61,-422.08 227.96,-424.68 228.85,-422.03"/>
</g>
<!-- p0x5ec1b051dd90 -->
<g id="node10" class="node">
<title>p0x5ec1b051dd90</title>
<polygon fill="lightpink" stroke="purple" points="381,-393.5 381,-429.5 435,-429.5 435,-393.5 381,-393.5"/>
<text text-anchor="middle" x="407.88" y="-406.45" font-family="Times,serif" font-size="14.00">/</text>
</g>
<!-- p0x5ec1b051e040&#45;&gt;p0x5ec1b051dd90 -->
<g id="edge9" class="edge">
<title>p0x5ec1b051e040&#45;&gt;p0x5ec1b051dd90</title>
<path fill="none" stroke="gray" d="M408,-466.31C408,-456.89 408,-445.11 408,-434.97"/>
<polygon fill="gray" stroke="gray" points="409.4,-435.04 408,-431.04 406.6,-435.04 409.4,-435.04"/>
</g>
<!-- p0x5ec1b051d420 -->
<g id="node4" class="node">
<title>p0x5ec1b051d420</title>
<polygon fill="lightpink" stroke="purple" points="60,-320.5 60,-356.5 114,-356.5 114,-320.5 60,-320.5"/>
<text text-anchor="middle" x="86.88" y="-333.45" font-family="Times,serif" font-size="14.00">*</text>
</g>
<!-- p0x5ec1b051d520&#45;&gt;p0x5ec1b051d420 -->
<g id="edge3" class="edge">
<title>p0x5ec1b051d520&#45;&gt;p0x5ec1b051d420</title>
<path fill="none" stroke="gray" d="M169.34,-393.13C153.9,-383.07 134.38,-370.36 118.23,-359.84"/>
<polygon fill="gray" stroke="gray" points="119.15,-358.77 115.04,-357.76 117.62,-361.12 119.15,-358.77"/>
</g>
<!-- p0x5ec1b051d4e0 -->
<g id="node7" class="node">
<title>p0x5ec1b051d4e0</title>
<polygon fill="lightpink" stroke="purple" points="169,-320.5 169,-356.5 223,-356.5 223,-320.5 169,-320.5"/>
<text text-anchor="middle" x="195.88" y="-333.45" font-family="Times,serif" font-size="14.00">*</text>
</g>
<!-- p0x5ec1b051d520&#45;&gt;p0x5ec1b051d4e0 -->
<g id="edge6" class="edge">
<title>p0x5ec1b051d520&#45;&gt;p0x5ec1b051d4e0</title>
<path fill="none" stroke="gray" d="M196,-393.31C196,-383.89 196,-372.11 196,-361.97"/>
<polygon fill="gray" stroke="gray" points="197.4,-362.04 196,-358.04 194.6,-362.04 197.4,-362.04"/>
</g>
<!-- p0x5ec1b051d3a0 -->
<g id="node5" class="node">
<title>p0x5ec1b051d3a0</title>
<ellipse fill="lightgreen" stroke="green" cx="18" cy="-262" rx="18" ry="18"/>
<text text-anchor="middle" x="18" y="-256.95" font-family="Times,serif" font-size="14.00">0</text>
</g>
<!-- p0x5ec1b051d420&#45;&gt;p0x5ec1b051d3a0 -->
<g id="edge4" class="edge">
<title>p0x5ec1b051d420&#45;&gt;p0x5ec1b051d3a0</title>
<path fill="none" stroke="gray" d="M71,-320.22C59.69,-308.02 44.63,-291.75 33.45,-279.68"/>
<polygon fill="gray" stroke="gray" points="34.6,-278.86 30.85,-276.88 32.54,-280.76 34.6,-278.86"/>
</g>
<!-- p0x5ec1b051d3e0 -->
<g id="node6" class="node">
<title>p0x5ec1b051d3e0</title>
<ellipse fill="lightblue" stroke="blue" cx="87" cy="-262" rx="18" ry="18"/>
<ellipse fill="none" stroke="blue" cx="87" cy="-262" rx="22" ry="22"/>
<text text-anchor="middle" x="87" y="-256.95" font-family="Times,serif" font-size="14.00">x</text>
</g>
<!-- p0x5ec1b051d420&#45;&gt;p0x5ec1b051d3e0 -->
<g id="edge5" class="edge">
<title>p0x5ec1b051d420&#45;&gt;p0x5ec1b051d3e0</title>
<path fill="none" stroke="gray" d="M87,-320.22C87,-311.23 87,-300.03 87,-289.93"/>
<polygon fill="gray" stroke="gray" points="88.4,-289.96 87,-285.96 85.6,-289.96 88.4,-289.96"/>
</g>
<!-- p0x5ec1b051d460 -->
<g id="node8" class="node">
<title>p0x5ec1b051d460</title>
<ellipse fill="lightgreen" stroke="green" cx="156" cy="-262" rx="18" ry="18"/>
<text text-anchor="middle" x="156" y="-256.95" font-family="Times,serif" font-size="14.00">9</text>
</g>
<!-- p0x5ec1b051d4e0&#45;&gt;p0x5ec1b051d460 -->
<g id="edge7" class="edge">
<title>p0x5ec1b051d4e0&#45;&gt;p0x5ec1b051d460</title>
<path fill="none" stroke="gray" d="M186.72,-320.22C180.75,-309.09 172.95,-294.58 166.71,-282.95"/>
<polygon fill="gray" stroke="gray" points="167.98,-282.36 164.86,-279.5 165.52,-283.69 167.98,-282.36"/>
</g>
<!-- p0x5ec1b051d4a0 -->
<g id="node9" class="node">
<title>p0x5ec1b051d4a0</title>
<ellipse fill="lightgreen" stroke="green" cx="221" cy="-262" rx="18" ry="18"/>
<text text-anchor="middle" x="221" y="-256.95" font-family="Times,serif" font-size="14.00">1</text>
</g>
<!-- p0x5ec1b051d4e0&#45;&gt;p0x5ec1b051d4a0 -->
<g id="edge8" class="edge">
<title>p0x5ec1b051d4e0&#45;&gt;p0x5ec1b051d4a0</title>
<path fill="none" stroke="gray" d="M201.8,-320.22C205.38,-309.56 209.99,-295.8 213.8,-284.45"/>
<polygon fill="gray" stroke="gray" points="215.06,-285.09 215.01,-280.85 212.41,-284.2 215.06,-285.09"/>
</g>
<!-- p0x5ec1b051da20 -->
<g id="node11" class="node">
<title>p0x5ec1b051da20</title>
<polygon fill="lightpink" stroke="purple" points="348,-320.5 348,-356.5 402,-356.5 402,-320.5 348,-320.5"/>
<text text-anchor="middle" x="374.88" y="-333.45" font-family="Times,serif" font-size="14.00">*</text>
</g>
<!-- p0x5ec1b051dd90&#45;&gt;p0x5ec1b051da20 -->
<g id="edge10" class="edge">
<title>p0x5ec1b051dd90&#45;&gt;p0x5ec1b051da20</title>
<path fill="none" stroke="gray" d="M400.01,-393.31C395.55,-383.72 389.95,-371.67 385.18,-361.41"/>
<polygon fill="gray" stroke="gray" points="386.51,-360.94 383.55,-357.9 383.97,-362.12 386.51,-360.94"/>
</g>
<!-- p0x5ec1b051dcd0 -->
<g id="node23" class="node">
<title>p0x5ec1b051dcd0</title>
<polygon fill="lightpink" stroke="purple" points="431,-320.5 431,-356.5 485,-356.5 485,-320.5 431,-320.5"/>
<text text-anchor="middle" x="457.88" y="-333.45" font-family="Times,serif" font-size="14.00">^</text>
</g>
<!-- p0x5ec1b051dd90&#45;&gt;p0x5ec1b051dcd0 -->
<g id="edge22" class="edge">
<title>p0x5ec1b051dd90&#45;&gt;p0x5ec1b051dcd0</title>
<path fill="none" stroke="gray" d="M420.1,-393.31C426.98,-383.55 435.65,-371.23 442.97,-360.85"/>
<polygon fill="gray" stroke="gray" points="443.98,-361.84 445.14,-357.77 441.69,-360.23 443.98,-361.84"/>
</g>
<!-- p0x5ec1b051d7e0 -->
<g id="node12" class="node">
<title>p0x5ec1b051d7e0</title>
<polygon fill="lightpink" stroke="purple" points="268,-244 268,-280 322,-280 322,-244 268,-244"/>
<text text-anchor="middle" x="294.88" y="-256.95" font-family="Times,serif" font-size="14.00">^</text>
</g>
<!-- p0x5ec1b051da20&#45;&gt;p0x5ec1b051d7e0 -->
<g id="edge11" class="edge">
<title>p0x5ec1b051da20&#45;&gt;p0x5ec1b051d7e0</title>
<path fill="none" stroke="gray" d="M356.45,-320.22C344.82,-309.39 329.75,-295.36 317.45,-283.91"/>
<polygon fill="gray" stroke="gray" points="318.72,-283.18 314.84,-281.47 316.81,-285.23 318.72,-283.18"/>
</g>
<!-- p0x5ec1b051d9e0 -->
<g id="node15" class="node">
<title>p0x5ec1b051d9e0</title>
<polygon fill="lightpink" stroke="purple" points="351,-244 351,-280 405,-280 405,-244 351,-244"/>
<text text-anchor="middle" x="377.62" y="-256.95" font-family="Times,serif" font-size="14.00">+</text>
</g>
<!-- p0x5ec1b051da20&#45;&gt;p0x5ec1b051d9e0 -->
<g id="edge14" class="edge">
<title>p0x5ec1b051da20&#45;&gt;p0x5ec1b051d9e0</title>
<path fill="none" stroke="gray" d="M375.7,-320.22C376.11,-309.95 376.64,-296.81 377.09,-285.71"/>
<polygon fill="gray" stroke="gray" points="378.47,-286.01 377.24,-281.96 375.68,-285.9 378.47,-286.01"/>
</g>
<!-- p0x5ec1b051d760 -->
<g id="node13" class="node">
<title>p0x5ec1b051d760</title>
<ellipse fill="lightblue" stroke="blue" cx="228" cy="-182" rx="18" ry="18"/>
<ellipse fill="none" stroke="blue" cx="228" cy="-182" rx="22" ry="22"/>
<text text-anchor="middle" x="228" y="-176.95" font-family="Times,serif" font-size="14.00">x</text>
</g>
<!-- p0x5ec1b051d7e0&#45;&gt;p0x5ec1b051d760 -->
<g id="edge12" class="edge">
<title>p0x5ec1b051d7e0&#45;&gt;p0x5ec1b051d760</title>
<path fill="none" stroke="gray" d="M280.13,-243.69C269.95,-231.83 256.4,-216.06 245.66,-203.56"/>
<polygon fill="gray" stroke="gray" points="246.79,-202.73 243.13,-200.61 244.67,-204.56 246.79,-202.73"/>
</g>
<!-- p0x5ec1b051d7a0 -->
<g id="node14" class="node">
<title>p0x5ec1b051d7a0</title>
<ellipse fill="lightgreen" stroke="green" cx="297" cy="-182" rx="18" ry="18"/>
<text text-anchor="middle" x="297" y="-176.95" font-family="Times,serif" font-size="14.00">4</text>
</g>
<!-- p0x5ec1b051d7e0&#45;&gt;p0x5ec1b051d7a0 -->
<g id="edge13" class="edge">
<title>p0x5ec1b051d7e0&#45;&gt;p0x5ec1b051d7a0</title>
<path fill="none" stroke="gray" d="M295.44,-243.69C295.73,-232.48 296.11,-217.77 296.42,-205.63"/>
<polygon fill="gray" stroke="gray" points="297.82,-205.81 296.52,-201.78 295.02,-205.74 297.82,-205.81"/>
</g>
<!-- p0x5ec1b051d8e0 -->
<g id="node16" class="node">
<title>p0x5ec1b051d8e0</title>
<polygon fill="lightpink" stroke="purple" points="348,-164 348,-200 402,-200 402,-164 348,-164"/>
<text text-anchor="middle" x="374.88" y="-176.95" font-family="Times,serif" font-size="14.00">*</text>
</g>
<!-- p0x5ec1b051d9e0&#45;&gt;p0x5ec1b051d8e0 -->
<g id="edge15" class="edge">
<title>p0x5ec1b051d9e0&#45;&gt;p0x5ec1b051d8e0</title>
<path fill="none" stroke="gray" d="M377.33,-243.69C376.9,-232.48 376.34,-217.77 375.87,-205.63"/>
<polygon fill="gray" stroke="gray" points="377.27,-205.72 375.72,-201.77 374.48,-205.83 377.27,-205.72"/>
</g>
<!-- p0x5ec1b051d9a0 -->
<g id="node20" class="node">
<title>p0x5ec1b051d9a0</title>
<polygon fill="lightpink" stroke="purple" points="431,-164 431,-200 485,-200 485,-164 431,-164"/>
<text text-anchor="middle" x="457.88" y="-176.95" font-family="Times,serif" font-size="14.00">/</text>
</g>
<!-- p0x5ec1b051d9e0&#45;&gt;p0x5ec1b051d9a0 -->
<g id="edge19" class="edge">
<title>p0x5ec1b051d9e0&#45;&gt;p0x5ec1b051d9a0</title>
<path fill="none" stroke="gray" d="M395.75,-243.69C407.77,-231.98 423.71,-216.43 436.45,-204.01"/>
<polygon fill="gray" stroke="gray" points="437.32,-205.11 439.21,-201.32 435.37,-203.11 437.32,-205.11"/>
</g>
<!-- p0x5ec1b051d820 -->
<g id="node17" class="node">
<title>p0x5ec1b051d820</title>
<ellipse fill="lightgreen" stroke="green" cx="303" cy="-102" rx="18" ry="18"/>
<text text-anchor="middle" x="303" y="-96.95" font-family="Times,serif" font-size="14.00">0</text>
</g>
<!-- p0x5ec1b051d8e0&#45;&gt;p0x5ec1b051d820 -->
<g id="edge16" class="edge">
<title>p0x5ec1b051d8e0&#45;&gt;p0x5ec1b051d820</title>
<path fill="none" stroke="gray" d="M359.02,-163.69C346.86,-150.51 330.22,-132.49 318.24,-119.51"/>
<polygon fill="gray" stroke="gray" points="319.45,-118.76 315.71,-116.77 317.39,-120.66 319.45,-118.76"/>
</g>
<!-- p0x5ec1b051d8a0 -->
<g id="node18" class="node">
<title>p0x5ec1b051d8a0</title>
<polygon fill="lightpink" stroke="purple" points="350,-84 350,-120 404,-120 404,-84 350,-84"/>
<text text-anchor="middle" x="376.75" y="-96.95" font-family="Times,serif" font-size="14.00">ln</text>
</g>
<!-- p0x5ec1b051d8e0&#45;&gt;p0x5ec1b051d8a0 -->
<g id="edge17" class="edge">
<title>p0x5ec1b051d8e0&#45;&gt;p0x5ec1b051d8a0</title>
<path fill="none" stroke="gray" d="M375.44,-163.69C375.73,-152.48 376.11,-137.77 376.42,-125.63"/>
<polygon fill="gray" stroke="gray" points="377.82,-125.81 376.52,-121.78 375.02,-125.74 377.82,-125.81"/>
</g>
<!-- p0x5ec1b051d860 -->
<g id="node19" class="node">
<title>p0x5ec1b051d860</title>
<ellipse fill="lightblue" stroke="blue" cx="377" cy="-22" rx="18" ry="18"/>
<ellipse fill="none" stroke="blue" cx="377" cy="-22" rx="22" ry="22"/>
<text text-anchor="middle" x="377" y="-16.95" font-family="Times,serif" font-size="14.00">x</text>
</g>
<!-- p0x5ec1b051d8a0&#45;&gt;p0x5ec1b051d860 -->
<g id="edge18" class="edge">
<title>p0x5ec1b051d8a0&#45;&gt;p0x5ec1b051d860</title>
<path fill="none" stroke="gray" d="M377,-83.69C377,-73.74 377,-61.02 377,-49.81"/>
<polygon fill="gray" stroke="gray" points="378.4,-49.95 377,-45.95 375.6,-49.95 378.4,-49.95"/>
</g>
<!-- p0x5ec1b051d920 -->
<g id="node21" class="node">
<title>p0x5ec1b051d920</title>
<ellipse fill="lightgreen" stroke="green" cx="455" cy="-102" rx="18" ry="18"/>
<text text-anchor="middle" x="455" y="-96.95" font-family="Times,serif" font-size="14.00">4</text>
</g>
<!-- p0x5ec1b051d9a0&#45;&gt;p0x5ec1b051d920 -->
<g id="edge20" class="edge">
<title>p0x5ec1b051d9a0&#45;&gt;p0x5ec1b051d920</title>
<path fill="none" stroke="gray" d="M457.33,-163.69C456.9,-152.48 456.34,-137.77 455.87,-125.63"/>
<polygon fill="gray" stroke="gray" points="457.27,-125.72 455.72,-121.77 454.48,-125.83 457.27,-125.72"/>
</g>
<!-- p0x5ec1b051d960 -->
<g id="node22" class="node">
<title>p0x5ec1b051d960</title>
<ellipse fill="lightblue" stroke="blue" cx="524" cy="-102" rx="18" ry="18"/>
<ellipse fill="none" stroke="blue" cx="524" cy="-102" rx="22" ry="22"/>
<text text-anchor="middle" x="524" y="-96.95" font-family="Times,serif" font-size="14.00">x</text>
</g>
<!-- p0x5ec1b051d9a0&#45;&gt;p0x5ec1b051d960 -->
<g id="edge21" class="edge">
<title>p0x5ec1b051d9a0&#45;&gt;p0x5ec1b051d960</title>
<path fill="none" stroke="gray" d="M472.65,-163.69C482.68,-151.83 496.03,-136.06 506.6,-123.56"/>
<polygon fill="gray" stroke="gray" points="507.58,-124.57 509.09,-120.62 505.44,-122.77 507.58,-124.57"/>
</g>
<!-- p0x5ec1b051dd10 -->
<g id="node24" class="node">
<title>p0x5ec1b051dd10</title>
<ellipse fill="lightblue" stroke="blue" cx="456" cy="-262" rx="18" ry="18"/>
<ellipse fill="none" stroke="blue" cx="456" cy="-262" rx="22" ry="22"/>
<text text-anchor="middle" x="456" y="-256.95" font-family="Times,serif" font-size="14.00">x</text>
</g>
<!-- p0x5ec1b051dcd0&#45;&gt;p0x5ec1b051dd10 -->
<g id="edge23" class="edge">
<title>p0x5ec1b051dcd0&#45;&gt;p0x5ec1b051dd10</title>
<path fill="none" stroke="gray" d="M457.54,-320.22C457.29,-311.23 456.99,-300.03 456.72,-289.93"/>
<polygon fill="gray" stroke="gray" points="458.12,-289.92 456.62,-285.96 455.32,-290 458.12,-289.92"/>
</g>
<!-- p0x5ec1b051dd50 -->
<g id="node25" class="node">
<title>p0x5ec1b051dd50</title>
<ellipse fill="lightgreen" stroke="green" cx="525" cy="-262" rx="18" ry="18"/>
<text text-anchor="middle" x="525" y="-256.95" font-family="Times,serif" font-size="14.00">4</text>
</g>
<!-- p0x5ec1b051dcd0&#45;&gt;p0x5ec1b051dd50 -->
<g id="edge24" class="edge">
<title>p0x5ec1b051dcd0&#45;&gt;p0x5ec1b051dd50</title>
<path fill="none" stroke="gray" d="M473.54,-320.22C484.51,-308.02 499.14,-291.75 509.99,-279.68"/>
<polygon fill="gray" stroke="gray" points="510.87,-280.8 512.51,-276.89 508.79,-278.93 510.87,-280.8"/>
</g>
<!-- p0x5ec1b051e2f0 -->
<g id="node27" class="node">
<title>p0x5ec1b051e2f0</title>
<polygon fill="lightpink" stroke="purple" points="579,-393.5 579,-429.5 633,-429.5 633,-393.5 579,-393.5"/>
<text text-anchor="middle" x="605.62" y="-406.45" font-family="Times,serif" font-size="14.00">+</text>
</g>
<!-- p0x5ec1b051e4f0&#45;&gt;p0x5ec1b051e2f0 -->
<g id="edge26" class="edge">
<title>p0x5ec1b051e4f0&#45;&gt;p0x5ec1b051e2f0</title>
<path fill="none" stroke="gray" d="M569.62,-466.31C576.22,-456.55 584.55,-444.23 591.57,-433.85"/>
<polygon fill="gray" stroke="gray" points="592.56,-434.88 593.64,-430.78 590.24,-433.31 592.56,-434.88"/>
</g>
<!-- p0x5ec1b051e330 -->
<g id="node28" class="node">
<title>p0x5ec1b051e330</title>
<polygon fill="lightpink" stroke="purple" points="579,-320.5 579,-356.5 633,-356.5 633,-320.5 579,-320.5"/>
<text text-anchor="middle" x="605.88" y="-333.45" font-family="Times,serif" font-size="14.00">*</text>
</g>
<!-- p0x5ec1b051e2f0&#45;&gt;p0x5ec1b051e330 -->
<g id="edge27" class="edge">
<title>p0x5ec1b051e2f0&#45;&gt;p0x5ec1b051e330</title>
<path fill="none" stroke="gray" d="M606,-393.31C606,-383.89 606,-372.11 606,-361.97"/>
<polygon fill="gray" stroke="gray" points="607.4,-362.04 606,-358.04 604.6,-362.04 607.4,-362.04"/>
</g>
<!-- p0x5ec1b051e3f0 -->
<g id="node31" class="node">
<title>p0x5ec1b051e3f0</title>
<polygon fill="lightpink" stroke="purple" points="694,-320.5 694,-356.5 748,-356.5 748,-320.5 694,-320.5"/>
<text text-anchor="middle" x="720.75" y="-333.45" font-family="Times,serif" font-size="14.00">ln</text>
</g>
<!-- p0x5ec1b051e2f0&#45;&gt;p0x5ec1b051e3f0 -->
<g id="edge30" class="edge">
<title>p0x5ec1b051e2f0&#45;&gt;p0x5ec1b051e3f0</title>
<path fill="none" stroke="gray" d="M633.25,-393.67C650.03,-383.32 671.61,-369.99 689.17,-359.15"/>
<polygon fill="gray" stroke="gray" points="689.59,-360.54 692.26,-357.25 688.12,-358.16 689.59,-360.54"/>
</g>
<!-- p0x5ec1b051e370 -->
<g id="node29" class="node">
<title>p0x5ec1b051e370</title>
<ellipse fill="lightgreen" stroke="green" cx="590" cy="-262" rx="18" ry="18"/>
<text text-anchor="middle" x="590" y="-256.95" font-family="Times,serif" font-size="14.00">9</text>
</g>
<!-- p0x5ec1b051e330&#45;&gt;p0x5ec1b051e370 -->
<g id="edge28" class="edge">
<title>p0x5ec1b051e330&#45;&gt;p0x5ec1b051e370</title>
<path fill="none" stroke="gray" d="M602.29,-320.22C600.05,-309.8 597.18,-296.43 594.77,-285.23"/>
<polygon fill="gray" stroke="gray" points="596.16,-285.03 593.95,-281.41 593.42,-285.61 596.16,-285.03"/>
</g>
<!-- p0x5ec1b051e3b0 -->
<g id="node30" class="node">
<title>p0x5ec1b051e3b0</title>
<ellipse fill="lightblue" stroke="blue" cx="659" cy="-262" rx="18" ry="18"/>
<ellipse fill="none" stroke="blue" cx="659" cy="-262" rx="22" ry="22"/>
<text text-anchor="middle" x="659" y="-256.95" font-family="Times,serif" font-size="14.00">x</text>
</g>
<!-- p0x5ec1b051e330&#45;&gt;p0x5ec1b051e3b0 -->
<g id="edge29" class="edge">
<title>p0x5ec1b051e330&#45;&gt;p0x5ec1b051e3b0</title>
<path fill="none" stroke="gray" d="M618.29,-320.22C625.8,-309.67 635.46,-296.09 643.49,-284.8"/>
<polygon fill="gray" stroke="gray" points="644.54,-285.75 645.71,-281.68 642.25,-284.12 644.54,-285.75"/>
</g>
<!-- p0x5ec1b051e430 -->
<g id="node32" class="node">
<title>p0x5ec1b051e430</title>
<polygon fill="lightpink" stroke="purple" points="710,-244 710,-280 764,-280 764,-244 710,-244"/>
<text text-anchor="middle" x="736.88" y="-256.95" font-family="Times,serif" font-size="14.00">^</text>
</g>
<!-- p0x5ec1b051e3f0&#45;&gt;p0x5ec1b051e430 -->
<g id="edge31" class="edge">
<title>p0x5ec1b051e3f0&#45;&gt;p0x5ec1b051e430</title>
<path fill="none" stroke="gray" d="M724.71,-320.22C726.92,-309.95 729.74,-296.81 732.12,-285.71"/>
<polygon fill="gray" stroke="gray" points="733.46,-286.13 732.94,-281.92 730.73,-285.54 733.46,-286.13"/>
</g>
<!-- p0x5ec1b051e470 -->
<g id="node33" class="node">
<title>p0x5ec1b051e470</title>
<ellipse fill="lightblue" stroke="blue" cx="702" cy="-182" rx="18" ry="18"/>
<ellipse fill="none" stroke="blue" cx="702" cy="-182" rx="22" ry="22"/>
<text text-anchor="middle" x="702" y="-176.95" font-family="Times,serif" font-size="14.00">x</text>
</g>
<!-- p0x5ec1b051e430&#45;&gt;p0x5ec1b051e470 -->
<g id="edge32" class="edge">
<title>p0x5ec1b051e430&#45;&gt;p0x5ec1b051e470</title>
<path fill="none" stroke="gray" d="M729.23,-243.69C724.44,-233.01 718.22,-219.14 712.93,-207.36"/>
<polygon fill="gray" stroke="gray" points="714.26,-206.91 711.35,-203.84 711.71,-208.06 714.26,-206.91"/>
</g>
<!-- p0x5ec1b051e4b0 -->
<g id="node34" class="node">
<title>p0x5ec1b051e4b0</title>
<ellipse fill="lightgreen" stroke="green" cx="771" cy="-182" rx="18" ry="18"/>
<text text-anchor="middle" x="771" y="-176.95" font-family="Times,serif" font-size="14.00">4</text>
</g>
<!-- p0x5ec1b051e430&#45;&gt;p0x5ec1b051e4b0 -->
<g id="edge33" class="edge">
<title>p0x5ec1b051e430&#45;&gt;p0x5ec1b051e4b0</title>
<path fill="none" stroke="gray" d="M744.55,-243.69C749.69,-231.88 756.53,-216.19 761.97,-203.71"/>
<polygon fill="gray" stroke="gray" points="763.13,-204.55 763.45,-200.32 760.57,-203.43 763.13,-204.55"/>
</g>
</g>
</svg>
