<?xml version="1.0" encoding="UTF-8" standalone="no"?>
<!DOCTYPE svg PUBLIC "-//W3C//DTD SVG 1.1//EN"
 "http://www.w3.org/Graphics/SVG/1.1/DTD/svg11.dtd">
<!-- Generated by graphviz version 12.1.2 (0)
 -->
<!-- Title: diffTree Pages: 1 -->
<svg width="624pt" height="504pt"
 viewBox="0.00 0.00 624.00 504.00" xmlns="http://www.w3.org/2000/svg" xmlns:xlink="http://www.w3.org/1999/xlink">
<g id="graph0" class="graph" transform="scale(1 1) rotate(0) translate(4 500)">
<title>diffTree</title>
<polygon fill="white" stroke="none" points="-4,4 -4,-500 620,-500 620,4 -4,4"/>
<!-- p0x568be175e010 -->
<g id="node1" class="node">
<title>p0x568be175e010</title>
<polygon fill="lightpink" stroke="purple" points="342,-459.5 342,-495.5 396,-495.5 396,-459.5 342,-459.5"/>
<text text-anchor="middle" x="368.88" y="-472.45" font-family="Times,serif" font-size="14.00">*</text>
</g>
<!-- p0x568be175dba0 -->
<g id="node2" class="node">
<title>p0x568be175dba0</title>
<polygon fill="lightpink" stroke="purple" points="301,-386.5 301,-422.5 355,-422.5 355,-386.5 301,-386.5"/>
<text text-anchor="middle" x="327.88" y="-399.45" font-family="Times,serif" font-size="14.00">*</text>
</g>
<!-- p0x568be175e010&#45;&gt;p0x568be175dba0 -->
<g id="edge1" class="edge">
<title>p0x568be175e010&#45;&gt;p0x568be175dba0</title>
<path fill="none" stroke="gray" d="M359.08,-459.31C353.48,-449.63 346.45,-437.45 340.49,-427.13"/>
<polygon fill="gray" stroke="gray" points="341.8,-426.6 338.59,-423.84 339.38,-428 341.8,-426.6"/>
</g>
<!-- p0x568be175dfd0 -->
<g id="node24" class="node">
<title>p0x568be175dfd0</title>
<polygon fill="lightpink" stroke="purple" points="402,-386.5 402,-422.5 456,-422.5 456,-386.5 402,-386.5"/>
<text text-anchor="middle" x="429" y="-399.45" font-family="Times,serif" font-size="14.00">cos</text>
</g>
<!-- p0x568be175e010&#45;&gt;p0x568be175dfd0 -->
<g id="edge23" class="edge">
<title>p0x568be175e010&#45;&gt;p0x568be175dfd0</title>
<path fill="none" stroke="gray" d="M383.52,-459.31C391.85,-449.46 402.37,-437.01 411.19,-426.57"/>
<polygon fill="gray" stroke="gray" points="412.12,-427.64 413.63,-423.68 409.98,-425.84 412.12,-427.64"/>
</g>
<!-- p0x568be175d770 -->
<g id="node3" class="node">
<title>p0x568be175d770</title>
<polygon fill="lightpink" stroke="purple" points="183,-313.5 183,-349.5 237,-349.5 237,-313.5 183,-313.5"/>
<text text-anchor="middle" x="209.62" y="-326.45" font-family="Times,serif" font-size="14.00">+</text>
</g>
<!-- p0x568be175dba0&#45;&gt;p0x568be175d770 -->
<g id="edge2" class="edge">
<title>p0x568be175dba0&#45;&gt;p0x568be175d770</title>
<path fill="none" stroke="gray" d="M300.63,-387.03C283.06,-376.46 260.17,-362.69 241.79,-351.63"/>
<polygon fill="gray" stroke="gray" points="242.67,-350.52 238.52,-349.66 241.22,-352.92 242.67,-350.52"/>
</g>
<!-- p0x568be175db60 -->
<g id="node18" class="node">
<title>p0x568be175db60</title>
<polygon fill="lightpink" stroke="purple" points="301,-313.5 301,-349.5 355,-349.5 355,-313.5 301,-313.5"/>
<text text-anchor="middle" x="327.75" y="-326.45" font-family="Times,serif" font-size="14.00">exp</text>
</g>
<!-- p0x568be175dba0&#45;&gt;p0x568be175db60 -->
<g id="edge17" class="edge">
<title>p0x568be175dba0&#45;&gt;p0x568be175db60</title>
<path fill="none" stroke="gray" d="M328,-386.31C328,-376.89 328,-365.11 328,-354.97"/>
<polygon fill="gray" stroke="gray" points="329.4,-355.04 328,-351.04 326.6,-355.04 329.4,-355.04"/>
</g>
<!-- p0x568be175d2f0 -->
<g id="node4" class="node">
<title>p0x568be175d2f0</title>
<polygon fill="lightpink" stroke="purple" points="65,-240.5 65,-276.5 119,-276.5 119,-240.5 65,-240.5"/>
<text text-anchor="middle" x="91.88" y="-253.45" font-family="Times,serif" font-size="14.00">*</text>
</g>
<!-- p0x568be175d770&#45;&gt;p0x568be175d2f0 -->
<g id="edge3" class="edge">
<title>p0x568be175d770&#45;&gt;p0x568be175d2f0</title>
<path fill="none" stroke="gray" d="M182.63,-314.03C165.06,-303.46 142.17,-289.69 123.79,-278.63"/>
<polygon fill="gray" stroke="gray" points="124.67,-277.52 120.52,-276.66 123.22,-279.92 124.67,-277.52"/>
</g>
<!-- p0x568be175d730 -->
<g id="node9" class="node">
<title>p0x568be175d730</title>
<polygon fill="lightpink" stroke="purple" points="183,-240.5 183,-276.5 237,-276.5 237,-240.5 183,-240.5"/>
<text text-anchor="middle" x="209.88" y="-253.45" font-family="Times,serif" font-size="14.00">*</text>
</g>
<!-- p0x568be175d770&#45;&gt;p0x568be175d730 -->
<g id="edge8" class="edge">
<title>p0x568be175d770&#45;&gt;p0x568be175d730</title>
<path fill="none" stroke="gray" d="M210,-313.31C210,-303.89 210,-292.11 210,-281.97"/>
<polygon fill="gray" stroke="gray" points="211.4,-282.04 210,-278.04 208.6,-282.04 211.4,-282.04"/>
</g>
<!-- p0x568be175d1f0 -->
<g id="node5" class="node">
<title>p0x568be175d1f0</title>
<ellipse fill="lightgreen" stroke="green" cx="18" cy="-182" rx="18" ry="18"/>
<text text-anchor="middle" x="18" y="-176.95" font-family="Times,serif" font-size="14.00">1</text>
</g>
<!-- p0x568be175d2f0&#45;&gt;p0x568be175d1f0 -->
<g id="edge4" class="edge">
<title>p0x568be175d2f0&#45;&gt;p0x568be175d1f0</title>
<path fill="none" stroke="gray" d="M74.84,-240.22C62.46,-227.76 45.87,-211.05 33.81,-198.91"/>
<polygon fill="gray" stroke="gray" points="35.1,-198.23 31.29,-196.38 33.11,-200.2 35.1,-198.23"/>
</g>
<!-- p0x568be175d230 -->
<g id="node6" class="node">
<title>p0x568be175d230</title>
<polygon fill="lightpink" stroke="purple" points="65,-164 65,-200 119,-200 119,-164 65,-164"/>
<text text-anchor="middle" x="91.88" y="-176.95" font-family="Times,serif" font-size="14.00">*</text>
</g>
<!-- p0x568be175d2f0&#45;&gt;p0x568be175d230 -->
<g id="edge5" class="edge">
<title>p0x568be175d2f0&#45;&gt;p0x568be175d230</title>
<path fill="none" stroke="gray" d="M92,-240.22C92,-229.95 92,-216.81 92,-205.71"/>
<polygon fill="gray" stroke="gray" points="93.4,-205.96 92,-201.96 90.6,-205.96 93.4,-205.96"/>
</g>
<!-- p0x568be175d270 -->
<g id="node7" class="node">
<title>p0x568be175d270</title>
<ellipse fill="lightgreen" stroke="green" cx="31" cy="-102" rx="18" ry="18"/>
<text text-anchor="middle" x="31" y="-96.95" font-family="Times,serif" font-size="14.00">5</text>
</g>
<!-- p0x568be175d230&#45;&gt;p0x568be175d270 -->
<g id="edge6" class="edge">
<title>p0x568be175d230&#45;&gt;p0x568be175d270</title>
<path fill="none" stroke="gray" d="M78.46,-163.69C68.5,-150.95 54.99,-133.68 44.93,-120.82"/>
<polygon fill="gray" stroke="gray" points="46.16,-120.12 42.6,-117.83 43.96,-121.84 46.16,-120.12"/>
</g>
<!-- p0x568be175d2b0 -->
<g id="node8" class="node">
<title>p0x568be175d2b0</title>
<ellipse fill="lightblue" stroke="blue" cx="100" cy="-102" rx="18" ry="18"/>
<ellipse fill="none" stroke="blue" cx="100" cy="-102" rx="22" ry="22"/>
<text text-anchor="middle" x="100" y="-96.95" font-family="Times,serif" font-size="14.00">y</text>
</g>
<!-- p0x568be175d230&#45;&gt;p0x568be175d2b0 -->
<g id="edge7" class="edge">
<title>p0x568be175d230&#45;&gt;p0x568be175d2b0</title>
<path fill="none" stroke="gray" d="M93.78,-163.69C94.8,-153.66 96.12,-140.83 97.28,-129.55"/>
<polygon fill="gray" stroke="gray" points="98.66,-129.78 97.68,-125.66 95.88,-129.49 98.66,-129.78"/>
</g>
<!-- p0x568be175d330 -->
<g id="node10" class="node">
<title>p0x568be175d330</title>
<ellipse fill="lightblue" stroke="blue" cx="170" cy="-182" rx="18" ry="18"/>
<ellipse fill="none" stroke="blue" cx="170" cy="-182" rx="22" ry="22"/>
<text text-anchor="middle" x="170" y="-176.95" font-family="Times,serif" font-size="14.00">x</text>
</g>
<!-- p0x568be175d730&#45;&gt;p0x568be175d330 -->
<g id="edge9" class="edge">
<title>p0x568be175d730&#45;&gt;p0x568be175d330</title>
<path fill="none" stroke="gray" d="M200.72,-240.22C195.4,-230.31 188.64,-217.71 182.81,-206.86"/>
<polygon fill="gray" stroke="gray" points="184.05,-206.21 180.93,-203.35 181.58,-207.54 184.05,-206.21"/>
</g>
<!-- p0x568be175d4f0 -->
<g id="node11" class="node">
<title>p0x568be175d4f0</title>
<polygon fill="lightpink" stroke="purple" points="221,-164 221,-200 275,-200 275,-164 221,-164"/>
<text text-anchor="middle" x="247.62" y="-176.95" font-family="Times,serif" font-size="14.00">+</text>
</g>
<!-- p0x568be175d730&#45;&gt;p0x568be175d4f0 -->
<g id="edge10" class="edge">
<title>p0x568be175d730&#45;&gt;p0x568be175d4f0</title>
<path fill="none" stroke="gray" d="M218.81,-240.22C224.15,-229.76 231,-216.33 236.73,-205.1"/>
<polygon fill="gray" stroke="gray" points="237.84,-205.99 238.41,-201.79 235.35,-204.72 237.84,-205.99"/>
</g>
<!-- p0x568be175d3f0 -->
<g id="node12" class="node">
<title>p0x568be175d3f0</title>
<polygon fill="lightpink" stroke="purple" points="168,-84 168,-120 222,-120 222,-84 168,-84"/>
<text text-anchor="middle" x="194.88" y="-96.95" font-family="Times,serif" font-size="14.00">*</text>
</g>
<!-- p0x568be175d4f0&#45;&gt;p0x568be175d3f0 -->
<g id="edge11" class="edge">
<title>p0x568be175d4f0&#45;&gt;p0x568be175d3f0</title>
<path fill="none" stroke="gray" d="M236.24,-163.69C228.42,-152.18 218.08,-136.97 209.71,-124.66"/>
<polygon fill="gray" stroke="gray" points="210.99,-124.04 207.58,-121.51 208.67,-125.61 210.99,-124.04"/>
</g>
<!-- p0x568be175d4b0 -->
<g id="node15" class="node">
<title>p0x568be175d4b0</title>
<polygon fill="lightpink" stroke="purple" points="251,-84 251,-120 305,-120 305,-84 251,-84"/>
<text text-anchor="middle" x="277.88" y="-96.95" font-family="Times,serif" font-size="14.00">*</text>
</g>
<!-- p0x568be175d4f0&#45;&gt;p0x568be175d4b0 -->
<g id="edge14" class="edge">
<title>p0x568be175d4f0&#45;&gt;p0x568be175d4b0</title>
<path fill="none" stroke="gray" d="M254.66,-163.69C259.01,-152.38 264.73,-137.5 269.42,-125.31"/>
<polygon fill="gray" stroke="gray" points="270.69,-125.91 270.82,-121.67 268.07,-124.91 270.69,-125.91"/>
</g>
<!-- p0x568be175d370 -->
<g id="node13" class="node">
<title>p0x568be175d370</title>
<ellipse fill="lightgreen" stroke="green" cx="129" cy="-22" rx="18" ry="18"/>
<text text-anchor="middle" x="129" y="-16.95" font-family="Times,serif" font-size="14.00">0</text>
</g>
<!-- p0x568be175d3f0&#45;&gt;p0x568be175d370 -->
<g id="edge12" class="edge">
<title>p0x568be175d3f0&#45;&gt;p0x568be175d370</title>
<path fill="none" stroke="gray" d="M180.35,-83.69C169.43,-70.79 154.59,-53.24 143.66,-40.33"/>
<polygon fill="gray" stroke="gray" points="144.75,-39.45 141.1,-37.3 142.61,-41.26 144.75,-39.45"/>
</g>
<!-- p0x568be175d3b0 -->
<g id="node14" class="node">
<title>p0x568be175d3b0</title>
<ellipse fill="lightblue" stroke="blue" cx="198" cy="-22" rx="18" ry="18"/>
<ellipse fill="none" stroke="blue" cx="198" cy="-22" rx="22" ry="22"/>
<text text-anchor="middle" x="198" y="-16.95" font-family="Times,serif" font-size="14.00">y</text>
</g>
<!-- p0x568be175d3f0&#45;&gt;p0x568be175d3b0 -->
<g id="edge13" class="edge">
<title>p0x568be175d3f0&#45;&gt;p0x568be175d3b0</title>
<path fill="none" stroke="gray" d="M195.67,-83.69C196.05,-73.74 196.54,-61.02 196.97,-49.81"/>
<polygon fill="gray" stroke="gray" points="198.36,-50 197.12,-45.95 195.56,-49.9 198.36,-50"/>
</g>
<!-- p0x568be175d430 -->
<g id="node16" class="node">
<title>p0x568be175d430</title>
<ellipse fill="lightgreen" stroke="green" cx="274" cy="-22" rx="18" ry="18"/>
<text text-anchor="middle" x="274" y="-16.95" font-family="Times,serif" font-size="14.00">5</text>
</g>
<!-- p0x568be175d4b0&#45;&gt;p0x568be175d430 -->
<g id="edge15" class="edge">
<title>p0x568be175d4b0&#45;&gt;p0x568be175d430</title>
<path fill="none" stroke="gray" d="M277.11,-83.69C276.54,-72.48 275.78,-57.77 275.16,-45.63"/>
<polygon fill="gray" stroke="gray" points="276.57,-45.7 274.96,-41.77 273.77,-45.84 276.57,-45.7"/>
</g>
<!-- p0x568be175d470 -->
<g id="node17" class="node">
<title>p0x568be175d470</title>
<ellipse fill="lightgreen" stroke="green" cx="339" cy="-22" rx="18" ry="18"/>
<text text-anchor="middle" x="339" y="-16.95" font-family="Times,serif" font-size="14.00">0</text>
</g>
<!-- p0x568be175d4b0&#45;&gt;p0x568be175d470 -->
<g id="edge16" class="edge">
<title>p0x568be175d4b0&#45;&gt;p0x568be175d470</title>
<path fill="none" stroke="gray" d="M291.54,-83.69C301.5,-70.95 315.01,-53.68 325.07,-40.82"/>
<polygon fill="gray" stroke="gray" points="326.04,-41.84 327.4,-37.83 323.84,-40.12 326.04,-41.84"/>
</g>
<!-- p0x568be175da20 -->
<g id="node19" class="node">
<title>p0x568be175da20</title>
<polygon fill="lightpink" stroke="purple" points="301,-240.5 301,-276.5 355,-276.5 355,-240.5 301,-240.5"/>
<text text-anchor="middle" x="327.88" y="-253.45" font-family="Times,serif" font-size="14.00">*</text>
</g>
<!-- p0x568be175db60&#45;&gt;p0x568be175da20 -->
<g id="edge18" class="edge">
<title>p0x568be175db60&#45;&gt;p0x568be175da20</title>
<path fill="none" stroke="gray" d="M328,-313.31C328,-303.89 328,-292.11 328,-281.97"/>
<polygon fill="gray" stroke="gray" points="329.4,-282.04 328,-278.04 326.6,-282.04 329.4,-282.04"/>
</g>
<!-- p0x568be175da60 -->
<g id="node20" class="node">
<title>p0x568be175da60</title>
<ellipse fill="lightblue" stroke="blue" cx="326" cy="-182" rx="18" ry="18"/>
<ellipse fill="none" stroke="blue" cx="326" cy="-182" rx="22" ry="22"/>
<text text-anchor="middle" x="326" y="-176.95" font-family="Times,serif" font-size="14.00">x</text>
</g>
<!-- p0x568be175da20&#45;&gt;p0x568be175da60 -->
<g id="edge19" class="edge">
<title>p0x568be175da20&#45;&gt;p0x568be175da60</title>
<path fill="none" stroke="gray" d="M327.54,-240.22C327.29,-231.23 326.99,-220.03 326.72,-209.93"/>
<polygon fill="gray" stroke="gray" points="328.12,-209.92 326.62,-205.96 325.32,-210 328.12,-209.92"/>
</g>
<!-- p0x568be175daa0 -->
<g id="node21" class="node">
<title>p0x568be175daa0</title>
<polygon fill="lightpink" stroke="purple" points="377,-164 377,-200 431,-200 431,-164 377,-164"/>
<text text-anchor="middle" x="403.88" y="-176.95" font-family="Times,serif" font-size="14.00">*</text>
</g>
<!-- p0x568be175da20&#45;&gt;p0x568be175daa0 -->
<g id="edge20" class="edge">
<title>p0x568be175da20&#45;&gt;p0x568be175daa0</title>
<path fill="none" stroke="gray" d="M345.63,-240.22C356.58,-229.48 370.74,-215.61 382.37,-204.21"/>
<polygon fill="gray" stroke="gray" points="383.25,-205.3 385.12,-201.5 381.29,-203.3 383.25,-205.3"/>
</g>
<!-- p0x568be175dae0 -->
<g id="node22" class="node">
<title>p0x568be175dae0</title>
<ellipse fill="lightgreen" stroke="green" cx="361" cy="-102" rx="18" ry="18"/>
<text text-anchor="middle" x="361" y="-96.95" font-family="Times,serif" font-size="14.00">5</text>
</g>
<!-- p0x568be175daa0&#45;&gt;p0x568be175dae0 -->
<g id="edge21" class="edge">
<title>p0x568be175daa0&#45;&gt;p0x568be175dae0</title>
<path fill="none" stroke="gray" d="M394.46,-163.69C387.86,-151.72 379.06,-135.76 372.14,-123.21"/>
<polygon fill="gray" stroke="gray" points="373.38,-122.57 370.23,-119.74 370.93,-123.92 373.38,-122.57"/>
</g>
<!-- p0x568be175db20 -->
<g id="node23" class="node">
<title>p0x568be175db20</title>
<ellipse fill="lightblue" stroke="blue" cx="430" cy="-102" rx="18" ry="18"/>
<ellipse fill="none" stroke="blue" cx="430" cy="-102" rx="22" ry="22"/>
<text text-anchor="middle" x="430" y="-96.95" font-family="Times,serif" font-size="14.00">y</text>
</g>
<!-- p0x568be175daa0&#45;&gt;p0x568be175db20 -->
<g id="edge22" class="edge">
<title>p0x568be175daa0&#45;&gt;p0x568be175db20</title>
<path fill="none" stroke="gray" d="M409.77,-163.69C413.22,-153.34 417.67,-139.99 421.51,-128.46"/>
<polygon fill="gray" stroke="gray" points="422.82,-128.97 422.75,-124.74 420.16,-128.09 422.82,-128.97"/>
</g>
<!-- p0x568be175de50 -->
<g id="node25" class="node">
<title>p0x568be175de50</title>
<polygon fill="lightpink" stroke="purple" points="438,-313.5 438,-349.5 492,-349.5 492,-313.5 438,-313.5"/>
<text text-anchor="middle" x="464.75" y="-326.45" font-family="Times,serif" font-size="14.00">exp</text>
</g>
<!-- p0x568be175dfd0&#45;&gt;p0x568be175de50 -->
<g id="edge24" class="edge">
<title>p0x568be175dfd0&#45;&gt;p0x568be175de50</title>
<path fill="none" stroke="gray" d="M437.71,-386.31C442.58,-376.72 448.69,-364.67 453.89,-354.41"/>
<polygon fill="gray" stroke="gray" points="455.12,-355.08 455.68,-350.88 452.62,-353.81 455.12,-355.08"/>
</g>
<!-- p0x568be175de90 -->
<g id="node26" class="node">
<title>p0x568be175de90</title>
<polygon fill="lightpink" stroke="purple" points="455,-240.5 455,-276.5 509,-276.5 509,-240.5 455,-240.5"/>
<text text-anchor="middle" x="481.88" y="-253.45" font-family="Times,serif" font-size="14.00">*</text>
</g>
<!-- p0x568be175de50&#45;&gt;p0x568be175de90 -->
<g id="edge25" class="edge">
<title>p0x568be175de50&#45;&gt;p0x568be175de90</title>
<path fill="none" stroke="gray" d="M469.12,-313.31C471.39,-303.81 474.25,-291.89 476.69,-281.69"/>
<polygon fill="gray" stroke="gray" points="478,-282.22 477.57,-278 475.28,-281.56 478,-282.22"/>
</g>
<!-- p0x568be175ded0 -->
<g id="node27" class="node">
<title>p0x568be175ded0</title>
<ellipse fill="lightblue" stroke="blue" cx="482" cy="-182" rx="18" ry="18"/>
<ellipse fill="none" stroke="blue" cx="482" cy="-182" rx="22" ry="22"/>
<text text-anchor="middle" x="482" y="-176.95" font-family="Times,serif" font-size="14.00">x</text>
</g>
<!-- p0x568be175de90&#45;&gt;p0x568be175ded0 -->
<g id="edge26" class="edge">
<title>p0x568be175de90&#45;&gt;p0x568be175ded0</title>
<path fill="none" stroke="gray" d="M482,-240.22C482,-231.23 482,-220.03 482,-209.93"/>
<polygon fill="gray" stroke="gray" points="483.4,-209.96 482,-205.96 480.6,-209.96 483.4,-209.96"/>
</g>
<!-- p0x568be175df10 -->
<g id="node28" class="node">
<title>p0x568be175df10</title>
<polygon fill="lightpink" stroke="purple" points="533,-164 533,-200 587,-200 587,-164 533,-164"/>
<text text-anchor="middle" x="559.88" y="-176.95" font-family="Times,serif" font-size="14.00">*</text>
</g>
<!-- p0x568be175de90&#45;&gt;p0x568be175df10 -->
<g id="edge27" class="edge">
<title>p0x568be175de90&#45;&gt;p0x568be175df10</title>
<path fill="none" stroke="gray" d="M500.09,-240.22C511.33,-229.48 525.86,-215.61 537.8,-204.21"/>
<polygon fill="gray" stroke="gray" points="538.72,-205.26 540.64,-201.49 536.78,-203.24 538.72,-205.26"/>
</g>
<!-- p0x568be175df50 -->
<g id="node29" class="node">
<title>p0x568be175df50</title>
<ellipse fill="lightgreen" stroke="green" cx="525" cy="-102" rx="18" ry="18"/>
<text text-anchor="middle" x="525" y="-96.95" font-family="Times,serif" font-size="14.00">5</text>
</g>
<!-- p0x568be175df10&#45;&gt;p0x568be175df50 -->
<g id="edge28" class="edge">
<title>p0x568be175df10&#45;&gt;p0x568be175df50</title>
<path fill="none" stroke="gray" d="M552.23,-163.69C546.93,-151.88 539.89,-136.19 534.29,-123.71"/>
<polygon fill="gray" stroke="gray" points="535.68,-123.39 532.77,-120.32 533.13,-124.54 535.68,-123.39"/>
</g>
<!-- p0x568be175df90 -->
<g id="node30" class="node">
<title>p0x568be175df90</title>
<ellipse fill="lightblue" stroke="blue" cx="594" cy="-102" rx="18" ry="18"/>
<ellipse fill="none" stroke="blue" cx="594" cy="-102" rx="22" ry="22"/>
<text text-anchor="middle" x="594" y="-96.95" font-family="Times,serif" font-size="14.00">y</text>
</g>
<!-- p0x568be175df10&#45;&gt;p0x568be175df90 -->
<g id="edge29" class="edge">
<title>p0x568be175df10&#45;&gt;p0x568be175df90</title>
<path fill="none" stroke="gray" d="M567.55,-163.69C572.17,-153.09 578.16,-139.35 583.27,-127.62"/>
<polygon fill="gray" stroke="gray" points="584.48,-128.35 584.79,-124.12 581.91,-127.23 584.48,-128.35"/>
</g>
</g>
</svg>
