<?xml version="1.0" encoding="UTF-8" standalone="no"?>
<!DOCTYPE svg PUBLIC "-//W3C//DTD SVG 1.1//EN"
 "http://www.w3.org/Graphics/SVG/1.1/DTD/svg11.dtd">
<!-- Generated by graphviz version 12.1.2 (0)
 -->
<!-- Title: diffTree Pages: 1 -->
<svg width="467pt" height="431pt"
 viewBox="0.00 0.00 467.00 431.00" xmlns="http://www.w3.org/2000/svg" xmlns:xlink="http://www.w3.org/1999/xlink">
<g id="graph0" class="graph" transform="scale(1 1) rotate(0) translate(4 427)">
<title>diffTree</title>
<polygon fill="white" stroke="none" points="-4,4 -4,-427 463,-427 463,4 -4,4"/>
<!-- p0x57967978d8b0 -->
<g id="node1" class="node">
<title>p0x57967978d8b0</title>
<polygon fill="lightpink" stroke="purple" points="245,-386.5 245,-422.5 299,-422.5 299,-386.5 245,-386.5"/>
<text text-anchor="middle" x="271.88" y="-399.45" font-family="Times,serif" font-size="14.00">*</text>
</g>
<!-- p0x57967978d4c0 -->
<g id="node2" class="node">
<title>p0x57967978d4c0</title>
<polygon fill="lightpink" stroke="purple" points="204,-313.5 204,-349.5 258,-349.5 258,-313.5 204,-313.5"/>
<text text-anchor="middle" x="230.62" y="-326.45" font-family="Times,serif" font-size="14.00">+</text>
</g>
<!-- p0x57967978d8b0&#45;&gt;p0x57967978d4c0 -->
<g id="edge1" class="edge">
<title>p0x57967978d8b0&#45;&gt;p0x57967978d4c0</title>
<path fill="none" stroke="gray" d="M262.08,-386.31C256.48,-376.63 249.45,-364.45 243.49,-354.13"/>
<polygon fill="gray" stroke="gray" points="244.8,-353.6 241.59,-350.84 242.38,-355 244.8,-353.6"/>
</g>
<!-- p0x57967978d870 -->
<g id="node13" class="node">
<title>p0x57967978d870</title>
<polygon fill="lightpink" stroke="purple" points="317,-313.5 317,-349.5 371,-349.5 371,-313.5 317,-313.5"/>
<text text-anchor="middle" x="344" y="-326.45" font-family="Times,serif" font-size="14.00">cos</text>
</g>
<!-- p0x57967978d8b0&#45;&gt;p0x57967978d870 -->
<g id="edge12" class="edge">
<title>p0x57967978d8b0&#45;&gt;p0x57967978d870</title>
<path fill="none" stroke="gray" d="M289.43,-386.31C299.44,-376.44 312.08,-363.97 322.68,-353.52"/>
<polygon fill="gray" stroke="gray" points="323.54,-354.64 325.4,-350.84 321.57,-352.65 323.54,-354.64"/>
</g>
<!-- p0x57967978d380 -->
<g id="node3" class="node">
<title>p0x57967978d380</title>
<polygon fill="lightpink" stroke="purple" points="106,-240.5 106,-276.5 160,-276.5 160,-240.5 106,-240.5"/>
<text text-anchor="middle" x="132.88" y="-253.45" font-family="Times,serif" font-size="14.00">*</text>
</g>
<!-- p0x57967978d4c0&#45;&gt;p0x57967978d380 -->
<g id="edge2" class="edge">
<title>p0x57967978d4c0&#45;&gt;p0x57967978d380</title>
<path fill="none" stroke="gray" d="M207.03,-313.13C193.26,-303.16 175.9,-290.58 161.45,-280.11"/>
<polygon fill="gray" stroke="gray" points="162.35,-279.04 158.29,-277.82 160.71,-281.3 162.35,-279.04"/>
</g>
<!-- p0x57967978d480 -->
<g id="node9" class="node">
<title>p0x57967978d480</title>
<polygon fill="lightpink" stroke="purple" points="204,-240.5 204,-276.5 258,-276.5 258,-240.5 204,-240.5"/>
<text text-anchor="middle" x="230.88" y="-253.45" font-family="Times,serif" font-size="14.00">*</text>
</g>
<!-- p0x57967978d4c0&#45;&gt;p0x57967978d480 -->
<g id="edge8" class="edge">
<title>p0x57967978d4c0&#45;&gt;p0x57967978d480</title>
<path fill="none" stroke="gray" d="M231,-313.31C231,-303.89 231,-292.11 231,-281.97"/>
<polygon fill="gray" stroke="gray" points="232.4,-282.04 231,-278.04 229.6,-282.04 232.4,-282.04"/>
</g>
<!-- p0x57967978cd60 -->
<g id="node4" class="node">
<title>p0x57967978cd60</title>
<polygon fill="lightpink" stroke="purple" points="28,-164 28,-200 82,-200 82,-164 28,-164"/>
<text text-anchor="middle" x="54.88" y="-176.95" font-family="Times,serif" font-size="14.00">*</text>
</g>
<!-- p0x57967978d380&#45;&gt;p0x57967978cd60 -->
<g id="edge3" class="edge">
<title>p0x57967978d380&#45;&gt;p0x57967978cd60</title>
<path fill="none" stroke="gray" d="M114.91,-240.22C103.67,-229.48 89.14,-215.61 77.2,-204.21"/>
<polygon fill="gray" stroke="gray" points="78.22,-203.24 74.36,-201.49 76.28,-205.26 78.22,-203.24"/>
</g>
<!-- p0x57967978d340 -->
<g id="node8" class="node">
<title>p0x57967978d340</title>
<ellipse fill="lightblue" stroke="blue" cx="133" cy="-182" rx="18" ry="18"/>
<ellipse fill="none" stroke="blue" cx="133" cy="-182" rx="22" ry="22"/>
<text text-anchor="middle" x="133" y="-176.95" font-family="Times,serif" font-size="14.00">x</text>
</g>
<!-- p0x57967978d380&#45;&gt;p0x57967978d340 -->
<g id="edge7" class="edge">
<title>p0x57967978d380&#45;&gt;p0x57967978d340</title>
<path fill="none" stroke="gray" d="M133,-240.22C133,-231.23 133,-220.03 133,-209.93"/>
<polygon fill="gray" stroke="gray" points="134.4,-209.96 133,-205.96 131.6,-209.96 134.4,-209.96"/>
</g>
<!-- p0x57967978cca0 -->
<g id="node5" class="node">
<title>p0x57967978cca0</title>
<ellipse fill="lightgreen" stroke="green" cx="18" cy="-102" rx="18" ry="18"/>
<text text-anchor="middle" x="18" y="-96.95" font-family="Times,serif" font-size="14.00">1</text>
</g>
<!-- p0x57967978cd60&#45;&gt;p0x57967978cca0 -->
<g id="edge4" class="edge">
<title>p0x57967978cd60&#45;&gt;p0x57967978cca0</title>
<path fill="none" stroke="gray" d="M46.79,-163.69C41.15,-151.8 33.64,-135.97 27.71,-123.46"/>
<polygon fill="gray" stroke="gray" points="29.06,-123.05 26.08,-120.04 26.53,-124.25 29.06,-123.05"/>
</g>
<!-- p0x57967978cd20 -->
<g id="node6" class="node">
<title>p0x57967978cd20</title>
<polygon fill="lightpink" stroke="purple" points="65,-84 65,-120 119,-120 119,-84 65,-84"/>
<text text-anchor="middle" x="91.75" y="-96.95" font-family="Times,serif" font-size="14.00">exp</text>
</g>
<!-- p0x57967978cd60&#45;&gt;p0x57967978cd20 -->
<g id="edge5" class="edge">
<title>p0x57967978cd60&#45;&gt;p0x57967978cd20</title>
<path fill="none" stroke="gray" d="M63.21,-163.69C68.62,-152.28 75.76,-137.23 81.57,-124.98"/>
<polygon fill="gray" stroke="gray" points="82.71,-125.84 83.16,-121.63 80.18,-124.64 82.71,-125.84"/>
</g>
<!-- p0x57967978cce0 -->
<g id="node7" class="node">
<title>p0x57967978cce0</title>
<ellipse fill="lightblue" stroke="blue" cx="92" cy="-22" rx="18" ry="18"/>
<ellipse fill="none" stroke="blue" cx="92" cy="-22" rx="22" ry="22"/>
<text text-anchor="middle" x="92" y="-16.95" font-family="Times,serif" font-size="14.00">x</text>
</g>
<!-- p0x57967978cd20&#45;&gt;p0x57967978cce0 -->
<g id="edge6" class="edge">
<title>p0x57967978cd20&#45;&gt;p0x57967978cce0</title>
<path fill="none" stroke="gray" d="M92,-83.69C92,-73.74 92,-61.02 92,-49.81"/>
<polygon fill="gray" stroke="gray" points="93.4,-49.95 92,-45.95 90.6,-49.95 93.4,-49.95"/>
</g>
<!-- p0x57967978d3c0 -->
<g id="node10" class="node">
<title>p0x57967978d3c0</title>
<polygon fill="lightpink" stroke="purple" points="184,-164 184,-200 238,-200 238,-164 184,-164"/>
<text text-anchor="middle" x="210.75" y="-176.95" font-family="Times,serif" font-size="14.00">exp</text>
</g>
<!-- p0x57967978d480&#45;&gt;p0x57967978d3c0 -->
<g id="edge9" class="edge">
<title>p0x57967978d480&#45;&gt;p0x57967978d3c0</title>
<path fill="none" stroke="gray" d="M226.36,-240.22C223.6,-229.95 220.08,-216.81 217.1,-205.71"/>
<polygon fill="gray" stroke="gray" points="218.46,-205.41 216.08,-201.91 215.76,-206.13 218.46,-205.41"/>
</g>
<!-- p0x57967978d440 -->
<g id="node12" class="node">
<title>p0x57967978d440</title>
<ellipse fill="lightgreen" stroke="green" cx="285" cy="-182" rx="18" ry="18"/>
<text text-anchor="middle" x="285" y="-176.95" font-family="Times,serif" font-size="14.00">1</text>
</g>
<!-- p0x57967978d480&#45;&gt;p0x57967978d440 -->
<g id="edge11" class="edge">
<title>p0x57967978d480&#45;&gt;p0x57967978d440</title>
<path fill="none" stroke="gray" d="M243.52,-240.22C251.96,-228.58 263.07,-213.25 271.67,-201.39"/>
<polygon fill="gray" stroke="gray" points="272.61,-202.47 273.83,-198.41 270.35,-200.83 272.61,-202.47"/>
</g>
<!-- p0x57967978d400 -->
<g id="node11" class="node">
<title>p0x57967978d400</title>
<ellipse fill="lightblue" stroke="blue" cx="211" cy="-102" rx="18" ry="18"/>
<ellipse fill="none" stroke="blue" cx="211" cy="-102" rx="22" ry="22"/>
<text text-anchor="middle" x="211" y="-96.95" font-family="Times,serif" font-size="14.00">x</text>
</g>
<!-- p0x57967978d3c0&#45;&gt;p0x57967978d400 -->
<g id="edge10" class="edge">
<title>p0x57967978d3c0&#45;&gt;p0x57967978d400</title>
<path fill="none" stroke="gray" d="M211,-163.69C211,-153.74 211,-141.02 211,-129.81"/>
<polygon fill="gray" stroke="gray" points="212.4,-129.95 211,-125.95 209.6,-129.95 212.4,-129.95"/>
</g>
<!-- p0x57967978d770 -->
<g id="node14" class="node">
<title>p0x57967978d770</title>
<polygon fill="lightpink" stroke="purple" points="332,-240.5 332,-276.5 386,-276.5 386,-240.5 332,-240.5"/>
<text text-anchor="middle" x="358.88" y="-253.45" font-family="Times,serif" font-size="14.00">*</text>
</g>
<!-- p0x57967978d870&#45;&gt;p0x57967978d770 -->
<g id="edge13" class="edge">
<title>p0x57967978d870&#45;&gt;p0x57967978d770</title>
<path fill="none" stroke="gray" d="M347.63,-313.31C349.64,-303.81 352.16,-291.89 354.31,-281.69"/>
<polygon fill="gray" stroke="gray" points="355.63,-282.21 355.09,-278.01 352.89,-281.63 355.63,-282.21"/>
</g>
<!-- p0x57967978d7b0 -->
<g id="node15" class="node">
<title>p0x57967978d7b0</title>
<polygon fill="lightpink" stroke="purple" points="332,-164 332,-200 386,-200 386,-164 332,-164"/>
<text text-anchor="middle" x="358.75" y="-176.95" font-family="Times,serif" font-size="14.00">exp</text>
</g>
<!-- p0x57967978d770&#45;&gt;p0x57967978d7b0 -->
<g id="edge14" class="edge">
<title>p0x57967978d770&#45;&gt;p0x57967978d7b0</title>
<path fill="none" stroke="gray" d="M359,-240.22C359,-229.95 359,-216.81 359,-205.71"/>
<polygon fill="gray" stroke="gray" points="360.4,-205.96 359,-201.96 357.6,-205.96 360.4,-205.96"/>
</g>
<!-- p0x57967978d830 -->
<g id="node17" class="node">
<title>p0x57967978d830</title>
<ellipse fill="lightblue" stroke="blue" cx="437" cy="-182" rx="18" ry="18"/>
<ellipse fill="none" stroke="blue" cx="437" cy="-182" rx="22" ry="22"/>
<text text-anchor="middle" x="437" y="-176.95" font-family="Times,serif" font-size="14.00">x</text>
</g>
<!-- p0x57967978d770&#45;&gt;p0x57967978d830 -->
<g id="edge16" class="edge">
<title>p0x57967978d770&#45;&gt;p0x57967978d830</title>
<path fill="none" stroke="gray" d="M377.09,-240.22C389.24,-228.61 405.24,-213.33 417.65,-201.48"/>
<polygon fill="gray" stroke="gray" points="418.36,-202.74 420.29,-198.96 416.43,-200.72 418.36,-202.74"/>
</g>
<!-- p0x57967978d7f0 -->
<g id="node16" class="node">
<title>p0x57967978d7f0</title>
<ellipse fill="lightblue" stroke="blue" cx="359" cy="-102" rx="18" ry="18"/>
<ellipse fill="none" stroke="blue" cx="359" cy="-102" rx="22" ry="22"/>
<text text-anchor="middle" x="359" y="-96.95" font-family="Times,serif" font-size="14.00">x</text>
</g>
<!-- p0x57967978d7b0&#45;&gt;p0x57967978d7f0 -->
<g id="edge15" class="edge">
<title>p0x57967978d7b0&#45;&gt;p0x57967978d7f0</title>
<path fill="none" stroke="gray" d="M359,-163.69C359,-153.74 359,-141.02 359,-129.81"/>
<polygon fill="gray" stroke="gray" points="360.4,-129.95 359,-125.95 357.6,-129.95 360.4,-129.95"/>
</g>
</g>
</svg>
