<?xml version="1.0" encoding="UTF-8" standalone="no"?>
<!DOCTYPE svg PUBLIC "-//W3C//DTD SVG 1.1//EN"
 "http://www.w3.org/Graphics/SVG/1.1/DTD/svg11.dtd">
<!-- Generated by graphviz version 12.1.2 (0)
 -->
<!-- Title: diffTree Pages: 1 -->
<svg width="617pt" height="696pt"
 viewBox="0.00 0.00 617.30 695.97" xmlns="http://www.w3.org/2000/svg" xmlns:xlink="http://www.w3.org/1999/xlink">
<g id="graph0" class="graph" transform="scale(1 1) rotate(0) translate(4 691.97)">
<title>diffTree</title>
<polygon fill="white" stroke="none" points="-4,4 -4,-691.97 613.3,-691.97 613.3,4 -4,4"/>
<!-- p0x5cf632c39940 -->
<g id="node1" class="node">
<title>p0x5cf632c39940</title>
<polygon fill="lightpink" stroke="purple" points="202,-651.47 202,-687.47 256,-687.47 256,-651.47 202,-651.47"/>
<text text-anchor="middle" x="228.62" y="-664.42" font-family="Times,serif" font-size="14.00">+</text>
</g>
<!-- p0x5cf632c37ec0 -->
<g id="node2" class="node">
<title>p0x5cf632c37ec0</title>
<polygon fill="lightpink" stroke="purple" points="161,-578.47 161,-614.47 215,-614.47 215,-578.47 161,-578.47"/>
<text text-anchor="middle" x="187.88" y="-591.42" font-family="Times,serif" font-size="14.00">*</text>
</g>
<!-- p0x5cf632c39940&#45;&gt;p0x5cf632c37ec0 -->
<g id="edge1" class="edge">
<title>p0x5cf632c39940&#45;&gt;p0x5cf632c37ec0</title>
<path fill="none" stroke="gray" d="M219.08,-651.28C213.48,-641.6 206.45,-629.42 200.49,-619.1"/>
<polygon fill="gray" stroke="gray" points="201.8,-618.57 198.59,-615.81 199.38,-619.97 201.8,-618.57"/>
</g>
<!-- p0x5cf632c39910 -->
<g id="node12" class="node">
<title>p0x5cf632c39910</title>
<polygon fill="lightpink" stroke="purple" points="271,-578.47 271,-614.47 325,-614.47 325,-578.47 271,-578.47"/>
<text text-anchor="middle" x="297.62" y="-591.42" font-family="Times,serif" font-size="14.00">+</text>
</g>
<!-- p0x5cf632c39940&#45;&gt;p0x5cf632c39910 -->
<g id="edge11" class="edge">
<title>p0x5cf632c39940&#45;&gt;p0x5cf632c39910</title>
<path fill="none" stroke="gray" d="M245.7,-651.28C255.36,-641.34 267.59,-628.76 277.79,-618.26"/>
<polygon fill="gray" stroke="gray" points="278.61,-619.43 280.4,-615.58 276.6,-617.48 278.61,-619.43"/>
</g>
<!-- p0x5cf632c39970 -->
<g id="node3" class="node">
<title>p0x5cf632c39970</title>
<polygon fill="lightpink" stroke="purple" points="65,-505.37 65,-541.37 119,-541.37 119,-505.37 65,-505.37"/>
<text text-anchor="middle" x="91.88" y="-518.32" font-family="Times,serif" font-size="14.00">*</text>
</g>
<!-- p0x5cf632c37ec0&#45;&gt;p0x5cf632c39970 -->
<g id="edge2" class="edge">
<title>p0x5cf632c37ec0&#45;&gt;p0x5cf632c39970</title>
<path fill="none" stroke="gray" d="M164.76,-578.26C151.18,-568.2 133.96,-555.45 119.69,-544.88"/>
<polygon fill="gray" stroke="gray" points="120.62,-543.83 116.57,-542.57 118.96,-546.08 120.62,-543.83"/>
</g>
<!-- p0x5cf632c37e90 -->
<g id="node8" class="node">
<title>p0x5cf632c37e90</title>
<polygon fill="lightpink" stroke="purple" points="161,-505.37 161,-541.37 215,-541.37 215,-505.37 161,-505.37"/>
<text text-anchor="middle" x="188" y="-518.32" font-family="Times,serif" font-size="14.00">cos</text>
</g>
<!-- p0x5cf632c37ec0&#45;&gt;p0x5cf632c37e90 -->
<g id="edge7" class="edge">
<title>p0x5cf632c37ec0&#45;&gt;p0x5cf632c37e90</title>
<path fill="none" stroke="gray" d="M188,-578.26C188,-568.83 188,-557.03 188,-546.87"/>
<polygon fill="gray" stroke="gray" points="189.4,-546.94 188,-542.94 186.6,-546.94 189.4,-546.94"/>
</g>
<!-- p0x5cf632c399a0 -->
<g id="node4" class="node">
<title>p0x5cf632c399a0</title>
<ellipse fill="lightgreen" stroke="green" cx="18" cy="-450.28" rx="18" ry="18"/>
<text text-anchor="middle" x="18" y="-445.23" font-family="Times,serif" font-size="14.00">5</text>
</g>
<!-- p0x5cf632c39970&#45;&gt;p0x5cf632c399a0 -->
<g id="edge3" class="edge">
<title>p0x5cf632c39970&#45;&gt;p0x5cf632c399a0</title>
<path fill="none" stroke="gray" d="M74.09,-505.16C61.94,-493.5 46.02,-478.2 34.25,-466.89"/>
<polygon fill="gray" stroke="gray" points="35.37,-466.02 31.51,-464.26 33.43,-468.04 35.37,-466.02"/>
</g>
<!-- p0x5cf632c399d0 -->
<g id="node5" class="node">
<title>p0x5cf632c399d0</title>
<polygon fill="lightpink" stroke="purple" points="65,-432.28 65,-468.28 119,-468.28 119,-432.28 65,-432.28"/>
<text text-anchor="middle" x="91.88" y="-445.23" font-family="Times,serif" font-size="14.00">^</text>
</g>
<!-- p0x5cf632c39970&#45;&gt;p0x5cf632c399d0 -->
<g id="edge4" class="edge">
<title>p0x5cf632c39970&#45;&gt;p0x5cf632c399d0</title>
<path fill="none" stroke="gray" d="M92,-505.16C92,-495.73 92,-483.93 92,-473.78"/>
<polygon fill="gray" stroke="gray" points="93.4,-473.84 92,-469.84 90.6,-473.84 93.4,-473.84"/>
</g>
<!-- p0x5cf632c39a00 -->
<g id="node6" class="node">
<title>p0x5cf632c39a00</title>
<ellipse fill="lightblue" stroke="blue" cx="23" cy="-373.78" rx="18" ry="18"/>
<ellipse fill="none" stroke="blue" cx="23" cy="-373.78" rx="22" ry="22"/>
<text text-anchor="middle" x="23" y="-368.73" font-family="Times,serif" font-size="14.00">x</text>
</g>
<!-- p0x5cf632c399d0&#45;&gt;p0x5cf632c39a00 -->
<g id="edge5" class="edge">
<title>p0x5cf632c399d0&#45;&gt;p0x5cf632c39a00</title>
<path fill="none" stroke="gray" d="M76,-432C65.55,-420.72 51.9,-405.98 41.06,-394.28"/>
<polygon fill="gray" stroke="gray" points="42.28,-393.54 38.54,-391.55 40.23,-395.44 42.28,-393.54"/>
</g>
<!-- p0x5cf632c39a30 -->
<g id="node7" class="node">
<title>p0x5cf632c39a30</title>
<ellipse fill="lightgreen" stroke="green" cx="92" cy="-373.78" rx="18" ry="18"/>
<text text-anchor="middle" x="92" y="-368.73" font-family="Times,serif" font-size="14.00">4</text>
</g>
<!-- p0x5cf632c399d0&#45;&gt;p0x5cf632c39a30 -->
<g id="edge6" class="edge">
<title>p0x5cf632c399d0&#45;&gt;p0x5cf632c39a30</title>
<path fill="none" stroke="gray" d="M92,-432C92,-421.73 92,-408.59 92,-397.49"/>
<polygon fill="gray" stroke="gray" points="93.4,-397.74 92,-393.74 90.6,-397.74 93.4,-397.74"/>
</g>
<!-- p0x5cf632c37e00 -->
<g id="node9" class="node">
<title>p0x5cf632c37e00</title>
<polygon fill="lightpink" stroke="purple" points="161,-432.28 161,-468.28 215,-468.28 215,-432.28 161,-432.28"/>
<text text-anchor="middle" x="187.88" y="-445.23" font-family="Times,serif" font-size="14.00">^</text>
</g>
<!-- p0x5cf632c37e90&#45;&gt;p0x5cf632c37e00 -->
<g id="edge8" class="edge">
<title>p0x5cf632c37e90&#45;&gt;p0x5cf632c37e00</title>
<path fill="none" stroke="gray" d="M188,-505.16C188,-495.73 188,-483.93 188,-473.78"/>
<polygon fill="gray" stroke="gray" points="189.4,-473.84 188,-469.84 186.6,-473.84 189.4,-473.84"/>
</g>
<!-- p0x5cf632c37e30 -->
<g id="node10" class="node">
<title>p0x5cf632c37e30</title>
<ellipse fill="lightblue" stroke="blue" cx="161" cy="-373.78" rx="18" ry="18"/>
<ellipse fill="none" stroke="blue" cx="161" cy="-373.78" rx="22" ry="22"/>
<text text-anchor="middle" x="161" y="-368.73" font-family="Times,serif" font-size="14.00">x</text>
</g>
<!-- p0x5cf632c37e00&#45;&gt;p0x5cf632c37e30 -->
<g id="edge9" class="edge">
<title>p0x5cf632c37e00&#45;&gt;p0x5cf632c37e30</title>
<path fill="none" stroke="gray" d="M181.74,-432C178.28,-422.47 173.93,-410.46 170.11,-399.91"/>
<polygon fill="gray" stroke="gray" points="171.47,-399.57 168.8,-396.29 168.84,-400.53 171.47,-399.57"/>
</g>
<!-- p0x5cf632c37e60 -->
<g id="node11" class="node">
<title>p0x5cf632c37e60</title>
<ellipse fill="lightgreen" stroke="green" cx="230" cy="-373.78" rx="18" ry="18"/>
<text text-anchor="middle" x="230" y="-368.73" font-family="Times,serif" font-size="14.00">5</text>
</g>
<!-- p0x5cf632c37e00&#45;&gt;p0x5cf632c37e60 -->
<g id="edge10" class="edge">
<title>p0x5cf632c37e00&#45;&gt;p0x5cf632c37e60</title>
<path fill="none" stroke="gray" d="M197.74,-432C204.02,-420.87 212.2,-406.35 218.75,-394.73"/>
<polygon fill="gray" stroke="gray" points="219.96,-395.44 220.71,-391.26 217.52,-394.06 219.96,-395.44"/>
</g>
<!-- p0x5cf632c38190 -->
<g id="node13" class="node">
<title>p0x5cf632c38190</title>
<ellipse fill="lightgreen" stroke="green" cx="298" cy="-523.37" rx="18.6" ry="18.6"/>
<text text-anchor="middle" x="298" y="-518.32" font-family="Times,serif" font-size="14.00">&#45;1</text>
</g>
<!-- p0x5cf632c39910&#45;&gt;p0x5cf632c38190 -->
<g id="edge12" class="edge">
<title>p0x5cf632c39910&#45;&gt;p0x5cf632c38190</title>
<path fill="none" stroke="gray" d="M298,-578.26C298,-569.11 298,-557.72 298,-547.77"/>
<polygon fill="gray" stroke="gray" points="299.4,-547.93 298,-543.93 296.6,-547.93 299.4,-547.93"/>
</g>
<!-- p0x5cf632c396e0 -->
<g id="node14" class="node">
<title>p0x5cf632c396e0</title>
<polygon fill="lightpink" stroke="purple" points="353,-505.37 353,-541.37 407,-541.37 407,-505.37 353,-505.37"/>
<text text-anchor="middle" x="379.88" y="-518.32" font-family="Times,serif" font-size="14.00">*</text>
</g>
<!-- p0x5cf632c39910&#45;&gt;p0x5cf632c396e0 -->
<g id="edge13" class="edge">
<title>p0x5cf632c39910&#45;&gt;p0x5cf632c396e0</title>
<path fill="none" stroke="gray" d="M317.85,-578.26C329.35,-568.29 343.9,-555.67 356.03,-545.15"/>
<polygon fill="gray" stroke="gray" points="356.8,-546.34 358.91,-542.66 354.97,-544.23 356.8,-546.34"/>
</g>
<!-- p0x5cf632c392f0 -->
<g id="node15" class="node">
<title>p0x5cf632c392f0</title>
<polygon fill="lightpink" stroke="purple" points="353,-432.28 353,-468.28 407,-468.28 407,-432.28 353,-432.28"/>
<text text-anchor="middle" x="379.88" y="-445.23" font-family="Times,serif" font-size="14.00">/</text>
</g>
<!-- p0x5cf632c396e0&#45;&gt;p0x5cf632c392f0 -->
<g id="edge14" class="edge">
<title>p0x5cf632c396e0&#45;&gt;p0x5cf632c392f0</title>
<path fill="none" stroke="gray" d="M380,-505.16C380,-495.73 380,-483.93 380,-473.78"/>
<polygon fill="gray" stroke="gray" points="381.4,-473.84 380,-469.84 378.6,-473.84 381.4,-473.84"/>
</g>
<!-- p0x5cf632c396b0 -->
<g id="node30" class="node">
<title>p0x5cf632c396b0</title>
<polygon fill="lightpink" stroke="purple" points="479,-432.28 479,-468.28 533,-468.28 533,-432.28 479,-432.28"/>
<text text-anchor="middle" x="506" y="-445.23" font-family="Times,serif" font-size="14.00">cos</text>
</g>
<!-- p0x5cf632c396e0&#45;&gt;p0x5cf632c396b0 -->
<g id="edge29" class="edge">
<title>p0x5cf632c396e0&#45;&gt;p0x5cf632c396b0</title>
<path fill="none" stroke="gray" d="M407.34,-506.95C426.99,-495.86 453.54,-480.88 474.14,-469.25"/>
<polygon fill="gray" stroke="gray" points="474.6,-470.6 477.4,-467.42 473.22,-468.17 474.6,-470.6"/>
</g>
<!-- p0x5cf632c38f60 -->
<g id="node16" class="node">
<title>p0x5cf632c38f60</title>
<polygon fill="lightpink" stroke="purple" points="277,-355.78 277,-391.78 331,-391.78 331,-355.78 277,-355.78"/>
<text text-anchor="middle" x="303.88" y="-368.73" font-family="Times,serif" font-size="14.00">*</text>
</g>
<!-- p0x5cf632c392f0&#45;&gt;p0x5cf632c38f60 -->
<g id="edge15" class="edge">
<title>p0x5cf632c392f0&#45;&gt;p0x5cf632c38f60</title>
<path fill="none" stroke="gray" d="M362.37,-432C351.42,-421.26 337.26,-407.39 325.63,-395.98"/>
<polygon fill="gray" stroke="gray" points="326.71,-395.08 322.88,-393.28 324.75,-397.08 326.71,-395.08"/>
</g>
<!-- p0x5cf632c39200 -->
<g id="node27" class="node">
<title>p0x5cf632c39200</title>
<polygon fill="lightpink" stroke="purple" points="360,-355.78 360,-391.78 414,-391.78 414,-355.78 360,-355.78"/>
<text text-anchor="middle" x="386.88" y="-368.73" font-family="Times,serif" font-size="14.00">^</text>
</g>
<!-- p0x5cf632c392f0&#45;&gt;p0x5cf632c39200 -->
<g id="edge26" class="edge">
<title>p0x5cf632c392f0&#45;&gt;p0x5cf632c39200</title>
<path fill="none" stroke="gray" d="M381.62,-432C382.59,-421.73 383.82,-408.59 384.87,-397.49"/>
<polygon fill="gray" stroke="gray" points="386.24,-397.84 385.22,-393.73 383.45,-397.58 386.24,-397.84"/>
</g>
<!-- p0x5cf632c38910 -->
<g id="node17" class="node">
<title>p0x5cf632c38910</title>
<polygon fill="lightpink" stroke="purple" points="194,-270.48 194,-306.48 248,-306.48 248,-270.48 194,-270.48"/>
<text text-anchor="middle" x="220.75" y="-283.43" font-family="Times,serif" font-size="14.00">exp</text>
</g>
<!-- p0x5cf632c38f60&#45;&gt;p0x5cf632c38910 -->
<g id="edge16" class="edge">
<title>p0x5cf632c38f60&#45;&gt;p0x5cf632c38910</title>
<path fill="none" stroke="gray" d="M286.8,-355.52C273.78,-342.45 255.83,-324.44 241.97,-310.53"/>
<polygon fill="gray" stroke="gray" points="243.06,-309.64 239.24,-307.79 241.08,-311.61 243.06,-309.64"/>
</g>
<!-- p0x5cf632c381f0 -->
<g id="node22" class="node">
<title>p0x5cf632c381f0</title>
<polygon fill="lightpink" stroke="purple" points="277,-270.48 277,-306.48 331,-306.48 331,-270.48 277,-270.48"/>
<text text-anchor="middle" x="303.88" y="-283.43" font-family="Times,serif" font-size="14.00">*</text>
</g>
<!-- p0x5cf632c38f60&#45;&gt;p0x5cf632c381f0 -->
<g id="edge21" class="edge">
<title>p0x5cf632c38f60&#45;&gt;p0x5cf632c381f0</title>
<path fill="none" stroke="gray" d="M304,-355.52C304,-342.9 304,-325.67 304,-311.97"/>
<polygon fill="gray" stroke="gray" points="305.4,-312.23 304,-308.23 302.6,-312.23 305.4,-312.23"/>
</g>
<!-- p0x5cf632c388e0 -->
<g id="node18" class="node">
<title>p0x5cf632c388e0</title>
<polygon fill="lightpink" stroke="purple" points="194,-179.89 194,-215.89 248,-215.89 248,-179.89 194,-179.89"/>
<text text-anchor="middle" x="220.88" y="-192.84" font-family="Times,serif" font-size="14.00">*</text>
</g>
<!-- p0x5cf632c38910&#45;&gt;p0x5cf632c388e0 -->
<g id="edge17" class="edge">
<title>p0x5cf632c38910&#45;&gt;p0x5cf632c388e0</title>
<path fill="none" stroke="gray" d="M221,-270.4C221,-256.52 221,-236.81 221,-221.6"/>
<polygon fill="gray" stroke="gray" points="222.4,-221.73 221,-217.73 219.6,-221.73 222.4,-221.73"/>
</g>
<!-- p0x5cf632c38160 -->
<g id="node19" class="node">
<title>p0x5cf632c38160</title>
<ellipse fill="lightgreen" stroke="green" cx="141" cy="-107.3" rx="27.3" ry="27.3"/>
<text text-anchor="middle" x="141" y="-102.25" font-family="Times,serif" font-size="14.00">0.75</text>
</g>
<!-- p0x5cf632c388e0&#45;&gt;p0x5cf632c38160 -->
<g id="edge18" class="edge">
<title>p0x5cf632c388e0&#45;&gt;p0x5cf632c38160</title>
<path fill="none" stroke="gray" d="M205.58,-179.81C193.27,-166.18 175.9,-146.94 162.27,-131.85"/>
<polygon fill="gray" stroke="gray" points="163.63,-131.26 159.91,-129.23 161.55,-133.14 163.63,-131.26"/>
</g>
<!-- p0x5cf632c388b0 -->
<g id="node20" class="node">
<title>p0x5cf632c388b0</title>
<polygon fill="lightpink" stroke="purple" points="197,-89.3 197,-125.3 251,-125.3 251,-89.3 197,-89.3"/>
<text text-anchor="middle" x="223.75" y="-102.25" font-family="Times,serif" font-size="14.00">ln</text>
</g>
<!-- p0x5cf632c388e0&#45;&gt;p0x5cf632c388b0 -->
<g id="edge19" class="edge">
<title>p0x5cf632c388e0&#45;&gt;p0x5cf632c388b0</title>
<path fill="none" stroke="gray" d="M221.58,-179.81C222.05,-165.93 222.72,-146.22 223.23,-131.01"/>
<polygon fill="gray" stroke="gray" points="224.63,-131.19 223.36,-127.14 221.83,-131.09 224.63,-131.19"/>
</g>
<!-- p0x5cf632c38880 -->
<g id="node21" class="node">
<title>p0x5cf632c38880</title>
<ellipse fill="lightblue" stroke="blue" cx="224" cy="-22" rx="18" ry="18"/>
<ellipse fill="none" stroke="blue" cx="224" cy="-22" rx="22" ry="22"/>
<text text-anchor="middle" x="224" y="-16.95" font-family="Times,serif" font-size="14.00">x</text>
</g>
<!-- p0x5cf632c388b0&#45;&gt;p0x5cf632c38880 -->
<g id="edge20" class="edge">
<title>p0x5cf632c388b0&#45;&gt;p0x5cf632c38880</title>
<path fill="none" stroke="gray" d="M224,-89.04C224,-77.7 224,-62.63 224,-49.75"/>
<polygon fill="gray" stroke="gray" points="225.4,-49.9 224,-45.9 222.6,-49.9 225.4,-49.9"/>
</g>
<!-- p0x5cf632c38220 -->
<g id="node23" class="node">
<title>p0x5cf632c38220</title>
<polygon fill="lightpink" stroke="purple" points="277,-179.89 277,-215.89 331,-215.89 331,-179.89 277,-179.89"/>
<text text-anchor="middle" x="303.88" y="-192.84" font-family="Times,serif" font-size="14.00">/</text>
</g>
<!-- p0x5cf632c381f0&#45;&gt;p0x5cf632c38220 -->
<g id="edge22" class="edge">
<title>p0x5cf632c381f0&#45;&gt;p0x5cf632c38220</title>
<path fill="none" stroke="gray" d="M304,-270.4C304,-256.52 304,-236.81 304,-221.6"/>
<polygon fill="gray" stroke="gray" points="305.4,-221.73 304,-217.73 302.6,-221.73 305.4,-221.73"/>
</g>
<!-- p0x5cf632c38940 -->
<g id="node26" class="node">
<title>p0x5cf632c38940</title>
<ellipse fill="lightgreen" stroke="green" cx="387" cy="-197.89" rx="27.3" ry="27.3"/>
<text text-anchor="middle" x="387" y="-192.84" font-family="Times,serif" font-size="14.00">0.75</text>
</g>
<!-- p0x5cf632c381f0&#45;&gt;p0x5cf632c38940 -->
<g id="edge25" class="edge">
<title>p0x5cf632c381f0&#45;&gt;p0x5cf632c38940</title>
<path fill="none" stroke="gray" d="M320,-270.4C332.86,-256.68 351.04,-237.27 365.22,-222.14"/>
<polygon fill="gray" stroke="gray" points="365.99,-223.37 367.7,-219.49 363.94,-221.45 365.99,-223.37"/>
</g>
<!-- p0x5cf632c38a90 -->
<g id="node24" class="node">
<title>p0x5cf632c38a90</title>
<ellipse fill="lightgreen" stroke="green" cx="302" cy="-107.3" rx="18" ry="18"/>
<text text-anchor="middle" x="302" y="-102.25" font-family="Times,serif" font-size="14.00">1</text>
</g>
<!-- p0x5cf632c38220&#45;&gt;p0x5cf632c38a90 -->
<g id="edge23" class="edge">
<title>p0x5cf632c38220&#45;&gt;p0x5cf632c38a90</title>
<path fill="none" stroke="gray" d="M303.61,-179.81C303.3,-165.93 302.86,-146.22 302.51,-131.01"/>
<polygon fill="gray" stroke="gray" points="303.92,-131.11 302.43,-127.14 301.12,-131.17 303.92,-131.11"/>
</g>
<!-- p0x5cf632c38ac0 -->
<g id="node25" class="node">
<title>p0x5cf632c38ac0</title>
<ellipse fill="lightblue" stroke="blue" cx="371" cy="-107.3" rx="18" ry="18"/>
<ellipse fill="none" stroke="blue" cx="371" cy="-107.3" rx="22" ry="22"/>
<text text-anchor="middle" x="371" y="-102.25" font-family="Times,serif" font-size="14.00">x</text>
</g>
<!-- p0x5cf632c38220&#45;&gt;p0x5cf632c38ac0 -->
<g id="edge24" class="edge">
<title>p0x5cf632c38220&#45;&gt;p0x5cf632c38ac0</title>
<path fill="none" stroke="gray" d="M316.92,-179.81C327.76,-165.47 343.31,-144.92 354.95,-129.52"/>
<polygon fill="gray" stroke="gray" points="355.91,-130.57 357.21,-126.53 353.68,-128.88 355.91,-130.57"/>
</g>
<!-- p0x5cf632c39230 -->
<g id="node28" class="node">
<title>p0x5cf632c39230</title>
<ellipse fill="lightblue" stroke="blue" cx="382" cy="-288.48" rx="18" ry="18"/>
<ellipse fill="none" stroke="blue" cx="382" cy="-288.48" rx="22" ry="22"/>
<text text-anchor="middle" x="382" y="-283.43" font-family="Times,serif" font-size="14.00">x</text>
</g>
<!-- p0x5cf632c39200&#45;&gt;p0x5cf632c39230 -->
<g id="edge27" class="edge">
<title>p0x5cf632c39200&#45;&gt;p0x5cf632c39230</title>
<path fill="none" stroke="gray" d="M385.96,-355.52C385.28,-344.18 384.38,-329.11 383.61,-316.23"/>
<polygon fill="gray" stroke="gray" points="385.01,-316.29 383.37,-312.38 382.22,-316.45 385.01,-316.29"/>
</g>
<!-- p0x5cf632c38970 -->
<g id="node29" class="node">
<title>p0x5cf632c38970</title>
<ellipse fill="lightgreen" stroke="green" cx="460" cy="-288.48" rx="27.3" ry="27.3"/>
<text text-anchor="middle" x="460" y="-283.43" font-family="Times,serif" font-size="14.00">0.75</text>
</g>
<!-- p0x5cf632c39200&#45;&gt;p0x5cf632c38970 -->
<g id="edge28" class="edge">
<title>p0x5cf632c39200&#45;&gt;p0x5cf632c38970</title>
<path fill="none" stroke="gray" d="M402.13,-355.52C412.72,-343.43 427.03,-327.1 438.77,-313.71"/>
<polygon fill="gray" stroke="gray" points="439.74,-314.72 441.33,-310.79 437.64,-312.88 439.74,-314.72"/>
</g>
<!-- p0x5cf632c39590 -->
<g id="node31" class="node">
<title>p0x5cf632c39590</title>
<polygon fill="lightpink" stroke="purple" points="498,-355.78 498,-391.78 552,-391.78 552,-355.78 498,-355.78"/>
<text text-anchor="middle" x="524.75" y="-368.73" font-family="Times,serif" font-size="14.00">ln</text>
</g>
<!-- p0x5cf632c396b0&#45;&gt;p0x5cf632c39590 -->
<g id="edge30" class="edge">
<title>p0x5cf632c396b0&#45;&gt;p0x5cf632c39590</title>
<path fill="none" stroke="gray" d="M510.41,-432C513.03,-421.73 516.38,-408.59 519.21,-397.49"/>
<polygon fill="gray" stroke="gray" points="520.55,-397.91 520.18,-393.69 517.83,-397.22 520.55,-397.91"/>
</g>
<!-- p0x5cf632c395c0 -->
<g id="node32" class="node">
<title>p0x5cf632c395c0</title>
<polygon fill="lightpink" stroke="purple" points="516,-270.48 516,-306.48 570,-306.48 570,-270.48 516,-270.48"/>
<text text-anchor="middle" x="542.88" y="-283.43" font-family="Times,serif" font-size="14.00">^</text>
</g>
<!-- p0x5cf632c39590&#45;&gt;p0x5cf632c395c0 -->
<g id="edge31" class="edge">
<title>p0x5cf632c39590&#45;&gt;p0x5cf632c395c0</title>
<path fill="none" stroke="gray" d="M528.73,-355.52C531.46,-342.9 535.18,-325.67 538.14,-311.97"/>
<polygon fill="gray" stroke="gray" points="539.48,-312.4 538.96,-308.2 536.74,-311.81 539.48,-312.4"/>
</g>
<!-- p0x5cf632c395f0 -->
<g id="node33" class="node">
<title>p0x5cf632c395f0</title>
<ellipse fill="lightblue" stroke="blue" cx="504" cy="-197.89" rx="18" ry="18"/>
<ellipse fill="none" stroke="blue" cx="504" cy="-197.89" rx="22" ry="22"/>
<text text-anchor="middle" x="504" y="-192.84" font-family="Times,serif" font-size="14.00">x</text>
</g>
<!-- p0x5cf632c395c0&#45;&gt;p0x5cf632c395f0 -->
<g id="edge32" class="edge">
<title>p0x5cf632c395c0&#45;&gt;p0x5cf632c395f0</title>
<path fill="none" stroke="gray" d="M535.48,-270.4C529.59,-257.03 521.33,-238.26 514.75,-223.3"/>
<polygon fill="gray" stroke="gray" points="516.09,-222.87 513.19,-219.77 513.52,-224 516.09,-222.87"/>
</g>
<!-- p0x5cf632c38d50 -->
<g id="node34" class="node">
<title>p0x5cf632c38d50</title>
<ellipse fill="lightgreen" stroke="green" cx="582" cy="-197.89" rx="27.3" ry="27.3"/>
<text text-anchor="middle" x="582" y="-192.84" font-family="Times,serif" font-size="14.00">0.75</text>
</g>
<!-- p0x5cf632c395c0&#45;&gt;p0x5cf632c38d50 -->
<g id="edge33" class="edge">
<title>p0x5cf632c395c0&#45;&gt;p0x5cf632c38d50</title>
<path fill="none" stroke="gray" d="M550.52,-270.4C555.76,-258.49 562.89,-242.29 569.04,-228.32"/>
<polygon fill="gray" stroke="gray" points="570.32,-228.9 570.65,-224.67 567.76,-227.77 570.32,-228.9"/>
</g>
</g>
</svg>
