<?xml version="1.0" encoding="UTF-8" standalone="no"?>
<!DOCTYPE svg PUBLIC "-//W3C//DTD SVG 1.1//EN"
 "http://www.w3.org/Graphics/SVG/1.1/DTD/svg11.dtd">
<!-- Generated by graphviz version 12.1.2 (0)
 -->
<!-- Title: diffTree Pages: 1 -->
<svg width="135pt" height="278pt"
 viewBox="0.00 0.00 135.00 278.00" xmlns="http://www.w3.org/2000/svg" xmlns:xlink="http://www.w3.org/1999/xlink">
<g id="graph0" class="graph" transform="scale(1 1) rotate(0) translate(4 274)">
<title>diffTree</title>
<polygon fill="white" stroke="none" points="-4,4 -4,-274 131,-274 131,4 -4,4"/>
<!-- p0x63ce88ee5d50 -->
<g id="node1" class="node">
<title>p0x63ce88ee5d50</title>
<polygon fill="lightpink" stroke="purple" points="39,-233.5 39,-269.5 93,-269.5 93,-233.5 39,-233.5"/>
<text text-anchor="middle" x="66" y="-246.45" font-family="Times,serif" font-size="14.00">cos</text>
</g>
<!-- p0x63ce88ee5d20 -->
<g id="node2" class="node">
<title>p0x63ce88ee5d20</title>
<polygon fill="lightpink" stroke="purple" points="39,-160.5 39,-196.5 93,-196.5 93,-160.5 39,-160.5"/>
<text text-anchor="middle" x="65.62" y="-173.45" font-family="Times,serif" font-size="14.00">+</text>
</g>
<!-- p0x63ce88ee5d50&#45;&gt;p0x63ce88ee5d20 -->
<g id="edge1" class="edge">
<title>p0x63ce88ee5d50&#45;&gt;p0x63ce88ee5d20</title>
<path fill="none" stroke="gray" d="M66,-233.31C66,-223.89 66,-212.11 66,-201.97"/>
<polygon fill="gray" stroke="gray" points="67.4,-202.04 66,-198.04 64.6,-202.04 67.4,-202.04"/>
</g>
<!-- p0x63ce88ee5900 -->
<g id="node3" class="node">
<title>p0x63ce88ee5900</title>
<polygon fill="lightpink" stroke="purple" points="0,-84 0,-120 54,-120 54,-84 0,-84"/>
<text text-anchor="middle" x="26.75" y="-96.95" font-family="Times,serif" font-size="14.00">ln</text>
</g>
<!-- p0x63ce88ee5d20&#45;&gt;p0x63ce88ee5900 -->
<g id="edge2" class="edge">
<title>p0x63ce88ee5d20&#45;&gt;p0x63ce88ee5900</title>
<path fill="none" stroke="gray" d="M56.95,-160.22C51.48,-149.76 44.45,-136.33 38.57,-125.1"/>
<polygon fill="gray" stroke="gray" points="39.93,-124.68 36.83,-121.78 37.45,-125.98 39.93,-124.68"/>
</g>
<!-- p0x63ce88ee5970 -->
<g id="node5" class="node">
<title>p0x63ce88ee5970</title>
<ellipse fill="lightblue" stroke="blue" cx="105" cy="-102" rx="18" ry="18"/>
<ellipse fill="none" stroke="blue" cx="105" cy="-102" rx="22" ry="22"/>
<text text-anchor="middle" x="105" y="-96.95" font-family="Times,serif" font-size="14.00">x</text>
</g>
<!-- p0x63ce88ee5d20&#45;&gt;p0x63ce88ee5970 -->
<g id="edge4" class="edge">
<title>p0x63ce88ee5d20&#45;&gt;p0x63ce88ee5970</title>
<path fill="none" stroke="gray" d="M75.05,-160.22C80.24,-150.31 86.83,-137.71 92.51,-126.86"/>
<polygon fill="gray" stroke="gray" points="93.73,-127.55 94.34,-123.36 91.25,-126.25 93.73,-127.55"/>
</g>
<!-- p0x63ce88ee58d0 -->
<g id="node4" class="node">
<title>p0x63ce88ee58d0</title>
<ellipse fill="lightblue" stroke="blue" cx="27" cy="-22" rx="18" ry="18"/>
<ellipse fill="none" stroke="blue" cx="27" cy="-22" rx="22" ry="22"/>
<text text-anchor="middle" x="27" y="-16.95" font-family="Times,serif" font-size="14.00">x</text>
</g>
<!-- p0x63ce88ee5900&#45;&gt;p0x63ce88ee58d0 -->
<g id="edge3" class="edge">
<title>p0x63ce88ee5900&#45;&gt;p0x63ce88ee58d0</title>
<path fill="none" stroke="gray" d="M27,-83.69C27,-73.74 27,-61.02 27,-49.81"/>
<polygon fill="gray" stroke="gray" points="28.4,-49.95 27,-45.95 25.6,-49.95 28.4,-49.95"/>
</g>
</g>
</svg>
