<?xml version="1.0" encoding="UTF-8" standalone="no"?>
<!DOCTYPE svg PUBLIC "-//W3C//DTD SVG 1.1//EN"
 "http://www.w3.org/Graphics/SVG/1.1/DTD/svg11.dtd">
<!-- Generated by graphviz version 12.1.2 (0)
 -->
<!-- Title: diffTree Pages: 1 -->
<svg width="198pt" height="243pt"
 viewBox="0.00 0.00 198.12 243.23" xmlns="http://www.w3.org/2000/svg" xmlns:xlink="http://www.w3.org/1999/xlink">
<g id="graph0" class="graph" transform="scale(1 1) rotate(0) translate(4 239.23)">
<title>diffTree</title>
<polygon fill="white" stroke="none" points="-4,4 -4,-239.23 194.12,-239.23 194.12,4 -4,4"/>
<!-- p0x636cd7718d50 -->
<g id="node1" class="node">
<title>p0x636cd7718d50</title>
<polygon fill="lightpink" stroke="purple" points="73,-198.73 73,-234.73 127,-234.73 127,-198.73 73,-198.73"/>
<text text-anchor="middle" x="99.88" y="-211.68" font-family="Times,serif" font-size="14.00">*</text>
</g>
<!-- p0x636cd7718940 -->
<g id="node2" class="node">
<title>p0x636cd7718940</title>
<polygon fill="lightpink" stroke="purple" points="25,-103.12 25,-139.12 79,-139.12 79,-103.12 25,-103.12"/>
<text text-anchor="middle" x="51.88" y="-116.07" font-family="Times,serif" font-size="14.00">^</text>
</g>
<!-- p0x636cd7718d50&#45;&gt;p0x636cd7718940 -->
<g id="edge1" class="edge">
<title>p0x636cd7718d50&#45;&gt;p0x636cd7718940</title>
<path fill="none" stroke="gray" d="M91.2,-198.56C83.33,-183.22 71.76,-160.66 63.23,-144.02"/>
<polygon fill="gray" stroke="gray" points="64.67,-143.76 61.6,-140.84 62.18,-145.04 64.67,-143.76"/>
</g>
<!-- p0x636cd7719d50 -->
<g id="node5" class="node">
<title>p0x636cd7719d50</title>
<ellipse fill="lightgreen" stroke="green" cx="149" cy="-121.12" rx="41.12" ry="41.12"/>
<text text-anchor="middle" x="149" y="-116.07" font-family="Times,serif" font-size="14.00">1.60944</text>
</g>
<!-- p0x636cd7718d50&#45;&gt;p0x636cd7719d50 -->
<g id="edge4" class="edge">
<title>p0x636cd7718d50&#45;&gt;p0x636cd7719d50</title>
<path fill="none" stroke="gray" d="M108.99,-198.56C114.25,-188.5 121.14,-175.34 127.72,-162.77"/>
<polygon fill="gray" stroke="gray" points="128.81,-163.71 129.42,-159.52 126.33,-162.42 128.81,-163.71"/>
</g>
<!-- p0x636cd77188e0 -->
<g id="node3" class="node">
<title>p0x636cd77188e0</title>
<ellipse fill="lightgreen" stroke="green" cx="18" cy="-22" rx="18" ry="18"/>
<text text-anchor="middle" x="18" y="-16.95" font-family="Times,serif" font-size="14.00">5</text>
</g>
<!-- p0x636cd7718940&#45;&gt;p0x636cd77188e0 -->
<g id="edge2" class="edge">
<title>p0x636cd7718940&#45;&gt;p0x636cd77188e0</title>
<path fill="none" stroke="gray" d="M45.92,-102.75C40.24,-86.54 31.75,-62.27 25.62,-44.76"/>
<polygon fill="gray" stroke="gray" points="26.94,-44.3 24.3,-40.99 24.3,-45.23 26.94,-44.3"/>
</g>
<!-- p0x636cd7718910 -->
<g id="node4" class="node">
<title>p0x636cd7718910</title>
<ellipse fill="lightblue" stroke="blue" cx="87" cy="-22" rx="18" ry="18"/>
<ellipse fill="none" stroke="blue" cx="87" cy="-22" rx="22" ry="22"/>
<text text-anchor="middle" x="87" y="-16.95" font-family="Times,serif" font-size="14.00">x</text>
</g>
<!-- p0x636cd7718940&#45;&gt;p0x636cd7718910 -->
<g id="edge3" class="edge">
<title>p0x636cd7718940&#45;&gt;p0x636cd7718910</title>
<path fill="none" stroke="gray" d="M58.26,-102.75C63.71,-87.62 71.69,-65.49 77.86,-48.37"/>
<polygon fill="gray" stroke="gray" points="79.16,-48.9 79.19,-44.66 76.52,-47.95 79.16,-48.9"/>
</g>
</g>
</svg>
