<?xml version="1.0" encoding="UTF-8" standalone="no"?>
<!DOCTYPE svg PUBLIC "-//W3C//DTD SVG 1.1//EN"
 "http://www.w3.org/Graphics/SVG/1.1/DTD/svg11.dtd">
<!-- Generated by graphviz version 12.1.2 (0)
 -->
<!-- Title: diffTree Pages: 1 -->
<svg width="1180pt" height="580pt"
 viewBox="0.00 0.00 1180.00 580.45" xmlns="http://www.w3.org/2000/svg" xmlns:xlink="http://www.w3.org/1999/xlink">
<g id="graph0" class="graph" transform="scale(1 1) rotate(0) translate(4 576.45)">
<title>diffTree</title>
<polygon fill="white" stroke="none" points="-4,4 -4,-576.45 1176,-576.45 1176,4 -4,4"/>
<!-- p0x5a15225ac710 -->
<g id="node1" class="node">
<title>p0x5a15225ac710</title>
<polygon fill="lightpink" stroke="purple" points="543,-535.95 543,-571.95 597,-571.95 597,-535.95 543,-535.95"/>
<text text-anchor="middle" x="569.62" y="-548.9" font-family="Times,serif" font-size="14.00">+</text>
</g>
<!-- p0x5a15225ab3c0 -->
<g id="node2" class="node">
<title>p0x5a15225ab3c0</title>
<polygon fill="lightpink" stroke="purple" points="476,-462.95 476,-498.95 530,-498.95 530,-462.95 476,-462.95"/>
<text text-anchor="middle" x="502.88" y="-475.9" font-family="Times,serif" font-size="14.00">*</text>
</g>
<!-- p0x5a15225ac710&#45;&gt;p0x5a15225ab3c0 -->
<g id="edge1" class="edge">
<title>p0x5a15225ac710&#45;&gt;p0x5a15225ab3c0</title>
<path fill="none" stroke="gray" d="M553.78,-535.77C544.4,-525.82 532.53,-513.24 522.62,-502.75"/>
<polygon fill="gray" stroke="gray" points="523.87,-502.03 520.11,-500.08 521.84,-503.95 523.87,-502.03"/>
</g>
<!-- p0x5a15225ac6d0 -->
<g id="node30" class="node">
<title>p0x5a15225ac6d0</title>
<polygon fill="lightpink" stroke="purple" points="616,-462.95 616,-498.95 670,-498.95 670,-462.95 616,-462.95"/>
<text text-anchor="middle" x="642.75" y="-475.9" font-family="Times,serif" font-size="14.00">&#45;</text>
</g>
<!-- p0x5a15225ac710&#45;&gt;p0x5a15225ac6d0 -->
<g id="edge29" class="edge">
<title>p0x5a15225ac710&#45;&gt;p0x5a15225ac6d0</title>
<path fill="none" stroke="gray" d="M587.67,-535.77C597.82,-525.9 610.64,-513.43 621.38,-502.98"/>
<polygon fill="gray" stroke="gray" points="622.26,-504.08 624.15,-500.28 620.31,-502.07 622.26,-504.08"/>
</g>
<!-- p0x5a15225aaf10 -->
<g id="node3" class="node">
<title>p0x5a15225aaf10</title>
<polygon fill="lightpink" stroke="purple" points="368,-388.32 368,-424.32 422,-424.32 422,-388.32 368,-388.32"/>
<text text-anchor="middle" x="394.88" y="-401.27" font-family="Times,serif" font-size="14.00">/</text>
</g>
<!-- p0x5a15225ab3c0&#45;&gt;p0x5a15225aaf10 -->
<g id="edge2" class="edge">
<title>p0x5a15225ab3c0&#45;&gt;p0x5a15225aaf10</title>
<path fill="none" stroke="gray" d="M477.13,-462.56C461.5,-452.05 441.51,-438.6 425.16,-427.61"/>
<polygon fill="gray" stroke="gray" points="426.01,-426.49 421.91,-425.42 424.45,-428.82 426.01,-426.49"/>
</g>
<!-- p0x5a15225ab380 -->
<g id="node22" class="node">
<title>p0x5a15225ab380</title>
<polygon fill="lightpink" stroke="purple" points="476,-388.32 476,-424.32 530,-424.32 530,-388.32 476,-388.32"/>
<text text-anchor="middle" x="502.88" y="-401.27" font-family="Times,serif" font-size="14.00">*</text>
</g>
<!-- p0x5a15225ab3c0&#45;&gt;p0x5a15225ab380 -->
<g id="edge21" class="edge">
<title>p0x5a15225ab3c0&#45;&gt;p0x5a15225ab380</title>
<path fill="none" stroke="gray" d="M503,-462.74C503,-452.88 503,-440.4 503,-429.77"/>
<polygon fill="gray" stroke="gray" points="504.4,-429.93 503,-425.93 501.6,-429.93 504.4,-429.93"/>
</g>
<!-- p0x5a15225aab60 -->
<g id="node4" class="node">
<title>p0x5a15225aab60</title>
<polygon fill="lightpink" stroke="purple" points="255,-313.6 255,-349.6 309,-349.6 309,-313.6 255,-313.6"/>
<text text-anchor="middle" x="281.88" y="-326.55" font-family="Times,serif" font-size="14.00">/</text>
</g>
<!-- p0x5a15225aaf10&#45;&gt;p0x5a15225aab60 -->
<g id="edge3" class="edge">
<title>p0x5a15225aaf10&#45;&gt;p0x5a15225aab60</title>
<path fill="none" stroke="gray" d="M367.93,-387.9C351.44,-377.29 330.31,-363.69 313.12,-352.63"/>
<polygon fill="gray" stroke="gray" points="314.24,-351.68 310.12,-350.69 312.72,-354.03 314.24,-351.68"/>
</g>
<!-- p0x5a15225aae10 -->
<g id="node18" class="node">
<title>p0x5a15225aae10</title>
<polygon fill="lightpink" stroke="purple" points="368,-313.6 368,-349.6 422,-349.6 422,-313.6 368,-313.6"/>
<text text-anchor="middle" x="394.62" y="-326.55" font-family="Times,serif" font-size="14.00">sqrt</text>
</g>
<!-- p0x5a15225aaf10&#45;&gt;p0x5a15225aae10 -->
<g id="edge17" class="edge">
<title>p0x5a15225aaf10&#45;&gt;p0x5a15225aae10</title>
<path fill="none" stroke="gray" d="M395,-388.09C395,-378.29 395,-365.89 395,-355.31"/>
<polygon fill="gray" stroke="gray" points="396.4,-355.47 395,-351.47 393.6,-355.47 396.4,-355.47"/>
</g>
<!-- p0x5a15225aa7a0 -->
<g id="node5" class="node">
<title>p0x5a15225aa7a0</title>
<polygon fill="lightpink" stroke="purple" points="142,-240.5 142,-276.5 196,-276.5 196,-240.5 142,-240.5"/>
<text text-anchor="middle" x="168.88" y="-253.45" font-family="Times,serif" font-size="14.00">*</text>
</g>
<!-- p0x5a15225aab60&#45;&gt;p0x5a15225aa7a0 -->
<g id="edge4" class="edge">
<title>p0x5a15225aab60&#45;&gt;p0x5a15225aa7a0</title>
<path fill="none" stroke="gray" d="M254.65,-313.39C238.53,-303.24 218.05,-290.36 201.16,-279.73"/>
<polygon fill="gray" stroke="gray" points="201.91,-278.55 197.77,-277.6 200.42,-280.92 201.91,-278.55"/>
</g>
<!-- p0x5a15225aab20 -->
<g id="node12" class="node">
<title>p0x5a15225aab20</title>
<polygon fill="lightpink" stroke="purple" points="255,-240.5 255,-276.5 309,-276.5 309,-240.5 255,-240.5"/>
<text text-anchor="middle" x="281.88" y="-253.45" font-family="Times,serif" font-size="14.00">*</text>
</g>
<!-- p0x5a15225aab60&#45;&gt;p0x5a15225aab20 -->
<g id="edge11" class="edge">
<title>p0x5a15225aab60&#45;&gt;p0x5a15225aab20</title>
<path fill="none" stroke="gray" d="M282,-313.39C282,-303.95 282,-292.15 282,-282"/>
<polygon fill="gray" stroke="gray" points="283.4,-282.07 282,-278.07 280.6,-282.07 283.4,-282.07"/>
</g>
<!-- p0x5a15225aa560 -->
<g id="node6" class="node">
<title>p0x5a15225aa560</title>
<polygon fill="lightpink" stroke="purple" points="59,-164 59,-200 113,-200 113,-164 59,-164"/>
<text text-anchor="middle" x="85.88" y="-176.95" font-family="Times,serif" font-size="14.00">^</text>
</g>
<!-- p0x5a15225aa7a0&#45;&gt;p0x5a15225aa560 -->
<g id="edge5" class="edge">
<title>p0x5a15225aa7a0&#45;&gt;p0x5a15225aa560</title>
<path fill="none" stroke="gray" d="M149.75,-240.22C137.68,-229.39 122.06,-215.36 109.3,-203.91"/>
<polygon fill="gray" stroke="gray" points="110.47,-203.08 106.56,-201.45 108.6,-205.17 110.47,-203.08"/>
</g>
<!-- p0x5a15225ac7d0 -->
<g id="node9" class="node">
<title>p0x5a15225ac7d0</title>
<polygon fill="lightpink" stroke="purple" points="142,-164 142,-200 196,-200 196,-164 142,-164"/>
<text text-anchor="middle" x="168.88" y="-176.95" font-family="Times,serif" font-size="14.00">/</text>
</g>
<!-- p0x5a15225aa7a0&#45;&gt;p0x5a15225ac7d0 -->
<g id="edge8" class="edge">
<title>p0x5a15225aa7a0&#45;&gt;p0x5a15225ac7d0</title>
<path fill="none" stroke="gray" d="M169,-240.22C169,-229.95 169,-216.81 169,-205.71"/>
<polygon fill="gray" stroke="gray" points="170.4,-205.96 169,-201.96 167.6,-205.96 170.4,-205.96"/>
</g>
<!-- p0x5a15225aa4e0 -->
<g id="node7" class="node">
<title>p0x5a15225aa4e0</title>
<ellipse fill="lightblue" stroke="blue" cx="22" cy="-102" rx="18" ry="18"/>
<ellipse fill="none" stroke="blue" cx="22" cy="-102" rx="22" ry="22"/>
<text text-anchor="middle" x="22" y="-96.95" font-family="Times,serif" font-size="14.00">x</text>
</g>
<!-- p0x5a15225aa560&#45;&gt;p0x5a15225aa4e0 -->
<g id="edge6" class="edge">
<title>p0x5a15225aa560&#45;&gt;p0x5a15225aa4e0</title>
<path fill="none" stroke="gray" d="M71.8,-163.69C62.14,-151.91 49.3,-136.27 39.08,-123.82"/>
<polygon fill="gray" stroke="gray" points="40.3,-123.1 36.68,-120.9 38.14,-124.88 40.3,-123.1"/>
</g>
<!-- p0x5a15225aa520 -->
<g id="node8" class="node">
<title>p0x5a15225aa520</title>
<ellipse fill="lightgreen" stroke="green" cx="91" cy="-102" rx="18" ry="18"/>
<text text-anchor="middle" x="91" y="-96.95" font-family="Times,serif" font-size="14.00">2</text>
</g>
<!-- p0x5a15225aa560&#45;&gt;p0x5a15225aa520 -->
<g id="edge7" class="edge">
<title>p0x5a15225aa560&#45;&gt;p0x5a15225aa520</title>
<path fill="none" stroke="gray" d="M87.11,-163.69C87.83,-152.48 88.77,-137.77 89.55,-125.63"/>
<polygon fill="gray" stroke="gray" points="90.94,-125.85 89.8,-121.77 88.14,-125.68 90.94,-125.85"/>
</g>
<!-- p0x5a15225ac810 -->
<g id="node10" class="node">
<title>p0x5a15225ac810</title>
<ellipse fill="lightgreen" stroke="green" cx="165" cy="-102" rx="18" ry="18"/>
<text text-anchor="middle" x="165" y="-96.95" font-family="Times,serif" font-size="14.00">2</text>
</g>
<!-- p0x5a15225ac7d0&#45;&gt;p0x5a15225ac810 -->
<g id="edge9" class="edge">
<title>p0x5a15225ac7d0&#45;&gt;p0x5a15225ac810</title>
<path fill="none" stroke="gray" d="M168.11,-163.69C167.54,-152.48 166.78,-137.77 166.16,-125.63"/>
<polygon fill="gray" stroke="gray" points="167.57,-125.7 165.96,-121.77 164.77,-125.84 167.57,-125.7"/>
</g>
<!-- p0x5a15225ac850 -->
<g id="node11" class="node">
<title>p0x5a15225ac850</title>
<ellipse fill="lightblue" stroke="blue" cx="234" cy="-102" rx="18" ry="18"/>
<ellipse fill="none" stroke="blue" cx="234" cy="-102" rx="22" ry="22"/>
<text text-anchor="middle" x="234" y="-96.95" font-family="Times,serif" font-size="14.00">x</text>
</g>
<!-- p0x5a15225ac7d0&#45;&gt;p0x5a15225ac850 -->
<g id="edge10" class="edge">
<title>p0x5a15225ac7d0&#45;&gt;p0x5a15225ac850</title>
<path fill="none" stroke="gray" d="M183.43,-163.69C193.3,-151.83 206.45,-136.06 216.86,-123.56"/>
<polygon fill="gray" stroke="gray" points="217.83,-124.59 219.31,-120.62 215.68,-122.8 217.83,-124.59"/>
</g>
<!-- p0x5a15225aa9e0 -->
<g id="node13" class="node">
<title>p0x5a15225aa9e0</title>
<ellipse fill="lightgreen" stroke="green" cx="243" cy="-182" rx="18" ry="18"/>
<text text-anchor="middle" x="243" y="-176.95" font-family="Times,serif" font-size="14.00">2</text>
</g>
<!-- p0x5a15225aab20&#45;&gt;p0x5a15225aa9e0 -->
<g id="edge12" class="edge">
<title>p0x5a15225aab20&#45;&gt;p0x5a15225aa9e0</title>
<path fill="none" stroke="gray" d="M272.95,-240.22C267.13,-229.09 259.53,-214.58 253.44,-202.95"/>
<polygon fill="gray" stroke="gray" points="254.74,-202.4 251.64,-199.51 252.26,-203.7 254.74,-202.4"/>
</g>
<!-- p0x5a15225aaae0 -->
<g id="node14" class="node">
<title>p0x5a15225aaae0</title>
<polygon fill="lightpink" stroke="purple" points="290,-164 290,-200 344,-200 344,-164 290,-164"/>
<text text-anchor="middle" x="316.62" y="-176.95" font-family="Times,serif" font-size="14.00">sqrt</text>
</g>
<!-- p0x5a15225aab20&#45;&gt;p0x5a15225aaae0 -->
<g id="edge13" class="edge">
<title>p0x5a15225aab20&#45;&gt;p0x5a15225aaae0</title>
<path fill="none" stroke="gray" d="M290.12,-240.22C294.99,-229.86 301.23,-216.57 306.47,-205.4"/>
<polygon fill="gray" stroke="gray" points="307.73,-206.03 308.16,-201.81 305.19,-204.84 307.73,-206.03"/>
</g>
<!-- p0x5a15225aaa20 -->
<g id="node15" class="node">
<title>p0x5a15225aaa20</title>
<polygon fill="lightpink" stroke="purple" points="290,-84 290,-120 344,-120 344,-84 290,-84"/>
<text text-anchor="middle" x="316.88" y="-96.95" font-family="Times,serif" font-size="14.00">^</text>
</g>
<!-- p0x5a15225aaae0&#45;&gt;p0x5a15225aaa20 -->
<g id="edge14" class="edge">
<title>p0x5a15225aaae0&#45;&gt;p0x5a15225aaa20</title>
<path fill="none" stroke="gray" d="M317,-163.69C317,-152.48 317,-137.77 317,-125.63"/>
<polygon fill="gray" stroke="gray" points="318.4,-125.78 317,-121.78 315.6,-125.78 318.4,-125.78"/>
</g>
<!-- p0x5a15225aaa60 -->
<g id="node16" class="node">
<title>p0x5a15225aaa60</title>
<ellipse fill="lightblue" stroke="blue" cx="282" cy="-22" rx="18" ry="18"/>
<ellipse fill="none" stroke="blue" cx="282" cy="-22" rx="22" ry="22"/>
<text text-anchor="middle" x="282" y="-16.95" font-family="Times,serif" font-size="14.00">x</text>
</g>
<!-- p0x5a15225aaa20&#45;&gt;p0x5a15225aaa60 -->
<g id="edge15" class="edge">
<title>p0x5a15225aaa20&#45;&gt;p0x5a15225aaa60</title>
<path fill="none" stroke="gray" d="M309.23,-83.69C304.44,-73.01 298.22,-59.14 292.93,-47.36"/>
<polygon fill="gray" stroke="gray" points="294.26,-46.91 291.35,-43.84 291.71,-48.06 294.26,-46.91"/>
</g>
<!-- p0x5a15225aaaa0 -->
<g id="node17" class="node">
<title>p0x5a15225aaaa0</title>
<ellipse fill="lightgreen" stroke="green" cx="351" cy="-22" rx="18" ry="18"/>
<text text-anchor="middle" x="351" y="-16.95" font-family="Times,serif" font-size="14.00">2</text>
</g>
<!-- p0x5a15225aaa20&#45;&gt;p0x5a15225aaaa0 -->
<g id="edge16" class="edge">
<title>p0x5a15225aaa20&#45;&gt;p0x5a15225aaaa0</title>
<path fill="none" stroke="gray" d="M324.55,-83.69C329.69,-71.88 336.53,-56.19 341.97,-43.71"/>
<polygon fill="gray" stroke="gray" points="343.13,-44.55 343.45,-40.32 340.57,-43.43 343.13,-44.55"/>
</g>
<!-- p0x5a15225aae50 -->
<g id="node19" class="node">
<title>p0x5a15225aae50</title>
<polygon fill="lightpink" stroke="purple" points="368,-240.5 368,-276.5 422,-276.5 422,-240.5 368,-240.5"/>
<text text-anchor="middle" x="394.88" y="-253.45" font-family="Times,serif" font-size="14.00">^</text>
</g>
<!-- p0x5a15225aae10&#45;&gt;p0x5a15225aae50 -->
<g id="edge18" class="edge">
<title>p0x5a15225aae10&#45;&gt;p0x5a15225aae50</title>
<path fill="none" stroke="gray" d="M395,-313.39C395,-303.95 395,-292.15 395,-282"/>
<polygon fill="gray" stroke="gray" points="396.4,-282.07 395,-278.07 393.6,-282.07 396.4,-282.07"/>
</g>
<!-- p0x5a15225aae90 -->
<g id="node20" class="node">
<title>p0x5a15225aae90</title>
<ellipse fill="lightblue" stroke="blue" cx="395" cy="-182" rx="18" ry="18"/>
<ellipse fill="none" stroke="blue" cx="395" cy="-182" rx="22" ry="22"/>
<text text-anchor="middle" x="395" y="-176.95" font-family="Times,serif" font-size="14.00">x</text>
</g>
<!-- p0x5a15225aae50&#45;&gt;p0x5a15225aae90 -->
<g id="edge19" class="edge">
<title>p0x5a15225aae50&#45;&gt;p0x5a15225aae90</title>
<path fill="none" stroke="gray" d="M395,-240.22C395,-231.23 395,-220.03 395,-209.93"/>
<polygon fill="gray" stroke="gray" points="396.4,-209.96 395,-205.96 393.6,-209.96 396.4,-209.96"/>
</g>
<!-- p0x5a15225aaed0 -->
<g id="node21" class="node">
<title>p0x5a15225aaed0</title>
<ellipse fill="lightgreen" stroke="green" cx="464" cy="-182" rx="18" ry="18"/>
<text text-anchor="middle" x="464" y="-176.95" font-family="Times,serif" font-size="14.00">2</text>
</g>
<!-- p0x5a15225aae50&#45;&gt;p0x5a15225aaed0 -->
<g id="edge20" class="edge">
<title>p0x5a15225aae50&#45;&gt;p0x5a15225aaed0</title>
<path fill="none" stroke="gray" d="M411,-240.22C422.31,-228.02 437.37,-211.75 448.55,-199.68"/>
<polygon fill="gray" stroke="gray" points="449.46,-200.76 451.15,-196.88 447.4,-198.86 449.46,-200.76"/>
</g>
<!-- p0x5a15225ab1c0 -->
<g id="node23" class="node">
<title>p0x5a15225ab1c0</title>
<ellipse fill="lightgreen" stroke="green" cx="470" cy="-331.6" rx="18.6" ry="18.6"/>
<text text-anchor="middle" x="470" y="-326.55" font-family="Times,serif" font-size="14.00">&#45;1</text>
</g>
<!-- p0x5a15225ab380&#45;&gt;p0x5a15225ab1c0 -->
<g id="edge22" class="edge">
<title>p0x5a15225ab380&#45;&gt;p0x5a15225ab1c0</title>
<path fill="none" stroke="gray" d="M495.18,-388.09C490.49,-377.74 484.48,-364.51 479.51,-353.56"/>
<polygon fill="gray" stroke="gray" points="480.87,-353.15 477.94,-350.09 478.32,-354.31 480.87,-353.15"/>
</g>
<!-- p0x5a15225ab340 -->
<g id="node24" class="node">
<title>p0x5a15225ab340</title>
<polygon fill="lightpink" stroke="purple" points="518,-313.6 518,-349.6 572,-349.6 572,-313.6 518,-313.6"/>
<text text-anchor="middle" x="544.88" y="-326.55" font-family="Times,serif" font-size="14.00">sin</text>
</g>
<!-- p0x5a15225ab380&#45;&gt;p0x5a15225ab340 -->
<g id="edge23" class="edge">
<title>p0x5a15225ab380&#45;&gt;p0x5a15225ab340</title>
<path fill="none" stroke="gray" d="M512.95,-388.09C518.72,-378.11 526.03,-365.44 532.22,-354.73"/>
<polygon fill="gray" stroke="gray" points="533.43,-355.43 534.22,-351.27 531,-354.03 533.43,-355.43"/>
</g>
<!-- p0x5a15225ab200 -->
<g id="node25" class="node">
<title>p0x5a15225ab200</title>
<polygon fill="lightpink" stroke="purple" points="516,-240.5 516,-276.5 570,-276.5 570,-240.5 516,-240.5"/>
<text text-anchor="middle" x="542.75" y="-253.45" font-family="Times,serif" font-size="14.00">ln</text>
</g>
<!-- p0x5a15225ab340&#45;&gt;p0x5a15225ab200 -->
<g id="edge24" class="edge">
<title>p0x5a15225ab340&#45;&gt;p0x5a15225ab200</title>
<path fill="none" stroke="gray" d="M544.52,-313.39C544.25,-303.95 543.92,-292.15 543.63,-282"/>
<polygon fill="gray" stroke="gray" points="545.03,-282.02 543.52,-278.06 542.24,-282.1 545.03,-282.02"/>
</g>
<!-- p0x5a15225ab240 -->
<g id="node26" class="node">
<title>p0x5a15225ab240</title>
<polygon fill="lightpink" stroke="purple" points="514,-164 514,-200 568,-200 568,-164 514,-164"/>
<text text-anchor="middle" x="540.62" y="-176.95" font-family="Times,serif" font-size="14.00">sqrt</text>
</g>
<!-- p0x5a15225ab200&#45;&gt;p0x5a15225ab240 -->
<g id="edge25" class="edge">
<title>p0x5a15225ab200&#45;&gt;p0x5a15225ab240</title>
<path fill="none" stroke="gray" d="M542.54,-240.22C542.26,-229.95 541.91,-216.81 541.61,-205.71"/>
<polygon fill="gray" stroke="gray" points="543.02,-205.92 541.51,-201.96 540.22,-205.99 543.02,-205.92"/>
</g>
<!-- p0x5a15225ab280 -->
<g id="node27" class="node">
<title>p0x5a15225ab280</title>
<polygon fill="lightpink" stroke="purple" points="514,-84 514,-120 568,-120 568,-84 514,-84"/>
<text text-anchor="middle" x="540.88" y="-96.95" font-family="Times,serif" font-size="14.00">^</text>
</g>
<!-- p0x5a15225ab240&#45;&gt;p0x5a15225ab280 -->
<g id="edge26" class="edge">
<title>p0x5a15225ab240&#45;&gt;p0x5a15225ab280</title>
<path fill="none" stroke="gray" d="M541,-163.69C541,-152.48 541,-137.77 541,-125.63"/>
<polygon fill="gray" stroke="gray" points="542.4,-125.78 541,-121.78 539.6,-125.78 542.4,-125.78"/>
</g>
<!-- p0x5a15225ab2c0 -->
<g id="node28" class="node">
<title>p0x5a15225ab2c0</title>
<ellipse fill="lightblue" stroke="blue" cx="506" cy="-22" rx="18" ry="18"/>
<ellipse fill="none" stroke="blue" cx="506" cy="-22" rx="22" ry="22"/>
<text text-anchor="middle" x="506" y="-16.95" font-family="Times,serif" font-size="14.00">x</text>
</g>
<!-- p0x5a15225ab280&#45;&gt;p0x5a15225ab2c0 -->
<g id="edge27" class="edge">
<title>p0x5a15225ab280&#45;&gt;p0x5a15225ab2c0</title>
<path fill="none" stroke="gray" d="M533.23,-83.69C528.44,-73.01 522.22,-59.14 516.93,-47.36"/>
<polygon fill="gray" stroke="gray" points="518.26,-46.91 515.35,-43.84 515.71,-48.06 518.26,-46.91"/>
</g>
<!-- p0x5a15225ab300 -->
<g id="node29" class="node">
<title>p0x5a15225ab300</title>
<ellipse fill="lightgreen" stroke="green" cx="575" cy="-22" rx="18" ry="18"/>
<text text-anchor="middle" x="575" y="-16.95" font-family="Times,serif" font-size="14.00">2</text>
</g>
<!-- p0x5a15225ab280&#45;&gt;p0x5a15225ab300 -->
<g id="edge28" class="edge">
<title>p0x5a15225ab280&#45;&gt;p0x5a15225ab300</title>
<path fill="none" stroke="gray" d="M548.55,-83.69C553.69,-71.88 560.53,-56.19 565.97,-43.71"/>
<polygon fill="gray" stroke="gray" points="567.13,-44.55 567.45,-40.32 564.57,-43.43 567.13,-44.55"/>
</g>
<!-- p0x5a15225ab670 -->
<g id="node31" class="node">
<title>p0x5a15225ab670</title>
<ellipse fill="lightgreen" stroke="green" cx="643" cy="-406.32" rx="20.13" ry="20.13"/>
<text text-anchor="middle" x="643" y="-401.27" font-family="Times,serif" font-size="14.00">15</text>
</g>
<!-- p0x5a15225ac6d0&#45;&gt;p0x5a15225ab670 -->
<g id="edge30" class="edge">
<title>p0x5a15225ac6d0&#45;&gt;p0x5a15225ab670</title>
<path fill="none" stroke="gray" d="M643,-462.74C643,-453.61 643,-442.22 643,-432.15"/>
<polygon fill="gray" stroke="gray" points="644.4,-432.23 643,-428.23 641.6,-432.23 644.4,-432.23"/>
</g>
<!-- p0x5a15225ac690 -->
<g id="node32" class="node">
<title>p0x5a15225ac690</title>
<polygon fill="lightpink" stroke="purple" points="705,-388.32 705,-424.32 759,-424.32 759,-388.32 705,-388.32"/>
<text text-anchor="middle" x="731.88" y="-401.27" font-family="Times,serif" font-size="14.00">*</text>
</g>
<!-- p0x5a15225ac6d0&#45;&gt;p0x5a15225ac690 -->
<g id="edge31" class="edge">
<title>p0x5a15225ac6d0&#45;&gt;p0x5a15225ac690</title>
<path fill="none" stroke="gray" d="M664.09,-462.74C676.86,-452.32 693.21,-438.98 706.67,-427.99"/>
<polygon fill="gray" stroke="gray" points="707.36,-429.23 709.58,-425.62 705.59,-427.06 707.36,-429.23"/>
</g>
<!-- p0x5a15225ac450 -->
<g id="node33" class="node">
<title>p0x5a15225ac450</title>
<polygon fill="lightpink" stroke="purple" points="705,-313.6 705,-349.6 759,-349.6 759,-313.6 705,-313.6"/>
<text text-anchor="middle" x="731.62" y="-326.55" font-family="Times,serif" font-size="14.00">+</text>
</g>
<!-- p0x5a15225ac690&#45;&gt;p0x5a15225ac450 -->
<g id="edge32" class="edge">
<title>p0x5a15225ac690&#45;&gt;p0x5a15225ac450</title>
<path fill="none" stroke="gray" d="M732,-388.09C732,-378.29 732,-365.89 732,-355.31"/>
<polygon fill="gray" stroke="gray" points="733.4,-355.47 732,-351.47 730.6,-355.47 733.4,-355.47"/>
</g>
<!-- p0x5a15225ac650 -->
<g id="node47" class="node">
<title>p0x5a15225ac650</title>
<polygon fill="lightpink" stroke="purple" points="894,-313.6 894,-349.6 948,-349.6 948,-313.6 894,-313.6"/>
<text text-anchor="middle" x="921" y="-326.55" font-family="Times,serif" font-size="14.00">cos</text>
</g>
<!-- p0x5a15225ac690&#45;&gt;p0x5a15225ac650 -->
<g id="edge46" class="edge">
<title>p0x5a15225ac690&#45;&gt;p0x5a15225ac650</title>
<path fill="none" stroke="gray" d="M759.48,-394.75C793.87,-381.51 852.66,-358.89 889.03,-344.9"/>
<polygon fill="gray" stroke="gray" points="889.15,-346.35 892.38,-343.61 888.14,-343.74 889.15,-346.35"/>
</g>
<!-- p0x5a15225ab6b0 -->
<g id="node34" class="node">
<title>p0x5a15225ab6b0</title>
<polygon fill="lightpink" stroke="purple" points="664,-240.5 664,-276.5 718,-276.5 718,-240.5 664,-240.5"/>
<text text-anchor="middle" x="690.88" y="-253.45" font-family="Times,serif" font-size="14.00">*</text>
</g>
<!-- p0x5a15225ac450&#45;&gt;p0x5a15225ab6b0 -->
<g id="edge33" class="edge">
<title>p0x5a15225ac450&#45;&gt;p0x5a15225ab6b0</title>
<path fill="none" stroke="gray" d="M722.08,-313.39C716.48,-303.69 709.45,-291.49 703.49,-281.16"/>
<polygon fill="gray" stroke="gray" points="704.8,-280.63 701.59,-277.86 702.38,-282.03 704.8,-280.63"/>
</g>
<!-- p0x5a15225ac210 -->
<g id="node38" class="node">
<title>p0x5a15225ac210</title>
<polygon fill="lightpink" stroke="purple" points="747,-240.5 747,-276.5 801,-276.5 801,-240.5 747,-240.5"/>
<text text-anchor="middle" x="773.88" y="-253.45" font-family="Times,serif" font-size="14.00">*</text>
</g>
<!-- p0x5a15225ac450&#45;&gt;p0x5a15225ac210 -->
<g id="edge37" class="edge">
<title>p0x5a15225ac450&#45;&gt;p0x5a15225ac210</title>
<path fill="none" stroke="gray" d="M742.17,-313.39C747.89,-303.69 755.1,-291.49 761.21,-281.16"/>
<polygon fill="gray" stroke="gray" points="762.33,-282.01 763.16,-277.85 759.92,-280.59 762.33,-282.01"/>
</g>
<!-- p0x5a15225ab730 -->
<g id="node35" class="node">
<title>p0x5a15225ab730</title>
<ellipse fill="lightgreen" stroke="green" cx="616" cy="-182" rx="18.6" ry="18.6"/>
<text text-anchor="middle" x="616" y="-176.95" font-family="Times,serif" font-size="14.00">&#45;1</text>
</g>
<!-- p0x5a15225ab6b0&#45;&gt;p0x5a15225ab730 -->
<g id="edge34" class="edge">
<title>p0x5a15225ab6b0&#45;&gt;p0x5a15225ab730</title>
<path fill="none" stroke="gray" d="M673.6,-240.22C661.21,-227.91 644.66,-211.47 632.48,-199.37"/>
<polygon fill="gray" stroke="gray" points="633.75,-198.66 629.92,-196.83 631.78,-200.64 633.75,-198.66"/>
</g>
<!-- p0x5a15225ab770 -->
<g id="node36" class="node">
<title>p0x5a15225ab770</title>
<polygon fill="lightpink" stroke="purple" points="664,-164 664,-200 718,-200 718,-164 664,-164"/>
<text text-anchor="middle" x="690.88" y="-176.95" font-family="Times,serif" font-size="14.00">sin</text>
</g>
<!-- p0x5a15225ab6b0&#45;&gt;p0x5a15225ab770 -->
<g id="edge35" class="edge">
<title>p0x5a15225ab6b0&#45;&gt;p0x5a15225ab770</title>
<path fill="none" stroke="gray" d="M691,-240.22C691,-229.95 691,-216.81 691,-205.71"/>
<polygon fill="gray" stroke="gray" points="692.4,-205.96 691,-201.96 689.6,-205.96 692.4,-205.96"/>
</g>
<!-- p0x5a15225aa6e0 -->
<g id="node37" class="node">
<title>p0x5a15225aa6e0</title>
<ellipse fill="lightblue" stroke="blue" cx="631" cy="-102" rx="18" ry="18"/>
<ellipse fill="none" stroke="blue" cx="631" cy="-102" rx="22" ry="22"/>
<text text-anchor="middle" x="631" y="-96.95" font-family="Times,serif" font-size="14.00">x</text>
</g>
<!-- p0x5a15225ab770&#45;&gt;p0x5a15225aa6e0 -->
<g id="edge36" class="edge">
<title>p0x5a15225ab770&#45;&gt;p0x5a15225aa6e0</title>
<path fill="none" stroke="gray" d="M677.68,-163.69C668.69,-152 656.76,-136.49 647.21,-124.07"/>
<polygon fill="gray" stroke="gray" points="648.54,-123.51 645,-121.19 646.32,-125.22 648.54,-123.51"/>
</g>
<!-- p0x5a15225abf50 -->
<g id="node39" class="node">
<title>p0x5a15225abf50</title>
<polygon fill="lightpink" stroke="purple" points="747,-164 747,-200 801,-200 801,-164 747,-164"/>
<text text-anchor="middle" x="773.88" y="-176.95" font-family="Times,serif" font-size="14.00">^</text>
</g>
<!-- p0x5a15225ac210&#45;&gt;p0x5a15225abf50 -->
<g id="edge38" class="edge">
<title>p0x5a15225ac210&#45;&gt;p0x5a15225abf50</title>
<path fill="none" stroke="gray" d="M774,-240.22C774,-229.95 774,-216.81 774,-205.71"/>
<polygon fill="gray" stroke="gray" points="775.4,-205.96 774,-201.96 772.6,-205.96 775.4,-205.96"/>
</g>
<!-- p0x5a15225abf90 -->
<g id="node43" class="node">
<title>p0x5a15225abf90</title>
<polygon fill="lightpink" stroke="purple" points="830,-164 830,-200 884,-200 884,-164 830,-164"/>
<text text-anchor="middle" x="856.88" y="-176.95" font-family="Times,serif" font-size="14.00">/</text>
</g>
<!-- p0x5a15225ac210&#45;&gt;p0x5a15225abf90 -->
<g id="edge42" class="edge">
<title>p0x5a15225ac210&#45;&gt;p0x5a15225abf90</title>
<path fill="none" stroke="gray" d="M793.25,-240.22C805.32,-229.39 820.94,-215.36 833.7,-203.91"/>
<polygon fill="gray" stroke="gray" points="834.4,-205.17 836.44,-201.45 832.53,-203.08 834.4,-205.17"/>
</g>
<!-- p0x5a15225abe90 -->
<g id="node40" class="node">
<title>p0x5a15225abe90</title>
<polygon fill="lightpink" stroke="purple" points="682,-84 682,-120 736,-120 736,-84 682,-84"/>
<text text-anchor="middle" x="708.75" y="-96.95" font-family="Times,serif" font-size="14.00">exp</text>
</g>
<!-- p0x5a15225abf50&#45;&gt;p0x5a15225abe90 -->
<g id="edge39" class="edge">
<title>p0x5a15225abf50&#45;&gt;p0x5a15225abe90</title>
<path fill="none" stroke="gray" d="M759.57,-163.69C749.9,-152.08 737.08,-136.7 726.78,-124.33"/>
<polygon fill="gray" stroke="gray" points="727.99,-123.6 724.35,-121.43 725.84,-125.39 727.99,-123.6"/>
</g>
<!-- p0x5a15225abf10 -->
<g id="node42" class="node">
<title>p0x5a15225abf10</title>
<ellipse fill="lightgreen" stroke="green" cx="783" cy="-102" rx="18" ry="18"/>
<text text-anchor="middle" x="783" y="-96.95" font-family="Times,serif" font-size="14.00">2</text>
</g>
<!-- p0x5a15225abf50&#45;&gt;p0x5a15225abf10 -->
<g id="edge41" class="edge">
<title>p0x5a15225abf50&#45;&gt;p0x5a15225abf10</title>
<path fill="none" stroke="gray" d="M776,-163.69C777.29,-152.48 778.99,-137.77 780.39,-125.63"/>
<polygon fill="gray" stroke="gray" points="781.77,-125.9 780.83,-121.77 778.99,-125.58 781.77,-125.9"/>
</g>
<!-- p0x5a15225abed0 -->
<g id="node41" class="node">
<title>p0x5a15225abed0</title>
<ellipse fill="lightblue" stroke="blue" cx="709" cy="-22" rx="18" ry="18"/>
<ellipse fill="none" stroke="blue" cx="709" cy="-22" rx="22" ry="22"/>
<text text-anchor="middle" x="709" y="-16.95" font-family="Times,serif" font-size="14.00">x</text>
</g>
<!-- p0x5a15225abe90&#45;&gt;p0x5a15225abed0 -->
<g id="edge40" class="edge">
<title>p0x5a15225abe90&#45;&gt;p0x5a15225abed0</title>
<path fill="none" stroke="gray" d="M709,-83.69C709,-73.74 709,-61.02 709,-49.81"/>
<polygon fill="gray" stroke="gray" points="710.4,-49.95 709,-45.95 707.6,-49.95 710.4,-49.95"/>
</g>
<!-- p0x5a15225abfd0 -->
<g id="node44" class="node">
<title>p0x5a15225abfd0</title>
<ellipse fill="lightgreen" stroke="green" cx="848" cy="-102" rx="18" ry="18"/>
<text text-anchor="middle" x="848" y="-96.95" font-family="Times,serif" font-size="14.00">2</text>
</g>
<!-- p0x5a15225abf90&#45;&gt;p0x5a15225abfd0 -->
<g id="edge43" class="edge">
<title>p0x5a15225abf90&#45;&gt;p0x5a15225abfd0</title>
<path fill="none" stroke="gray" d="M855,-163.69C853.71,-152.48 852.01,-137.77 850.61,-125.63"/>
<polygon fill="gray" stroke="gray" points="852.01,-125.58 850.17,-121.77 849.23,-125.9 852.01,-125.58"/>
</g>
<!-- p0x5a15225ac010 -->
<g id="node45" class="node">
<title>p0x5a15225ac010</title>
<polygon fill="lightpink" stroke="purple" points="895,-84 895,-120 949,-120 949,-84 895,-84"/>
<text text-anchor="middle" x="921.75" y="-96.95" font-family="Times,serif" font-size="14.00">exp</text>
</g>
<!-- p0x5a15225abf90&#45;&gt;p0x5a15225ac010 -->
<g id="edge44" class="edge">
<title>p0x5a15225abf90&#45;&gt;p0x5a15225ac010</title>
<path fill="none" stroke="gray" d="M871.43,-163.69C881.1,-152.08 893.92,-136.7 904.22,-124.33"/>
<polygon fill="gray" stroke="gray" points="905.16,-125.39 906.65,-121.43 903.01,-123.6 905.16,-125.39"/>
</g>
<!-- p0x5a15225ac050 -->
<g id="node46" class="node">
<title>p0x5a15225ac050</title>
<ellipse fill="lightblue" stroke="blue" cx="922" cy="-22" rx="18" ry="18"/>
<ellipse fill="none" stroke="blue" cx="922" cy="-22" rx="22" ry="22"/>
<text text-anchor="middle" x="922" y="-16.95" font-family="Times,serif" font-size="14.00">x</text>
</g>
<!-- p0x5a15225ac010&#45;&gt;p0x5a15225ac050 -->
<g id="edge45" class="edge">
<title>p0x5a15225ac010&#45;&gt;p0x5a15225ac050</title>
<path fill="none" stroke="gray" d="M922,-83.69C922,-73.74 922,-61.02 922,-49.81"/>
<polygon fill="gray" stroke="gray" points="923.4,-49.95 922,-45.95 920.6,-49.95 923.4,-49.95"/>
</g>
<!-- p0x5a15225ac490 -->
<g id="node48" class="node">
<title>p0x5a15225ac490</title>
<polygon fill="lightpink" stroke="purple" points="971,-240.5 971,-276.5 1025,-276.5 1025,-240.5 971,-240.5"/>
<text text-anchor="middle" x="997.62" y="-253.45" font-family="Times,serif" font-size="14.00">+</text>
</g>
<!-- p0x5a15225ac650&#45;&gt;p0x5a15225ac490 -->
<g id="edge47" class="edge">
<title>p0x5a15225ac650&#45;&gt;p0x5a15225ac490</title>
<path fill="none" stroke="gray" d="M939.64,-313.39C950.44,-303.42 964.1,-290.8 975.5,-280.28"/>
<polygon fill="gray" stroke="gray" points="976.16,-281.57 978.15,-277.82 974.26,-279.51 976.16,-281.57"/>
</g>
<!-- p0x5a15225ac4d0 -->
<g id="node49" class="node">
<title>p0x5a15225ac4d0</title>
<polygon fill="lightpink" stroke="purple" points="971,-164 971,-200 1025,-200 1025,-164 971,-164"/>
<text text-anchor="middle" x="998" y="-176.95" font-family="Times,serif" font-size="14.00">cos</text>
</g>
<!-- p0x5a15225ac490&#45;&gt;p0x5a15225ac4d0 -->
<g id="edge48" class="edge">
<title>p0x5a15225ac490&#45;&gt;p0x5a15225ac4d0</title>
<path fill="none" stroke="gray" d="M998,-240.22C998,-229.95 998,-216.81 998,-205.71"/>
<polygon fill="gray" stroke="gray" points="999.4,-205.96 998,-201.96 996.6,-205.96 999.4,-205.96"/>
</g>
<!-- p0x5a15225ac550 -->
<g id="node51" class="node">
<title>p0x5a15225ac550</title>
<polygon fill="lightpink" stroke="purple" points="1054,-164 1054,-200 1108,-200 1108,-164 1054,-164"/>
<text text-anchor="middle" x="1080.88" y="-176.95" font-family="Times,serif" font-size="14.00">^</text>
</g>
<!-- p0x5a15225ac490&#45;&gt;p0x5a15225ac550 -->
<g id="edge50" class="edge">
<title>p0x5a15225ac490&#45;&gt;p0x5a15225ac550</title>
<path fill="none" stroke="gray" d="M1017.25,-240.22C1029.32,-229.39 1044.94,-215.36 1057.7,-203.91"/>
<polygon fill="gray" stroke="gray" points="1058.4,-205.17 1060.44,-201.45 1056.53,-203.08 1058.4,-205.17"/>
</g>
<!-- p0x5a15225ac510 -->
<g id="node50" class="node">
<title>p0x5a15225ac510</title>
<ellipse fill="lightblue" stroke="blue" cx="1000" cy="-102" rx="18" ry="18"/>
<ellipse fill="none" stroke="blue" cx="1000" cy="-102" rx="22" ry="22"/>
<text text-anchor="middle" x="1000" y="-96.95" font-family="Times,serif" font-size="14.00">x</text>
</g>
<!-- p0x5a15225ac4d0&#45;&gt;p0x5a15225ac510 -->
<g id="edge49" class="edge">
<title>p0x5a15225ac4d0&#45;&gt;p0x5a15225ac510</title>
<path fill="none" stroke="gray" d="M998.44,-163.69C998.7,-153.74 999.03,-141.02 999.31,-129.81"/>
<polygon fill="gray" stroke="gray" points="1000.71,-129.99 999.41,-125.95 997.91,-129.92 1000.71,-129.99"/>
</g>
<!-- p0x5a15225ac590 -->
<g id="node52" class="node">
<title>p0x5a15225ac590</title>
<polygon fill="lightpink" stroke="purple" points="1053,-84 1053,-120 1107,-120 1107,-84 1053,-84"/>
<text text-anchor="middle" x="1079.75" y="-96.95" font-family="Times,serif" font-size="14.00">exp</text>
</g>
<!-- p0x5a15225ac550&#45;&gt;p0x5a15225ac590 -->
<g id="edge51" class="edge">
<title>p0x5a15225ac550&#45;&gt;p0x5a15225ac590</title>
<path fill="none" stroke="gray" d="M1080.78,-163.69C1080.63,-152.48 1080.45,-137.77 1080.29,-125.63"/>
<polygon fill="gray" stroke="gray" points="1081.69,-125.76 1080.24,-121.78 1078.89,-125.79 1081.69,-125.76"/>
</g>
<!-- p0x5a15225ac610 -->
<g id="node54" class="node">
<title>p0x5a15225ac610</title>
<ellipse fill="lightgreen" stroke="green" cx="1154" cy="-102" rx="18" ry="18"/>
<text text-anchor="middle" x="1154" y="-96.95" font-family="Times,serif" font-size="14.00">2</text>
</g>
<!-- p0x5a15225ac550&#45;&gt;p0x5a15225ac610 -->
<g id="edge53" class="edge">
<title>p0x5a15225ac550&#45;&gt;p0x5a15225ac610</title>
<path fill="none" stroke="gray" d="M1097.2,-163.69C1109.53,-150.51 1126.4,-132.49 1138.55,-119.51"/>
<polygon fill="gray" stroke="gray" points="1139.41,-120.64 1141.12,-116.76 1137.36,-118.73 1139.41,-120.64"/>
</g>
<!-- p0x5a15225ac5d0 -->
<g id="node53" class="node">
<title>p0x5a15225ac5d0</title>
<ellipse fill="lightblue" stroke="blue" cx="1080" cy="-22" rx="18" ry="18"/>
<ellipse fill="none" stroke="blue" cx="1080" cy="-22" rx="22" ry="22"/>
<text text-anchor="middle" x="1080" y="-16.95" font-family="Times,serif" font-size="14.00">x</text>
</g>
<!-- p0x5a15225ac590&#45;&gt;p0x5a15225ac5d0 -->
<g id="edge52" class="edge">
<title>p0x5a15225ac590&#45;&gt;p0x5a15225ac5d0</title>
<path fill="none" stroke="gray" d="M1080,-83.69C1080,-73.74 1080,-61.02 1080,-49.81"/>
<polygon fill="gray" stroke="gray" points="1081.4,-49.95 1080,-45.95 1078.6,-49.95 1081.4,-49.95"/>
</g>
</g>
</svg>
