<?xml version="1.0" encoding="UTF-8" standalone="no"?>
<!DOCTYPE svg PUBLIC "-//W3C//DTD SVG 1.1//EN"
 "http://www.w3.org/Graphics/SVG/1.1/DTD/svg11.dtd">
<!-- Generated by graphviz version 12.1.2 (0)
 -->
<!-- Title: diffTree Pages: 1 -->
<svg width="603pt" height="504pt"
 viewBox="0.00 0.00 603.00 504.19" xmlns="http://www.w3.org/2000/svg" xmlns:xlink="http://www.w3.org/1999/xlink">
<g id="graph0" class="graph" transform="scale(1 1) rotate(0) translate(4 500.19)">
<title>diffTree</title>
<polygon fill="white" stroke="none" points="-4,4 -4,-500.19 599,-500.19 599,4 -4,4"/>
<!-- p0x5751d8186560 -->
<g id="node1" class="node">
<title>p0x5751d8186560</title>
<polygon fill="lightpink" stroke="purple" points="401,-459.69 401,-495.69 455,-495.69 455,-459.69 401,-459.69"/>
<text text-anchor="middle" x="427.88" y="-472.64" font-family="Times,serif" font-size="14.00">*</text>
</g>
<!-- p0x5751d81860b0 -->
<g id="node2" class="node">
<title>p0x5751d81860b0</title>
<polygon fill="lightpink" stroke="purple" points="360,-386.69 360,-422.69 414,-422.69 414,-386.69 360,-386.69"/>
<text text-anchor="middle" x="386.88" y="-399.64" font-family="Times,serif" font-size="14.00">/</text>
</g>
<!-- p0x5751d8186560&#45;&gt;p0x5751d81860b0 -->
<g id="edge1" class="edge">
<title>p0x5751d8186560&#45;&gt;p0x5751d81860b0</title>
<path fill="none" stroke="gray" d="M418.08,-459.5C412.48,-449.82 405.45,-437.64 399.49,-427.32"/>
<polygon fill="gray" stroke="gray" points="400.8,-426.79 397.59,-424.03 398.38,-428.19 400.8,-426.79"/>
</g>
<!-- p0x5751d8186520 -->
<g id="node21" class="node">
<title>p0x5751d8186520</title>
<polygon fill="lightpink" stroke="purple" points="443,-386.69 443,-422.69 497,-422.69 497,-386.69 443,-386.69"/>
<text text-anchor="middle" x="469.88" y="-399.64" font-family="Times,serif" font-size="14.00">*</text>
</g>
<!-- p0x5751d8186560&#45;&gt;p0x5751d8186520 -->
<g id="edge20" class="edge">
<title>p0x5751d8186560&#45;&gt;p0x5751d8186520</title>
<path fill="none" stroke="gray" d="M438.17,-459.5C443.89,-449.82 451.1,-437.64 457.21,-427.32"/>
<polygon fill="gray" stroke="gray" points="458.32,-428.18 459.16,-424.02 455.91,-426.75 458.32,-428.18"/>
</g>
<!-- p0x5751d8185d00 -->
<g id="node3" class="node">
<title>p0x5751d8185d00</title>
<polygon fill="lightpink" stroke="purple" points="249,-313.6 249,-349.6 303,-349.6 303,-313.6 249,-313.6"/>
<text text-anchor="middle" x="275.88" y="-326.55" font-family="Times,serif" font-size="14.00">/</text>
</g>
<!-- p0x5751d81860b0&#45;&gt;p0x5751d8185d00 -->
<g id="edge2" class="edge">
<title>p0x5751d81860b0&#45;&gt;p0x5751d8185d00</title>
<path fill="none" stroke="gray" d="M359.85,-386.3C344.12,-376.23 324.25,-363.5 307.8,-352.96"/>
<polygon fill="gray" stroke="gray" points="308.66,-351.85 304.53,-350.87 307.15,-354.21 308.66,-351.85"/>
</g>
<!-- p0x5751d8185fb0 -->
<g id="node17" class="node">
<title>p0x5751d8185fb0</title>
<polygon fill="lightpink" stroke="purple" points="362,-313.6 362,-349.6 416,-349.6 416,-313.6 362,-313.6"/>
<text text-anchor="middle" x="388.62" y="-326.55" font-family="Times,serif" font-size="14.00">sqrt</text>
</g>
<!-- p0x5751d81860b0&#45;&gt;p0x5751d8185fb0 -->
<g id="edge16" class="edge">
<title>p0x5751d81860b0&#45;&gt;p0x5751d8185fb0</title>
<path fill="none" stroke="gray" d="M387.48,-386.48C387.75,-377.05 388.08,-365.25 388.37,-355.09"/>
<polygon fill="gray" stroke="gray" points="389.76,-355.2 388.48,-351.16 386.97,-355.12 389.76,-355.2"/>
</g>
<!-- p0x5751d8185940 -->
<g id="node4" class="node">
<title>p0x5751d8185940</title>
<polygon fill="lightpink" stroke="purple" points="142,-240.5 142,-276.5 196,-276.5 196,-240.5 142,-240.5"/>
<text text-anchor="middle" x="168.88" y="-253.45" font-family="Times,serif" font-size="14.00">*</text>
</g>
<!-- p0x5751d8185d00&#45;&gt;p0x5751d8185940 -->
<g id="edge3" class="edge">
<title>p0x5751d8185d00&#45;&gt;p0x5751d8185940</title>
<path fill="none" stroke="gray" d="M249.82,-313.2C234.67,-303.13 215.51,-290.41 199.66,-279.87"/>
<polygon fill="gray" stroke="gray" points="200.64,-278.84 196.54,-277.8 199.09,-281.18 200.64,-278.84"/>
</g>
<!-- p0x5751d8185cc0 -->
<g id="node11" class="node">
<title>p0x5751d8185cc0</title>
<polygon fill="lightpink" stroke="purple" points="249,-240.5 249,-276.5 303,-276.5 303,-240.5 249,-240.5"/>
<text text-anchor="middle" x="275.88" y="-253.45" font-family="Times,serif" font-size="14.00">*</text>
</g>
<!-- p0x5751d8185d00&#45;&gt;p0x5751d8185cc0 -->
<g id="edge10" class="edge">
<title>p0x5751d8185d00&#45;&gt;p0x5751d8185cc0</title>
<path fill="none" stroke="gray" d="M276,-313.39C276,-303.95 276,-292.15 276,-282"/>
<polygon fill="gray" stroke="gray" points="277.4,-282.07 276,-278.07 274.6,-282.07 277.4,-282.07"/>
</g>
<!-- p0x5751d8185700 -->
<g id="node5" class="node">
<title>p0x5751d8185700</title>
<polygon fill="lightpink" stroke="purple" points="59,-164 59,-200 113,-200 113,-164 59,-164"/>
<text text-anchor="middle" x="85.88" y="-176.95" font-family="Times,serif" font-size="14.00">^</text>
</g>
<!-- p0x5751d8185940&#45;&gt;p0x5751d8185700 -->
<g id="edge4" class="edge">
<title>p0x5751d8185940&#45;&gt;p0x5751d8185700</title>
<path fill="none" stroke="gray" d="M149.75,-240.22C137.68,-229.39 122.06,-215.36 109.3,-203.91"/>
<polygon fill="gray" stroke="gray" points="110.47,-203.08 106.56,-201.45 108.6,-205.17 110.47,-203.08"/>
</g>
<!-- p0x5751d8187000 -->
<g id="node8" class="node">
<title>p0x5751d8187000</title>
<polygon fill="lightpink" stroke="purple" points="142,-164 142,-200 196,-200 196,-164 142,-164"/>
<text text-anchor="middle" x="168.88" y="-176.95" font-family="Times,serif" font-size="14.00">/</text>
</g>
<!-- p0x5751d8185940&#45;&gt;p0x5751d8187000 -->
<g id="edge7" class="edge">
<title>p0x5751d8185940&#45;&gt;p0x5751d8187000</title>
<path fill="none" stroke="gray" d="M169,-240.22C169,-229.95 169,-216.81 169,-205.71"/>
<polygon fill="gray" stroke="gray" points="170.4,-205.96 169,-201.96 167.6,-205.96 170.4,-205.96"/>
</g>
<!-- p0x5751d8185680 -->
<g id="node6" class="node">
<title>p0x5751d8185680</title>
<ellipse fill="lightblue" stroke="blue" cx="22" cy="-102" rx="18" ry="18"/>
<ellipse fill="none" stroke="blue" cx="22" cy="-102" rx="22" ry="22"/>
<text text-anchor="middle" x="22" y="-96.95" font-family="Times,serif" font-size="14.00">x</text>
</g>
<!-- p0x5751d8185700&#45;&gt;p0x5751d8185680 -->
<g id="edge5" class="edge">
<title>p0x5751d8185700&#45;&gt;p0x5751d8185680</title>
<path fill="none" stroke="gray" d="M71.8,-163.69C62.14,-151.91 49.3,-136.27 39.08,-123.82"/>
<polygon fill="gray" stroke="gray" points="40.3,-123.1 36.68,-120.9 38.14,-124.88 40.3,-123.1"/>
</g>
<!-- p0x5751d81856c0 -->
<g id="node7" class="node">
<title>p0x5751d81856c0</title>
<ellipse fill="lightgreen" stroke="green" cx="91" cy="-102" rx="18" ry="18"/>
<text text-anchor="middle" x="91" y="-96.95" font-family="Times,serif" font-size="14.00">2</text>
</g>
<!-- p0x5751d8185700&#45;&gt;p0x5751d81856c0 -->
<g id="edge6" class="edge">
<title>p0x5751d8185700&#45;&gt;p0x5751d81856c0</title>
<path fill="none" stroke="gray" d="M87.11,-163.69C87.83,-152.48 88.77,-137.77 89.55,-125.63"/>
<polygon fill="gray" stroke="gray" points="90.94,-125.85 89.8,-121.77 88.14,-125.68 90.94,-125.85"/>
</g>
<!-- p0x5751d8187040 -->
<g id="node9" class="node">
<title>p0x5751d8187040</title>
<ellipse fill="lightgreen" stroke="green" cx="165" cy="-102" rx="18" ry="18"/>
<text text-anchor="middle" x="165" y="-96.95" font-family="Times,serif" font-size="14.00">2</text>
</g>
<!-- p0x5751d8187000&#45;&gt;p0x5751d8187040 -->
<g id="edge8" class="edge">
<title>p0x5751d8187000&#45;&gt;p0x5751d8187040</title>
<path fill="none" stroke="gray" d="M168.11,-163.69C167.54,-152.48 166.78,-137.77 166.16,-125.63"/>
<polygon fill="gray" stroke="gray" points="167.57,-125.7 165.96,-121.77 164.77,-125.84 167.57,-125.7"/>
</g>
<!-- p0x5751d8187080 -->
<g id="node10" class="node">
<title>p0x5751d8187080</title>
<ellipse fill="lightblue" stroke="blue" cx="234" cy="-102" rx="18" ry="18"/>
<ellipse fill="none" stroke="blue" cx="234" cy="-102" rx="22" ry="22"/>
<text text-anchor="middle" x="234" y="-96.95" font-family="Times,serif" font-size="14.00">x</text>
</g>
<!-- p0x5751d8187000&#45;&gt;p0x5751d8187080 -->
<g id="edge9" class="edge">
<title>p0x5751d8187000&#45;&gt;p0x5751d8187080</title>
<path fill="none" stroke="gray" d="M183.43,-163.69C193.3,-151.83 206.45,-136.06 216.86,-123.56"/>
<polygon fill="gray" stroke="gray" points="217.83,-124.59 219.31,-120.62 215.68,-122.8 217.83,-124.59"/>
</g>
<!-- p0x5751d8185b80 -->
<g id="node12" class="node">
<title>p0x5751d8185b80</title>
<ellipse fill="lightgreen" stroke="green" cx="243" cy="-182" rx="18" ry="18"/>
<text text-anchor="middle" x="243" y="-176.95" font-family="Times,serif" font-size="14.00">2</text>
</g>
<!-- p0x5751d8185cc0&#45;&gt;p0x5751d8185b80 -->
<g id="edge11" class="edge">
<title>p0x5751d8185cc0&#45;&gt;p0x5751d8185b80</title>
<path fill="none" stroke="gray" d="M268.35,-240.22C263.48,-229.24 257.16,-214.97 252.05,-203.43"/>
<polygon fill="gray" stroke="gray" points="253.45,-203.14 250.55,-200.05 250.89,-204.27 253.45,-203.14"/>
</g>
<!-- p0x5751d8185c80 -->
<g id="node13" class="node">
<title>p0x5751d8185c80</title>
<polygon fill="lightpink" stroke="purple" points="290,-164 290,-200 344,-200 344,-164 290,-164"/>
<text text-anchor="middle" x="316.62" y="-176.95" font-family="Times,serif" font-size="14.00">sqrt</text>
</g>
<!-- p0x5751d8185cc0&#45;&gt;p0x5751d8185c80 -->
<g id="edge12" class="edge">
<title>p0x5751d8185cc0&#45;&gt;p0x5751d8185c80</title>
<path fill="none" stroke="gray" d="M285.51,-240.22C291.26,-229.76 298.66,-216.33 304.84,-205.1"/>
<polygon fill="gray" stroke="gray" points="305.97,-205.95 306.67,-201.77 303.52,-204.6 305.97,-205.95"/>
</g>
<!-- p0x5751d8185bc0 -->
<g id="node14" class="node">
<title>p0x5751d8185bc0</title>
<polygon fill="lightpink" stroke="purple" points="290,-84 290,-120 344,-120 344,-84 290,-84"/>
<text text-anchor="middle" x="316.88" y="-96.95" font-family="Times,serif" font-size="14.00">^</text>
</g>
<!-- p0x5751d8185c80&#45;&gt;p0x5751d8185bc0 -->
<g id="edge13" class="edge">
<title>p0x5751d8185c80&#45;&gt;p0x5751d8185bc0</title>
<path fill="none" stroke="gray" d="M317,-163.69C317,-152.48 317,-137.77 317,-125.63"/>
<polygon fill="gray" stroke="gray" points="318.4,-125.78 317,-121.78 315.6,-125.78 318.4,-125.78"/>
</g>
<!-- p0x5751d8185c00 -->
<g id="node15" class="node">
<title>p0x5751d8185c00</title>
<ellipse fill="lightblue" stroke="blue" cx="282" cy="-22" rx="18" ry="18"/>
<ellipse fill="none" stroke="blue" cx="282" cy="-22" rx="22" ry="22"/>
<text text-anchor="middle" x="282" y="-16.95" font-family="Times,serif" font-size="14.00">x</text>
</g>
<!-- p0x5751d8185bc0&#45;&gt;p0x5751d8185c00 -->
<g id="edge14" class="edge">
<title>p0x5751d8185bc0&#45;&gt;p0x5751d8185c00</title>
<path fill="none" stroke="gray" d="M309.23,-83.69C304.44,-73.01 298.22,-59.14 292.93,-47.36"/>
<polygon fill="gray" stroke="gray" points="294.26,-46.91 291.35,-43.84 291.71,-48.06 294.26,-46.91"/>
</g>
<!-- p0x5751d8185c40 -->
<g id="node16" class="node">
<title>p0x5751d8185c40</title>
<ellipse fill="lightgreen" stroke="green" cx="351" cy="-22" rx="18" ry="18"/>
<text text-anchor="middle" x="351" y="-16.95" font-family="Times,serif" font-size="14.00">2</text>
</g>
<!-- p0x5751d8185bc0&#45;&gt;p0x5751d8185c40 -->
<g id="edge15" class="edge">
<title>p0x5751d8185bc0&#45;&gt;p0x5751d8185c40</title>
<path fill="none" stroke="gray" d="M324.55,-83.69C329.69,-71.88 336.53,-56.19 341.97,-43.71"/>
<polygon fill="gray" stroke="gray" points="343.13,-44.55 343.45,-40.32 340.57,-43.43 343.13,-44.55"/>
</g>
<!-- p0x5751d8185ff0 -->
<g id="node18" class="node">
<title>p0x5751d8185ff0</title>
<polygon fill="lightpink" stroke="purple" points="368,-240.5 368,-276.5 422,-276.5 422,-240.5 368,-240.5"/>
<text text-anchor="middle" x="394.88" y="-253.45" font-family="Times,serif" font-size="14.00">^</text>
</g>
<!-- p0x5751d8185fb0&#45;&gt;p0x5751d8185ff0 -->
<g id="edge17" class="edge">
<title>p0x5751d8185fb0&#45;&gt;p0x5751d8185ff0</title>
<path fill="none" stroke="gray" d="M390.45,-313.39C391.25,-303.95 392.24,-292.15 393.1,-282"/>
<polygon fill="gray" stroke="gray" points="394.49,-282.16 393.43,-278.06 391.7,-281.93 394.49,-282.16"/>
</g>
<!-- p0x5751d8186030 -->
<g id="node19" class="node">
<title>p0x5751d8186030</title>
<ellipse fill="lightblue" stroke="blue" cx="395" cy="-182" rx="18" ry="18"/>
<ellipse fill="none" stroke="blue" cx="395" cy="-182" rx="22" ry="22"/>
<text text-anchor="middle" x="395" y="-176.95" font-family="Times,serif" font-size="14.00">x</text>
</g>
<!-- p0x5751d8185ff0&#45;&gt;p0x5751d8186030 -->
<g id="edge18" class="edge">
<title>p0x5751d8185ff0&#45;&gt;p0x5751d8186030</title>
<path fill="none" stroke="gray" d="M395,-240.22C395,-231.23 395,-220.03 395,-209.93"/>
<polygon fill="gray" stroke="gray" points="396.4,-209.96 395,-205.96 393.6,-209.96 396.4,-209.96"/>
</g>
<!-- p0x5751d8186070 -->
<g id="node20" class="node">
<title>p0x5751d8186070</title>
<ellipse fill="lightgreen" stroke="green" cx="464" cy="-182" rx="18" ry="18"/>
<text text-anchor="middle" x="464" y="-176.95" font-family="Times,serif" font-size="14.00">2</text>
</g>
<!-- p0x5751d8185ff0&#45;&gt;p0x5751d8186070 -->
<g id="edge19" class="edge">
<title>p0x5751d8185ff0&#45;&gt;p0x5751d8186070</title>
<path fill="none" stroke="gray" d="M411,-240.22C422.31,-228.02 437.37,-211.75 448.55,-199.68"/>
<polygon fill="gray" stroke="gray" points="449.46,-200.76 451.15,-196.88 447.4,-198.86 449.46,-200.76"/>
</g>
<!-- p0x5751d8186360 -->
<g id="node22" class="node">
<title>p0x5751d8186360</title>
<ellipse fill="lightgreen" stroke="green" cx="468" cy="-331.6" rx="18.6" ry="18.6"/>
<text text-anchor="middle" x="468" y="-326.55" font-family="Times,serif" font-size="14.00">&#45;1</text>
</g>
<!-- p0x5751d8186520&#45;&gt;p0x5751d8186360 -->
<g id="edge21" class="edge">
<title>p0x5751d8186520&#45;&gt;p0x5751d8186360</title>
<path fill="none" stroke="gray" d="M469.52,-386.48C469.26,-377.33 468.94,-365.94 468.66,-355.99"/>
<polygon fill="gray" stroke="gray" points="470.06,-356.11 468.55,-352.15 467.26,-356.19 470.06,-356.11"/>
</g>
<!-- p0x5751d81864e0 -->
<g id="node23" class="node">
<title>p0x5751d81864e0</title>
<polygon fill="lightpink" stroke="purple" points="516,-313.6 516,-349.6 570,-349.6 570,-313.6 516,-313.6"/>
<text text-anchor="middle" x="542.88" y="-326.55" font-family="Times,serif" font-size="14.00">sin</text>
</g>
<!-- p0x5751d8186520&#45;&gt;p0x5751d81864e0 -->
<g id="edge22" class="edge">
<title>p0x5751d8186520&#45;&gt;p0x5751d81864e0</title>
<path fill="none" stroke="gray" d="M487.67,-386.48C497.82,-376.6 510.64,-364.11 521.38,-353.65"/>
<polygon fill="gray" stroke="gray" points="522.27,-354.74 524.15,-350.95 520.31,-352.74 522.27,-354.74"/>
</g>
<!-- p0x5751d81863a0 -->
<g id="node24" class="node">
<title>p0x5751d81863a0</title>
<polygon fill="lightpink" stroke="purple" points="516,-240.5 516,-276.5 570,-276.5 570,-240.5 516,-240.5"/>
<text text-anchor="middle" x="542.75" y="-253.45" font-family="Times,serif" font-size="14.00">ln</text>
</g>
<!-- p0x5751d81864e0&#45;&gt;p0x5751d81863a0 -->
<g id="edge23" class="edge">
<title>p0x5751d81864e0&#45;&gt;p0x5751d81863a0</title>
<path fill="none" stroke="gray" d="M543,-313.39C543,-303.95 543,-292.15 543,-282"/>
<polygon fill="gray" stroke="gray" points="544.4,-282.07 543,-278.07 541.6,-282.07 544.4,-282.07"/>
</g>
<!-- p0x5751d81863e0 -->
<g id="node25" class="node">
<title>p0x5751d81863e0</title>
<polygon fill="lightpink" stroke="purple" points="516,-164 516,-200 570,-200 570,-164 516,-164"/>
<text text-anchor="middle" x="542.62" y="-176.95" font-family="Times,serif" font-size="14.00">sqrt</text>
</g>
<!-- p0x5751d81863a0&#45;&gt;p0x5751d81863e0 -->
<g id="edge24" class="edge">
<title>p0x5751d81863a0&#45;&gt;p0x5751d81863e0</title>
<path fill="none" stroke="gray" d="M543,-240.22C543,-229.95 543,-216.81 543,-205.71"/>
<polygon fill="gray" stroke="gray" points="544.4,-205.96 543,-201.96 541.6,-205.96 544.4,-205.96"/>
</g>
<!-- p0x5751d8186420 -->
<g id="node26" class="node">
<title>p0x5751d8186420</title>
<polygon fill="lightpink" stroke="purple" points="516,-84 516,-120 570,-120 570,-84 516,-84"/>
<text text-anchor="middle" x="542.88" y="-96.95" font-family="Times,serif" font-size="14.00">^</text>
</g>
<!-- p0x5751d81863e0&#45;&gt;p0x5751d8186420 -->
<g id="edge25" class="edge">
<title>p0x5751d81863e0&#45;&gt;p0x5751d8186420</title>
<path fill="none" stroke="gray" d="M543,-163.69C543,-152.48 543,-137.77 543,-125.63"/>
<polygon fill="gray" stroke="gray" points="544.4,-125.78 543,-121.78 541.6,-125.78 544.4,-125.78"/>
</g>
<!-- p0x5751d8186460 -->
<g id="node27" class="node">
<title>p0x5751d8186460</title>
<ellipse fill="lightblue" stroke="blue" cx="508" cy="-22" rx="18" ry="18"/>
<ellipse fill="none" stroke="blue" cx="508" cy="-22" rx="22" ry="22"/>
<text text-anchor="middle" x="508" y="-16.95" font-family="Times,serif" font-size="14.00">x</text>
</g>
<!-- p0x5751d8186420&#45;&gt;p0x5751d8186460 -->
<g id="edge26" class="edge">
<title>p0x5751d8186420&#45;&gt;p0x5751d8186460</title>
<path fill="none" stroke="gray" d="M535.23,-83.69C530.44,-73.01 524.22,-59.14 518.93,-47.36"/>
<polygon fill="gray" stroke="gray" points="520.26,-46.91 517.35,-43.84 517.71,-48.06 520.26,-46.91"/>
</g>
<!-- p0x5751d81864a0 -->
<g id="node28" class="node">
<title>p0x5751d81864a0</title>
<ellipse fill="lightgreen" stroke="green" cx="577" cy="-22" rx="18" ry="18"/>
<text text-anchor="middle" x="577" y="-16.95" font-family="Times,serif" font-size="14.00">2</text>
</g>
<!-- p0x5751d8186420&#45;&gt;p0x5751d81864a0 -->
<g id="edge27" class="edge">
<title>p0x5751d8186420&#45;&gt;p0x5751d81864a0</title>
<path fill="none" stroke="gray" d="M550.55,-83.69C555.69,-71.88 562.53,-56.19 567.97,-43.71"/>
<polygon fill="gray" stroke="gray" points="569.13,-44.55 569.45,-40.32 566.57,-43.43 569.13,-44.55"/>
</g>
</g>
</svg>
