<?xml version="1.0" encoding="UTF-8" standalone="no"?>
<!DOCTYPE svg PUBLIC "-//W3C//DTD SVG 1.1//EN"
 "http://www.w3.org/Graphics/SVG/1.1/DTD/svg11.dtd">
<!-- Generated by graphviz version 12.1.2 (0)
 -->
<!-- Title: diffTree Pages: 1 -->
<svg width="1017pt" height="650pt"
 viewBox="0.00 0.00 1017.00 650.00" xmlns="http://www.w3.org/2000/svg" xmlns:xlink="http://www.w3.org/1999/xlink">
<g id="graph0" class="graph" transform="scale(1 1) rotate(0) translate(4 646)">
<title>diffTree</title>
<polygon fill="white" stroke="none" points="-4,4 -4,-646 1013,-646 1013,4 -4,4"/>
<!-- p0x6301d6689e50 -->
<g id="node1" class="node">
<title>p0x6301d6689e50</title>
<polygon fill="lightpink" stroke="purple" points="307,-605.5 307,-641.5 361,-641.5 361,-605.5 307,-605.5"/>
<text text-anchor="middle" x="333.88" y="-618.45" font-family="Times,serif" font-size="14.00">*</text>
</g>
<!-- p0x6301d66896d0 -->
<g id="node2" class="node">
<title>p0x6301d66896d0</title>
<polygon fill="lightpink" stroke="purple" points="266,-532.5 266,-568.5 320,-568.5 320,-532.5 266,-532.5"/>
<text text-anchor="middle" x="292.75" y="-545.45" font-family="Times,serif" font-size="14.00">exp</text>
</g>
<!-- p0x6301d6689e50&#45;&gt;p0x6301d66896d0 -->
<g id="edge1" class="edge">
<title>p0x6301d6689e50&#45;&gt;p0x6301d66896d0</title>
<path fill="none" stroke="gray" d="M324.08,-605.31C318.48,-595.63 311.45,-583.45 305.49,-573.13"/>
<polygon fill="gray" stroke="gray" points="306.8,-572.6 303.59,-569.84 304.38,-574 306.8,-572.6"/>
</g>
<!-- p0x6301d6689e20 -->
<g id="node11" class="node">
<title>p0x6301d6689e20</title>
<polygon fill="lightpink" stroke="purple" points="446,-532.5 446,-568.5 500,-568.5 500,-532.5 446,-532.5"/>
<text text-anchor="middle" x="472.62" y="-545.45" font-family="Times,serif" font-size="14.00">+</text>
</g>
<!-- p0x6301d6689e50&#45;&gt;p0x6301d6689e20 -->
<g id="edge10" class="edge">
<title>p0x6301d6689e50&#45;&gt;p0x6301d6689e20</title>
<path fill="none" stroke="gray" d="M361.46,-608.47C384.31,-596.8 416.86,-580.18 440.91,-567.89"/>
<polygon fill="gray" stroke="gray" points="441.32,-569.25 444.25,-566.19 440.05,-566.76 441.32,-569.25"/>
</g>
<!-- p0x6301d66896a0 -->
<g id="node3" class="node">
<title>p0x6301d66896a0</title>
<polygon fill="lightpink" stroke="purple" points="133,-459.5 133,-495.5 187,-495.5 187,-459.5 133,-459.5"/>
<text text-anchor="middle" x="159.88" y="-472.45" font-family="Times,serif" font-size="14.00">*</text>
</g>
<!-- p0x6301d66896d0&#45;&gt;p0x6301d66896a0 -->
<g id="edge2" class="edge">
<title>p0x6301d66896d0&#45;&gt;p0x6301d66896a0</title>
<path fill="none" stroke="gray" d="M265.76,-534.96C244.34,-523.52 214.44,-507.56 191.89,-495.53"/>
<polygon fill="gray" stroke="gray" points="192.72,-494.38 188.53,-493.73 191.4,-496.85 192.72,-494.38"/>
</g>
<!-- p0x6301d6689550 -->
<g id="node4" class="node">
<title>p0x6301d6689550</title>
<polygon fill="lightpink" stroke="purple" points="34,-386.5 34,-422.5 88,-422.5 88,-386.5 34,-386.5"/>
<text text-anchor="middle" x="61" y="-399.45" font-family="Times,serif" font-size="14.00">cos</text>
</g>
<!-- p0x6301d66896a0&#45;&gt;p0x6301d6689550 -->
<g id="edge3" class="edge">
<title>p0x6301d66896a0&#45;&gt;p0x6301d6689550</title>
<path fill="none" stroke="gray" d="M135.78,-459.13C121.88,-449.16 104.34,-436.58 89.74,-426.11"/>
<polygon fill="gray" stroke="gray" points="90.61,-425.01 86.54,-423.82 88.98,-427.29 90.61,-425.01"/>
</g>
<!-- p0x6301d6689670 -->
<g id="node7" class="node">
<title>p0x6301d6689670</title>
<polygon fill="lightpink" stroke="purple" points="133,-386.5 133,-422.5 187,-422.5 187,-386.5 133,-386.5"/>
<text text-anchor="middle" x="159.75" y="-399.45" font-family="Times,serif" font-size="14.00">ln</text>
</g>
<!-- p0x6301d66896a0&#45;&gt;p0x6301d6689670 -->
<g id="edge6" class="edge">
<title>p0x6301d66896a0&#45;&gt;p0x6301d6689670</title>
<path fill="none" stroke="gray" d="M160,-459.31C160,-449.89 160,-438.11 160,-427.97"/>
<polygon fill="gray" stroke="gray" points="161.4,-428.04 160,-424.04 158.6,-428.04 161.4,-428.04"/>
</g>
<!-- p0x6301d6689580 -->
<g id="node5" class="node">
<title>p0x6301d6689580</title>
<polygon fill="lightpink" stroke="purple" points="3,-313.5 3,-349.5 57,-349.5 57,-313.5 3,-313.5"/>
<text text-anchor="middle" x="29.75" y="-326.45" font-family="Times,serif" font-size="14.00">ln</text>
</g>
<!-- p0x6301d6689550&#45;&gt;p0x6301d6689580 -->
<g id="edge4" class="edge">
<title>p0x6301d6689550&#45;&gt;p0x6301d6689580</title>
<path fill="none" stroke="gray" d="M53.5,-386.31C49.31,-376.72 44.05,-364.67 39.56,-354.41"/>
<polygon fill="gray" stroke="gray" points="40.92,-354.02 38.04,-350.92 38.36,-355.14 40.92,-354.02"/>
</g>
<!-- p0x6301d66895b0 -->
<g id="node6" class="node">
<title>p0x6301d66895b0</title>
<ellipse fill="lightblue" stroke="blue" cx="22" cy="-255" rx="18" ry="18"/>
<ellipse fill="none" stroke="blue" cx="22" cy="-255" rx="22" ry="22"/>
<text text-anchor="middle" x="22" y="-249.95" font-family="Times,serif" font-size="14.00">x</text>
</g>
<!-- p0x6301d6689580&#45;&gt;p0x6301d66895b0 -->
<g id="edge5" class="edge">
<title>p0x6301d6689580&#45;&gt;p0x6301d66895b0</title>
<path fill="none" stroke="gray" d="M28.14,-313.22C27.16,-304.07 25.93,-292.64 24.83,-282.4"/>
<polygon fill="gray" stroke="gray" points="26.25,-282.51 24.44,-278.68 23.47,-282.81 26.25,-282.51"/>
</g>
<!-- p0x6301d66895e0 -->
<g id="node8" class="node">
<title>p0x6301d66895e0</title>
<polygon fill="lightpink" stroke="purple" points="133,-313.5 133,-349.5 187,-349.5 187,-313.5 133,-313.5"/>
<text text-anchor="middle" x="159.88" y="-326.45" font-family="Times,serif" font-size="14.00">^</text>
</g>
<!-- p0x6301d6689670&#45;&gt;p0x6301d66895e0 -->
<g id="edge7" class="edge">
<title>p0x6301d6689670&#45;&gt;p0x6301d66895e0</title>
<path fill="none" stroke="gray" d="M160,-386.31C160,-376.89 160,-365.11 160,-354.97"/>
<polygon fill="gray" stroke="gray" points="161.4,-355.04 160,-351.04 158.6,-355.04 161.4,-355.04"/>
</g>
<!-- p0x6301d6689610 -->
<g id="node9" class="node">
<title>p0x6301d6689610</title>
<ellipse fill="lightblue" stroke="blue" cx="95" cy="-255" rx="18" ry="18"/>
<ellipse fill="none" stroke="blue" cx="95" cy="-255" rx="22" ry="22"/>
<text text-anchor="middle" x="95" y="-249.95" font-family="Times,serif" font-size="14.00">x</text>
</g>
<!-- p0x6301d66895e0&#45;&gt;p0x6301d6689610 -->
<g id="edge8" class="edge">
<title>p0x6301d66895e0&#45;&gt;p0x6301d6689610</title>
<path fill="none" stroke="gray" d="M144.92,-313.22C135.3,-302.2 122.79,-287.86 112.7,-276.29"/>
<polygon fill="gray" stroke="gray" points="113.78,-275.4 110.1,-273.31 111.67,-277.24 113.78,-275.4"/>
</g>
<!-- p0x6301d6689640 -->
<g id="node10" class="node">
<title>p0x6301d6689640</title>
<ellipse fill="lightblue" stroke="blue" cx="168" cy="-255" rx="18" ry="18"/>
<ellipse fill="none" stroke="blue" cx="168" cy="-255" rx="22" ry="22"/>
<text text-anchor="middle" x="168" y="-249.95" font-family="Times,serif" font-size="14.00">x</text>
</g>
<!-- p0x6301d66895e0&#45;&gt;p0x6301d6689640 -->
<g id="edge9" class="edge">
<title>p0x6301d66895e0&#45;&gt;p0x6301d6689640</title>
<path fill="none" stroke="gray" d="M161.86,-313.22C162.84,-304.07 164.07,-292.64 165.17,-282.4"/>
<polygon fill="gray" stroke="gray" points="166.53,-282.81 165.56,-278.68 163.75,-282.51 166.53,-282.81"/>
</g>
<!-- p0x6301d6689970 -->
<g id="node12" class="node">
<title>p0x6301d6689970</title>
<polygon fill="lightpink" stroke="purple" points="446,-459.5 446,-495.5 500,-495.5 500,-459.5 446,-459.5"/>
<text text-anchor="middle" x="472.88" y="-472.45" font-family="Times,serif" font-size="14.00">*</text>
</g>
<!-- p0x6301d6689e20&#45;&gt;p0x6301d6689970 -->
<g id="edge11" class="edge">
<title>p0x6301d6689e20&#45;&gt;p0x6301d6689970</title>
<path fill="none" stroke="gray" d="M473,-532.31C473,-522.89 473,-511.11 473,-500.97"/>
<polygon fill="gray" stroke="gray" points="474.4,-501.04 473,-497.04 471.6,-501.04 474.4,-501.04"/>
</g>
<!-- p0x6301d6689df0 -->
<g id="node26" class="node">
<title>p0x6301d6689df0</title>
<polygon fill="lightpink" stroke="purple" points="769,-459.5 769,-495.5 823,-495.5 823,-459.5 769,-459.5"/>
<text text-anchor="middle" x="795.88" y="-472.45" font-family="Times,serif" font-size="14.00">*</text>
</g>
<!-- p0x6301d6689e20&#45;&gt;p0x6301d6689df0 -->
<g id="edge25" class="edge">
<title>p0x6301d6689e20&#45;&gt;p0x6301d6689df0</title>
<path fill="none" stroke="gray" d="M500.26,-543.51C559.58,-530.47 700.15,-499.57 763.75,-485.59"/>
<polygon fill="gray" stroke="gray" points="763.84,-487 767.45,-484.78 763.24,-484.27 763.84,-487"/>
</g>
<!-- p0x6301d6689880 -->
<g id="node13" class="node">
<title>p0x6301d6689880</title>
<polygon fill="lightpink" stroke="purple" points="391,-386.5 391,-422.5 445,-422.5 445,-386.5 391,-386.5"/>
<text text-anchor="middle" x="417.88" y="-399.45" font-family="Times,serif" font-size="14.00">*</text>
</g>
<!-- p0x6301d6689970&#45;&gt;p0x6301d6689880 -->
<g id="edge12" class="edge">
<title>p0x6301d6689970&#45;&gt;p0x6301d6689880</title>
<path fill="none" stroke="gray" d="M459.69,-459.31C452.12,-449.55 442.58,-437.23 434.54,-426.85"/>
<polygon fill="gray" stroke="gray" points="435.67,-426.03 432.12,-423.73 433.46,-427.74 435.67,-426.03"/>
</g>
<!-- p0x6301d6689940 -->
<g id="node22" class="node">
<title>p0x6301d6689940</title>
<polygon fill="lightpink" stroke="purple" points="502,-386.5 502,-422.5 556,-422.5 556,-386.5 502,-386.5"/>
<text text-anchor="middle" x="528.75" y="-399.45" font-family="Times,serif" font-size="14.00">ln</text>
</g>
<!-- p0x6301d6689970&#45;&gt;p0x6301d6689940 -->
<g id="edge21" class="edge">
<title>p0x6301d6689970&#45;&gt;p0x6301d6689940</title>
<path fill="none" stroke="gray" d="M486.56,-459.31C494.26,-449.55 503.97,-437.23 512.16,-426.85"/>
<polygon fill="gray" stroke="gray" points="513.25,-427.72 514.63,-423.72 511.06,-425.99 513.25,-427.72"/>
</g>
<!-- p0x6301d6689760 -->
<g id="node14" class="node">
<title>p0x6301d6689760</title>
<polygon fill="lightpink" stroke="purple" points="279,-313.5 279,-349.5 333,-349.5 333,-313.5 279,-313.5"/>
<text text-anchor="middle" x="305.88" y="-326.45" font-family="Times,serif" font-size="14.00">/</text>
</g>
<!-- p0x6301d6689880&#45;&gt;p0x6301d6689760 -->
<g id="edge13" class="edge">
<title>p0x6301d6689880&#45;&gt;p0x6301d6689760</title>
<path fill="none" stroke="gray" d="M390.6,-386.13C374.62,-376 354.39,-363.17 337.72,-352.61"/>
<polygon fill="gray" stroke="gray" points="338.52,-351.46 334.39,-350.5 337.02,-353.82 338.52,-351.46"/>
</g>
<!-- p0x6301d6689850 -->
<g id="node17" class="node">
<title>p0x6301d6689850</title>
<polygon fill="lightpink" stroke="purple" points="391,-313.5 391,-349.5 445,-349.5 445,-313.5 391,-313.5"/>
<text text-anchor="middle" x="417.88" y="-326.45" font-family="Times,serif" font-size="14.00">*</text>
</g>
<!-- p0x6301d6689880&#45;&gt;p0x6301d6689850 -->
<g id="edge16" class="edge">
<title>p0x6301d6689880&#45;&gt;p0x6301d6689850</title>
<path fill="none" stroke="gray" d="M418,-386.31C418,-376.89 418,-365.11 418,-354.97"/>
<polygon fill="gray" stroke="gray" points="419.4,-355.04 418,-351.04 416.6,-355.04 419.4,-355.04"/>
</g>
<!-- p0x6301d6689700 -->
<g id="node15" class="node">
<title>p0x6301d6689700</title>
<ellipse fill="lightgreen" stroke="green" cx="237" cy="-255" rx="18" ry="18"/>
<text text-anchor="middle" x="237" y="-249.95" font-family="Times,serif" font-size="14.00">1</text>
</g>
<!-- p0x6301d6689760&#45;&gt;p0x6301d6689700 -->
<g id="edge14" class="edge">
<title>p0x6301d6689760&#45;&gt;p0x6301d6689700</title>
<path fill="none" stroke="gray" d="M290,-313.22C278.69,-301.02 263.63,-284.75 252.45,-272.68"/>
<polygon fill="gray" stroke="gray" points="253.6,-271.86 249.85,-269.88 251.54,-273.76 253.6,-271.86"/>
</g>
<!-- p0x6301d6689730 -->
<g id="node16" class="node">
<title>p0x6301d6689730</title>
<ellipse fill="lightblue" stroke="blue" cx="306" cy="-255" rx="18" ry="18"/>
<ellipse fill="none" stroke="blue" cx="306" cy="-255" rx="22" ry="22"/>
<text text-anchor="middle" x="306" y="-249.95" font-family="Times,serif" font-size="14.00">x</text>
</g>
<!-- p0x6301d6689760&#45;&gt;p0x6301d6689730 -->
<g id="edge15" class="edge">
<title>p0x6301d6689760&#45;&gt;p0x6301d6689730</title>
<path fill="none" stroke="gray" d="M306,-313.22C306,-304.23 306,-293.03 306,-282.93"/>
<polygon fill="gray" stroke="gray" points="307.4,-282.96 306,-278.96 304.6,-282.96 307.4,-282.96"/>
</g>
<!-- p0x6301d6689790 -->
<g id="node18" class="node">
<title>p0x6301d6689790</title>
<ellipse fill="lightgreen" stroke="green" cx="376" cy="-255" rx="18.6" ry="18.6"/>
<text text-anchor="middle" x="376" y="-249.95" font-family="Times,serif" font-size="14.00">&#45;1</text>
</g>
<!-- p0x6301d6689850&#45;&gt;p0x6301d6689790 -->
<g id="edge17" class="edge">
<title>p0x6301d6689850&#45;&gt;p0x6301d6689790</title>
<path fill="none" stroke="gray" d="M408.26,-313.22C402.07,-302.24 394.02,-287.97 387.51,-276.43"/>
<polygon fill="gray" stroke="gray" points="388.76,-275.78 385.57,-272.98 386.32,-277.15 388.76,-275.78"/>
</g>
<!-- p0x6301d6689820 -->
<g id="node19" class="node">
<title>p0x6301d6689820</title>
<polygon fill="lightpink" stroke="purple" points="424,-237 424,-273 478,-273 478,-237 424,-237"/>
<text text-anchor="middle" x="450.88" y="-249.95" font-family="Times,serif" font-size="14.00">sin</text>
</g>
<!-- p0x6301d6689850&#45;&gt;p0x6301d6689820 -->
<g id="edge18" class="edge">
<title>p0x6301d6689850&#45;&gt;p0x6301d6689820</title>
<path fill="none" stroke="gray" d="M425.65,-313.22C430.24,-302.86 436.13,-289.57 441.08,-278.4"/>
<polygon fill="gray" stroke="gray" points="442.32,-279.05 442.66,-274.83 439.76,-277.92 442.32,-279.05"/>
</g>
<!-- p0x6301d66897c0 -->
<g id="node20" class="node">
<title>p0x6301d66897c0</title>
<polygon fill="lightpink" stroke="purple" points="424,-160.5 424,-196.5 478,-196.5 478,-160.5 424,-160.5"/>
<text text-anchor="middle" x="450.75" y="-173.45" font-family="Times,serif" font-size="14.00">ln</text>
</g>
<!-- p0x6301d6689820&#45;&gt;p0x6301d66897c0 -->
<g id="edge19" class="edge">
<title>p0x6301d6689820&#45;&gt;p0x6301d66897c0</title>
<path fill="none" stroke="gray" d="M451,-236.72C451,-226.45 451,-213.31 451,-202.21"/>
<polygon fill="gray" stroke="gray" points="452.4,-202.46 451,-198.46 449.6,-202.46 452.4,-202.46"/>
</g>
<!-- p0x6301d66897f0 -->
<g id="node21" class="node">
<title>p0x6301d66897f0</title>
<ellipse fill="lightblue" stroke="blue" cx="451" cy="-102" rx="18" ry="18"/>
<ellipse fill="none" stroke="blue" cx="451" cy="-102" rx="22" ry="22"/>
<text text-anchor="middle" x="451" y="-96.95" font-family="Times,serif" font-size="14.00">x</text>
</g>
<!-- p0x6301d66897c0&#45;&gt;p0x6301d66897f0 -->
<g id="edge20" class="edge">
<title>p0x6301d66897c0&#45;&gt;p0x6301d66897f0</title>
<path fill="none" stroke="gray" d="M451,-160.22C451,-151.23 451,-140.03 451,-129.93"/>
<polygon fill="gray" stroke="gray" points="452.4,-129.96 451,-125.96 449.6,-129.96 452.4,-129.96"/>
</g>
<!-- p0x6301d66898b0 -->
<g id="node23" class="node">
<title>p0x6301d66898b0</title>
<polygon fill="lightpink" stroke="purple" points="502,-313.5 502,-349.5 556,-349.5 556,-313.5 502,-313.5"/>
<text text-anchor="middle" x="528.88" y="-326.45" font-family="Times,serif" font-size="14.00">^</text>
</g>
<!-- p0x6301d6689940&#45;&gt;p0x6301d66898b0 -->
<g id="edge22" class="edge">
<title>p0x6301d6689940&#45;&gt;p0x6301d66898b0</title>
<path fill="none" stroke="gray" d="M529,-386.31C529,-376.89 529,-365.11 529,-354.97"/>
<polygon fill="gray" stroke="gray" points="530.4,-355.04 529,-351.04 527.6,-355.04 530.4,-355.04"/>
</g>
<!-- p0x6301d66898e0 -->
<g id="node24" class="node">
<title>p0x6301d66898e0</title>
<ellipse fill="lightblue" stroke="blue" cx="529" cy="-255" rx="18" ry="18"/>
<ellipse fill="none" stroke="blue" cx="529" cy="-255" rx="22" ry="22"/>
<text text-anchor="middle" x="529" y="-249.95" font-family="Times,serif" font-size="14.00">x</text>
</g>
<!-- p0x6301d66898b0&#45;&gt;p0x6301d66898e0 -->
<g id="edge23" class="edge">
<title>p0x6301d66898b0&#45;&gt;p0x6301d66898e0</title>
<path fill="none" stroke="gray" d="M529,-313.22C529,-304.23 529,-293.03 529,-282.93"/>
<polygon fill="gray" stroke="gray" points="530.4,-282.96 529,-278.96 527.6,-282.96 530.4,-282.96"/>
</g>
<!-- p0x6301d6689910 -->
<g id="node25" class="node">
<title>p0x6301d6689910</title>
<ellipse fill="lightblue" stroke="blue" cx="602" cy="-255" rx="18" ry="18"/>
<ellipse fill="none" stroke="blue" cx="602" cy="-255" rx="22" ry="22"/>
<text text-anchor="middle" x="602" y="-249.95" font-family="Times,serif" font-size="14.00">x</text>
</g>
<!-- p0x6301d66898b0&#45;&gt;p0x6301d6689910 -->
<g id="edge24" class="edge">
<title>p0x6301d66898b0&#45;&gt;p0x6301d6689910</title>
<path fill="none" stroke="gray" d="M545.93,-313.22C557.13,-301.79 571.82,-286.8 583.36,-275.02"/>
<polygon fill="gray" stroke="gray" points="584.28,-276.08 586.08,-272.25 582.28,-274.12 584.28,-276.08"/>
</g>
<!-- p0x6301d6689d30 -->
<g id="node27" class="node">
<title>p0x6301d6689d30</title>
<polygon fill="lightpink" stroke="purple" points="769,-386.5 769,-422.5 823,-422.5 823,-386.5 769,-386.5"/>
<text text-anchor="middle" x="795.88" y="-399.45" font-family="Times,serif" font-size="14.00">/</text>
</g>
<!-- p0x6301d6689df0&#45;&gt;p0x6301d6689d30 -->
<g id="edge26" class="edge">
<title>p0x6301d6689df0&#45;&gt;p0x6301d6689d30</title>
<path fill="none" stroke="gray" d="M796,-459.31C796,-449.89 796,-438.11 796,-427.97"/>
<polygon fill="gray" stroke="gray" points="797.4,-428.04 796,-424.04 794.6,-428.04 797.4,-428.04"/>
</g>
<!-- p0x6301d6689d60 -->
<g id="node45" class="node">
<title>p0x6301d6689d60</title>
<polygon fill="lightpink" stroke="purple" points="893,-386.5 893,-422.5 947,-422.5 947,-386.5 893,-386.5"/>
<text text-anchor="middle" x="920" y="-399.45" font-family="Times,serif" font-size="14.00">cos</text>
</g>
<!-- p0x6301d6689df0&#45;&gt;p0x6301d6689d60 -->
<g id="edge44" class="edge">
<title>p0x6301d6689df0&#45;&gt;p0x6301d6689d60</title>
<path fill="none" stroke="gray" d="M823.21,-460.92C842.35,-449.96 868.03,-435.26 888.13,-423.75"/>
<polygon fill="gray" stroke="gray" points="888.76,-425 891.54,-421.8 887.37,-422.57 888.76,-425"/>
</g>
<!-- p0x6301d6689c70 -->
<g id="node28" class="node">
<title>p0x6301d6689c70</title>
<polygon fill="lightpink" stroke="purple" points="733,-313.5 733,-349.5 787,-349.5 787,-313.5 733,-313.5"/>
<text text-anchor="middle" x="759.88" y="-326.45" font-family="Times,serif" font-size="14.00">*</text>
</g>
<!-- p0x6301d6689d30&#45;&gt;p0x6301d6689c70 -->
<g id="edge27" class="edge">
<title>p0x6301d6689d30&#45;&gt;p0x6301d6689c70</title>
<path fill="none" stroke="gray" d="M787.29,-386.31C782.42,-376.72 776.31,-364.67 771.11,-354.41"/>
<polygon fill="gray" stroke="gray" points="772.38,-353.81 769.32,-350.88 769.88,-355.08 772.38,-353.81"/>
</g>
<!-- p0x6301d6689ca0 -->
<g id="node42" class="node">
<title>p0x6301d6689ca0</title>
<polygon fill="lightpink" stroke="purple" points="816,-313.5 816,-349.5 870,-349.5 870,-313.5 816,-313.5"/>
<text text-anchor="middle" x="842.88" y="-326.45" font-family="Times,serif" font-size="14.00">^</text>
</g>
<!-- p0x6301d6689d30&#45;&gt;p0x6301d6689ca0 -->
<g id="edge41" class="edge">
<title>p0x6301d6689d30&#45;&gt;p0x6301d6689ca0</title>
<path fill="none" stroke="gray" d="M807.38,-386.31C813.79,-376.63 821.85,-364.45 828.68,-354.13"/>
<polygon fill="gray" stroke="gray" points="829.85,-354.9 830.89,-350.79 827.52,-353.35 829.85,-354.9"/>
</g>
<!-- p0x6301d6689a60 -->
<g id="node29" class="node">
<title>p0x6301d6689a60</title>
<polygon fill="lightpink" stroke="purple" points="653,-237 653,-273 707,-273 707,-237 653,-237"/>
<text text-anchor="middle" x="679.75" y="-249.95" font-family="Times,serif" font-size="14.00">exp</text>
</g>
<!-- p0x6301d6689c70&#45;&gt;p0x6301d6689a60 -->
<g id="edge28" class="edge">
<title>p0x6301d6689c70&#45;&gt;p0x6301d6689a60</title>
<path fill="none" stroke="gray" d="M741.45,-313.22C729.82,-302.39 714.75,-288.36 702.45,-276.91"/>
<polygon fill="gray" stroke="gray" points="703.72,-276.18 699.84,-274.47 701.81,-278.23 703.72,-276.18"/>
</g>
<!-- p0x6301d6689c40 -->
<g id="node34" class="node">
<title>p0x6301d6689c40</title>
<polygon fill="lightpink" stroke="purple" points="736,-237 736,-273 790,-273 790,-237 736,-237"/>
<text text-anchor="middle" x="762.62" y="-249.95" font-family="Times,serif" font-size="14.00">+</text>
</g>
<!-- p0x6301d6689c70&#45;&gt;p0x6301d6689c40 -->
<g id="edge33" class="edge">
<title>p0x6301d6689c70&#45;&gt;p0x6301d6689c40</title>
<path fill="none" stroke="gray" d="M760.7,-313.22C761.11,-302.95 761.64,-289.81 762.09,-278.71"/>
<polygon fill="gray" stroke="gray" points="763.47,-279.01 762.24,-274.96 760.68,-278.9 763.47,-279.01"/>
</g>
<!-- p0x6301d6689a30 -->
<g id="node30" class="node">
<title>p0x6301d6689a30</title>
<polygon fill="lightpink" stroke="purple" points="653,-160.5 653,-196.5 707,-196.5 707,-160.5 653,-160.5"/>
<text text-anchor="middle" x="679.88" y="-173.45" font-family="Times,serif" font-size="14.00">*</text>
</g>
<!-- p0x6301d6689a60&#45;&gt;p0x6301d6689a30 -->
<g id="edge29" class="edge">
<title>p0x6301d6689a60&#45;&gt;p0x6301d6689a30</title>
<path fill="none" stroke="gray" d="M680,-236.72C680,-226.45 680,-213.31 680,-202.21"/>
<polygon fill="gray" stroke="gray" points="681.4,-202.46 680,-198.46 678.6,-202.46 681.4,-202.46"/>
</g>
<!-- p0x6301d66899a0 -->
<g id="node31" class="node">
<title>p0x6301d66899a0</title>
<ellipse fill="lightblue" stroke="blue" cx="605" cy="-102" rx="18" ry="18"/>
<ellipse fill="none" stroke="blue" cx="605" cy="-102" rx="22" ry="22"/>
<text text-anchor="middle" x="605" y="-96.95" font-family="Times,serif" font-size="14.00">x</text>
</g>
<!-- p0x6301d6689a30&#45;&gt;p0x6301d66899a0 -->
<g id="edge30" class="edge">
<title>p0x6301d6689a30&#45;&gt;p0x6301d66899a0</title>
<path fill="none" stroke="gray" d="M662.6,-160.22C651.1,-148.79 636,-133.8 624.15,-122.02"/>
<polygon fill="gray" stroke="gray" points="625.17,-121.06 621.34,-119.23 623.19,-123.04 625.17,-121.06"/>
</g>
<!-- p0x6301d6689a00 -->
<g id="node32" class="node">
<title>p0x6301d6689a00</title>
<polygon fill="lightpink" stroke="purple" points="656,-84 656,-120 710,-120 710,-84 656,-84"/>
<text text-anchor="middle" x="682.75" y="-96.95" font-family="Times,serif" font-size="14.00">ln</text>
</g>
<!-- p0x6301d6689a30&#45;&gt;p0x6301d6689a00 -->
<g id="edge31" class="edge">
<title>p0x6301d6689a30&#45;&gt;p0x6301d6689a00</title>
<path fill="none" stroke="gray" d="M680.7,-160.22C681.11,-149.95 681.64,-136.81 682.09,-125.71"/>
<polygon fill="gray" stroke="gray" points="683.47,-126.01 682.24,-121.96 680.68,-125.9 683.47,-126.01"/>
</g>
<!-- p0x6301d66899d0 -->
<g id="node33" class="node">
<title>p0x6301d66899d0</title>
<ellipse fill="lightblue" stroke="blue" cx="683" cy="-22" rx="18" ry="18"/>
<ellipse fill="none" stroke="blue" cx="683" cy="-22" rx="22" ry="22"/>
<text text-anchor="middle" x="683" y="-16.95" font-family="Times,serif" font-size="14.00">x</text>
</g>
<!-- p0x6301d6689a00&#45;&gt;p0x6301d66899d0 -->
<g id="edge32" class="edge">
<title>p0x6301d6689a00&#45;&gt;p0x6301d66899d0</title>
<path fill="none" stroke="gray" d="M683,-83.69C683,-73.74 683,-61.02 683,-49.81"/>
<polygon fill="gray" stroke="gray" points="684.4,-49.95 683,-45.95 681.6,-49.95 684.4,-49.95"/>
</g>
<!-- p0x6301d6689e80 -->
<g id="node35" class="node">
<title>p0x6301d6689e80</title>
<polygon fill="lightpink" stroke="purple" points="736,-160.5 736,-196.5 790,-196.5 790,-160.5 736,-160.5"/>
<text text-anchor="middle" x="762.75" y="-173.45" font-family="Times,serif" font-size="14.00">ln</text>
</g>
<!-- p0x6301d6689c40&#45;&gt;p0x6301d6689e80 -->
<g id="edge34" class="edge">
<title>p0x6301d6689c40&#45;&gt;p0x6301d6689e80</title>
<path fill="none" stroke="gray" d="M763,-236.72C763,-226.45 763,-213.31 763,-202.21"/>
<polygon fill="gray" stroke="gray" points="764.4,-202.46 763,-198.46 761.6,-202.46 764.4,-202.46"/>
</g>
<!-- p0x6301d6689c10 -->
<g id="node37" class="node">
<title>p0x6301d6689c10</title>
<polygon fill="lightpink" stroke="purple" points="819,-160.5 819,-196.5 873,-196.5 873,-160.5 819,-160.5"/>
<text text-anchor="middle" x="845.88" y="-173.45" font-family="Times,serif" font-size="14.00">*</text>
</g>
<!-- p0x6301d6689c40&#45;&gt;p0x6301d6689c10 -->
<g id="edge36" class="edge">
<title>p0x6301d6689c40&#45;&gt;p0x6301d6689c10</title>
<path fill="none" stroke="gray" d="M782.25,-236.72C794.32,-225.89 809.94,-211.86 822.7,-200.41"/>
<polygon fill="gray" stroke="gray" points="823.4,-201.67 825.44,-197.95 821.53,-199.58 823.4,-201.67"/>
</g>
<!-- p0x6301d6689eb0 -->
<g id="node36" class="node">
<title>p0x6301d6689eb0</title>
<ellipse fill="lightblue" stroke="blue" cx="763" cy="-102" rx="18" ry="18"/>
<ellipse fill="none" stroke="blue" cx="763" cy="-102" rx="22" ry="22"/>
<text text-anchor="middle" x="763" y="-96.95" font-family="Times,serif" font-size="14.00">x</text>
</g>
<!-- p0x6301d6689e80&#45;&gt;p0x6301d6689eb0 -->
<g id="edge35" class="edge">
<title>p0x6301d6689e80&#45;&gt;p0x6301d6689eb0</title>
<path fill="none" stroke="gray" d="M763,-160.22C763,-151.23 763,-140.03 763,-129.93"/>
<polygon fill="gray" stroke="gray" points="764.4,-129.96 763,-125.96 761.6,-129.96 764.4,-129.96"/>
</g>
<!-- p0x6301d6689bb0 -->
<g id="node38" class="node">
<title>p0x6301d6689bb0</title>
<polygon fill="lightpink" stroke="purple" points="816,-84 816,-120 870,-120 870,-84 816,-84"/>
<text text-anchor="middle" x="842.88" y="-96.95" font-family="Times,serif" font-size="14.00">/</text>
</g>
<!-- p0x6301d6689c10&#45;&gt;p0x6301d6689bb0 -->
<g id="edge37" class="edge">
<title>p0x6301d6689c10&#45;&gt;p0x6301d6689bb0</title>
<path fill="none" stroke="gray" d="M845.3,-160.22C844.89,-149.95 844.36,-136.81 843.91,-125.71"/>
<polygon fill="gray" stroke="gray" points="845.32,-125.9 843.76,-121.96 842.53,-126.01 845.32,-125.9"/>
</g>
<!-- p0x6301d6689be0 -->
<g id="node41" class="node">
<title>p0x6301d6689be0</title>
<ellipse fill="lightblue" stroke="blue" cx="921" cy="-102" rx="18" ry="18"/>
<ellipse fill="none" stroke="blue" cx="921" cy="-102" rx="22" ry="22"/>
<text text-anchor="middle" x="921" y="-96.95" font-family="Times,serif" font-size="14.00">x</text>
</g>
<!-- p0x6301d6689c10&#45;&gt;p0x6301d6689be0 -->
<g id="edge40" class="edge">
<title>p0x6301d6689c10&#45;&gt;p0x6301d6689be0</title>
<path fill="none" stroke="gray" d="M863.4,-160.22C874.9,-148.79 890,-133.8 901.85,-122.02"/>
<polygon fill="gray" stroke="gray" points="902.81,-123.04 904.66,-119.23 900.83,-121.06 902.81,-123.04"/>
</g>
<!-- p0x6301d6689b50 -->
<g id="node39" class="node">
<title>p0x6301d6689b50</title>
<ellipse fill="lightgreen" stroke="green" cx="808" cy="-22" rx="18" ry="18"/>
<text text-anchor="middle" x="808" y="-16.95" font-family="Times,serif" font-size="14.00">1</text>
</g>
<!-- p0x6301d6689bb0&#45;&gt;p0x6301d6689b50 -->
<g id="edge38" class="edge">
<title>p0x6301d6689bb0&#45;&gt;p0x6301d6689b50</title>
<path fill="none" stroke="gray" d="M835.23,-83.69C829.93,-71.88 822.89,-56.19 817.29,-43.71"/>
<polygon fill="gray" stroke="gray" points="818.68,-43.39 815.77,-40.32 816.13,-44.54 818.68,-43.39"/>
</g>
<!-- p0x6301d6689b80 -->
<g id="node40" class="node">
<title>p0x6301d6689b80</title>
<ellipse fill="lightblue" stroke="blue" cx="877" cy="-22" rx="18" ry="18"/>
<ellipse fill="none" stroke="blue" cx="877" cy="-22" rx="22" ry="22"/>
<text text-anchor="middle" x="877" y="-16.95" font-family="Times,serif" font-size="14.00">x</text>
</g>
<!-- p0x6301d6689bb0&#45;&gt;p0x6301d6689b80 -->
<g id="edge39" class="edge">
<title>p0x6301d6689bb0&#45;&gt;p0x6301d6689b80</title>
<path fill="none" stroke="gray" d="M850.55,-83.69C855.17,-73.09 861.16,-59.35 866.27,-47.62"/>
<polygon fill="gray" stroke="gray" points="867.48,-48.35 867.79,-44.12 864.91,-47.23 867.48,-48.35"/>
</g>
<!-- p0x6301d6689cd0 -->
<g id="node43" class="node">
<title>p0x6301d6689cd0</title>
<ellipse fill="lightblue" stroke="blue" cx="841" cy="-255" rx="18" ry="18"/>
<ellipse fill="none" stroke="blue" cx="841" cy="-255" rx="22" ry="22"/>
<text text-anchor="middle" x="841" y="-249.95" font-family="Times,serif" font-size="14.00">x</text>
</g>
<!-- p0x6301d6689ca0&#45;&gt;p0x6301d6689cd0 -->
<g id="edge42" class="edge">
<title>p0x6301d6689ca0&#45;&gt;p0x6301d6689cd0</title>
<path fill="none" stroke="gray" d="M842.54,-313.22C842.29,-304.23 841.99,-293.03 841.72,-282.93"/>
<polygon fill="gray" stroke="gray" points="843.12,-282.92 841.62,-278.96 840.32,-283 843.12,-282.92"/>
</g>
<!-- p0x6301d6689d00 -->
<g id="node44" class="node">
<title>p0x6301d6689d00</title>
<ellipse fill="lightblue" stroke="blue" cx="914" cy="-255" rx="18" ry="18"/>
<ellipse fill="none" stroke="blue" cx="914" cy="-255" rx="22" ry="22"/>
<text text-anchor="middle" x="914" y="-249.95" font-family="Times,serif" font-size="14.00">x</text>
</g>
<!-- p0x6301d6689ca0&#45;&gt;p0x6301d6689d00 -->
<g id="edge43" class="edge">
<title>p0x6301d6689ca0&#45;&gt;p0x6301d6689d00</title>
<path fill="none" stroke="gray" d="M859.47,-313.22C870.21,-301.94 884.27,-287.2 895.41,-275.5"/>
<polygon fill="gray" stroke="gray" points="896.28,-276.62 898.03,-272.76 894.26,-274.69 896.28,-276.62"/>
</g>
<!-- p0x6301d6689d90 -->
<g id="node46" class="node">
<title>p0x6301d6689d90</title>
<polygon fill="lightpink" stroke="purple" points="930,-313.5 930,-349.5 984,-349.5 984,-313.5 930,-313.5"/>
<text text-anchor="middle" x="956.75" y="-326.45" font-family="Times,serif" font-size="14.00">ln</text>
</g>
<!-- p0x6301d6689d60&#45;&gt;p0x6301d6689d90 -->
<g id="edge45" class="edge">
<title>p0x6301d6689d60&#45;&gt;p0x6301d6689d90</title>
<path fill="none" stroke="gray" d="M928.96,-386.31C933.96,-376.72 940.24,-364.67 945.58,-354.41"/>
<polygon fill="gray" stroke="gray" points="946.82,-355.07 947.43,-350.87 944.34,-353.77 946.82,-355.07"/>
</g>
<!-- p0x6301d6689dc0 -->
<g id="node47" class="node">
<title>p0x6301d6689dc0</title>
<ellipse fill="lightblue" stroke="blue" cx="987" cy="-255" rx="18" ry="18"/>
<ellipse fill="none" stroke="blue" cx="987" cy="-255" rx="22" ry="22"/>
<text text-anchor="middle" x="987" y="-249.95" font-family="Times,serif" font-size="14.00">x</text>
</g>
<!-- p0x6301d6689d90&#45;&gt;p0x6301d6689dc0 -->
<g id="edge46" class="edge">
<title>p0x6301d6689d90&#45;&gt;p0x6301d6689dc0</title>
<path fill="none" stroke="gray" d="M963.96,-313.22C967.83,-303.62 972.71,-291.5 976.98,-280.89"/>
<polygon fill="gray" stroke="gray" points="978.26,-281.46 978.45,-277.22 975.66,-280.41 978.26,-281.46"/>
</g>
</g>
</svg>
