<?xml version="1.0" encoding="UTF-8" standalone="no"?>
<!DOCTYPE svg PUBLIC "-//W3C//DTD SVG 1.1//EN"
 "http://www.w3.org/Graphics/SVG/1.1/DTD/svg11.dtd">
<!-- Generated by graphviz version 12.1.2 (0)
 -->
<!-- Title: diffTree Pages: 1 -->
<svg width="264pt" height="271pt"
 viewBox="0.00 0.00 264.00 271.00" xmlns="http://www.w3.org/2000/svg" xmlns:xlink="http://www.w3.org/1999/xlink">
<g id="graph0" class="graph" transform="scale(1 1) rotate(0) translate(4 267)">
<title>diffTree</title>
<polygon fill="white" stroke="none" points="-4,4 -4,-267 260,-267 260,4 -4,4"/>
<!-- p0x61003ed49880 -->
<g id="node1" class="node">
<title>p0x61003ed49880</title>
<polygon fill="lightpink" stroke="purple" points="100,-226.5 100,-262.5 154,-262.5 154,-226.5 100,-226.5"/>
<text text-anchor="middle" x="126.88" y="-239.45" font-family="Times,serif" font-size="14.00">^</text>
</g>
<!-- p0x61003ed496f0 -->
<g id="node2" class="node">
<title>p0x61003ed496f0</title>
<polygon fill="lightpink" stroke="purple" points="59,-153.5 59,-189.5 113,-189.5 113,-153.5 59,-153.5"/>
<text text-anchor="middle" x="86" y="-166.45" font-family="Times,serif" font-size="14.00">cos</text>
</g>
<!-- p0x61003ed49880&#45;&gt;p0x61003ed496f0 -->
<g id="edge1" class="edge">
<title>p0x61003ed49880&#45;&gt;p0x61003ed496f0</title>
<path fill="none" stroke="gray" d="M117.08,-226.31C111.48,-216.63 104.45,-204.45 98.49,-194.13"/>
<polygon fill="gray" stroke="gray" points="99.8,-193.6 96.59,-190.84 97.38,-195 99.8,-193.6"/>
</g>
<!-- p0x61003ed49850 -->
<g id="node6" class="node">
<title>p0x61003ed49850</title>
<polygon fill="lightpink" stroke="purple" points="142,-153.5 142,-189.5 196,-189.5 196,-153.5 142,-153.5"/>
<text text-anchor="middle" x="168.75" y="-166.45" font-family="Times,serif" font-size="14.00">ln</text>
</g>
<!-- p0x61003ed49880&#45;&gt;p0x61003ed49850 -->
<g id="edge5" class="edge">
<title>p0x61003ed49880&#45;&gt;p0x61003ed49850</title>
<path fill="none" stroke="gray" d="M137.17,-226.31C142.89,-216.63 150.1,-204.45 156.21,-194.13"/>
<polygon fill="gray" stroke="gray" points="157.32,-194.99 158.16,-190.83 154.91,-193.56 157.32,-194.99"/>
</g>
<!-- p0x61003ed496c0 -->
<g id="node3" class="node">
<title>p0x61003ed496c0</title>
<polygon fill="lightpink" stroke="purple" points="59,-80.5 59,-116.5 113,-116.5 113,-80.5 59,-80.5"/>
<text text-anchor="middle" x="85.88" y="-93.45" font-family="Times,serif" font-size="14.00">^</text>
</g>
<!-- p0x61003ed496f0&#45;&gt;p0x61003ed496c0 -->
<g id="edge2" class="edge">
<title>p0x61003ed496f0&#45;&gt;p0x61003ed496c0</title>
<path fill="none" stroke="gray" d="M86,-153.31C86,-143.89 86,-132.11 86,-121.97"/>
<polygon fill="gray" stroke="gray" points="87.4,-122.04 86,-118.04 84.6,-122.04 87.4,-122.04"/>
</g>
<!-- p0x61003ed49620 -->
<g id="node4" class="node">
<title>p0x61003ed49620</title>
<ellipse fill="lightblue" stroke="blue" cx="22" cy="-22" rx="18" ry="18"/>
<ellipse fill="none" stroke="blue" cx="22" cy="-22" rx="22" ry="22"/>
<text text-anchor="middle" x="22" y="-16.95" font-family="Times,serif" font-size="14.00">x</text>
</g>
<!-- p0x61003ed496c0&#45;&gt;p0x61003ed49620 -->
<g id="edge3" class="edge">
<title>p0x61003ed496c0&#45;&gt;p0x61003ed49620</title>
<path fill="none" stroke="gray" d="M71.16,-80.22C61.75,-69.27 49.54,-55.05 39.64,-43.53"/>
<polygon fill="gray" stroke="gray" points="40.76,-42.69 37.09,-40.57 38.64,-44.51 40.76,-42.69"/>
</g>
<!-- p0x61003ed49690 -->
<g id="node5" class="node">
<title>p0x61003ed49690</title>
<ellipse fill="lightgreen" stroke="green" cx="91" cy="-22" rx="18" ry="18"/>
<text text-anchor="middle" x="91" y="-16.95" font-family="Times,serif" font-size="14.00">3</text>
</g>
<!-- p0x61003ed496c0&#45;&gt;p0x61003ed49690 -->
<g id="edge4" class="edge">
<title>p0x61003ed496c0&#45;&gt;p0x61003ed49690</title>
<path fill="none" stroke="gray" d="M87.16,-80.22C87.85,-69.95 88.73,-56.81 89.48,-45.71"/>
<polygon fill="gray" stroke="gray" points="90.86,-46.04 89.73,-41.95 88.06,-45.85 90.86,-46.04"/>
</g>
<!-- p0x61003ed49820 -->
<g id="node7" class="node">
<title>p0x61003ed49820</title>
<polygon fill="lightpink" stroke="purple" points="142,-80.5 142,-116.5 196,-116.5 196,-80.5 142,-80.5"/>
<text text-anchor="middle" x="168.88" y="-93.45" font-family="Times,serif" font-size="14.00">*</text>
</g>
<!-- p0x61003ed49850&#45;&gt;p0x61003ed49820 -->
<g id="edge6" class="edge">
<title>p0x61003ed49850&#45;&gt;p0x61003ed49820</title>
<path fill="none" stroke="gray" d="M169,-153.31C169,-143.89 169,-132.11 169,-121.97"/>
<polygon fill="gray" stroke="gray" points="170.4,-122.04 169,-118.04 167.6,-122.04 170.4,-122.04"/>
</g>
<!-- p0x61003ed49780 -->
<g id="node8" class="node">
<title>p0x61003ed49780</title>
<ellipse fill="lightgreen" stroke="green" cx="165" cy="-22" rx="18" ry="18"/>
<text text-anchor="middle" x="165" y="-16.95" font-family="Times,serif" font-size="14.00">2</text>
</g>
<!-- p0x61003ed49820&#45;&gt;p0x61003ed49780 -->
<g id="edge7" class="edge">
<title>p0x61003ed49820&#45;&gt;p0x61003ed49780</title>
<path fill="none" stroke="gray" d="M168.07,-80.22C167.52,-69.95 166.82,-56.81 166.22,-45.71"/>
<polygon fill="gray" stroke="gray" points="167.63,-45.87 166.02,-41.95 164.83,-46.02 167.63,-45.87"/>
</g>
<!-- p0x61003ed497f0 -->
<g id="node9" class="node">
<title>p0x61003ed497f0</title>
<ellipse fill="lightblue" stroke="blue" cx="234" cy="-22" rx="18" ry="18"/>
<ellipse fill="none" stroke="blue" cx="234" cy="-22" rx="22" ry="22"/>
<text text-anchor="middle" x="234" y="-16.95" font-family="Times,serif" font-size="14.00">x</text>
</g>
<!-- p0x61003ed49820&#45;&gt;p0x61003ed497f0 -->
<g id="edge8" class="edge">
<title>p0x61003ed49820&#45;&gt;p0x61003ed497f0</title>
<path fill="none" stroke="gray" d="M184.08,-80.22C193.7,-69.2 206.21,-54.86 216.3,-43.29"/>
<polygon fill="gray" stroke="gray" points="217.33,-44.24 218.9,-40.31 215.22,-42.4 217.33,-44.24"/>
</g>
</g>
</svg>
