<?xml version="1.0" encoding="UTF-8" standalone="no"?>
<!DOCTYPE svg PUBLIC "-//W3C//DTD SVG 1.1//EN"
 "http://www.w3.org/Graphics/SVG/1.1/DTD/svg11.dtd">
<!-- Generated by graphviz version 12.1.2 (0)
 -->
<!-- Title: diffTree Pages: 1 -->
<svg width="816pt" height="657pt"
 viewBox="0.00 0.00 816.00 657.00" xmlns="http://www.w3.org/2000/svg" xmlns:xlink="http://www.w3.org/1999/xlink">
<g id="graph0" class="graph" transform="scale(1 1) rotate(0) translate(4 653)">
<title>diffTree</title>
<polygon fill="white" stroke="none" points="-4,4 -4,-653 812,-653 812,4 -4,4"/>
<!-- p0x5f65004b6050 -->
<g id="node1" class="node">
<title>p0x5f65004b6050</title>
<polygon fill="lightpink" stroke="purple" points="198,-612.5 198,-648.5 252,-648.5 252,-612.5 198,-612.5"/>
<text text-anchor="middle" x="224.88" y="-625.45" font-family="Times,serif" font-size="14.00">*</text>
</g>
<!-- p0x5f65004b5870 -->
<g id="node2" class="node">
<title>p0x5f65004b5870</title>
<polygon fill="lightpink" stroke="purple" points="157,-539.5 157,-575.5 211,-575.5 211,-539.5 157,-539.5"/>
<text text-anchor="middle" x="183.75" y="-552.45" font-family="Times,serif" font-size="14.00">exp</text>
</g>
<!-- p0x5f65004b6050&#45;&gt;p0x5f65004b5870 -->
<g id="edge1" class="edge">
<title>p0x5f65004b6050&#45;&gt;p0x5f65004b5870</title>
<path fill="none" stroke="gray" d="M215.08,-612.31C209.48,-602.63 202.45,-590.45 196.49,-580.13"/>
<polygon fill="gray" stroke="gray" points="197.8,-579.6 194.59,-576.84 195.38,-581 197.8,-579.6"/>
</g>
<!-- p0x5f65004b6020 -->
<g id="node12" class="node">
<title>p0x5f65004b6020</title>
<polygon fill="lightpink" stroke="purple" points="271,-539.5 271,-575.5 325,-575.5 325,-539.5 271,-539.5"/>
<text text-anchor="middle" x="297.62" y="-552.45" font-family="Times,serif" font-size="14.00">+</text>
</g>
<!-- p0x5f65004b6050&#45;&gt;p0x5f65004b6020 -->
<g id="edge11" class="edge">
<title>p0x5f65004b6050&#45;&gt;p0x5f65004b6020</title>
<path fill="none" stroke="gray" d="M242.67,-612.31C252.82,-602.44 265.64,-589.97 276.38,-579.52"/>
<polygon fill="gray" stroke="gray" points="277.26,-580.62 279.15,-576.83 275.31,-578.62 277.26,-580.62"/>
</g>
<!-- p0x5f65004b5840 -->
<g id="node3" class="node">
<title>p0x5f65004b5840</title>
<polygon fill="lightpink" stroke="purple" points="83,-466.5 83,-502.5 137,-502.5 137,-466.5 83,-466.5"/>
<text text-anchor="middle" x="109.88" y="-479.45" font-family="Times,serif" font-size="14.00">*</text>
</g>
<!-- p0x5f65004b5870&#45;&gt;p0x5f65004b5840 -->
<g id="edge2" class="edge">
<title>p0x5f65004b5870&#45;&gt;p0x5f65004b5840</title>
<path fill="none" stroke="gray" d="M166.09,-539.31C155.8,-529.44 142.8,-516.97 131.91,-506.52"/>
<polygon fill="gray" stroke="gray" points="132.95,-505.58 129.1,-503.82 131.01,-507.6 132.95,-505.58"/>
</g>
<!-- p0x5f65004b56c0 -->
<g id="node4" class="node">
<title>p0x5f65004b56c0</title>
<polygon fill="lightpink" stroke="purple" points="0,-393.5 0,-429.5 54,-429.5 54,-393.5 0,-393.5"/>
<text text-anchor="middle" x="27" y="-406.45" font-family="Times,serif" font-size="14.00">cos</text>
</g>
<!-- p0x5f65004b5840&#45;&gt;p0x5f65004b56c0 -->
<g id="edge3" class="edge">
<title>p0x5f65004b5840&#45;&gt;p0x5f65004b56c0</title>
<path fill="none" stroke="gray" d="M89.91,-466.31C78.27,-456.36 63.54,-443.76 51.26,-433.25"/>
<polygon fill="gray" stroke="gray" points="52.29,-432.3 48.34,-430.76 50.47,-434.42 52.29,-432.3"/>
</g>
<!-- p0x5f65004b5810 -->
<g id="node6" class="node">
<title>p0x5f65004b5810</title>
<polygon fill="lightpink" stroke="purple" points="83,-393.5 83,-429.5 137,-429.5 137,-393.5 83,-393.5"/>
<text text-anchor="middle" x="109.75" y="-406.45" font-family="Times,serif" font-size="14.00">ln</text>
</g>
<!-- p0x5f65004b5840&#45;&gt;p0x5f65004b5810 -->
<g id="edge5" class="edge">
<title>p0x5f65004b5840&#45;&gt;p0x5f65004b5810</title>
<path fill="none" stroke="gray" d="M110,-466.31C110,-456.89 110,-445.11 110,-434.97"/>
<polygon fill="gray" stroke="gray" points="111.4,-435.04 110,-431.04 108.6,-435.04 111.4,-435.04"/>
</g>
<!-- p0x5f65004b56f0 -->
<g id="node5" class="node">
<title>p0x5f65004b56f0</title>
<ellipse fill="lightblue" stroke="blue" cx="27" cy="-335" rx="18" ry="18"/>
<ellipse fill="none" stroke="blue" cx="27" cy="-335" rx="22" ry="22"/>
<text text-anchor="middle" x="27" y="-329.95" font-family="Times,serif" font-size="14.00">x</text>
</g>
<!-- p0x5f65004b56c0&#45;&gt;p0x5f65004b56f0 -->
<g id="edge4" class="edge">
<title>p0x5f65004b56c0&#45;&gt;p0x5f65004b56f0</title>
<path fill="none" stroke="gray" d="M27,-393.22C27,-384.23 27,-373.03 27,-362.93"/>
<polygon fill="gray" stroke="gray" points="28.4,-362.96 27,-358.96 25.6,-362.96 28.4,-362.96"/>
</g>
<!-- p0x5f65004b5720 -->
<g id="node7" class="node">
<title>p0x5f65004b5720</title>
<polygon fill="lightpink" stroke="purple" points="80,-317 80,-353 134,-353 134,-317 80,-317"/>
<text text-anchor="middle" x="106.75" y="-329.95" font-family="Times,serif" font-size="14.00">ln</text>
</g>
<!-- p0x5f65004b5810&#45;&gt;p0x5f65004b5720 -->
<g id="edge6" class="edge">
<title>p0x5f65004b5810&#45;&gt;p0x5f65004b5720</title>
<path fill="none" stroke="gray" d="M109.3,-393.22C108.89,-382.95 108.36,-369.81 107.91,-358.71"/>
<polygon fill="gray" stroke="gray" points="109.32,-358.9 107.76,-354.96 106.53,-359.01 109.32,-358.9"/>
</g>
<!-- p0x5f65004b5750 -->
<g id="node8" class="node">
<title>p0x5f65004b5750</title>
<polygon fill="lightpink" stroke="purple" points="80,-237 80,-273 134,-273 134,-237 80,-237"/>
<text text-anchor="middle" x="106.88" y="-249.95" font-family="Times,serif" font-size="14.00">*</text>
</g>
<!-- p0x5f65004b5720&#45;&gt;p0x5f65004b5750 -->
<g id="edge7" class="edge">
<title>p0x5f65004b5720&#45;&gt;p0x5f65004b5750</title>
<path fill="none" stroke="gray" d="M107,-316.69C107,-305.48 107,-290.77 107,-278.63"/>
<polygon fill="gray" stroke="gray" points="108.4,-278.78 107,-274.78 105.6,-278.78 108.4,-278.78"/>
</g>
<!-- p0x5f65004b5780 -->
<g id="node9" class="node">
<title>p0x5f65004b5780</title>
<ellipse fill="lightgreen" stroke="green" cx="70" cy="-178.5" rx="18" ry="18"/>
<text text-anchor="middle" x="70" y="-173.45" font-family="Times,serif" font-size="14.00">5</text>
</g>
<!-- p0x5f65004b5750&#45;&gt;p0x5f65004b5780 -->
<g id="edge8" class="edge">
<title>p0x5f65004b5750&#45;&gt;p0x5f65004b5780</title>
<path fill="none" stroke="gray" d="M98.42,-236.72C92.96,-225.74 85.88,-211.47 80.14,-199.93"/>
<polygon fill="gray" stroke="gray" points="81.49,-199.48 78.45,-196.52 78.98,-200.72 81.49,-199.48"/>
</g>
<!-- p0x5f65004b57b0 -->
<g id="node10" class="node">
<title>p0x5f65004b57b0</title>
<polygon fill="lightpink" stroke="purple" points="117,-160.5 117,-196.5 171,-196.5 171,-160.5 117,-160.5"/>
<text text-anchor="middle" x="144" y="-173.45" font-family="Times,serif" font-size="14.00">cos</text>
</g>
<!-- p0x5f65004b5750&#45;&gt;p0x5f65004b57b0 -->
<g id="edge9" class="edge">
<title>p0x5f65004b5750&#45;&gt;p0x5f65004b57b0</title>
<path fill="none" stroke="gray" d="M115.58,-236.72C120.77,-226.26 127.45,-212.83 133.02,-201.6"/>
<polygon fill="gray" stroke="gray" points="134.14,-202.5 134.66,-198.3 131.63,-201.26 134.14,-202.5"/>
</g>
<!-- p0x5f65004b57e0 -->
<g id="node11" class="node">
<title>p0x5f65004b57e0</title>
<ellipse fill="lightblue" stroke="blue" cx="144" cy="-102" rx="18" ry="18"/>
<ellipse fill="none" stroke="blue" cx="144" cy="-102" rx="22" ry="22"/>
<text text-anchor="middle" x="144" y="-96.95" font-family="Times,serif" font-size="14.00">x</text>
</g>
<!-- p0x5f65004b57b0&#45;&gt;p0x5f65004b57e0 -->
<g id="edge10" class="edge">
<title>p0x5f65004b57b0&#45;&gt;p0x5f65004b57e0</title>
<path fill="none" stroke="gray" d="M144,-160.22C144,-151.23 144,-140.03 144,-129.93"/>
<polygon fill="gray" stroke="gray" points="145.4,-129.96 144,-125.96 142.6,-129.96 145.4,-129.96"/>
</g>
<!-- p0x5f65004b5ae0 -->
<g id="node13" class="node">
<title>p0x5f65004b5ae0</title>
<polygon fill="lightpink" stroke="purple" points="271,-466.5 271,-502.5 325,-502.5 325,-466.5 271,-466.5"/>
<text text-anchor="middle" x="297.88" y="-479.45" font-family="Times,serif" font-size="14.00">*</text>
</g>
<!-- p0x5f65004b6020&#45;&gt;p0x5f65004b5ae0 -->
<g id="edge12" class="edge">
<title>p0x5f65004b6020&#45;&gt;p0x5f65004b5ae0</title>
<path fill="none" stroke="gray" d="M298,-539.31C298,-529.89 298,-518.11 298,-507.97"/>
<polygon fill="gray" stroke="gray" points="299.4,-508.04 298,-504.04 296.6,-508.04 299.4,-508.04"/>
</g>
<!-- p0x5f65004b5ff0 -->
<g id="node24" class="node">
<title>p0x5f65004b5ff0</title>
<polygon fill="lightpink" stroke="purple" points="513,-466.5 513,-502.5 567,-502.5 567,-466.5 513,-466.5"/>
<text text-anchor="middle" x="539.88" y="-479.45" font-family="Times,serif" font-size="14.00">*</text>
</g>
<!-- p0x5f65004b6020&#45;&gt;p0x5f65004b5ff0 -->
<g id="edge23" class="edge">
<title>p0x5f65004b6020&#45;&gt;p0x5f65004b5ff0</title>
<path fill="none" stroke="gray" d="M325.29,-548.49C370.25,-535.3 459.7,-509.06 507.73,-494.97"/>
<polygon fill="gray" stroke="gray" points="507.91,-496.37 511.36,-493.9 507.12,-493.69 507.91,-496.37"/>
</g>
<!-- p0x5f65004b6080 -->
<g id="node14" class="node">
<title>p0x5f65004b6080</title>
<polygon fill="lightpink" stroke="purple" points="230,-393.5 230,-429.5 284,-429.5 284,-393.5 230,-393.5"/>
<text text-anchor="middle" x="256.88" y="-406.45" font-family="Times,serif" font-size="14.00">*</text>
</g>
<!-- p0x5f65004b5ae0&#45;&gt;p0x5f65004b6080 -->
<g id="edge13" class="edge">
<title>p0x5f65004b5ae0&#45;&gt;p0x5f65004b6080</title>
<path fill="none" stroke="gray" d="M288.08,-466.31C282.48,-456.63 275.45,-444.45 269.49,-434.13"/>
<polygon fill="gray" stroke="gray" points="270.8,-433.6 267.59,-430.84 268.38,-435 270.8,-433.6"/>
</g>
<!-- p0x5f65004b5ab0 -->
<g id="node18" class="node">
<title>p0x5f65004b5ab0</title>
<polygon fill="lightpink" stroke="purple" points="313,-393.5 313,-429.5 367,-429.5 367,-393.5 313,-393.5"/>
<text text-anchor="middle" x="339.75" y="-406.45" font-family="Times,serif" font-size="14.00">ln</text>
</g>
<!-- p0x5f65004b5ae0&#45;&gt;p0x5f65004b5ab0 -->
<g id="edge17" class="edge">
<title>p0x5f65004b5ae0&#45;&gt;p0x5f65004b5ab0</title>
<path fill="none" stroke="gray" d="M308.17,-466.31C313.89,-456.63 321.1,-444.45 327.21,-434.13"/>
<polygon fill="gray" stroke="gray" points="328.32,-434.99 329.16,-430.83 325.91,-433.56 328.32,-434.99"/>
</g>
<!-- p0x5f65004b60b0 -->
<g id="node15" class="node">
<title>p0x5f65004b60b0</title>
<ellipse fill="lightgreen" stroke="green" cx="182" cy="-335" rx="18.6" ry="18.6"/>
<text text-anchor="middle" x="182" y="-329.95" font-family="Times,serif" font-size="14.00">&#45;1</text>
</g>
<!-- p0x5f65004b6080&#45;&gt;p0x5f65004b60b0 -->
<g id="edge14" class="edge">
<title>p0x5f65004b6080&#45;&gt;p0x5f65004b60b0</title>
<path fill="none" stroke="gray" d="M239.6,-393.22C227.21,-380.91 210.66,-364.47 198.48,-352.37"/>
<polygon fill="gray" stroke="gray" points="199.75,-351.66 195.92,-349.83 197.78,-353.64 199.75,-351.66"/>
</g>
<!-- p0x5f65004b60e0 -->
<g id="node16" class="node">
<title>p0x5f65004b60e0</title>
<polygon fill="lightpink" stroke="purple" points="230,-317 230,-353 284,-353 284,-317 230,-317"/>
<text text-anchor="middle" x="256.88" y="-329.95" font-family="Times,serif" font-size="14.00">sin</text>
</g>
<!-- p0x5f65004b6080&#45;&gt;p0x5f65004b60e0 -->
<g id="edge15" class="edge">
<title>p0x5f65004b6080&#45;&gt;p0x5f65004b60e0</title>
<path fill="none" stroke="gray" d="M257,-393.22C257,-382.95 257,-369.81 257,-358.71"/>
<polygon fill="gray" stroke="gray" points="258.4,-358.96 257,-354.96 255.6,-358.96 258.4,-358.96"/>
</g>
<!-- p0x5f65004b6110 -->
<g id="node17" class="node">
<title>p0x5f65004b6110</title>
<ellipse fill="lightblue" stroke="blue" cx="257" cy="-255" rx="18" ry="18"/>
<ellipse fill="none" stroke="blue" cx="257" cy="-255" rx="22" ry="22"/>
<text text-anchor="middle" x="257" y="-249.95" font-family="Times,serif" font-size="14.00">x</text>
</g>
<!-- p0x5f65004b60e0&#45;&gt;p0x5f65004b6110 -->
<g id="edge16" class="edge">
<title>p0x5f65004b60e0&#45;&gt;p0x5f65004b6110</title>
<path fill="none" stroke="gray" d="M257,-316.69C257,-306.74 257,-294.02 257,-282.81"/>
<polygon fill="gray" stroke="gray" points="258.4,-282.95 257,-278.95 255.6,-282.95 258.4,-282.95"/>
</g>
<!-- p0x5f65004b59c0 -->
<g id="node19" class="node">
<title>p0x5f65004b59c0</title>
<polygon fill="lightpink" stroke="purple" points="313,-317 313,-353 367,-353 367,-317 313,-317"/>
<text text-anchor="middle" x="339.75" y="-329.95" font-family="Times,serif" font-size="14.00">ln</text>
</g>
<!-- p0x5f65004b5ab0&#45;&gt;p0x5f65004b59c0 -->
<g id="edge18" class="edge">
<title>p0x5f65004b5ab0&#45;&gt;p0x5f65004b59c0</title>
<path fill="none" stroke="gray" d="M340,-393.22C340,-382.95 340,-369.81 340,-358.71"/>
<polygon fill="gray" stroke="gray" points="341.4,-358.96 340,-354.96 338.6,-358.96 341.4,-358.96"/>
</g>
<!-- p0x5f65004b59f0 -->
<g id="node20" class="node">
<title>p0x5f65004b59f0</title>
<polygon fill="lightpink" stroke="purple" points="310,-237 310,-273 364,-273 364,-237 310,-237"/>
<text text-anchor="middle" x="336.88" y="-249.95" font-family="Times,serif" font-size="14.00">*</text>
</g>
<!-- p0x5f65004b59c0&#45;&gt;p0x5f65004b59f0 -->
<g id="edge19" class="edge">
<title>p0x5f65004b59c0&#45;&gt;p0x5f65004b59f0</title>
<path fill="none" stroke="gray" d="M339.33,-316.69C338.9,-305.48 338.34,-290.77 337.87,-278.63"/>
<polygon fill="gray" stroke="gray" points="339.27,-278.72 337.72,-274.77 336.48,-278.83 339.27,-278.72"/>
</g>
<!-- p0x5f65004b5a20 -->
<g id="node21" class="node">
<title>p0x5f65004b5a20</title>
<ellipse fill="lightgreen" stroke="green" cx="263" cy="-178.5" rx="18" ry="18"/>
<text text-anchor="middle" x="263" y="-173.45" font-family="Times,serif" font-size="14.00">5</text>
</g>
<!-- p0x5f65004b59f0&#45;&gt;p0x5f65004b5a20 -->
<g id="edge20" class="edge">
<title>p0x5f65004b59f0&#45;&gt;p0x5f65004b5a20</title>
<path fill="none" stroke="gray" d="M319.84,-236.72C307.46,-224.26 290.87,-207.55 278.81,-195.41"/>
<polygon fill="gray" stroke="gray" points="280.1,-194.73 276.29,-192.88 278.11,-196.7 280.1,-194.73"/>
</g>
<!-- p0x5f65004b5a50 -->
<g id="node22" class="node">
<title>p0x5f65004b5a50</title>
<polygon fill="lightpink" stroke="purple" points="310,-160.5 310,-196.5 364,-196.5 364,-160.5 310,-160.5"/>
<text text-anchor="middle" x="337" y="-173.45" font-family="Times,serif" font-size="14.00">cos</text>
</g>
<!-- p0x5f65004b59f0&#45;&gt;p0x5f65004b5a50 -->
<g id="edge21" class="edge">
<title>p0x5f65004b59f0&#45;&gt;p0x5f65004b5a50</title>
<path fill="none" stroke="gray" d="M337,-236.72C337,-226.45 337,-213.31 337,-202.21"/>
<polygon fill="gray" stroke="gray" points="338.4,-202.46 337,-198.46 335.6,-202.46 338.4,-202.46"/>
</g>
<!-- p0x5f65004b5a80 -->
<g id="node23" class="node">
<title>p0x5f65004b5a80</title>
<ellipse fill="lightblue" stroke="blue" cx="337" cy="-102" rx="18" ry="18"/>
<ellipse fill="none" stroke="blue" cx="337" cy="-102" rx="22" ry="22"/>
<text text-anchor="middle" x="337" y="-96.95" font-family="Times,serif" font-size="14.00">x</text>
</g>
<!-- p0x5f65004b5a50&#45;&gt;p0x5f65004b5a80 -->
<g id="edge22" class="edge">
<title>p0x5f65004b5a50&#45;&gt;p0x5f65004b5a80</title>
<path fill="none" stroke="gray" d="M337,-160.22C337,-151.23 337,-140.03 337,-129.93"/>
<polygon fill="gray" stroke="gray" points="338.4,-129.96 337,-125.96 335.6,-129.96 338.4,-129.96"/>
</g>
<!-- p0x5f65004b5f60 -->
<g id="node25" class="node">
<title>p0x5f65004b5f60</title>
<polygon fill="lightpink" stroke="purple" points="513,-393.5 513,-429.5 567,-429.5 567,-393.5 513,-393.5"/>
<text text-anchor="middle" x="539.88" y="-406.45" font-family="Times,serif" font-size="14.00">/</text>
</g>
<!-- p0x5f65004b5ff0&#45;&gt;p0x5f65004b5f60 -->
<g id="edge24" class="edge">
<title>p0x5f65004b5ff0&#45;&gt;p0x5f65004b5f60</title>
<path fill="none" stroke="gray" d="M540,-466.31C540,-456.89 540,-445.11 540,-434.97"/>
<polygon fill="gray" stroke="gray" points="541.4,-435.04 540,-431.04 538.6,-435.04 541.4,-435.04"/>
</g>
<!-- p0x5f65004b5f90 -->
<g id="node42" class="node">
<title>p0x5f65004b5f90</title>
<polygon fill="lightpink" stroke="purple" points="635,-393.5 635,-429.5 689,-429.5 689,-393.5 635,-393.5"/>
<text text-anchor="middle" x="662" y="-406.45" font-family="Times,serif" font-size="14.00">cos</text>
</g>
<!-- p0x5f65004b5ff0&#45;&gt;p0x5f65004b5f90 -->
<g id="edge41" class="edge">
<title>p0x5f65004b5ff0&#45;&gt;p0x5f65004b5f90</title>
<path fill="none" stroke="gray" d="M567.38,-467.57C586.06,-456.7 610.86,-442.26 630.38,-430.9"/>
<polygon fill="gray" stroke="gray" points="630.65,-432.36 633.4,-429.14 629.24,-429.94 630.65,-432.36"/>
</g>
<!-- p0x5f65004b5e40 -->
<g id="node26" class="node">
<title>p0x5f65004b5e40</title>
<polygon fill="lightpink" stroke="purple" points="494,-317 494,-353 548,-353 548,-317 494,-317"/>
<text text-anchor="middle" x="520.88" y="-329.95" font-family="Times,serif" font-size="14.00">/</text>
</g>
<!-- p0x5f65004b5f60&#45;&gt;p0x5f65004b5e40 -->
<g id="edge25" class="edge">
<title>p0x5f65004b5f60&#45;&gt;p0x5f65004b5e40</title>
<path fill="none" stroke="gray" d="M535.59,-393.22C532.97,-382.95 529.62,-369.81 526.79,-358.71"/>
<polygon fill="gray" stroke="gray" points="528.17,-358.44 525.82,-354.91 525.45,-359.13 528.17,-358.44"/>
</g>
<!-- p0x5f65004b5e70 -->
<g id="node37" class="node">
<title>p0x5f65004b5e70</title>
<polygon fill="lightpink" stroke="purple" points="577,-317 577,-353 631,-353 631,-317 577,-317"/>
<text text-anchor="middle" x="603.75" y="-329.95" font-family="Times,serif" font-size="14.00">ln</text>
</g>
<!-- p0x5f65004b5f60&#45;&gt;p0x5f65004b5e70 -->
<g id="edge36" class="edge">
<title>p0x5f65004b5f60&#45;&gt;p0x5f65004b5e70</title>
<path fill="none" stroke="gray" d="M554.84,-393.22C563.99,-382.58 575.78,-368.85 585.53,-357.5"/>
<polygon fill="gray" stroke="gray" points="586.48,-358.54 588.03,-354.59 584.36,-356.71 586.48,-358.54"/>
</g>
<!-- p0x5f65004b5c00 -->
<g id="node27" class="node">
<title>p0x5f65004b5c00</title>
<polygon fill="lightpink" stroke="purple" points="453,-237 453,-273 507,-273 507,-237 453,-237"/>
<text text-anchor="middle" x="479.88" y="-249.95" font-family="Times,serif" font-size="14.00">*</text>
</g>
<!-- p0x5f65004b5e40&#45;&gt;p0x5f65004b5c00 -->
<g id="edge26" class="edge">
<title>p0x5f65004b5e40&#45;&gt;p0x5f65004b5c00</title>
<path fill="none" stroke="gray" d="M511.9,-316.69C505.9,-305.28 498,-290.23 491.55,-277.98"/>
<polygon fill="gray" stroke="gray" points="492.88,-277.49 489.78,-274.6 490.4,-278.79 492.88,-277.49"/>
</g>
<!-- p0x5f65004b5d80 -->
<g id="node33" class="node">
<title>p0x5f65004b5d80</title>
<polygon fill="lightpink" stroke="purple" points="536,-237 536,-273 590,-273 590,-237 536,-237"/>
<text text-anchor="middle" x="562.88" y="-249.95" font-family="Times,serif" font-size="14.00">*</text>
</g>
<!-- p0x5f65004b5e40&#45;&gt;p0x5f65004b5d80 -->
<g id="edge32" class="edge">
<title>p0x5f65004b5e40&#45;&gt;p0x5f65004b5d80</title>
<path fill="none" stroke="gray" d="M530.32,-316.69C536.47,-305.28 544.57,-290.23 551.16,-277.98"/>
<polygon fill="gray" stroke="gray" points="552.32,-278.78 552.99,-274.59 549.86,-277.45 552.32,-278.78"/>
</g>
<!-- p0x5f65004b5c30 -->
<g id="node28" class="node">
<title>p0x5f65004b5c30</title>
<ellipse fill="lightgreen" stroke="green" cx="411" cy="-178.5" rx="18" ry="18"/>
<text text-anchor="middle" x="411" y="-173.45" font-family="Times,serif" font-size="14.00">5</text>
</g>
<!-- p0x5f65004b5c00&#45;&gt;p0x5f65004b5c30 -->
<g id="edge27" class="edge">
<title>p0x5f65004b5c00&#45;&gt;p0x5f65004b5c30</title>
<path fill="none" stroke="gray" d="M464,-236.72C452.69,-224.52 437.63,-208.25 426.45,-196.18"/>
<polygon fill="gray" stroke="gray" points="427.6,-195.36 423.85,-193.38 425.54,-197.26 427.6,-195.36"/>
</g>
<!-- p0x5f65004b5c60 -->
<g id="node29" class="node">
<title>p0x5f65004b5c60</title>
<polygon fill="lightpink" stroke="purple" points="458,-160.5 458,-196.5 512,-196.5 512,-160.5 458,-160.5"/>
<text text-anchor="middle" x="484.88" y="-173.45" font-family="Times,serif" font-size="14.00">*</text>
</g>
<!-- p0x5f65004b5c00&#45;&gt;p0x5f65004b5c60 -->
<g id="edge28" class="edge">
<title>p0x5f65004b5c00&#45;&gt;p0x5f65004b5c60</title>
<path fill="none" stroke="gray" d="M481.16,-236.72C481.85,-226.45 482.73,-213.31 483.48,-202.21"/>
<polygon fill="gray" stroke="gray" points="484.86,-202.54 483.73,-198.45 482.06,-202.35 484.86,-202.54"/>
</g>
<!-- p0x5f65004b5c90 -->
<g id="node30" class="node">
<title>p0x5f65004b5c90</title>
<ellipse fill="lightgreen" stroke="green" cx="445" cy="-102" rx="18.6" ry="18.6"/>
<text text-anchor="middle" x="445" y="-96.95" font-family="Times,serif" font-size="14.00">&#45;1</text>
</g>
<!-- p0x5f65004b5c60&#45;&gt;p0x5f65004b5c90 -->
<g id="edge29" class="edge">
<title>p0x5f65004b5c60&#45;&gt;p0x5f65004b5c90</title>
<path fill="none" stroke="gray" d="M475.72,-160.22C469.83,-149.24 462.16,-134.97 455.97,-123.43"/>
<polygon fill="gray" stroke="gray" points="457.25,-122.86 454.13,-120 454.78,-124.18 457.25,-122.86"/>
</g>
<!-- p0x5f65004b5cc0 -->
<g id="node31" class="node">
<title>p0x5f65004b5cc0</title>
<polygon fill="lightpink" stroke="purple" points="493,-84 493,-120 547,-120 547,-84 493,-84"/>
<text text-anchor="middle" x="519.88" y="-96.95" font-family="Times,serif" font-size="14.00">sin</text>
</g>
<!-- p0x5f65004b5c60&#45;&gt;p0x5f65004b5cc0 -->
<g id="edge30" class="edge">
<title>p0x5f65004b5c60&#45;&gt;p0x5f65004b5cc0</title>
<path fill="none" stroke="gray" d="M493.12,-160.22C497.99,-149.86 504.23,-136.57 509.47,-125.4"/>
<polygon fill="gray" stroke="gray" points="510.73,-126.03 511.16,-121.81 508.19,-124.84 510.73,-126.03"/>
</g>
<!-- p0x5f65004b61d0 -->
<g id="node32" class="node">
<title>p0x5f65004b61d0</title>
<ellipse fill="lightblue" stroke="blue" cx="520" cy="-22" rx="18" ry="18"/>
<ellipse fill="none" stroke="blue" cx="520" cy="-22" rx="22" ry="22"/>
<text text-anchor="middle" x="520" y="-16.95" font-family="Times,serif" font-size="14.00">x</text>
</g>
<!-- p0x5f65004b5cc0&#45;&gt;p0x5f65004b61d0 -->
<g id="edge31" class="edge">
<title>p0x5f65004b5cc0&#45;&gt;p0x5f65004b61d0</title>
<path fill="none" stroke="gray" d="M520,-83.69C520,-73.74 520,-61.02 520,-49.81"/>
<polygon fill="gray" stroke="gray" points="521.4,-49.95 520,-45.95 518.6,-49.95 521.4,-49.95"/>
</g>
<!-- p0x5f65004b5db0 -->
<g id="node34" class="node">
<title>p0x5f65004b5db0</title>
<ellipse fill="lightgreen" stroke="green" cx="559" cy="-178.5" rx="18" ry="18"/>
<text text-anchor="middle" x="559" y="-173.45" font-family="Times,serif" font-size="14.00">5</text>
</g>
<!-- p0x5f65004b5d80&#45;&gt;p0x5f65004b5db0 -->
<g id="edge33" class="edge">
<title>p0x5f65004b5d80&#45;&gt;p0x5f65004b5db0</title>
<path fill="none" stroke="gray" d="M562.07,-236.72C561.52,-226.45 560.82,-213.31 560.22,-202.21"/>
<polygon fill="gray" stroke="gray" points="561.63,-202.37 560.02,-198.45 558.83,-202.52 561.63,-202.37"/>
</g>
<!-- p0x5f65004b5de0 -->
<g id="node35" class="node">
<title>p0x5f65004b5de0</title>
<polygon fill="lightpink" stroke="purple" points="606,-160.5 606,-196.5 660,-196.5 660,-160.5 606,-160.5"/>
<text text-anchor="middle" x="633" y="-173.45" font-family="Times,serif" font-size="14.00">cos</text>
</g>
<!-- p0x5f65004b5d80&#45;&gt;p0x5f65004b5de0 -->
<g id="edge34" class="edge">
<title>p0x5f65004b5d80&#45;&gt;p0x5f65004b5de0</title>
<path fill="none" stroke="gray" d="M579.24,-236.72C589.32,-225.98 602.36,-212.11 613.07,-200.71"/>
<polygon fill="gray" stroke="gray" points="613.86,-201.92 615.57,-198.05 611.81,-200 613.86,-201.92"/>
</g>
<!-- p0x5f65004b5e10 -->
<g id="node36" class="node">
<title>p0x5f65004b5e10</title>
<ellipse fill="lightblue" stroke="blue" cx="633" cy="-102" rx="18" ry="18"/>
<ellipse fill="none" stroke="blue" cx="633" cy="-102" rx="22" ry="22"/>
<text text-anchor="middle" x="633" y="-96.95" font-family="Times,serif" font-size="14.00">x</text>
</g>
<!-- p0x5f65004b5de0&#45;&gt;p0x5f65004b5e10 -->
<g id="edge35" class="edge">
<title>p0x5f65004b5de0&#45;&gt;p0x5f65004b5e10</title>
<path fill="none" stroke="gray" d="M633,-160.22C633,-151.23 633,-140.03 633,-129.93"/>
<polygon fill="gray" stroke="gray" points="634.4,-129.96 633,-125.96 631.6,-129.96 634.4,-129.96"/>
</g>
<!-- p0x5f65004b5ea0 -->
<g id="node38" class="node">
<title>p0x5f65004b5ea0</title>
<polygon fill="lightpink" stroke="purple" points="680,-237 680,-273 734,-273 734,-237 680,-237"/>
<text text-anchor="middle" x="706.88" y="-249.95" font-family="Times,serif" font-size="14.00">*</text>
</g>
<!-- p0x5f65004b5e70&#45;&gt;p0x5f65004b5ea0 -->
<g id="edge37" class="edge">
<title>p0x5f65004b5e70&#45;&gt;p0x5f65004b5ea0</title>
<path fill="none" stroke="gray" d="M626.86,-316.69C642.59,-304.77 663.56,-288.9 680.1,-276.37"/>
<polygon fill="gray" stroke="gray" points="680.65,-277.71 683,-274.18 678.96,-275.47 680.65,-277.71"/>
</g>
<!-- p0x5f65004b5ed0 -->
<g id="node39" class="node">
<title>p0x5f65004b5ed0</title>
<ellipse fill="lightgreen" stroke="green" cx="707" cy="-178.5" rx="18" ry="18"/>
<text text-anchor="middle" x="707" y="-173.45" font-family="Times,serif" font-size="14.00">5</text>
</g>
<!-- p0x5f65004b5ea0&#45;&gt;p0x5f65004b5ed0 -->
<g id="edge38" class="edge">
<title>p0x5f65004b5ea0&#45;&gt;p0x5f65004b5ed0</title>
<path fill="none" stroke="gray" d="M707,-236.72C707,-226.45 707,-213.31 707,-202.21"/>
<polygon fill="gray" stroke="gray" points="708.4,-202.46 707,-198.46 705.6,-202.46 708.4,-202.46"/>
</g>
<!-- p0x5f65004b5f00 -->
<g id="node40" class="node">
<title>p0x5f65004b5f00</title>
<polygon fill="lightpink" stroke="purple" points="754,-160.5 754,-196.5 808,-196.5 808,-160.5 754,-160.5"/>
<text text-anchor="middle" x="781" y="-173.45" font-family="Times,serif" font-size="14.00">cos</text>
</g>
<!-- p0x5f65004b5ea0&#45;&gt;p0x5f65004b5f00 -->
<g id="edge39" class="edge">
<title>p0x5f65004b5ea0&#45;&gt;p0x5f65004b5f00</title>
<path fill="none" stroke="gray" d="M724.16,-236.72C734.83,-225.98 748.61,-212.11 759.94,-200.71"/>
<polygon fill="gray" stroke="gray" points="760.78,-201.84 762.61,-198.02 758.79,-199.87 760.78,-201.84"/>
</g>
<!-- p0x5f65004b5f30 -->
<g id="node41" class="node">
<title>p0x5f65004b5f30</title>
<ellipse fill="lightblue" stroke="blue" cx="781" cy="-102" rx="18" ry="18"/>
<ellipse fill="none" stroke="blue" cx="781" cy="-102" rx="22" ry="22"/>
<text text-anchor="middle" x="781" y="-96.95" font-family="Times,serif" font-size="14.00">x</text>
</g>
<!-- p0x5f65004b5f00&#45;&gt;p0x5f65004b5f30 -->
<g id="edge40" class="edge">
<title>p0x5f65004b5f00&#45;&gt;p0x5f65004b5f30</title>
<path fill="none" stroke="gray" d="M781,-160.22C781,-151.23 781,-140.03 781,-129.93"/>
<polygon fill="gray" stroke="gray" points="782.4,-129.96 781,-125.96 779.6,-129.96 782.4,-129.96"/>
</g>
<!-- p0x5f65004b5fc0 -->
<g id="node43" class="node">
<title>p0x5f65004b5fc0</title>
<ellipse fill="lightblue" stroke="blue" cx="682" cy="-335" rx="18" ry="18"/>
<ellipse fill="none" stroke="blue" cx="682" cy="-335" rx="22" ry="22"/>
<text text-anchor="middle" x="682" y="-329.95" font-family="Times,serif" font-size="14.00">x</text>
</g>
<!-- p0x5f65004b5f90&#45;&gt;p0x5f65004b5fc0 -->
<g id="edge42" class="edge">
<title>p0x5f65004b5f90&#45;&gt;p0x5f65004b5fc0</title>
<path fill="none" stroke="gray" d="M666.64,-393.22C669.13,-383.92 672.26,-372.27 675.04,-361.91"/>
<polygon fill="gray" stroke="gray" points="676.38,-362.32 676.07,-358.09 673.68,-361.59 676.38,-362.32"/>
</g>
</g>
</svg>
