<?xml version="1.0" encoding="UTF-8" standalone="no"?>
<!DOCTYPE svg PUBLIC "-//W3C//DTD SVG 1.1//EN"
 "http://www.w3.org/Graphics/SVG/1.1/DTD/svg11.dtd">
<!-- Generated by graphviz version 12.1.2 (0)
 -->
<!-- Title: diffTree Pages: 1 -->
<svg width="809pt" height="581pt"
 viewBox="0.00 0.00 809.00 580.65" xmlns="http://www.w3.org/2000/svg" xmlns:xlink="http://www.w3.org/1999/xlink">
<g id="graph0" class="graph" transform="scale(1 1) rotate(0) translate(4 576.65)">
<title>diffTree</title>
<polygon fill="white" stroke="none" points="-4,4 -4,-576.65 805,-576.65 805,4 -4,4"/>
<!-- p0x5748403e2c50 -->
<g id="node1" class="node">
<title>p0x5748403e2c50</title>
<polygon fill="lightpink" stroke="purple" points="504,-536.15 504,-572.15 558,-572.15 558,-536.15 504,-536.15"/>
<text text-anchor="middle" x="530.62" y="-549.1" font-family="Times,serif" font-size="14.00">+</text>
</g>
<!-- p0x5748403e1e40 -->
<g id="node2" class="node">
<title>p0x5748403e1e40</title>
<polygon fill="lightpink" stroke="purple" points="463,-463.15 463,-499.15 517,-499.15 517,-463.15 463,-463.15"/>
<text text-anchor="middle" x="489.88" y="-476.1" font-family="Times,serif" font-size="14.00">*</text>
</g>
<!-- p0x5748403e2c50&#45;&gt;p0x5748403e1e40 -->
<g id="edge1" class="edge">
<title>p0x5748403e2c50&#45;&gt;p0x5748403e1e40</title>
<path fill="none" stroke="gray" d="M521.08,-535.96C515.48,-526.28 508.45,-514.1 502.49,-503.77"/>
<polygon fill="gray" stroke="gray" points="503.8,-503.25 500.59,-500.48 501.38,-504.65 503.8,-503.25"/>
</g>
<!-- p0x5748403e2c10 -->
<g id="node30" class="node">
<title>p0x5748403e2c10</title>
<polygon fill="lightpink" stroke="purple" points="575,-463.15 575,-499.15 629,-499.15 629,-463.15 575,-463.15"/>
<text text-anchor="middle" x="601.75" y="-476.1" font-family="Times,serif" font-size="14.00">&#45;</text>
</g>
<!-- p0x5748403e2c50&#45;&gt;p0x5748403e2c10 -->
<g id="edge29" class="edge">
<title>p0x5748403e2c50&#45;&gt;p0x5748403e2c10</title>
<path fill="none" stroke="gray" d="M548.19,-535.96C558.13,-526.02 570.71,-513.44 581.21,-502.94"/>
<polygon fill="gray" stroke="gray" points="582.06,-504.06 583.9,-500.24 580.08,-502.08 582.06,-504.06"/>
</g>
<!-- p0x5748403e1990 -->
<g id="node3" class="node">
<title>p0x5748403e1990</title>
<polygon fill="lightpink" stroke="purple" points="366,-388.51 366,-424.51 420,-424.51 420,-388.51 366,-388.51"/>
<text text-anchor="middle" x="392.88" y="-401.46" font-family="Times,serif" font-size="14.00">/</text>
</g>
<!-- p0x5748403e1e40&#45;&gt;p0x5748403e1990 -->
<g id="edge2" class="edge">
<title>p0x5748403e1e40&#45;&gt;p0x5748403e1990</title>
<path fill="none" stroke="gray" d="M467.01,-462.93C452.98,-452.43 434.97,-438.94 420.22,-427.9"/>
<polygon fill="gray" stroke="gray" points="421.41,-427.04 417.37,-425.76 419.73,-429.28 421.41,-427.04"/>
</g>
<!-- p0x5748403e1e00 -->
<g id="node22" class="node">
<title>p0x5748403e1e00</title>
<polygon fill="lightpink" stroke="purple" points="463,-388.51 463,-424.51 517,-424.51 517,-388.51 463,-388.51"/>
<text text-anchor="middle" x="489.88" y="-401.46" font-family="Times,serif" font-size="14.00">*</text>
</g>
<!-- p0x5748403e1e40&#45;&gt;p0x5748403e1e00 -->
<g id="edge21" class="edge">
<title>p0x5748403e1e40&#45;&gt;p0x5748403e1e00</title>
<path fill="none" stroke="gray" d="M490,-462.93C490,-453.07 490,-440.59 490,-429.96"/>
<polygon fill="gray" stroke="gray" points="491.4,-430.12 490,-426.12 488.6,-430.12 491.4,-430.12"/>
</g>
<!-- p0x5748403e15e0 -->
<g id="node4" class="node">
<title>p0x5748403e15e0</title>
<polygon fill="lightpink" stroke="purple" points="251,-313.79 251,-349.79 305,-349.79 305,-313.79 251,-313.79"/>
<text text-anchor="middle" x="277.88" y="-326.74" font-family="Times,serif" font-size="14.00">/</text>
</g>
<!-- p0x5748403e1990&#45;&gt;p0x5748403e15e0 -->
<g id="edge3" class="edge">
<title>p0x5748403e1990&#45;&gt;p0x5748403e15e0</title>
<path fill="none" stroke="gray" d="M365.75,-388.28C348.97,-377.67 327.39,-364.02 309.83,-352.92"/>
<polygon fill="gray" stroke="gray" points="310.86,-351.91 306.74,-350.96 309.37,-354.28 310.86,-351.91"/>
</g>
<!-- p0x5748403e1890 -->
<g id="node18" class="node">
<title>p0x5748403e1890</title>
<polygon fill="lightpink" stroke="purple" points="366,-313.79 366,-349.79 420,-349.79 420,-313.79 366,-313.79"/>
<text text-anchor="middle" x="392.62" y="-326.74" font-family="Times,serif" font-size="14.00">sqrt</text>
</g>
<!-- p0x5748403e1990&#45;&gt;p0x5748403e1890 -->
<g id="edge17" class="edge">
<title>p0x5748403e1990&#45;&gt;p0x5748403e1890</title>
<path fill="none" stroke="gray" d="M393,-388.28C393,-378.48 393,-366.09 393,-355.5"/>
<polygon fill="gray" stroke="gray" points="394.4,-355.66 393,-351.66 391.6,-355.66 394.4,-355.66"/>
</g>
<!-- p0x5748403e1220 -->
<g id="node5" class="node">
<title>p0x5748403e1220</title>
<polygon fill="lightpink" stroke="purple" points="142,-240.6 142,-276.6 196,-276.6 196,-240.6 142,-240.6"/>
<text text-anchor="middle" x="168.88" y="-253.55" font-family="Times,serif" font-size="14.00">*</text>
</g>
<!-- p0x5748403e15e0&#45;&gt;p0x5748403e1220 -->
<g id="edge4" class="edge">
<title>p0x5748403e15e0&#45;&gt;p0x5748403e1220</title>
<path fill="none" stroke="gray" d="M251.34,-313.37C235.9,-303.29 216.38,-290.54 200.23,-279.99"/>
<polygon fill="gray" stroke="gray" points="201.15,-278.92 197.03,-277.91 199.62,-281.27 201.15,-278.92"/>
</g>
<!-- p0x5748403e15a0 -->
<g id="node12" class="node">
<title>p0x5748403e15a0</title>
<polygon fill="lightpink" stroke="purple" points="251,-240.6 251,-276.6 305,-276.6 305,-240.6 251,-240.6"/>
<text text-anchor="middle" x="277.88" y="-253.55" font-family="Times,serif" font-size="14.00">*</text>
</g>
<!-- p0x5748403e15e0&#45;&gt;p0x5748403e15a0 -->
<g id="edge11" class="edge">
<title>p0x5748403e15e0&#45;&gt;p0x5748403e15a0</title>
<path fill="none" stroke="gray" d="M278,-313.55C278,-304.11 278,-292.29 278,-282.12"/>
<polygon fill="gray" stroke="gray" points="279.4,-282.18 278,-278.18 276.6,-282.18 279.4,-282.18"/>
</g>
<!-- p0x5748403e0fe0 -->
<g id="node6" class="node">
<title>p0x5748403e0fe0</title>
<polygon fill="lightpink" stroke="purple" points="59,-164 59,-200 113,-200 113,-164 59,-164"/>
<text text-anchor="middle" x="85.88" y="-176.95" font-family="Times,serif" font-size="14.00">^</text>
</g>
<!-- p0x5748403e1220&#45;&gt;p0x5748403e0fe0 -->
<g id="edge5" class="edge">
<title>p0x5748403e1220&#45;&gt;p0x5748403e0fe0</title>
<path fill="none" stroke="gray" d="M149.75,-240.29C137.68,-229.45 122.06,-215.41 109.3,-203.94"/>
<polygon fill="gray" stroke="gray" points="110.47,-203.11 106.56,-201.48 108.6,-205.19 110.47,-203.11"/>
</g>
<!-- p0x5748403e2d10 -->
<g id="node9" class="node">
<title>p0x5748403e2d10</title>
<polygon fill="lightpink" stroke="purple" points="142,-164 142,-200 196,-200 196,-164 142,-164"/>
<text text-anchor="middle" x="168.88" y="-176.95" font-family="Times,serif" font-size="14.00">/</text>
</g>
<!-- p0x5748403e1220&#45;&gt;p0x5748403e2d10 -->
<g id="edge8" class="edge">
<title>p0x5748403e1220&#45;&gt;p0x5748403e2d10</title>
<path fill="none" stroke="gray" d="M169,-240.29C169,-230.01 169,-216.85 169,-205.74"/>
<polygon fill="gray" stroke="gray" points="170.4,-205.98 169,-201.98 167.6,-205.98 170.4,-205.98"/>
</g>
<!-- p0x5748403e0f60 -->
<g id="node7" class="node">
<title>p0x5748403e0f60</title>
<ellipse fill="lightblue" stroke="blue" cx="22" cy="-102" rx="18" ry="18"/>
<ellipse fill="none" stroke="blue" cx="22" cy="-102" rx="22" ry="22"/>
<text text-anchor="middle" x="22" y="-96.95" font-family="Times,serif" font-size="14.00">x</text>
</g>
<!-- p0x5748403e0fe0&#45;&gt;p0x5748403e0f60 -->
<g id="edge6" class="edge">
<title>p0x5748403e0fe0&#45;&gt;p0x5748403e0f60</title>
<path fill="none" stroke="gray" d="M71.8,-163.69C62.14,-151.91 49.3,-136.27 39.08,-123.82"/>
<polygon fill="gray" stroke="gray" points="40.3,-123.1 36.68,-120.9 38.14,-124.88 40.3,-123.1"/>
</g>
<!-- p0x5748403e0fa0 -->
<g id="node8" class="node">
<title>p0x5748403e0fa0</title>
<ellipse fill="lightgreen" stroke="green" cx="91" cy="-102" rx="18" ry="18"/>
<text text-anchor="middle" x="91" y="-96.95" font-family="Times,serif" font-size="14.00">2</text>
</g>
<!-- p0x5748403e0fe0&#45;&gt;p0x5748403e0fa0 -->
<g id="edge7" class="edge">
<title>p0x5748403e0fe0&#45;&gt;p0x5748403e0fa0</title>
<path fill="none" stroke="gray" d="M87.11,-163.69C87.83,-152.48 88.77,-137.77 89.55,-125.63"/>
<polygon fill="gray" stroke="gray" points="90.94,-125.85 89.8,-121.77 88.14,-125.68 90.94,-125.85"/>
</g>
<!-- p0x5748403e2d50 -->
<g id="node10" class="node">
<title>p0x5748403e2d50</title>
<ellipse fill="lightgreen" stroke="green" cx="165" cy="-102" rx="18" ry="18"/>
<text text-anchor="middle" x="165" y="-96.95" font-family="Times,serif" font-size="14.00">2</text>
</g>
<!-- p0x5748403e2d10&#45;&gt;p0x5748403e2d50 -->
<g id="edge9" class="edge">
<title>p0x5748403e2d10&#45;&gt;p0x5748403e2d50</title>
<path fill="none" stroke="gray" d="M168.11,-163.69C167.54,-152.48 166.78,-137.77 166.16,-125.63"/>
<polygon fill="gray" stroke="gray" points="167.57,-125.7 165.96,-121.77 164.77,-125.84 167.57,-125.7"/>
</g>
<!-- p0x5748403e2d90 -->
<g id="node11" class="node">
<title>p0x5748403e2d90</title>
<ellipse fill="lightblue" stroke="blue" cx="234" cy="-102" rx="18" ry="18"/>
<ellipse fill="none" stroke="blue" cx="234" cy="-102" rx="22" ry="22"/>
<text text-anchor="middle" x="234" y="-96.95" font-family="Times,serif" font-size="14.00">x</text>
</g>
<!-- p0x5748403e2d10&#45;&gt;p0x5748403e2d90 -->
<g id="edge10" class="edge">
<title>p0x5748403e2d10&#45;&gt;p0x5748403e2d90</title>
<path fill="none" stroke="gray" d="M183.43,-163.69C193.3,-151.83 206.45,-136.06 216.86,-123.56"/>
<polygon fill="gray" stroke="gray" points="217.83,-124.59 219.31,-120.62 215.68,-122.8 217.83,-124.59"/>
</g>
<!-- p0x5748403e1460 -->
<g id="node13" class="node">
<title>p0x5748403e1460</title>
<ellipse fill="lightgreen" stroke="green" cx="243" cy="-182" rx="18" ry="18"/>
<text text-anchor="middle" x="243" y="-176.95" font-family="Times,serif" font-size="14.00">2</text>
</g>
<!-- p0x5748403e15a0&#45;&gt;p0x5748403e1460 -->
<g id="edge12" class="edge">
<title>p0x5748403e15a0&#45;&gt;p0x5748403e1460</title>
<path fill="none" stroke="gray" d="M269.88,-240.29C264.72,-229.3 258.02,-215.01 252.6,-203.45"/>
<polygon fill="gray" stroke="gray" points="253.97,-203.08 251,-200.05 251.43,-204.27 253.97,-203.08"/>
</g>
<!-- p0x5748403e1560 -->
<g id="node14" class="node">
<title>p0x5748403e1560</title>
<polygon fill="lightpink" stroke="purple" points="290,-164 290,-200 344,-200 344,-164 290,-164"/>
<text text-anchor="middle" x="316.62" y="-176.95" font-family="Times,serif" font-size="14.00">sqrt</text>
</g>
<!-- p0x5748403e15a0&#45;&gt;p0x5748403e1560 -->
<g id="edge13" class="edge">
<title>p0x5748403e15a0&#45;&gt;p0x5748403e1560</title>
<path fill="none" stroke="gray" d="M287.05,-240.29C292.52,-229.83 299.55,-216.37 305.43,-205.13"/>
<polygon fill="gray" stroke="gray" points="306.55,-206 307.17,-201.81 304.07,-204.7 306.55,-206"/>
</g>
<!-- p0x5748403e14a0 -->
<g id="node15" class="node">
<title>p0x5748403e14a0</title>
<polygon fill="lightpink" stroke="purple" points="290,-84 290,-120 344,-120 344,-84 290,-84"/>
<text text-anchor="middle" x="316.88" y="-96.95" font-family="Times,serif" font-size="14.00">^</text>
</g>
<!-- p0x5748403e1560&#45;&gt;p0x5748403e14a0 -->
<g id="edge14" class="edge">
<title>p0x5748403e1560&#45;&gt;p0x5748403e14a0</title>
<path fill="none" stroke="gray" d="M317,-163.69C317,-152.48 317,-137.77 317,-125.63"/>
<polygon fill="gray" stroke="gray" points="318.4,-125.78 317,-121.78 315.6,-125.78 318.4,-125.78"/>
</g>
<!-- p0x5748403e14e0 -->
<g id="node16" class="node">
<title>p0x5748403e14e0</title>
<ellipse fill="lightblue" stroke="blue" cx="282" cy="-22" rx="18" ry="18"/>
<ellipse fill="none" stroke="blue" cx="282" cy="-22" rx="22" ry="22"/>
<text text-anchor="middle" x="282" y="-16.95" font-family="Times,serif" font-size="14.00">x</text>
</g>
<!-- p0x5748403e14a0&#45;&gt;p0x5748403e14e0 -->
<g id="edge15" class="edge">
<title>p0x5748403e14a0&#45;&gt;p0x5748403e14e0</title>
<path fill="none" stroke="gray" d="M309.23,-83.69C304.44,-73.01 298.22,-59.14 292.93,-47.36"/>
<polygon fill="gray" stroke="gray" points="294.26,-46.91 291.35,-43.84 291.71,-48.06 294.26,-46.91"/>
</g>
<!-- p0x5748403e1520 -->
<g id="node17" class="node">
<title>p0x5748403e1520</title>
<ellipse fill="lightgreen" stroke="green" cx="351" cy="-22" rx="18" ry="18"/>
<text text-anchor="middle" x="351" y="-16.95" font-family="Times,serif" font-size="14.00">2</text>
</g>
<!-- p0x5748403e14a0&#45;&gt;p0x5748403e1520 -->
<g id="edge16" class="edge">
<title>p0x5748403e14a0&#45;&gt;p0x5748403e1520</title>
<path fill="none" stroke="gray" d="M324.55,-83.69C329.69,-71.88 336.53,-56.19 341.97,-43.71"/>
<polygon fill="gray" stroke="gray" points="343.13,-44.55 343.45,-40.32 340.57,-43.43 343.13,-44.55"/>
</g>
<!-- p0x5748403e18d0 -->
<g id="node19" class="node">
<title>p0x5748403e18d0</title>
<polygon fill="lightpink" stroke="purple" points="368,-240.6 368,-276.6 422,-276.6 422,-240.6 368,-240.6"/>
<text text-anchor="middle" x="394.88" y="-253.55" font-family="Times,serif" font-size="14.00">^</text>
</g>
<!-- p0x5748403e1890&#45;&gt;p0x5748403e18d0 -->
<g id="edge18" class="edge">
<title>p0x5748403e1890&#45;&gt;p0x5748403e18d0</title>
<path fill="none" stroke="gray" d="M393.48,-313.55C393.75,-304.11 394.08,-292.29 394.37,-282.12"/>
<polygon fill="gray" stroke="gray" points="395.76,-282.22 394.48,-278.18 392.97,-282.14 395.76,-282.22"/>
</g>
<!-- p0x5748403e1910 -->
<g id="node20" class="node">
<title>p0x5748403e1910</title>
<ellipse fill="lightblue" stroke="blue" cx="395" cy="-182" rx="18" ry="18"/>
<ellipse fill="none" stroke="blue" cx="395" cy="-182" rx="22" ry="22"/>
<text text-anchor="middle" x="395" y="-176.95" font-family="Times,serif" font-size="14.00">x</text>
</g>
<!-- p0x5748403e18d0&#45;&gt;p0x5748403e1910 -->
<g id="edge19" class="edge">
<title>p0x5748403e18d0&#45;&gt;p0x5748403e1910</title>
<path fill="none" stroke="gray" d="M395,-240.29C395,-231.29 395,-220.07 395,-209.96"/>
<polygon fill="gray" stroke="gray" points="396.4,-209.99 395,-205.99 393.6,-209.99 396.4,-209.99"/>
</g>
<!-- p0x5748403e1950 -->
<g id="node21" class="node">
<title>p0x5748403e1950</title>
<ellipse fill="lightgreen" stroke="green" cx="464" cy="-182" rx="18" ry="18"/>
<text text-anchor="middle" x="464" y="-176.95" font-family="Times,serif" font-size="14.00">2</text>
</g>
<!-- p0x5748403e18d0&#45;&gt;p0x5748403e1950 -->
<g id="edge20" class="edge">
<title>p0x5748403e18d0&#45;&gt;p0x5748403e1950</title>
<path fill="none" stroke="gray" d="M411,-240.29C422.31,-228.08 437.37,-211.79 448.55,-199.71"/>
<polygon fill="gray" stroke="gray" points="449.46,-200.78 451.15,-196.89 447.41,-198.88 449.46,-200.78"/>
</g>
<!-- p0x5748403e1c40 -->
<g id="node23" class="node">
<title>p0x5748403e1c40</title>
<ellipse fill="lightgreen" stroke="green" cx="468" cy="-331.79" rx="18.6" ry="18.6"/>
<text text-anchor="middle" x="468" y="-326.74" font-family="Times,serif" font-size="14.00">&#45;1</text>
</g>
<!-- p0x5748403e1e00&#45;&gt;p0x5748403e1c40 -->
<g id="edge22" class="edge">
<title>p0x5748403e1e00&#45;&gt;p0x5748403e1c40</title>
<path fill="none" stroke="gray" d="M484.79,-388.28C481.77,-378.32 477.95,-365.67 474.71,-354.98"/>
<polygon fill="gray" stroke="gray" points="476.11,-354.77 473.61,-351.35 473.43,-355.58 476.11,-354.77"/>
</g>
<!-- p0x5748403e1dc0 -->
<g id="node24" class="node">
<title>p0x5748403e1dc0</title>
<polygon fill="lightpink" stroke="purple" points="516,-313.79 516,-349.79 570,-349.79 570,-313.79 516,-313.79"/>
<text text-anchor="middle" x="542.88" y="-326.74" font-family="Times,serif" font-size="14.00">sin</text>
</g>
<!-- p0x5748403e1e00&#45;&gt;p0x5748403e1dc0 -->
<g id="edge23" class="edge">
<title>p0x5748403e1e00&#45;&gt;p0x5748403e1dc0</title>
<path fill="none" stroke="gray" d="M502.56,-388.28C509.96,-378.12 519.4,-365.17 527.29,-354.34"/>
<polygon fill="gray" stroke="gray" points="528.23,-355.43 529.45,-351.37 525.97,-353.78 528.23,-355.43"/>
</g>
<!-- p0x5748403e1c80 -->
<g id="node25" class="node">
<title>p0x5748403e1c80</title>
<polygon fill="lightpink" stroke="purple" points="514,-240.6 514,-276.6 568,-276.6 568,-240.6 514,-240.6"/>
<text text-anchor="middle" x="540.75" y="-253.55" font-family="Times,serif" font-size="14.00">ln</text>
</g>
<!-- p0x5748403e1dc0&#45;&gt;p0x5748403e1c80 -->
<g id="edge24" class="edge">
<title>p0x5748403e1dc0&#45;&gt;p0x5748403e1c80</title>
<path fill="none" stroke="gray" d="M542.52,-313.55C542.25,-304.11 541.92,-292.29 541.63,-282.12"/>
<polygon fill="gray" stroke="gray" points="543.03,-282.14 541.52,-278.18 540.24,-282.22 543.03,-282.14"/>
</g>
<!-- p0x5748403e1cc0 -->
<g id="node26" class="node">
<title>p0x5748403e1cc0</title>
<polygon fill="lightpink" stroke="purple" points="514,-164 514,-200 568,-200 568,-164 514,-164"/>
<text text-anchor="middle" x="540.62" y="-176.95" font-family="Times,serif" font-size="14.00">sqrt</text>
</g>
<!-- p0x5748403e1c80&#45;&gt;p0x5748403e1cc0 -->
<g id="edge25" class="edge">
<title>p0x5748403e1c80&#45;&gt;p0x5748403e1cc0</title>
<path fill="none" stroke="gray" d="M541,-240.29C541,-230.01 541,-216.85 541,-205.74"/>
<polygon fill="gray" stroke="gray" points="542.4,-205.98 541,-201.98 539.6,-205.98 542.4,-205.98"/>
</g>
<!-- p0x5748403e1d00 -->
<g id="node27" class="node">
<title>p0x5748403e1d00</title>
<polygon fill="lightpink" stroke="purple" points="514,-84 514,-120 568,-120 568,-84 514,-84"/>
<text text-anchor="middle" x="540.88" y="-96.95" font-family="Times,serif" font-size="14.00">^</text>
</g>
<!-- p0x5748403e1cc0&#45;&gt;p0x5748403e1d00 -->
<g id="edge26" class="edge">
<title>p0x5748403e1cc0&#45;&gt;p0x5748403e1d00</title>
<path fill="none" stroke="gray" d="M541,-163.69C541,-152.48 541,-137.77 541,-125.63"/>
<polygon fill="gray" stroke="gray" points="542.4,-125.78 541,-121.78 539.6,-125.78 542.4,-125.78"/>
</g>
<!-- p0x5748403e1d40 -->
<g id="node28" class="node">
<title>p0x5748403e1d40</title>
<ellipse fill="lightblue" stroke="blue" cx="506" cy="-22" rx="18" ry="18"/>
<ellipse fill="none" stroke="blue" cx="506" cy="-22" rx="22" ry="22"/>
<text text-anchor="middle" x="506" y="-16.95" font-family="Times,serif" font-size="14.00">x</text>
</g>
<!-- p0x5748403e1d00&#45;&gt;p0x5748403e1d40 -->
<g id="edge27" class="edge">
<title>p0x5748403e1d00&#45;&gt;p0x5748403e1d40</title>
<path fill="none" stroke="gray" d="M533.23,-83.69C528.44,-73.01 522.22,-59.14 516.93,-47.36"/>
<polygon fill="gray" stroke="gray" points="518.26,-46.91 515.35,-43.84 515.71,-48.06 518.26,-46.91"/>
</g>
<!-- p0x5748403e1d80 -->
<g id="node29" class="node">
<title>p0x5748403e1d80</title>
<ellipse fill="lightgreen" stroke="green" cx="575" cy="-22" rx="18" ry="18"/>
<text text-anchor="middle" x="575" y="-16.95" font-family="Times,serif" font-size="14.00">2</text>
</g>
<!-- p0x5748403e1d00&#45;&gt;p0x5748403e1d80 -->
<g id="edge28" class="edge">
<title>p0x5748403e1d00&#45;&gt;p0x5748403e1d80</title>
<path fill="none" stroke="gray" d="M548.55,-83.69C553.69,-71.88 560.53,-56.19 565.97,-43.71"/>
<polygon fill="gray" stroke="gray" points="567.13,-44.55 567.45,-40.32 564.57,-43.43 567.13,-44.55"/>
</g>
<!-- p0x5748403e20f0 -->
<g id="node31" class="node">
<title>p0x5748403e20f0</title>
<ellipse fill="lightgreen" stroke="green" cx="602" cy="-406.51" rx="20.13" ry="20.13"/>
<text text-anchor="middle" x="602" y="-401.46" font-family="Times,serif" font-size="14.00">15</text>
</g>
<!-- p0x5748403e2c10&#45;&gt;p0x5748403e20f0 -->
<g id="edge30" class="edge">
<title>p0x5748403e2c10&#45;&gt;p0x5748403e20f0</title>
<path fill="none" stroke="gray" d="M602,-462.93C602,-453.8 602,-442.42 602,-432.34"/>
<polygon fill="gray" stroke="gray" points="603.4,-432.42 602,-428.42 600.6,-432.42 603.4,-432.42"/>
</g>
<!-- p0x5748403e29d0 -->
<g id="node32" class="node">
<title>p0x5748403e29d0</title>
<polygon fill="lightpink" stroke="purple" points="658,-388.51 658,-424.51 712,-424.51 712,-388.51 658,-388.51"/>
<text text-anchor="middle" x="684.88" y="-401.46" font-family="Times,serif" font-size="14.00">*</text>
</g>
<!-- p0x5748403e2c10&#45;&gt;p0x5748403e29d0 -->
<g id="edge31" class="edge">
<title>p0x5748403e2c10&#45;&gt;p0x5748403e29d0</title>
<path fill="none" stroke="gray" d="M621.67,-462.93C633.47,-452.61 648.56,-439.4 661.06,-428.47"/>
<polygon fill="gray" stroke="gray" points="661.96,-429.54 664.04,-425.85 660.11,-427.43 661.96,-429.54"/>
</g>
<!-- p0x5748403e2130 -->
<g id="node33" class="node">
<title>p0x5748403e2130</title>
<polygon fill="lightpink" stroke="purple" points="658,-313.79 658,-349.79 712,-349.79 712,-313.79 658,-313.79"/>
<text text-anchor="middle" x="684.88" y="-326.74" font-family="Times,serif" font-size="14.00">*</text>
</g>
<!-- p0x5748403e29d0&#45;&gt;p0x5748403e2130 -->
<g id="edge32" class="edge">
<title>p0x5748403e29d0&#45;&gt;p0x5748403e2130</title>
<path fill="none" stroke="gray" d="M685,-388.28C685,-378.48 685,-366.09 685,-355.5"/>
<polygon fill="gray" stroke="gray" points="686.4,-355.66 685,-351.66 683.6,-355.66 686.4,-355.66"/>
</g>
<!-- p0x5748403e2990 -->
<g id="node37" class="node">
<title>p0x5748403e2990</title>
<polygon fill="lightpink" stroke="purple" points="745,-313.79 745,-349.79 799,-349.79 799,-313.79 745,-313.79"/>
<text text-anchor="middle" x="772" y="-326.74" font-family="Times,serif" font-size="14.00">cos</text>
</g>
<!-- p0x5748403e29d0&#45;&gt;p0x5748403e2990 -->
<g id="edge36" class="edge">
<title>p0x5748403e29d0&#45;&gt;p0x5748403e2990</title>
<path fill="none" stroke="gray" d="M705.62,-388.28C718.1,-377.85 734.08,-364.48 747.24,-353.48"/>
<polygon fill="gray" stroke="gray" points="747.9,-354.76 750.07,-351.12 746.1,-352.61 747.9,-354.76"/>
</g>
<!-- p0x5748403e21b0 -->
<g id="node34" class="node">
<title>p0x5748403e21b0</title>
<ellipse fill="lightgreen" stroke="green" cx="616" cy="-258.6" rx="18.6" ry="18.6"/>
<text text-anchor="middle" x="616" y="-253.55" font-family="Times,serif" font-size="14.00">&#45;1</text>
</g>
<!-- p0x5748403e2130&#45;&gt;p0x5748403e21b0 -->
<g id="edge33" class="edge">
<title>p0x5748403e2130&#45;&gt;p0x5748403e21b0</title>
<path fill="none" stroke="gray" d="M668.3,-313.55C657.36,-302.27 643.13,-287.58 632.27,-276.39"/>
<polygon fill="gray" stroke="gray" points="633.28,-275.42 629.49,-273.52 631.27,-277.36 633.28,-275.42"/>
</g>
<!-- p0x5748403e21f0 -->
<g id="node35" class="node">
<title>p0x5748403e21f0</title>
<polygon fill="lightpink" stroke="purple" points="664,-240.6 664,-276.6 718,-276.6 718,-240.6 664,-240.6"/>
<text text-anchor="middle" x="690.88" y="-253.55" font-family="Times,serif" font-size="14.00">sin</text>
</g>
<!-- p0x5748403e2130&#45;&gt;p0x5748403e21f0 -->
<g id="edge34" class="edge">
<title>p0x5748403e2130&#45;&gt;p0x5748403e21f0</title>
<path fill="none" stroke="gray" d="M686.45,-313.55C687.25,-304.11 688.24,-292.29 689.1,-282.12"/>
<polygon fill="gray" stroke="gray" points="690.49,-282.28 689.43,-278.18 687.7,-282.05 690.49,-282.28"/>
</g>
<!-- p0x5748403e1160 -->
<g id="node36" class="node">
<title>p0x5748403e1160</title>
<ellipse fill="lightblue" stroke="blue" cx="691" cy="-182" rx="18" ry="18"/>
<ellipse fill="none" stroke="blue" cx="691" cy="-182" rx="22" ry="22"/>
<text text-anchor="middle" x="691" y="-176.95" font-family="Times,serif" font-size="14.00">x</text>
</g>
<!-- p0x5748403e21f0&#45;&gt;p0x5748403e1160 -->
<g id="edge35" class="edge">
<title>p0x5748403e21f0&#45;&gt;p0x5748403e1160</title>
<path fill="none" stroke="gray" d="M691,-240.29C691,-231.29 691,-220.07 691,-209.96"/>
<polygon fill="gray" stroke="gray" points="692.4,-209.99 691,-205.99 689.6,-209.99 692.4,-209.99"/>
</g>
<!-- p0x5748403e2910 -->
<g id="node38" class="node">
<title>p0x5748403e2910</title>
<polygon fill="lightpink" stroke="purple" points="747,-240.6 747,-276.6 801,-276.6 801,-240.6 747,-240.6"/>
<text text-anchor="middle" x="774" y="-253.55" font-family="Times,serif" font-size="14.00">cos</text>
</g>
<!-- p0x5748403e2990&#45;&gt;p0x5748403e2910 -->
<g id="edge37" class="edge">
<title>p0x5748403e2990&#45;&gt;p0x5748403e2910</title>
<path fill="none" stroke="gray" d="M772.48,-313.55C772.75,-304.11 773.08,-292.29 773.37,-282.12"/>
<polygon fill="gray" stroke="gray" points="774.76,-282.22 773.48,-278.18 771.97,-282.14 774.76,-282.22"/>
</g>
<!-- p0x5748403e2950 -->
<g id="node39" class="node">
<title>p0x5748403e2950</title>
<ellipse fill="lightblue" stroke="blue" cx="774" cy="-182" rx="18" ry="18"/>
<ellipse fill="none" stroke="blue" cx="774" cy="-182" rx="22" ry="22"/>
<text text-anchor="middle" x="774" y="-176.95" font-family="Times,serif" font-size="14.00">x</text>
</g>
<!-- p0x5748403e2910&#45;&gt;p0x5748403e2950 -->
<g id="edge38" class="edge">
<title>p0x5748403e2910&#45;&gt;p0x5748403e2950</title>
<path fill="none" stroke="gray" d="M774,-240.29C774,-231.29 774,-220.07 774,-209.96"/>
<polygon fill="gray" stroke="gray" points="775.4,-209.99 774,-205.99 772.6,-209.99 775.4,-209.99"/>
</g>
</g>
</svg>
