<?xml version="1.0" encoding="UTF-8" standalone="no"?>
<!DOCTYPE svg PUBLIC "-//W3C//DTD SVG 1.1//EN"
 "http://www.w3.org/Graphics/SVG/1.1/DTD/svg11.dtd">
<!-- Generated by graphviz version 12.1.2 (0)
 -->
<!-- Title: diffTree Pages: 1 -->
<svg width="190pt" height="344pt"
 viewBox="0.00 0.00 190.00 344.19" xmlns="http://www.w3.org/2000/svg" xmlns:xlink="http://www.w3.org/1999/xlink">
<g id="graph0" class="graph" transform="scale(1 1) rotate(0) translate(4 340.19)">
<title>diffTree</title>
<polygon fill="white" stroke="none" points="-4,4 -4,-340.19 186,-340.19 186,4 -4,4"/>
<!-- p0x6358584f68a0 -->
<g id="node1" class="node">
<title>p0x6358584f68a0</title>
<polygon fill="lightpink" stroke="purple" points="28,-299.69 28,-335.69 82,-335.69 82,-299.69 28,-299.69"/>
<text text-anchor="middle" x="54.88" y="-312.64" font-family="Times,serif" font-size="14.00">*</text>
</g>
<!-- p0x6358584f78a0 -->
<g id="node2" class="node">
<title>p0x6358584f78a0</title>
<ellipse fill="lightgreen" stroke="green" cx="18" cy="-244.69" rx="18" ry="18"/>
<text text-anchor="middle" x="18" y="-239.64" font-family="Times,serif" font-size="14.00">5</text>
</g>
<!-- p0x6358584f68a0&#45;&gt;p0x6358584f78a0 -->
<g id="edge1" class="edge">
<title>p0x6358584f68a0&#45;&gt;p0x6358584f78a0</title>
<path fill="none" stroke="gray" d="M46.04,-299.5C40.78,-289.4 34.09,-276.56 28.56,-265.96"/>
<polygon fill="gray" stroke="gray" points="29.91,-265.51 26.82,-262.61 27.42,-266.8 29.91,-265.51"/>
</g>
<!-- p0x6358584f6860 -->
<g id="node3" class="node">
<title>p0x6358584f6860</title>
<polygon fill="lightpink" stroke="purple" points="65,-226.69 65,-262.69 119,-262.69 119,-226.69 65,-226.69"/>
<text text-anchor="middle" x="91.88" y="-239.64" font-family="Times,serif" font-size="14.00">*</text>
</g>
<!-- p0x6358584f68a0&#45;&gt;p0x6358584f6860 -->
<g id="edge2" class="edge">
<title>p0x6358584f68a0&#45;&gt;p0x6358584f6860</title>
<path fill="none" stroke="gray" d="M63.96,-299.5C68.96,-289.91 75.24,-277.86 80.58,-267.6"/>
<polygon fill="gray" stroke="gray" points="81.82,-268.26 82.43,-264.06 79.34,-266.96 81.82,-268.26"/>
</g>
<!-- p0x6358584f6720 -->
<g id="node4" class="node">
<title>p0x6358584f6720</title>
<ellipse fill="lightgreen" stroke="green" cx="54" cy="-171.6" rx="18.6" ry="18.6"/>
<text text-anchor="middle" x="54" y="-166.55" font-family="Times,serif" font-size="14.00">&#45;1</text>
</g>
<!-- p0x6358584f6860&#45;&gt;p0x6358584f6720 -->
<g id="edge3" class="edge">
<title>p0x6358584f6860&#45;&gt;p0x6358584f6720</title>
<path fill="none" stroke="gray" d="M82.8,-226.48C77.39,-216.36 70.52,-203.51 64.85,-192.89"/>
<polygon fill="gray" stroke="gray" points="66.17,-192.4 63.05,-189.53 63.7,-193.71 66.17,-192.4"/>
</g>
<!-- p0x6358584f6820 -->
<g id="node5" class="node">
<title>p0x6358584f6820</title>
<polygon fill="lightpink" stroke="purple" points="102,-153.6 102,-189.6 156,-189.6 156,-153.6 102,-153.6"/>
<text text-anchor="middle" x="128.88" y="-166.55" font-family="Times,serif" font-size="14.00">sin</text>
</g>
<!-- p0x6358584f6860&#45;&gt;p0x6358584f6820 -->
<g id="edge4" class="edge">
<title>p0x6358584f6860&#45;&gt;p0x6358584f6820</title>
<path fill="none" stroke="gray" d="M100.96,-226.48C105.96,-216.87 112.24,-204.81 117.58,-194.53"/>
<polygon fill="gray" stroke="gray" points="118.82,-195.18 119.43,-190.99 116.34,-193.89 118.82,-195.18"/>
</g>
<!-- p0x6358584f6760 -->
<g id="node6" class="node">
<title>p0x6358584f6760</title>
<polygon fill="lightpink" stroke="purple" points="102,-80.5 102,-116.5 156,-116.5 156,-80.5 102,-80.5"/>
<text text-anchor="middle" x="128.88" y="-93.45" font-family="Times,serif" font-size="14.00">*</text>
</g>
<!-- p0x6358584f6820&#45;&gt;p0x6358584f6760 -->
<g id="edge5" class="edge">
<title>p0x6358584f6820&#45;&gt;p0x6358584f6760</title>
<path fill="none" stroke="gray" d="M129,-153.39C129,-143.95 129,-132.15 129,-122"/>
<polygon fill="gray" stroke="gray" points="130.4,-122.07 129,-118.07 127.6,-122.07 130.4,-122.07"/>
</g>
<!-- p0x6358584f67a0 -->
<g id="node7" class="node">
<title>p0x6358584f67a0</title>
<ellipse fill="lightblue" stroke="blue" cx="95" cy="-22" rx="18" ry="18"/>
<ellipse fill="none" stroke="blue" cx="95" cy="-22" rx="22" ry="22"/>
<text text-anchor="middle" x="95" y="-16.95" font-family="Times,serif" font-size="14.00">x</text>
</g>
<!-- p0x6358584f6760&#45;&gt;p0x6358584f67a0 -->
<g id="edge6" class="edge">
<title>p0x6358584f6760&#45;&gt;p0x6358584f67a0</title>
<path fill="none" stroke="gray" d="M121.11,-80.22C116.66,-70.45 111.01,-58.09 106.11,-47.35"/>
<polygon fill="gray" stroke="gray" points="107.48,-46.98 104.55,-43.93 104.94,-48.15 107.48,-46.98"/>
</g>
<!-- p0x6358584f67e0 -->
<g id="node8" class="node">
<title>p0x6358584f67e0</title>
<ellipse fill="lightgreen" stroke="green" cx="164" cy="-22" rx="18" ry="18"/>
<text text-anchor="middle" x="164" y="-16.95" font-family="Times,serif" font-size="14.00">5</text>
</g>
<!-- p0x6358584f6760&#45;&gt;p0x6358584f67e0 -->
<g id="edge7" class="edge">
<title>p0x6358584f6760&#45;&gt;p0x6358584f67e0</title>
<path fill="none" stroke="gray" d="M137.12,-80.22C142.28,-69.24 148.98,-54.97 154.4,-43.43"/>
<polygon fill="gray" stroke="gray" points="155.56,-44.25 156,-40.03 153.03,-43.06 155.56,-44.25"/>
</g>
</g>
</svg>
