<?xml version="1.0" encoding="UTF-8" standalone="no"?>
<!DOCTYPE svg PUBLIC "-//W3C//DTD SVG 1.1//EN"
 "http://www.w3.org/Graphics/SVG/1.1/DTD/svg11.dtd">
<!-- Generated by graphviz version 12.1.2 (0)
 -->
<!-- Title: diffTree Pages: 1 -->
<svg width="164pt" height="209pt"
 viewBox="0.00 0.00 164.23 209.45" xmlns="http://www.w3.org/2000/svg" xmlns:xlink="http://www.w3.org/1999/xlink">
<g id="graph0" class="graph" transform="scale(1 1) rotate(0) translate(4 205.45)">
<title>diffTree</title>
<polygon fill="white" stroke="none" points="-4,4 -4,-205.45 160.23,-205.45 160.23,4 -4,4"/>
<!-- p0x5871903a8d50 -->
<g id="node1" class="node">
<title>p0x5871903a8d50</title>
<polygon fill="lightpink" stroke="purple" points="65,-164.95 65,-200.95 119,-200.95 119,-164.95 65,-164.95"/>
<text text-anchor="middle" x="91.88" y="-177.9" font-family="Times,serif" font-size="14.00">*</text>
</g>
<!-- p0x5871903a8940 -->
<g id="node2" class="node">
<title>p0x5871903a8940</title>
<polygon fill="lightpink" stroke="purple" points="25,-86.23 25,-122.23 79,-122.23 79,-86.23 25,-86.23"/>
<text text-anchor="middle" x="51.88" y="-99.18" font-family="Times,serif" font-size="14.00">^</text>
</g>
<!-- p0x5871903a8d50&#45;&gt;p0x5871903a8940 -->
<g id="edge1" class="edge">
<title>p0x5871903a8d50&#45;&gt;p0x5871903a8940</title>
<path fill="none" stroke="gray" d="M82.92,-164.54C77.14,-153.46 69.61,-139 63.43,-127.14"/>
<polygon fill="gray" stroke="gray" points="64.83,-126.81 61.74,-123.91 62.35,-128.1 64.83,-126.81"/>
</g>
<!-- p0x5871903a9d50 -->
<g id="node5" class="node">
<title>p0x5871903a9d50</title>
<ellipse fill="lightgreen" stroke="green" cx="132" cy="-104.23" rx="24.23" ry="24.23"/>
<text text-anchor="middle" x="132" y="-99.18" font-family="Times,serif" font-size="14.00">&#45;inf</text>
</g>
<!-- p0x5871903a8d50&#45;&gt;p0x5871903a9d50 -->
<g id="edge4" class="edge">
<title>p0x5871903a8d50&#45;&gt;p0x5871903a9d50</title>
<path fill="none" stroke="gray" d="M101.08,-164.54C106.28,-154.56 112.91,-141.85 118.69,-130.76"/>
<polygon fill="gray" stroke="gray" points="119.8,-131.65 120.41,-127.46 117.32,-130.36 119.8,-131.65"/>
</g>
<!-- p0x5871903a88e0 -->
<g id="node3" class="node">
<title>p0x5871903a88e0</title>
<ellipse fill="lightgreen" stroke="green" cx="18" cy="-22" rx="18" ry="18"/>
<text text-anchor="middle" x="18" y="-16.95" font-family="Times,serif" font-size="14.00">5</text>
</g>
<!-- p0x5871903a8940&#45;&gt;p0x5871903a88e0 -->
<g id="edge2" class="edge">
<title>p0x5871903a8940&#45;&gt;p0x5871903a88e0</title>
<path fill="none" stroke="gray" d="M44.62,-85.82C39.42,-73.53 32.41,-57.01 26.9,-43.99"/>
<polygon fill="gray" stroke="gray" points="28.23,-43.54 25.38,-40.4 25.65,-44.63 28.23,-43.54"/>
</g>
<!-- p0x5871903a8910 -->
<g id="node4" class="node">
<title>p0x5871903a8910</title>
<ellipse fill="lightblue" stroke="blue" cx="87" cy="-22" rx="18" ry="18"/>
<ellipse fill="none" stroke="blue" cx="87" cy="-22" rx="22" ry="22"/>
<text text-anchor="middle" x="87" y="-16.95" font-family="Times,serif" font-size="14.00">x</text>
</g>
<!-- p0x5871903a8940&#45;&gt;p0x5871903a8910 -->
<g id="edge3" class="edge">
<title>p0x5871903a8940&#45;&gt;p0x5871903a8910</title>
<path fill="none" stroke="gray" d="M59.59,-85.82C64.49,-74.59 70.94,-59.82 76.34,-47.43"/>
<polygon fill="gray" stroke="gray" points="77.52,-48.24 77.83,-44.02 74.95,-47.12 77.52,-48.24"/>
</g>
</g>
</svg>
