<?xml version="1.0" encoding="UTF-8" standalone="no"?>
<!DOCTYPE svg PUBLIC "-//W3C//DTD SVG 1.1//EN"
 "http://www.w3.org/Graphics/SVG/1.1/DTD/svg11.dtd">
<!-- Generated by graphviz version 12.1.2 (0)
 -->
<!-- Title: diffTree Pages: 1 -->
<svg width="117pt" height="125pt"
 viewBox="0.00 0.00 117.00 125.00" xmlns="http://www.w3.org/2000/svg" xmlns:xlink="http://www.w3.org/1999/xlink">
<g id="graph0" class="graph" transform="scale(1 1) rotate(0) translate(4 121)">
<title>diffTree</title>
<polygon fill="white" stroke="none" points="-4,4 -4,-121 113,-121 113,4 -4,4"/>
<!-- p0x5e83201ab260 -->
<g id="node1" class="node">
<title>p0x5e83201ab260</title>
<polygon fill="lightpink" stroke="purple" points="25,-80.5 25,-116.5 79,-116.5 79,-80.5 25,-80.5"/>
<text text-anchor="middle" x="51.88" y="-93.45" font-family="Times,serif" font-size="14.00">*</text>
</g>
<!-- p0x5e83201ab290 -->
<g id="node2" class="node">
<title>p0x5e83201ab290</title>
<ellipse fill="lightgreen" stroke="green" cx="18" cy="-22" rx="18" ry="18"/>
<text text-anchor="middle" x="18" y="-16.95" font-family="Times,serif" font-size="14.00">2</text>
</g>
<!-- p0x5e83201ab260&#45;&gt;p0x5e83201ab290 -->
<g id="edge1" class="edge">
<title>p0x5e83201ab260&#45;&gt;p0x5e83201ab290</title>
<path fill="none" stroke="gray" d="M44.11,-80.22C39.1,-69.24 32.59,-54.97 27.32,-43.43"/>
<polygon fill="gray" stroke="gray" points="28.71,-43.1 25.78,-40.04 26.16,-44.26 28.71,-43.1"/>
</g>
<!-- p0x5e83201ab2c0 -->
<g id="node3" class="node">
<title>p0x5e83201ab2c0</title>
<ellipse fill="lightblue" stroke="blue" cx="87" cy="-22" rx="18" ry="18"/>
<ellipse fill="none" stroke="blue" cx="87" cy="-22" rx="22" ry="22"/>
<text text-anchor="middle" x="87" y="-16.95" font-family="Times,serif" font-size="14.00">x</text>
</g>
<!-- p0x5e83201ab260&#45;&gt;p0x5e83201ab2c0 -->
<g id="edge2" class="edge">
<title>p0x5e83201ab260&#45;&gt;p0x5e83201ab2c0</title>
<path fill="none" stroke="gray" d="M60.12,-80.22C64.74,-70.38 70.6,-57.9 75.67,-47.11"/>
<polygon fill="gray" stroke="gray" points="76.86,-47.87 77.3,-43.65 74.33,-46.68 76.86,-47.87"/>
</g>
</g>
</svg>
