<?xml version="1.0" encoding="UTF-8" standalone="no"?>
<!DOCTYPE svg PUBLIC "-//W3C//DTD SVG 1.1//EN"
 "http://www.w3.org/Graphics/SVG/1.1/DTD/svg11.dtd">
<!-- Generated by graphviz version 12.1.2 (0)
 -->
<!-- Title: diffTree Pages: 1 -->
<svg width="585pt" height="504pt"
 viewBox="0.00 0.00 585.00 504.19" xmlns="http://www.w3.org/2000/svg" xmlns:xlink="http://www.w3.org/1999/xlink">
<g id="graph0" class="graph" transform="scale(1 1) rotate(0) translate(4 500.19)">
<title>diffTree</title>
<polygon fill="white" stroke="none" points="-4,4 -4,-500.19 581,-500.19 581,4 -4,4"/>
<!-- p0x595606919620 -->
<g id="node1" class="node">
<title>p0x595606919620</title>
<polygon fill="lightpink" stroke="purple" points="202,-459.69 202,-495.69 256,-495.69 256,-459.69 202,-459.69"/>
<text text-anchor="middle" x="228.62" y="-472.64" font-family="Times,serif" font-size="14.00">+</text>
</g>
<!-- p0x595606918220 -->
<g id="node2" class="node">
<title>p0x595606918220</title>
<polygon fill="lightpink" stroke="purple" points="161,-386.69 161,-422.69 215,-422.69 215,-386.69 161,-386.69"/>
<text text-anchor="middle" x="187.88" y="-399.64" font-family="Times,serif" font-size="14.00">*</text>
</g>
<!-- p0x595606919620&#45;&gt;p0x595606918220 -->
<g id="edge1" class="edge">
<title>p0x595606919620&#45;&gt;p0x595606918220</title>
<path fill="none" stroke="gray" d="M219.08,-459.5C213.48,-449.82 206.45,-437.64 200.49,-427.32"/>
<polygon fill="gray" stroke="gray" points="201.8,-426.79 198.59,-424.03 199.38,-428.19 201.8,-426.79"/>
</g>
<!-- p0x5956069195f0 -->
<g id="node12" class="node">
<title>p0x5956069195f0</title>
<polygon fill="lightpink" stroke="purple" points="271,-386.69 271,-422.69 325,-422.69 325,-386.69 271,-386.69"/>
<text text-anchor="middle" x="297.62" y="-399.64" font-family="Times,serif" font-size="14.00">+</text>
</g>
<!-- p0x595606919620&#45;&gt;p0x5956069195f0 -->
<g id="edge11" class="edge">
<title>p0x595606919620&#45;&gt;p0x5956069195f0</title>
<path fill="none" stroke="gray" d="M245.7,-459.5C255.36,-449.56 267.59,-436.98 277.79,-426.48"/>
<polygon fill="gray" stroke="gray" points="278.61,-427.65 280.4,-423.81 276.6,-425.7 278.61,-427.65"/>
</g>
<!-- p0x5956069164d0 -->
<g id="node3" class="node">
<title>p0x5956069164d0</title>
<polygon fill="lightpink" stroke="purple" points="65,-313.6 65,-349.6 119,-349.6 119,-313.6 65,-313.6"/>
<text text-anchor="middle" x="91.88" y="-326.55" font-family="Times,serif" font-size="14.00">*</text>
</g>
<!-- p0x595606918220&#45;&gt;p0x5956069164d0 -->
<g id="edge2" class="edge">
<title>p0x595606918220&#45;&gt;p0x5956069164d0</title>
<path fill="none" stroke="gray" d="M164.76,-386.48C151.18,-376.43 133.96,-363.67 119.69,-353.1"/>
<polygon fill="gray" stroke="gray" points="120.62,-352.05 116.57,-350.79 118.96,-354.3 120.62,-352.05"/>
</g>
<!-- p0x5956069181f0 -->
<g id="node8" class="node">
<title>p0x5956069181f0</title>
<polygon fill="lightpink" stroke="purple" points="161,-313.6 161,-349.6 215,-349.6 215,-313.6 161,-313.6"/>
<text text-anchor="middle" x="188" y="-326.55" font-family="Times,serif" font-size="14.00">cos</text>
</g>
<!-- p0x595606918220&#45;&gt;p0x5956069181f0 -->
<g id="edge7" class="edge">
<title>p0x595606918220&#45;&gt;p0x5956069181f0</title>
<path fill="none" stroke="gray" d="M188,-386.48C188,-377.05 188,-365.25 188,-355.09"/>
<polygon fill="gray" stroke="gray" points="189.4,-355.16 188,-351.16 186.6,-355.16 189.4,-355.16"/>
</g>
<!-- p0x595606916500 -->
<g id="node4" class="node">
<title>p0x595606916500</title>
<ellipse fill="lightgreen" stroke="green" cx="18" cy="-258.5" rx="18" ry="18"/>
<text text-anchor="middle" x="18" y="-253.45" font-family="Times,serif" font-size="14.00">5</text>
</g>
<!-- p0x5956069164d0&#45;&gt;p0x595606916500 -->
<g id="edge3" class="edge">
<title>p0x5956069164d0&#45;&gt;p0x595606916500</title>
<path fill="none" stroke="gray" d="M74.09,-313.39C61.94,-301.72 46.02,-286.42 34.25,-275.11"/>
<polygon fill="gray" stroke="gray" points="35.37,-274.25 31.51,-272.48 33.43,-276.26 35.37,-274.25"/>
</g>
<!-- p0x595606916530 -->
<g id="node5" class="node">
<title>p0x595606916530</title>
<polygon fill="lightpink" stroke="purple" points="65,-240.5 65,-276.5 119,-276.5 119,-240.5 65,-240.5"/>
<text text-anchor="middle" x="91.88" y="-253.45" font-family="Times,serif" font-size="14.00">^</text>
</g>
<!-- p0x5956069164d0&#45;&gt;p0x595606916530 -->
<g id="edge4" class="edge">
<title>p0x5956069164d0&#45;&gt;p0x595606916530</title>
<path fill="none" stroke="gray" d="M92,-313.39C92,-303.95 92,-292.15 92,-282"/>
<polygon fill="gray" stroke="gray" points="93.4,-282.07 92,-278.07 90.6,-282.07 93.4,-282.07"/>
</g>
<!-- p0x595606916560 -->
<g id="node6" class="node">
<title>p0x595606916560</title>
<ellipse fill="lightblue" stroke="blue" cx="23" cy="-182" rx="18" ry="18"/>
<ellipse fill="none" stroke="blue" cx="23" cy="-182" rx="22" ry="22"/>
<text text-anchor="middle" x="23" y="-176.95" font-family="Times,serif" font-size="14.00">x</text>
</g>
<!-- p0x595606916530&#45;&gt;p0x595606916560 -->
<g id="edge5" class="edge">
<title>p0x595606916530&#45;&gt;p0x595606916560</title>
<path fill="none" stroke="gray" d="M76,-240.22C65.55,-228.94 51.9,-214.2 41.06,-202.5"/>
<polygon fill="gray" stroke="gray" points="42.28,-201.76 38.54,-199.77 40.23,-203.66 42.28,-201.76"/>
</g>
<!-- p0x595606916590 -->
<g id="node7" class="node">
<title>p0x595606916590</title>
<ellipse fill="lightgreen" stroke="green" cx="92" cy="-182" rx="18" ry="18"/>
<text text-anchor="middle" x="92" y="-176.95" font-family="Times,serif" font-size="14.00">4</text>
</g>
<!-- p0x595606916530&#45;&gt;p0x595606916590 -->
<g id="edge6" class="edge">
<title>p0x595606916530&#45;&gt;p0x595606916590</title>
<path fill="none" stroke="gray" d="M92,-240.22C92,-229.95 92,-216.81 92,-205.71"/>
<polygon fill="gray" stroke="gray" points="93.4,-205.96 92,-201.96 90.6,-205.96 93.4,-205.96"/>
</g>
<!-- p0x595606918160 -->
<g id="node9" class="node">
<title>p0x595606918160</title>
<polygon fill="lightpink" stroke="purple" points="161,-240.5 161,-276.5 215,-276.5 215,-240.5 161,-240.5"/>
<text text-anchor="middle" x="187.88" y="-253.45" font-family="Times,serif" font-size="14.00">^</text>
</g>
<!-- p0x5956069181f0&#45;&gt;p0x595606918160 -->
<g id="edge8" class="edge">
<title>p0x5956069181f0&#45;&gt;p0x595606918160</title>
<path fill="none" stroke="gray" d="M188,-313.39C188,-303.95 188,-292.15 188,-282"/>
<polygon fill="gray" stroke="gray" points="189.4,-282.07 188,-278.07 186.6,-282.07 189.4,-282.07"/>
</g>
<!-- p0x595606918190 -->
<g id="node10" class="node">
<title>p0x595606918190</title>
<ellipse fill="lightblue" stroke="blue" cx="161" cy="-182" rx="18" ry="18"/>
<ellipse fill="none" stroke="blue" cx="161" cy="-182" rx="22" ry="22"/>
<text text-anchor="middle" x="161" y="-176.95" font-family="Times,serif" font-size="14.00">x</text>
</g>
<!-- p0x595606918160&#45;&gt;p0x595606918190 -->
<g id="edge9" class="edge">
<title>p0x595606918160&#45;&gt;p0x595606918190</title>
<path fill="none" stroke="gray" d="M181.74,-240.22C178.28,-230.69 173.93,-218.68 170.11,-208.13"/>
<polygon fill="gray" stroke="gray" points="171.47,-207.79 168.8,-204.51 168.84,-208.75 171.47,-207.79"/>
</g>
<!-- p0x5956069181c0 -->
<g id="node11" class="node">
<title>p0x5956069181c0</title>
<ellipse fill="lightgreen" stroke="green" cx="230" cy="-182" rx="18" ry="18"/>
<text text-anchor="middle" x="230" y="-176.95" font-family="Times,serif" font-size="14.00">5</text>
</g>
<!-- p0x595606918160&#45;&gt;p0x5956069181c0 -->
<g id="edge10" class="edge">
<title>p0x595606918160&#45;&gt;p0x5956069181c0</title>
<path fill="none" stroke="gray" d="M197.74,-240.22C204.02,-229.09 212.2,-214.58 218.75,-202.95"/>
<polygon fill="gray" stroke="gray" points="219.96,-203.66 220.71,-199.48 217.52,-202.28 219.96,-203.66"/>
</g>
<!-- p0x5956069184f0 -->
<g id="node13" class="node">
<title>p0x5956069184f0</title>
<ellipse fill="lightgreen" stroke="green" cx="298" cy="-331.6" rx="18.6" ry="18.6"/>
<text text-anchor="middle" x="298" y="-326.55" font-family="Times,serif" font-size="14.00">&#45;1</text>
</g>
<!-- p0x5956069195f0&#45;&gt;p0x5956069184f0 -->
<g id="edge12" class="edge">
<title>p0x5956069195f0&#45;&gt;p0x5956069184f0</title>
<path fill="none" stroke="gray" d="M298,-386.48C298,-377.33 298,-365.94 298,-355.99"/>
<polygon fill="gray" stroke="gray" points="299.4,-356.15 298,-352.15 296.6,-356.15 299.4,-356.15"/>
</g>
<!-- p0x595606919300 -->
<g id="node14" class="node">
<title>p0x595606919300</title>
<polygon fill="lightpink" stroke="purple" points="353,-313.6 353,-349.6 407,-349.6 407,-313.6 353,-313.6"/>
<text text-anchor="middle" x="379.88" y="-326.55" font-family="Times,serif" font-size="14.00">*</text>
</g>
<!-- p0x5956069195f0&#45;&gt;p0x595606919300 -->
<g id="edge13" class="edge">
<title>p0x5956069195f0&#45;&gt;p0x595606919300</title>
<path fill="none" stroke="gray" d="M317.85,-386.48C329.35,-376.51 343.9,-363.89 356.03,-353.37"/>
<polygon fill="gray" stroke="gray" points="356.8,-354.56 358.91,-350.89 354.97,-352.45 356.8,-354.56"/>
</g>
<!-- p0x595606918880 -->
<g id="node15" class="node">
<title>p0x595606918880</title>
<polygon fill="lightpink" stroke="purple" points="353,-240.5 353,-276.5 407,-276.5 407,-240.5 353,-240.5"/>
<text text-anchor="middle" x="379.88" y="-253.45" font-family="Times,serif" font-size="14.00">/</text>
</g>
<!-- p0x595606919300&#45;&gt;p0x595606918880 -->
<g id="edge14" class="edge">
<title>p0x595606919300&#45;&gt;p0x595606918880</title>
<path fill="none" stroke="gray" d="M380,-313.39C380,-303.95 380,-292.15 380,-282"/>
<polygon fill="gray" stroke="gray" points="381.4,-282.07 380,-278.07 378.6,-282.07 381.4,-282.07"/>
</g>
<!-- p0x595606916720 -->
<g id="node24" class="node">
<title>p0x595606916720</title>
<polygon fill="lightpink" stroke="purple" points="470,-240.5 470,-276.5 524,-276.5 524,-240.5 470,-240.5"/>
<text text-anchor="middle" x="497" y="-253.45" font-family="Times,serif" font-size="14.00">cos</text>
</g>
<!-- p0x595606919300&#45;&gt;p0x595606916720 -->
<g id="edge23" class="edge">
<title>p0x595606919300&#45;&gt;p0x595606916720</title>
<path fill="none" stroke="gray" d="M407.43,-313.93C424.74,-303.41 447.16,-289.78 465.24,-278.8"/>
<polygon fill="gray" stroke="gray" points="465.76,-280.12 468.45,-276.85 464.3,-277.73 465.76,-280.12"/>
</g>
<!-- p0x5956069188b0 -->
<g id="node16" class="node">
<title>p0x5956069188b0</title>
<polygon fill="lightpink" stroke="purple" points="277,-164 277,-200 331,-200 331,-164 277,-164"/>
<text text-anchor="middle" x="303.88" y="-176.95" font-family="Times,serif" font-size="14.00">*</text>
</g>
<!-- p0x595606918880&#45;&gt;p0x5956069188b0 -->
<g id="edge15" class="edge">
<title>p0x595606918880&#45;&gt;p0x5956069188b0</title>
<path fill="none" stroke="gray" d="M362.37,-240.22C351.42,-229.48 337.26,-215.61 325.63,-204.21"/>
<polygon fill="gray" stroke="gray" points="326.71,-203.3 322.88,-201.5 324.75,-205.3 326.71,-203.3"/>
</g>
<!-- p0x595606916690 -->
<g id="node21" class="node">
<title>p0x595606916690</title>
<polygon fill="lightpink" stroke="purple" points="360,-164 360,-200 414,-200 414,-164 360,-164"/>
<text text-anchor="middle" x="386.88" y="-176.95" font-family="Times,serif" font-size="14.00">^</text>
</g>
<!-- p0x595606918880&#45;&gt;p0x595606916690 -->
<g id="edge20" class="edge">
<title>p0x595606918880&#45;&gt;p0x595606916690</title>
<path fill="none" stroke="gray" d="M381.62,-240.22C382.59,-229.95 383.82,-216.81 384.87,-205.71"/>
<polygon fill="gray" stroke="gray" points="386.24,-206.06 385.22,-201.95 383.45,-205.8 386.24,-206.06"/>
</g>
<!-- p0x5956069188e0 -->
<g id="node17" class="node">
<title>p0x5956069188e0</title>
<ellipse fill="lightgreen" stroke="green" cx="230" cy="-102" rx="18" ry="18"/>
<text text-anchor="middle" x="230" y="-96.95" font-family="Times,serif" font-size="14.00">3</text>
</g>
<!-- p0x5956069188b0&#45;&gt;p0x5956069188e0 -->
<g id="edge16" class="edge">
<title>p0x5956069188b0&#45;&gt;p0x5956069188e0</title>
<path fill="none" stroke="gray" d="M287.58,-163.69C275.07,-150.51 257.98,-132.49 245.66,-119.51"/>
<polygon fill="gray" stroke="gray" points="246.82,-118.69 243.05,-116.75 244.79,-120.62 246.82,-118.69"/>
</g>
<!-- p0x595606918910 -->
<g id="node18" class="node">
<title>p0x595606918910</title>
<polygon fill="lightpink" stroke="purple" points="277,-84 277,-120 331,-120 331,-84 277,-84"/>
<text text-anchor="middle" x="303.88" y="-96.95" font-family="Times,serif" font-size="14.00">^</text>
</g>
<!-- p0x5956069188b0&#45;&gt;p0x595606918910 -->
<g id="edge17" class="edge">
<title>p0x5956069188b0&#45;&gt;p0x595606918910</title>
<path fill="none" stroke="gray" d="M304,-163.69C304,-152.48 304,-137.77 304,-125.63"/>
<polygon fill="gray" stroke="gray" points="305.4,-125.78 304,-121.78 302.6,-125.78 305.4,-125.78"/>
</g>
<!-- p0x595606918940 -->
<g id="node19" class="node">
<title>p0x595606918940</title>
<ellipse fill="lightblue" stroke="blue" cx="269" cy="-22" rx="18" ry="18"/>
<ellipse fill="none" stroke="blue" cx="269" cy="-22" rx="22" ry="22"/>
<text text-anchor="middle" x="269" y="-16.95" font-family="Times,serif" font-size="14.00">x</text>
</g>
<!-- p0x595606918910&#45;&gt;p0x595606918940 -->
<g id="edge18" class="edge">
<title>p0x595606918910&#45;&gt;p0x595606918940</title>
<path fill="none" stroke="gray" d="M296.23,-83.69C291.44,-73.01 285.22,-59.14 279.93,-47.36"/>
<polygon fill="gray" stroke="gray" points="281.26,-46.91 278.35,-43.84 278.71,-48.06 281.26,-46.91"/>
</g>
<!-- p0x595606918970 -->
<g id="node20" class="node">
<title>p0x595606918970</title>
<ellipse fill="lightgreen" stroke="green" cx="338" cy="-22" rx="18" ry="18"/>
<text text-anchor="middle" x="338" y="-16.95" font-family="Times,serif" font-size="14.00">2</text>
</g>
<!-- p0x595606918910&#45;&gt;p0x595606918970 -->
<g id="edge19" class="edge">
<title>p0x595606918910&#45;&gt;p0x595606918970</title>
<path fill="none" stroke="gray" d="M311.55,-83.69C316.69,-71.88 323.53,-56.19 328.97,-43.71"/>
<polygon fill="gray" stroke="gray" points="330.13,-44.55 330.45,-40.32 327.57,-43.43 330.13,-44.55"/>
</g>
<!-- p0x5956069166c0 -->
<g id="node22" class="node">
<title>p0x5956069166c0</title>
<ellipse fill="lightblue" stroke="blue" cx="382" cy="-102" rx="18" ry="18"/>
<ellipse fill="none" stroke="blue" cx="382" cy="-102" rx="22" ry="22"/>
<text text-anchor="middle" x="382" y="-96.95" font-family="Times,serif" font-size="14.00">x</text>
</g>
<!-- p0x595606916690&#45;&gt;p0x5956069166c0 -->
<g id="edge21" class="edge">
<title>p0x595606916690&#45;&gt;p0x5956069166c0</title>
<path fill="none" stroke="gray" d="M385.89,-163.69C385.25,-153.74 384.44,-141.02 383.72,-129.81"/>
<polygon fill="gray" stroke="gray" points="385.12,-129.85 383.47,-125.95 382.33,-130.03 385.12,-129.85"/>
</g>
<!-- p0x5956069166f0 -->
<g id="node23" class="node">
<title>p0x5956069166f0</title>
<ellipse fill="lightgreen" stroke="green" cx="451" cy="-102" rx="18" ry="18"/>
<text text-anchor="middle" x="451" y="-96.95" font-family="Times,serif" font-size="14.00">3</text>
</g>
<!-- p0x595606916690&#45;&gt;p0x5956069166f0 -->
<g id="edge22" class="edge">
<title>p0x595606916690&#45;&gt;p0x5956069166f0</title>
<path fill="none" stroke="gray" d="M401.2,-163.69C411.66,-150.95 425.83,-133.68 436.38,-120.82"/>
<polygon fill="gray" stroke="gray" points="437.4,-121.79 438.85,-117.81 435.23,-120.01 437.4,-121.79"/>
</g>
<!-- p0x595606916750 -->
<g id="node25" class="node">
<title>p0x595606916750</title>
<polygon fill="lightpink" stroke="purple" points="484,-164 484,-200 538,-200 538,-164 484,-164"/>
<text text-anchor="middle" x="510.75" y="-176.95" font-family="Times,serif" font-size="14.00">ln</text>
</g>
<!-- p0x595606916720&#45;&gt;p0x595606916750 -->
<g id="edge24" class="edge">
<title>p0x595606916720&#45;&gt;p0x595606916750</title>
<path fill="none" stroke="gray" d="M500.25,-240.22C502.18,-229.95 504.65,-216.81 506.73,-205.71"/>
<polygon fill="gray" stroke="gray" points="508.08,-206.12 507.44,-201.93 505.33,-205.6 508.08,-206.12"/>
</g>
<!-- p0x595606916780 -->
<g id="node26" class="node">
<title>p0x595606916780</title>
<polygon fill="lightpink" stroke="purple" points="498,-84 498,-120 552,-120 552,-84 498,-84"/>
<text text-anchor="middle" x="524.88" y="-96.95" font-family="Times,serif" font-size="14.00">^</text>
</g>
<!-- p0x595606916750&#45;&gt;p0x595606916780 -->
<g id="edge25" class="edge">
<title>p0x595606916750&#45;&gt;p0x595606916780</title>
<path fill="none" stroke="gray" d="M514.11,-163.69C516.12,-152.48 518.76,-137.77 520.94,-125.63"/>
<polygon fill="gray" stroke="gray" points="522.31,-125.94 521.63,-121.75 519.55,-125.44 522.31,-125.94"/>
</g>
<!-- p0x5956069167b0 -->
<g id="node27" class="node">
<title>p0x5956069167b0</title>
<ellipse fill="lightblue" stroke="blue" cx="490" cy="-22" rx="18" ry="18"/>
<ellipse fill="none" stroke="blue" cx="490" cy="-22" rx="22" ry="22"/>
<text text-anchor="middle" x="490" y="-16.95" font-family="Times,serif" font-size="14.00">x</text>
</g>
<!-- p0x595606916780&#45;&gt;p0x5956069167b0 -->
<g id="edge26" class="edge">
<title>p0x595606916780&#45;&gt;p0x5956069167b0</title>
<path fill="none" stroke="gray" d="M517.23,-83.69C512.44,-73.01 506.22,-59.14 500.93,-47.36"/>
<polygon fill="gray" stroke="gray" points="502.26,-46.91 499.35,-43.84 499.71,-48.06 502.26,-46.91"/>
</g>
<!-- p0x5956069167e0 -->
<g id="node28" class="node">
<title>p0x5956069167e0</title>
<ellipse fill="lightgreen" stroke="green" cx="559" cy="-22" rx="18" ry="18"/>
<text text-anchor="middle" x="559" y="-16.95" font-family="Times,serif" font-size="14.00">3</text>
</g>
<!-- p0x595606916780&#45;&gt;p0x5956069167e0 -->
<g id="edge27" class="edge">
<title>p0x595606916780&#45;&gt;p0x5956069167e0</title>
<path fill="none" stroke="gray" d="M532.55,-83.69C537.69,-71.88 544.53,-56.19 549.97,-43.71"/>
<polygon fill="gray" stroke="gray" points="551.13,-44.55 551.45,-40.32 548.57,-43.43 551.13,-44.55"/>
</g>
</g>
</svg>
