<?xml version="1.0" encoding="UTF-8" standalone="no"?>
<!DOCTYPE svg PUBLIC "-//W3C//DTD SVG 1.1//EN"
 "http://www.w3.org/Graphics/SVG/1.1/DTD/svg11.dtd">
<!-- Generated by graphviz version 12.1.2 (0)
 -->
<!-- Title: diffTree Pages: 1 -->
<svg width="344pt" height="431pt"
 viewBox="0.00 0.00 344.00 431.19" xmlns="http://www.w3.org/2000/svg" xmlns:xlink="http://www.w3.org/1999/xlink">
<g id="graph0" class="graph" transform="scale(1 1) rotate(0) translate(4 427.19)">
<title>diffTree</title>
<polygon fill="white" stroke="none" points="-4,4 -4,-427.19 340,-427.19 340,4 -4,4"/>
<!-- p0x62fa4adcc960 -->
<g id="node1" class="node">
<title>p0x62fa4adcc960</title>
<polygon fill="lightpink" stroke="purple" points="135,-386.69 135,-422.69 189,-422.69 189,-386.69 135,-386.69"/>
<text text-anchor="middle" x="161.88" y="-399.64" font-family="Times,serif" font-size="14.00">*</text>
</g>
<!-- p0x62fa4adcc570 -->
<g id="node2" class="node">
<title>p0x62fa4adcc570</title>
<polygon fill="lightpink" stroke="purple" points="94,-313.69 94,-349.69 148,-349.69 148,-313.69 94,-313.69"/>
<text text-anchor="middle" x="120.62" y="-326.64" font-family="Times,serif" font-size="14.00">+</text>
</g>
<!-- p0x62fa4adcc960&#45;&gt;p0x62fa4adcc570 -->
<g id="edge1" class="edge">
<title>p0x62fa4adcc960&#45;&gt;p0x62fa4adcc570</title>
<path fill="none" stroke="gray" d="M152.08,-386.5C146.48,-376.82 139.45,-364.64 133.49,-354.32"/>
<polygon fill="gray" stroke="gray" points="134.8,-353.79 131.59,-351.03 132.38,-355.19 134.8,-353.79"/>
</g>
<!-- p0x62fa4adcc930 -->
<g id="node7" class="node">
<title>p0x62fa4adcc930</title>
<polygon fill="lightpink" stroke="purple" points="177,-313.69 177,-349.69 231,-349.69 231,-313.69 177,-313.69"/>
<text text-anchor="middle" x="203.88" y="-326.64" font-family="Times,serif" font-size="14.00">*</text>
</g>
<!-- p0x62fa4adcc960&#45;&gt;p0x62fa4adcc930 -->
<g id="edge6" class="edge">
<title>p0x62fa4adcc960&#45;&gt;p0x62fa4adcc930</title>
<path fill="none" stroke="gray" d="M172.17,-386.5C177.89,-376.82 185.1,-364.64 191.21,-354.32"/>
<polygon fill="gray" stroke="gray" points="192.32,-355.18 193.16,-351.02 189.91,-353.75 192.32,-355.18"/>
</g>
<!-- p0x62fa4adcc310 -->
<g id="node3" class="node">
<title>p0x62fa4adcc310</title>
<polygon fill="lightpink" stroke="purple" points="25,-240.6 25,-276.6 79,-276.6 79,-240.6 25,-240.6"/>
<text text-anchor="middle" x="51.88" y="-253.55" font-family="Times,serif" font-size="14.00">/</text>
</g>
<!-- p0x62fa4adcc570&#45;&gt;p0x62fa4adcc310 -->
<g id="edge2" class="edge">
<title>p0x62fa4adcc570&#45;&gt;p0x62fa4adcc310</title>
<path fill="none" stroke="gray" d="M104.3,-313.48C94.64,-303.53 82.41,-290.93 72.21,-280.42"/>
<polygon fill="gray" stroke="gray" points="73.39,-279.63 69.6,-277.73 71.38,-281.58 73.39,-279.63"/>
</g>
<!-- p0x62fa4adcc540 -->
<g id="node6" class="node">
<title>p0x62fa4adcc540</title>
<ellipse fill="lightgreen" stroke="green" cx="126" cy="-258.6" rx="18" ry="18"/>
<text text-anchor="middle" x="126" y="-253.55" font-family="Times,serif" font-size="14.00">1</text>
</g>
<!-- p0x62fa4adcc570&#45;&gt;p0x62fa4adcc540 -->
<g id="edge5" class="edge">
<title>p0x62fa4adcc570&#45;&gt;p0x62fa4adcc540</title>
<path fill="none" stroke="gray" d="M122.21,-313.48C122.87,-304.05 123.7,-292.25 124.42,-282.09"/>
<polygon fill="gray" stroke="gray" points="125.81,-282.25 124.69,-278.16 123.02,-282.05 125.81,-282.25"/>
</g>
<!-- p0x62fa4adcc2b0 -->
<g id="node4" class="node">
<title>p0x62fa4adcc2b0</title>
<ellipse fill="lightgreen" stroke="green" cx="18" cy="-182" rx="18" ry="18"/>
<text text-anchor="middle" x="18" y="-176.95" font-family="Times,serif" font-size="14.00">1</text>
</g>
<!-- p0x62fa4adcc310&#45;&gt;p0x62fa4adcc2b0 -->
<g id="edge3" class="edge">
<title>p0x62fa4adcc310&#45;&gt;p0x62fa4adcc2b0</title>
<path fill="none" stroke="gray" d="M44.11,-240.29C39.1,-229.3 32.59,-215.01 27.32,-203.45"/>
<polygon fill="gray" stroke="gray" points="28.71,-203.12 25.78,-200.06 26.16,-204.28 28.71,-203.12"/>
</g>
<!-- p0x62fa4adcc2e0 -->
<g id="node5" class="node">
<title>p0x62fa4adcc2e0</title>
<ellipse fill="lightblue" stroke="blue" cx="87" cy="-182" rx="18" ry="18"/>
<ellipse fill="none" stroke="blue" cx="87" cy="-182" rx="22" ry="22"/>
<text text-anchor="middle" x="87" y="-176.95" font-family="Times,serif" font-size="14.00">x</text>
</g>
<!-- p0x62fa4adcc310&#45;&gt;p0x62fa4adcc2e0 -->
<g id="edge4" class="edge">
<title>p0x62fa4adcc310&#45;&gt;p0x62fa4adcc2e0</title>
<path fill="none" stroke="gray" d="M60.12,-240.29C64.74,-230.44 70.6,-217.94 75.67,-207.14"/>
<polygon fill="gray" stroke="gray" points="76.87,-207.89 77.3,-203.68 74.33,-206.7 76.87,-207.89"/>
</g>
<!-- p0x62fa4adcc810 -->
<g id="node8" class="node">
<title>p0x62fa4adcc810</title>
<ellipse fill="lightgreen" stroke="green" cx="200" cy="-258.6" rx="18.6" ry="18.6"/>
<text text-anchor="middle" x="200" y="-253.55" font-family="Times,serif" font-size="14.00">&#45;1</text>
</g>
<!-- p0x62fa4adcc930&#45;&gt;p0x62fa4adcc810 -->
<g id="edge7" class="edge">
<title>p0x62fa4adcc930&#45;&gt;p0x62fa4adcc810</title>
<path fill="none" stroke="gray" d="M203.03,-313.48C202.52,-304.33 201.88,-292.94 201.32,-282.99"/>
<polygon fill="gray" stroke="gray" points="202.72,-283.07 201.1,-279.15 199.93,-283.22 202.72,-283.07"/>
</g>
<!-- p0x62fa4adcc900 -->
<g id="node9" class="node">
<title>p0x62fa4adcc900</title>
<polygon fill="lightpink" stroke="purple" points="248,-240.6 248,-276.6 302,-276.6 302,-240.6 248,-240.6"/>
<text text-anchor="middle" x="274.88" y="-253.55" font-family="Times,serif" font-size="14.00">sin</text>
</g>
<!-- p0x62fa4adcc930&#45;&gt;p0x62fa4adcc900 -->
<g id="edge8" class="edge">
<title>p0x62fa4adcc930&#45;&gt;p0x62fa4adcc900</title>
<path fill="none" stroke="gray" d="M221.19,-313.48C231.13,-303.53 243.71,-290.93 254.21,-280.42"/>
<polygon fill="gray" stroke="gray" points="255.07,-281.54 256.9,-277.72 253.08,-279.56 255.07,-281.54"/>
</g>
<!-- p0x62fa4adcc840 -->
<g id="node10" class="node">
<title>p0x62fa4adcc840</title>
<polygon fill="lightpink" stroke="purple" points="248,-164 248,-200 302,-200 302,-164 248,-164"/>
<text text-anchor="middle" x="274.62" y="-176.95" font-family="Times,serif" font-size="14.00">+</text>
</g>
<!-- p0x62fa4adcc900&#45;&gt;p0x62fa4adcc840 -->
<g id="edge9" class="edge">
<title>p0x62fa4adcc900&#45;&gt;p0x62fa4adcc840</title>
<path fill="none" stroke="gray" d="M275,-240.29C275,-230.01 275,-216.85 275,-205.74"/>
<polygon fill="gray" stroke="gray" points="276.4,-205.98 275,-201.98 273.6,-205.98 276.4,-205.98"/>
</g>
<!-- p0x62fa4adcc870 -->
<g id="node11" class="node">
<title>p0x62fa4adcc870</title>
<polygon fill="lightpink" stroke="purple" points="209,-84 209,-120 263,-120 263,-84 209,-84"/>
<text text-anchor="middle" x="235.75" y="-96.95" font-family="Times,serif" font-size="14.00">ln</text>
</g>
<!-- p0x62fa4adcc840&#45;&gt;p0x62fa4adcc870 -->
<g id="edge10" class="edge">
<title>p0x62fa4adcc840&#45;&gt;p0x62fa4adcc870</title>
<path fill="none" stroke="gray" d="M266.34,-163.69C260.64,-152.28 253.12,-137.23 246.99,-124.98"/>
<polygon fill="gray" stroke="gray" points="248.35,-124.57 245.31,-121.62 245.84,-125.82 248.35,-124.57"/>
</g>
<!-- p0x62fa4adcc8d0 -->
<g id="node13" class="node">
<title>p0x62fa4adcc8d0</title>
<ellipse fill="lightblue" stroke="blue" cx="314" cy="-102" rx="18" ry="18"/>
<ellipse fill="none" stroke="blue" cx="314" cy="-102" rx="22" ry="22"/>
<text text-anchor="middle" x="314" y="-96.95" font-family="Times,serif" font-size="14.00">x</text>
</g>
<!-- p0x62fa4adcc840&#45;&gt;p0x62fa4adcc8d0 -->
<g id="edge12" class="edge">
<title>p0x62fa4adcc840&#45;&gt;p0x62fa4adcc8d0</title>
<path fill="none" stroke="gray" d="M283.66,-163.69C289.04,-152.93 296.03,-138.94 301.95,-127.1"/>
<polygon fill="gray" stroke="gray" points="303.2,-127.74 303.73,-123.53 300.69,-126.48 303.2,-127.74"/>
</g>
<!-- p0x62fa4adcc8a0 -->
<g id="node12" class="node">
<title>p0x62fa4adcc8a0</title>
<ellipse fill="lightblue" stroke="blue" cx="236" cy="-22" rx="18" ry="18"/>
<ellipse fill="none" stroke="blue" cx="236" cy="-22" rx="22" ry="22"/>
<text text-anchor="middle" x="236" y="-16.95" font-family="Times,serif" font-size="14.00">x</text>
</g>
<!-- p0x62fa4adcc870&#45;&gt;p0x62fa4adcc8a0 -->
<g id="edge11" class="edge">
<title>p0x62fa4adcc870&#45;&gt;p0x62fa4adcc8a0</title>
<path fill="none" stroke="gray" d="M236,-83.69C236,-73.74 236,-61.02 236,-49.81"/>
<polygon fill="gray" stroke="gray" points="237.4,-49.95 236,-45.95 234.6,-49.95 237.4,-49.95"/>
</g>
</g>
</svg>
