<?xml version="1.0" encoding="UTF-8" standalone="no"?>
<!DOCTYPE svg PUBLIC "-//W3C//DTD SVG 1.1//EN"
 "http://www.w3.org/Graphics/SVG/1.1/DTD/svg11.dtd">
<!-- Generated by graphviz version 12.1.2 (0)
 -->
<!-- Title: diffTree Pages: 1 -->
<svg width="423pt" height="497pt"
 viewBox="0.00 0.00 423.00 497.00" xmlns="http://www.w3.org/2000/svg" xmlns:xlink="http://www.w3.org/1999/xlink">
<g id="graph0" class="graph" transform="scale(1 1) rotate(0) translate(4 493)">
<title>diffTree</title>
<polygon fill="white" stroke="none" points="-4,4 -4,-493 419,-493 419,4 -4,4"/>
<!-- p0x5e369117f4a0 -->
<g id="node1" class="node">
<title>p0x5e369117f4a0</title>
<polygon fill="lightpink" stroke="purple" points="117,-452.5 117,-488.5 171,-488.5 171,-452.5 117,-452.5"/>
<text text-anchor="middle" x="143.62" y="-465.45" font-family="Times,serif" font-size="14.00">+</text>
</g>
<!-- p0x5e369117f090 -->
<g id="node2" class="node">
<title>p0x5e369117f090</title>
<polygon fill="lightpink" stroke="purple" points="76,-379.5 76,-415.5 130,-415.5 130,-379.5 76,-379.5"/>
<text text-anchor="middle" x="102.88" y="-392.45" font-family="Times,serif" font-size="14.00">sin</text>
</g>
<!-- p0x5e369117f4a0&#45;&gt;p0x5e369117f090 -->
<g id="edge1" class="edge">
<title>p0x5e369117f4a0&#45;&gt;p0x5e369117f090</title>
<path fill="none" stroke="gray" d="M134.08,-452.31C128.48,-442.63 121.45,-430.45 115.49,-420.13"/>
<polygon fill="gray" stroke="gray" points="116.8,-419.6 113.59,-416.84 114.38,-421 116.8,-419.6"/>
</g>
<!-- p0x5e369117f470 -->
<g id="node6" class="node">
<title>p0x5e369117f470</title>
<polygon fill="lightpink" stroke="purple" points="183,-379.5 183,-415.5 237,-415.5 237,-379.5 183,-379.5"/>
<text text-anchor="middle" x="209.62" y="-392.45" font-family="Times,serif" font-size="14.00">+</text>
</g>
<!-- p0x5e369117f4a0&#45;&gt;p0x5e369117f470 -->
<g id="edge5" class="edge">
<title>p0x5e369117f4a0&#45;&gt;p0x5e369117f470</title>
<path fill="none" stroke="gray" d="M159.98,-452.31C169.22,-442.37 180.91,-429.79 190.67,-419.29"/>
<polygon fill="gray" stroke="gray" points="191.44,-420.52 193.14,-416.64 189.39,-418.61 191.44,-420.52"/>
</g>
<!-- p0x5e369117f060 -->
<g id="node3" class="node">
<title>p0x5e369117f060</title>
<polygon fill="lightpink" stroke="purple" points="64,-306.5 64,-342.5 118,-342.5 118,-306.5 64,-306.5"/>
<text text-anchor="middle" x="90.88" y="-319.45" font-family="Times,serif" font-size="14.00">^</text>
</g>
<!-- p0x5e369117f090&#45;&gt;p0x5e369117f060 -->
<g id="edge2" class="edge">
<title>p0x5e369117f090&#45;&gt;p0x5e369117f060</title>
<path fill="none" stroke="gray" d="M100.1,-379.31C98.49,-369.81 96.47,-357.89 94.75,-347.69"/>
<polygon fill="gray" stroke="gray" points="96.18,-347.73 94.13,-344.02 93.42,-348.2 96.18,-347.73"/>
</g>
<!-- p0x5e369117efc0 -->
<g id="node4" class="node">
<title>p0x5e369117efc0</title>
<ellipse fill="lightblue" stroke="blue" cx="22" cy="-248" rx="18" ry="18"/>
<ellipse fill="none" stroke="blue" cx="22" cy="-248" rx="22" ry="22"/>
<text text-anchor="middle" x="22" y="-242.95" font-family="Times,serif" font-size="14.00">x</text>
</g>
<!-- p0x5e369117f060&#45;&gt;p0x5e369117efc0 -->
<g id="edge3" class="edge">
<title>p0x5e369117f060&#45;&gt;p0x5e369117efc0</title>
<path fill="none" stroke="gray" d="M75,-306.22C64.55,-294.94 50.9,-280.2 40.06,-268.5"/>
<polygon fill="gray" stroke="gray" points="41.28,-267.76 37.54,-265.77 39.23,-269.66 41.28,-267.76"/>
</g>
<!-- p0x5e369117f030 -->
<g id="node5" class="node">
<title>p0x5e369117f030</title>
<ellipse fill="lightgreen" stroke="green" cx="91" cy="-248" rx="18" ry="18"/>
<text text-anchor="middle" x="91" y="-242.95" font-family="Times,serif" font-size="14.00">5</text>
</g>
<!-- p0x5e369117f060&#45;&gt;p0x5e369117f030 -->
<g id="edge4" class="edge">
<title>p0x5e369117f060&#45;&gt;p0x5e369117f030</title>
<path fill="none" stroke="gray" d="M91,-306.22C91,-295.95 91,-282.81 91,-271.71"/>
<polygon fill="gray" stroke="gray" points="92.4,-271.96 91,-267.96 89.6,-271.96 92.4,-271.96"/>
</g>
<!-- p0x5e369117f1a0 -->
<g id="node7" class="node">
<title>p0x5e369117f1a0</title>
<polygon fill="lightpink" stroke="purple" points="183,-306.5 183,-342.5 237,-342.5 237,-306.5 183,-306.5"/>
<text text-anchor="middle" x="209.88" y="-319.45" font-family="Times,serif" font-size="14.00">*</text>
</g>
<!-- p0x5e369117f470&#45;&gt;p0x5e369117f1a0 -->
<g id="edge6" class="edge">
<title>p0x5e369117f470&#45;&gt;p0x5e369117f1a0</title>
<path fill="none" stroke="gray" d="M210,-379.31C210,-369.89 210,-358.11 210,-347.97"/>
<polygon fill="gray" stroke="gray" points="211.4,-348.04 210,-344.04 208.6,-348.04 211.4,-348.04"/>
</g>
<!-- p0x5e369117f440 -->
<g id="node10" class="node">
<title>p0x5e369117f440</title>
<polygon fill="lightpink" stroke="purple" points="278,-306.5 278,-342.5 332,-342.5 332,-306.5 278,-306.5"/>
<text text-anchor="middle" x="304.75" y="-319.45" font-family="Times,serif" font-size="14.00">&#45;</text>
</g>
<!-- p0x5e369117f470&#45;&gt;p0x5e369117f440 -->
<g id="edge9" class="edge">
<title>p0x5e369117f470&#45;&gt;p0x5e369117f440</title>
<path fill="none" stroke="gray" d="M233,-379.31C246.43,-369.27 263.47,-356.54 277.6,-345.98"/>
<polygon fill="gray" stroke="gray" points="278.31,-347.2 280.67,-343.68 276.63,-344.95 278.31,-347.2"/>
</g>
<!-- p0x5e369117f100 -->
<g id="node8" class="node">
<title>p0x5e369117f100</title>
<ellipse fill="lightgreen" stroke="green" cx="157" cy="-248" rx="18.6" ry="18.6"/>
<text text-anchor="middle" x="157" y="-242.95" font-family="Times,serif" font-size="14.00">&#45;1</text>
</g>
<!-- p0x5e369117f1a0&#45;&gt;p0x5e369117f100 -->
<g id="edge7" class="edge">
<title>p0x5e369117f1a0&#45;&gt;p0x5e369117f100</title>
<path fill="none" stroke="gray" d="M197.71,-306.22C189.54,-294.74 178.81,-279.66 170.42,-267.86"/>
<polygon fill="gray" stroke="gray" points="171.78,-267.36 168.32,-264.91 169.49,-268.98 171.78,-267.36"/>
</g>
<!-- p0x5e369117f170 -->
<g id="node9" class="node">
<title>p0x5e369117f170</title>
<ellipse fill="lightblue" stroke="blue" cx="227" cy="-248" rx="18" ry="18"/>
<ellipse fill="none" stroke="blue" cx="227" cy="-248" rx="22" ry="22"/>
<text text-anchor="middle" x="227" y="-242.95" font-family="Times,serif" font-size="14.00">x</text>
</g>
<!-- p0x5e369117f1a0&#45;&gt;p0x5e369117f170 -->
<g id="edge8" class="edge">
<title>p0x5e369117f1a0&#45;&gt;p0x5e369117f170</title>
<path fill="none" stroke="gray" d="M213.94,-306.22C216.05,-297 218.68,-285.45 221.03,-275.15"/>
<polygon fill="gray" stroke="gray" points="222.37,-275.59 221.89,-271.38 219.64,-274.96 222.37,-275.59"/>
</g>
<!-- p0x5e369117f350 -->
<g id="node11" class="node">
<title>p0x5e369117f350</title>
<polygon fill="lightpink" stroke="purple" points="278,-230 278,-266 332,-266 332,-230 278,-230"/>
<text text-anchor="middle" x="304.88" y="-242.95" font-family="Times,serif" font-size="14.00">sin</text>
</g>
<!-- p0x5e369117f440&#45;&gt;p0x5e369117f350 -->
<g id="edge10" class="edge">
<title>p0x5e369117f440&#45;&gt;p0x5e369117f350</title>
<path fill="none" stroke="gray" d="M305,-306.22C305,-295.95 305,-282.81 305,-271.71"/>
<polygon fill="gray" stroke="gray" points="306.4,-271.96 305,-267.96 303.6,-271.96 306.4,-271.96"/>
</g>
<!-- p0x5e369117f410 -->
<g id="node16" class="node">
<title>p0x5e369117f410</title>
<polygon fill="lightpink" stroke="purple" points="361,-230 361,-266 415,-266 415,-230 361,-230"/>
<text text-anchor="middle" x="387.75" y="-242.95" font-family="Times,serif" font-size="14.00">exp</text>
</g>
<!-- p0x5e369117f440&#45;&gt;p0x5e369117f410 -->
<g id="edge15" class="edge">
<title>p0x5e369117f440&#45;&gt;p0x5e369117f410</title>
<path fill="none" stroke="gray" d="M324.25,-306.22C336.32,-295.39 351.94,-281.36 364.7,-269.91"/>
<polygon fill="gray" stroke="gray" points="365.4,-271.17 367.44,-267.45 363.53,-269.08 365.4,-271.17"/>
</g>
<!-- p0x5e369117f320 -->
<g id="node12" class="node">
<title>p0x5e369117f320</title>
<polygon fill="lightpink" stroke="purple" points="278,-153.5 278,-189.5 332,-189.5 332,-153.5 278,-153.5"/>
<text text-anchor="middle" x="304.75" y="-166.45" font-family="Times,serif" font-size="14.00">ln</text>
</g>
<!-- p0x5e369117f350&#45;&gt;p0x5e369117f320 -->
<g id="edge11" class="edge">
<title>p0x5e369117f350&#45;&gt;p0x5e369117f320</title>
<path fill="none" stroke="gray" d="M305,-229.72C305,-219.45 305,-206.31 305,-195.21"/>
<polygon fill="gray" stroke="gray" points="306.4,-195.46 305,-191.46 303.6,-195.46 306.4,-195.46"/>
</g>
<!-- p0x5e369117f2f0 -->
<g id="node13" class="node">
<title>p0x5e369117f2f0</title>
<polygon fill="lightpink" stroke="purple" points="278,-80.5 278,-116.5 332,-116.5 332,-80.5 278,-80.5"/>
<text text-anchor="middle" x="304.88" y="-93.45" font-family="Times,serif" font-size="14.00">^</text>
</g>
<!-- p0x5e369117f320&#45;&gt;p0x5e369117f2f0 -->
<g id="edge12" class="edge">
<title>p0x5e369117f320&#45;&gt;p0x5e369117f2f0</title>
<path fill="none" stroke="gray" d="M305,-153.31C305,-143.89 305,-132.11 305,-121.97"/>
<polygon fill="gray" stroke="gray" points="306.4,-122.04 305,-118.04 303.6,-122.04 306.4,-122.04"/>
</g>
<!-- p0x5e369117f250 -->
<g id="node14" class="node">
<title>p0x5e369117f250</title>
<ellipse fill="lightblue" stroke="blue" cx="271" cy="-22" rx="18" ry="18"/>
<ellipse fill="none" stroke="blue" cx="271" cy="-22" rx="22" ry="22"/>
<text text-anchor="middle" x="271" y="-16.95" font-family="Times,serif" font-size="14.00">x</text>
</g>
<!-- p0x5e369117f2f0&#45;&gt;p0x5e369117f250 -->
<g id="edge13" class="edge">
<title>p0x5e369117f2f0&#45;&gt;p0x5e369117f250</title>
<path fill="none" stroke="gray" d="M297.11,-80.22C292.66,-70.45 287.01,-58.09 282.11,-47.35"/>
<polygon fill="gray" stroke="gray" points="283.48,-46.98 280.55,-43.93 280.94,-48.15 283.48,-46.98"/>
</g>
<!-- p0x5e369117f2c0 -->
<g id="node15" class="node">
<title>p0x5e369117f2c0</title>
<ellipse fill="lightgreen" stroke="green" cx="340" cy="-22" rx="18" ry="18"/>
<text text-anchor="middle" x="340" y="-16.95" font-family="Times,serif" font-size="14.00">3</text>
</g>
<!-- p0x5e369117f2f0&#45;&gt;p0x5e369117f2c0 -->
<g id="edge14" class="edge">
<title>p0x5e369117f2f0&#45;&gt;p0x5e369117f2c0</title>
<path fill="none" stroke="gray" d="M313.12,-80.22C318.28,-69.24 324.98,-54.97 330.4,-43.43"/>
<polygon fill="gray" stroke="gray" points="331.56,-44.25 332,-40.03 329.03,-43.06 331.56,-44.25"/>
</g>
<!-- p0x5e369117f3e0 -->
<g id="node17" class="node">
<title>p0x5e369117f3e0</title>
<ellipse fill="lightgreen" stroke="green" cx="388" cy="-171.5" rx="18" ry="18"/>
<text text-anchor="middle" x="388" y="-166.45" font-family="Times,serif" font-size="14.00">2</text>
</g>
<!-- p0x5e369117f410&#45;&gt;p0x5e369117f3e0 -->
<g id="edge16" class="edge">
<title>p0x5e369117f410&#45;&gt;p0x5e369117f3e0</title>
<path fill="none" stroke="gray" d="M388,-229.72C388,-219.45 388,-206.31 388,-195.21"/>
<polygon fill="gray" stroke="gray" points="389.4,-195.46 388,-191.46 386.6,-195.46 389.4,-195.46"/>
</g>
</g>
</svg>
