<?xml version="1.0" encoding="UTF-8" standalone="no"?>
<!DOCTYPE svg PUBLIC "-//W3C//DTD SVG 1.1//EN"
 "http://www.w3.org/Graphics/SVG/1.1/DTD/svg11.dtd">
<!-- Generated by graphviz version 12.1.2 (0)
 -->
<!-- Title: diffTree Pages: 1 -->
<svg width="929pt" height="657pt"
 viewBox="0.00 0.00 929.00 657.00" xmlns="http://www.w3.org/2000/svg" xmlns:xlink="http://www.w3.org/1999/xlink">
<g id="graph0" class="graph" transform="scale(1 1) rotate(0) translate(4 653)">
<title>diffTree</title>
<polygon fill="white" stroke="none" points="-4,4 -4,-653 925,-653 925,4 -4,4"/>
<!-- p0x5afc698ecfb0 -->
<g id="node1" class="node">
<title>p0x5afc698ecfb0</title>
<polygon fill="lightpink" stroke="purple" points="255,-612.5 255,-648.5 309,-648.5 309,-612.5 255,-612.5"/>
<text text-anchor="middle" x="281.88" y="-625.45" font-family="Times,serif" font-size="14.00">*</text>
</g>
<!-- p0x5afc698ec7a0 -->
<g id="node2" class="node">
<title>p0x5afc698ec7a0</title>
<polygon fill="lightpink" stroke="purple" points="214,-539.5 214,-575.5 268,-575.5 268,-539.5 214,-539.5"/>
<text text-anchor="middle" x="240.75" y="-552.45" font-family="Times,serif" font-size="14.00">exp</text>
</g>
<!-- p0x5afc698ecfb0&#45;&gt;p0x5afc698ec7a0 -->
<g id="edge1" class="edge">
<title>p0x5afc698ecfb0&#45;&gt;p0x5afc698ec7a0</title>
<path fill="none" stroke="gray" d="M272.08,-612.31C266.48,-602.63 259.45,-590.45 253.49,-580.13"/>
<polygon fill="gray" stroke="gray" points="254.8,-579.6 251.59,-576.84 252.38,-581 254.8,-579.6"/>
</g>
<!-- p0x5afc698ecf80 -->
<g id="node13" class="node">
<title>p0x5afc698ecf80</title>
<polygon fill="lightpink" stroke="purple" points="329,-539.5 329,-575.5 383,-575.5 383,-539.5 329,-539.5"/>
<text text-anchor="middle" x="355.62" y="-552.45" font-family="Times,serif" font-size="14.00">+</text>
</g>
<!-- p0x5afc698ecfb0&#45;&gt;p0x5afc698ecf80 -->
<g id="edge12" class="edge">
<title>p0x5afc698ecfb0&#45;&gt;p0x5afc698ecf80</title>
<path fill="none" stroke="gray" d="M299.91,-612.31C310.2,-602.44 323.2,-589.97 334.09,-579.52"/>
<polygon fill="gray" stroke="gray" points="334.99,-580.6 336.9,-576.82 333.05,-578.58 334.99,-580.6"/>
</g>
<!-- p0x5afc698ec770 -->
<g id="node3" class="node">
<title>p0x5afc698ec770</title>
<polygon fill="lightpink" stroke="purple" points="140,-466.5 140,-502.5 194,-502.5 194,-466.5 140,-466.5"/>
<text text-anchor="middle" x="166.88" y="-479.45" font-family="Times,serif" font-size="14.00">*</text>
</g>
<!-- p0x5afc698ec7a0&#45;&gt;p0x5afc698ec770 -->
<g id="edge2" class="edge">
<title>p0x5afc698ec7a0&#45;&gt;p0x5afc698ec770</title>
<path fill="none" stroke="gray" d="M223.09,-539.31C212.8,-529.44 199.8,-516.97 188.91,-506.52"/>
<polygon fill="gray" stroke="gray" points="189.95,-505.58 186.1,-503.82 188.01,-507.6 189.95,-505.58"/>
</g>
<!-- p0x5afc698ec5c0 -->
<g id="node4" class="node">
<title>p0x5afc698ec5c0</title>
<polygon fill="lightpink" stroke="purple" points="57,-393.5 57,-429.5 111,-429.5 111,-393.5 57,-393.5"/>
<text text-anchor="middle" x="83.75" y="-406.45" font-family="Times,serif" font-size="14.00">ln</text>
</g>
<!-- p0x5afc698ec770&#45;&gt;p0x5afc698ec5c0 -->
<g id="edge3" class="edge">
<title>p0x5afc698ec770&#45;&gt;p0x5afc698ec5c0</title>
<path fill="none" stroke="gray" d="M146.91,-466.31C135.27,-456.36 120.54,-443.76 108.26,-433.25"/>
<polygon fill="gray" stroke="gray" points="109.29,-432.3 105.34,-430.76 107.47,-434.42 109.29,-432.3"/>
</g>
<!-- p0x5afc698ec740 -->
<g id="node8" class="node">
<title>p0x5afc698ec740</title>
<polygon fill="lightpink" stroke="purple" points="140,-393.5 140,-429.5 194,-429.5 194,-393.5 140,-393.5"/>
<text text-anchor="middle" x="166.75" y="-406.45" font-family="Times,serif" font-size="14.00">ln</text>
</g>
<!-- p0x5afc698ec770&#45;&gt;p0x5afc698ec740 -->
<g id="edge7" class="edge">
<title>p0x5afc698ec770&#45;&gt;p0x5afc698ec740</title>
<path fill="none" stroke="gray" d="M167,-466.31C167,-456.89 167,-445.11 167,-434.97"/>
<polygon fill="gray" stroke="gray" points="168.4,-435.04 167,-431.04 165.6,-435.04 168.4,-435.04"/>
</g>
<!-- p0x5afc698ec5f0 -->
<g id="node5" class="node">
<title>p0x5afc698ec5f0</title>
<polygon fill="lightpink" stroke="purple" points="57,-320.5 57,-356.5 111,-356.5 111,-320.5 57,-320.5"/>
<text text-anchor="middle" x="83.88" y="-333.45" font-family="Times,serif" font-size="14.00">*</text>
</g>
<!-- p0x5afc698ec5c0&#45;&gt;p0x5afc698ec5f0 -->
<g id="edge4" class="edge">
<title>p0x5afc698ec5c0&#45;&gt;p0x5afc698ec5f0</title>
<path fill="none" stroke="gray" d="M84,-393.31C84,-383.89 84,-372.11 84,-361.97"/>
<polygon fill="gray" stroke="gray" points="85.4,-362.04 84,-358.04 82.6,-362.04 85.4,-362.04"/>
</g>
<!-- p0x5afc698ec620 -->
<g id="node6" class="node">
<title>p0x5afc698ec620</title>
<ellipse fill="lightgreen" stroke="green" cx="18" cy="-262" rx="18" ry="18"/>
<text text-anchor="middle" x="18" y="-256.95" font-family="Times,serif" font-size="14.00">2</text>
</g>
<!-- p0x5afc698ec5f0&#45;&gt;p0x5afc698ec620 -->
<g id="edge5" class="edge">
<title>p0x5afc698ec5f0&#45;&gt;p0x5afc698ec620</title>
<path fill="none" stroke="gray" d="M68.69,-320.22C58.02,-308.17 43.84,-292.16 33.19,-280.15"/>
<polygon fill="gray" stroke="gray" points="34.43,-279.43 30.73,-277.37 32.33,-281.29 34.43,-279.43"/>
</g>
<!-- p0x5afc698ec650 -->
<g id="node7" class="node">
<title>p0x5afc698ec650</title>
<ellipse fill="lightblue" stroke="blue" cx="87" cy="-262" rx="18" ry="18"/>
<ellipse fill="none" stroke="blue" cx="87" cy="-262" rx="22" ry="22"/>
<text text-anchor="middle" x="87" y="-256.95" font-family="Times,serif" font-size="14.00">x</text>
</g>
<!-- p0x5afc698ec5f0&#45;&gt;p0x5afc698ec650 -->
<g id="edge6" class="edge">
<title>p0x5afc698ec5f0&#45;&gt;p0x5afc698ec650</title>
<path fill="none" stroke="gray" d="M84.7,-320.22C85.06,-311.23 85.51,-300.03 85.92,-289.93"/>
<polygon fill="gray" stroke="gray" points="87.31,-290.01 86.08,-285.96 84.52,-289.9 87.31,-290.01"/>
</g>
<!-- p0x5afc698ec680 -->
<g id="node9" class="node">
<title>p0x5afc698ec680</title>
<polygon fill="lightpink" stroke="purple" points="140,-320.5 140,-356.5 194,-356.5 194,-320.5 140,-320.5"/>
<text text-anchor="middle" x="167" y="-333.45" font-family="Times,serif" font-size="14.00">cos</text>
</g>
<!-- p0x5afc698ec740&#45;&gt;p0x5afc698ec680 -->
<g id="edge8" class="edge">
<title>p0x5afc698ec740&#45;&gt;p0x5afc698ec680</title>
<path fill="none" stroke="gray" d="M167,-393.31C167,-383.89 167,-372.11 167,-361.97"/>
<polygon fill="gray" stroke="gray" points="168.4,-362.04 167,-358.04 165.6,-362.04 168.4,-362.04"/>
</g>
<!-- p0x5afc698ec6b0 -->
<g id="node10" class="node">
<title>p0x5afc698ec6b0</title>
<polygon fill="lightpink" stroke="purple" points="140,-244 140,-280 194,-280 194,-244 140,-244"/>
<text text-anchor="middle" x="166.88" y="-256.95" font-family="Times,serif" font-size="14.00">^</text>
</g>
<!-- p0x5afc698ec680&#45;&gt;p0x5afc698ec6b0 -->
<g id="edge9" class="edge">
<title>p0x5afc698ec680&#45;&gt;p0x5afc698ec6b0</title>
<path fill="none" stroke="gray" d="M167,-320.22C167,-309.95 167,-296.81 167,-285.71"/>
<polygon fill="gray" stroke="gray" points="168.4,-285.96 167,-281.96 165.6,-285.96 168.4,-285.96"/>
</g>
<!-- p0x5afc698ec6e0 -->
<g id="node11" class="node">
<title>p0x5afc698ec6e0</title>
<ellipse fill="lightblue" stroke="blue" cx="132" cy="-182" rx="18" ry="18"/>
<ellipse fill="none" stroke="blue" cx="132" cy="-182" rx="22" ry="22"/>
<text text-anchor="middle" x="132" y="-176.95" font-family="Times,serif" font-size="14.00">x</text>
</g>
<!-- p0x5afc698ec6b0&#45;&gt;p0x5afc698ec6e0 -->
<g id="edge10" class="edge">
<title>p0x5afc698ec6b0&#45;&gt;p0x5afc698ec6e0</title>
<path fill="none" stroke="gray" d="M159.23,-243.69C154.44,-233.01 148.22,-219.14 142.93,-207.36"/>
<polygon fill="gray" stroke="gray" points="144.26,-206.91 141.35,-203.84 141.71,-208.06 144.26,-206.91"/>
</g>
<!-- p0x5afc698ec710 -->
<g id="node12" class="node">
<title>p0x5afc698ec710</title>
<ellipse fill="lightgreen" stroke="green" cx="201" cy="-182" rx="18" ry="18"/>
<text text-anchor="middle" x="201" y="-176.95" font-family="Times,serif" font-size="14.00">3</text>
</g>
<!-- p0x5afc698ec6b0&#45;&gt;p0x5afc698ec710 -->
<g id="edge11" class="edge">
<title>p0x5afc698ec6b0&#45;&gt;p0x5afc698ec710</title>
<path fill="none" stroke="gray" d="M174.55,-243.69C179.69,-231.88 186.53,-216.19 191.97,-203.71"/>
<polygon fill="gray" stroke="gray" points="193.13,-204.55 193.45,-200.32 190.57,-203.43 193.13,-204.55"/>
</g>
<!-- p0x5afc698ecad0 -->
<g id="node14" class="node">
<title>p0x5afc698ecad0</title>
<polygon fill="lightpink" stroke="purple" points="329,-466.5 329,-502.5 383,-502.5 383,-466.5 329,-466.5"/>
<text text-anchor="middle" x="355.88" y="-479.45" font-family="Times,serif" font-size="14.00">*</text>
</g>
<!-- p0x5afc698ecf80&#45;&gt;p0x5afc698ecad0 -->
<g id="edge13" class="edge">
<title>p0x5afc698ecf80&#45;&gt;p0x5afc698ecad0</title>
<path fill="none" stroke="gray" d="M356,-539.31C356,-529.89 356,-518.11 356,-507.97"/>
<polygon fill="gray" stroke="gray" points="357.4,-508.04 356,-504.04 354.6,-508.04 357.4,-508.04"/>
</g>
<!-- p0x5afc698ecf50 -->
<g id="node25" class="node">
<title>p0x5afc698ecf50</title>
<polygon fill="lightpink" stroke="purple" points="648,-466.5 648,-502.5 702,-502.5 702,-466.5 648,-466.5"/>
<text text-anchor="middle" x="674.88" y="-479.45" font-family="Times,serif" font-size="14.00">*</text>
</g>
<!-- p0x5afc698ecf80&#45;&gt;p0x5afc698ecf50 -->
<g id="edge24" class="edge">
<title>p0x5afc698ecf80&#45;&gt;p0x5afc698ecf50</title>
<path fill="none" stroke="gray" d="M383.47,-550.39C442.27,-537.3 580.05,-506.63 642.82,-492.66"/>
<polygon fill="gray" stroke="gray" points="642.85,-494.09 646.45,-491.85 642.25,-491.36 642.85,-494.09"/>
</g>
<!-- p0x5afc698ec9b0 -->
<g id="node15" class="node">
<title>p0x5afc698ec9b0</title>
<polygon fill="lightpink" stroke="purple" points="288,-393.5 288,-429.5 342,-429.5 342,-393.5 288,-393.5"/>
<text text-anchor="middle" x="314.88" y="-406.45" font-family="Times,serif" font-size="14.00">/</text>
</g>
<!-- p0x5afc698ecad0&#45;&gt;p0x5afc698ec9b0 -->
<g id="edge14" class="edge">
<title>p0x5afc698ecad0&#45;&gt;p0x5afc698ec9b0</title>
<path fill="none" stroke="gray" d="M346.08,-466.31C340.48,-456.63 333.45,-444.45 327.49,-434.13"/>
<polygon fill="gray" stroke="gray" points="328.8,-433.6 325.59,-430.84 326.38,-435 328.8,-433.6"/>
</g>
<!-- p0x5afc698ecaa0 -->
<g id="node20" class="node">
<title>p0x5afc698ecaa0</title>
<polygon fill="lightpink" stroke="purple" points="371,-393.5 371,-429.5 425,-429.5 425,-393.5 371,-393.5"/>
<text text-anchor="middle" x="397.75" y="-406.45" font-family="Times,serif" font-size="14.00">ln</text>
</g>
<!-- p0x5afc698ecad0&#45;&gt;p0x5afc698ecaa0 -->
<g id="edge19" class="edge">
<title>p0x5afc698ecad0&#45;&gt;p0x5afc698ecaa0</title>
<path fill="none" stroke="gray" d="M366.17,-466.31C371.89,-456.63 379.1,-444.45 385.21,-434.13"/>
<polygon fill="gray" stroke="gray" points="386.32,-434.99 387.16,-430.83 383.91,-433.56 386.32,-434.99"/>
</g>
<!-- p0x5afc698ed0a0 -->
<g id="node16" class="node">
<title>p0x5afc698ed0a0</title>
<ellipse fill="lightgreen" stroke="green" cx="241" cy="-338.5" rx="18" ry="18"/>
<text text-anchor="middle" x="241" y="-333.45" font-family="Times,serif" font-size="14.00">2</text>
</g>
<!-- p0x5afc698ec9b0&#45;&gt;p0x5afc698ed0a0 -->
<g id="edge15" class="edge">
<title>p0x5afc698ec9b0&#45;&gt;p0x5afc698ed0a0</title>
<path fill="none" stroke="gray" d="M297.09,-393.31C284.94,-381.66 269.02,-366.39 257.25,-355.09"/>
<polygon fill="gray" stroke="gray" points="258.37,-354.23 254.51,-352.47 256.43,-356.25 258.37,-354.23"/>
</g>
<!-- p0x5afc698ec920 -->
<g id="node17" class="node">
<title>p0x5afc698ec920</title>
<polygon fill="lightpink" stroke="purple" points="288,-320.5 288,-356.5 342,-356.5 342,-320.5 288,-320.5"/>
<text text-anchor="middle" x="314.88" y="-333.45" font-family="Times,serif" font-size="14.00">*</text>
</g>
<!-- p0x5afc698ec9b0&#45;&gt;p0x5afc698ec920 -->
<g id="edge16" class="edge">
<title>p0x5afc698ec9b0&#45;&gt;p0x5afc698ec920</title>
<path fill="none" stroke="gray" d="M315,-393.31C315,-383.89 315,-372.11 315,-361.97"/>
<polygon fill="gray" stroke="gray" points="316.4,-362.04 315,-358.04 313.6,-362.04 316.4,-362.04"/>
</g>
<!-- p0x5afc698ec950 -->
<g id="node18" class="node">
<title>p0x5afc698ec950</title>
<ellipse fill="lightgreen" stroke="green" cx="247" cy="-262" rx="18" ry="18"/>
<text text-anchor="middle" x="247" y="-256.95" font-family="Times,serif" font-size="14.00">2</text>
</g>
<!-- p0x5afc698ec920&#45;&gt;p0x5afc698ec950 -->
<g id="edge17" class="edge">
<title>p0x5afc698ec920&#45;&gt;p0x5afc698ec950</title>
<path fill="none" stroke="gray" d="M299.23,-320.22C288.09,-308.02 273.24,-291.75 262.23,-279.68"/>
<polygon fill="gray" stroke="gray" points="263.4,-278.89 259.67,-276.88 261.33,-280.78 263.4,-278.89"/>
</g>
<!-- p0x5afc698ec980 -->
<g id="node19" class="node">
<title>p0x5afc698ec980</title>
<ellipse fill="lightblue" stroke="blue" cx="316" cy="-262" rx="18" ry="18"/>
<ellipse fill="none" stroke="blue" cx="316" cy="-262" rx="22" ry="22"/>
<text text-anchor="middle" x="316" y="-256.95" font-family="Times,serif" font-size="14.00">x</text>
</g>
<!-- p0x5afc698ec920&#45;&gt;p0x5afc698ec980 -->
<g id="edge18" class="edge">
<title>p0x5afc698ec920&#45;&gt;p0x5afc698ec980</title>
<path fill="none" stroke="gray" d="M315.23,-320.22C315.35,-311.23 315.5,-300.03 315.64,-289.93"/>
<polygon fill="gray" stroke="gray" points="317.04,-289.98 315.69,-285.96 314.24,-289.94 317.04,-289.98"/>
</g>
<!-- p0x5afc698ec9e0 -->
<g id="node21" class="node">
<title>p0x5afc698ec9e0</title>
<polygon fill="lightpink" stroke="purple" points="371,-320.5 371,-356.5 425,-356.5 425,-320.5 371,-320.5"/>
<text text-anchor="middle" x="398" y="-333.45" font-family="Times,serif" font-size="14.00">cos</text>
</g>
<!-- p0x5afc698ecaa0&#45;&gt;p0x5afc698ec9e0 -->
<g id="edge20" class="edge">
<title>p0x5afc698ecaa0&#45;&gt;p0x5afc698ec9e0</title>
<path fill="none" stroke="gray" d="M398,-393.31C398,-383.89 398,-372.11 398,-361.97"/>
<polygon fill="gray" stroke="gray" points="399.4,-362.04 398,-358.04 396.6,-362.04 399.4,-362.04"/>
</g>
<!-- p0x5afc698eca10 -->
<g id="node22" class="node">
<title>p0x5afc698eca10</title>
<polygon fill="lightpink" stroke="purple" points="369,-244 369,-280 423,-280 423,-244 369,-244"/>
<text text-anchor="middle" x="395.88" y="-256.95" font-family="Times,serif" font-size="14.00">^</text>
</g>
<!-- p0x5afc698ec9e0&#45;&gt;p0x5afc698eca10 -->
<g id="edge21" class="edge">
<title>p0x5afc698ec9e0&#45;&gt;p0x5afc698eca10</title>
<path fill="none" stroke="gray" d="M397.54,-320.22C397.26,-309.95 396.91,-296.81 396.61,-285.71"/>
<polygon fill="gray" stroke="gray" points="398.02,-285.92 396.51,-281.96 395.22,-285.99 398.02,-285.92"/>
</g>
<!-- p0x5afc698eca40 -->
<g id="node23" class="node">
<title>p0x5afc698eca40</title>
<ellipse fill="lightblue" stroke="blue" cx="327" cy="-182" rx="18" ry="18"/>
<ellipse fill="none" stroke="blue" cx="327" cy="-182" rx="22" ry="22"/>
<text text-anchor="middle" x="327" y="-176.95" font-family="Times,serif" font-size="14.00">x</text>
</g>
<!-- p0x5afc698eca10&#45;&gt;p0x5afc698eca40 -->
<g id="edge22" class="edge">
<title>p0x5afc698eca10&#45;&gt;p0x5afc698eca40</title>
<path fill="none" stroke="gray" d="M380.69,-243.69C370.13,-231.75 356.05,-215.84 344.97,-203.31"/>
<polygon fill="gray" stroke="gray" points="346.03,-202.4 342.33,-200.33 343.93,-204.25 346.03,-202.4"/>
</g>
<!-- p0x5afc698eca70 -->
<g id="node24" class="node">
<title>p0x5afc698eca70</title>
<ellipse fill="lightgreen" stroke="green" cx="396" cy="-182" rx="18" ry="18"/>
<text text-anchor="middle" x="396" y="-176.95" font-family="Times,serif" font-size="14.00">3</text>
</g>
<!-- p0x5afc698eca10&#45;&gt;p0x5afc698eca70 -->
<g id="edge23" class="edge">
<title>p0x5afc698eca10&#45;&gt;p0x5afc698eca70</title>
<path fill="none" stroke="gray" d="M396,-243.69C396,-232.48 396,-217.77 396,-205.63"/>
<polygon fill="gray" stroke="gray" points="397.4,-205.78 396,-201.78 394.6,-205.78 397.4,-205.78"/>
</g>
<!-- p0x5afc698ece60 -->
<g id="node26" class="node">
<title>p0x5afc698ece60</title>
<polygon fill="lightpink" stroke="purple" points="648,-393.5 648,-429.5 702,-429.5 702,-393.5 648,-393.5"/>
<text text-anchor="middle" x="674.88" y="-406.45" font-family="Times,serif" font-size="14.00">/</text>
</g>
<!-- p0x5afc698ecf50&#45;&gt;p0x5afc698ece60 -->
<g id="edge25" class="edge">
<title>p0x5afc698ecf50&#45;&gt;p0x5afc698ece60</title>
<path fill="none" stroke="gray" d="M675,-466.31C675,-456.89 675,-445.11 675,-434.97"/>
<polygon fill="gray" stroke="gray" points="676.4,-435.04 675,-431.04 673.6,-435.04 676.4,-435.04"/>
</g>
<!-- p0x5afc698ece90 -->
<g id="node43" class="node">
<title>p0x5afc698ece90</title>
<polygon fill="lightpink" stroke="purple" points="772,-393.5 772,-429.5 826,-429.5 826,-393.5 772,-393.5"/>
<text text-anchor="middle" x="798.75" y="-406.45" font-family="Times,serif" font-size="14.00">ln</text>
</g>
<!-- p0x5afc698ecf50&#45;&gt;p0x5afc698ece90 -->
<g id="edge42" class="edge">
<title>p0x5afc698ecf50&#45;&gt;p0x5afc698ece90</title>
<path fill="none" stroke="gray" d="M702.21,-467.92C721.35,-456.96 747.03,-442.26 767.13,-430.75"/>
<polygon fill="gray" stroke="gray" points="767.76,-432 770.54,-428.8 766.37,-429.57 767.76,-432"/>
</g>
<!-- p0x5afc698ecd70 -->
<g id="node27" class="node">
<title>p0x5afc698ecd70</title>
<polygon fill="lightpink" stroke="purple" points="617,-320.5 617,-356.5 671,-356.5 671,-320.5 617,-320.5"/>
<text text-anchor="middle" x="643.88" y="-333.45" font-family="Times,serif" font-size="14.00">*</text>
</g>
<!-- p0x5afc698ece60&#45;&gt;p0x5afc698ecd70 -->
<g id="edge26" class="edge">
<title>p0x5afc698ece60&#45;&gt;p0x5afc698ecd70</title>
<path fill="none" stroke="gray" d="M667.5,-393.31C663.31,-383.72 658.05,-371.67 653.56,-361.41"/>
<polygon fill="gray" stroke="gray" points="654.92,-361.02 652.04,-357.92 652.36,-362.14 654.92,-361.02"/>
</g>
<!-- p0x5afc698ecda0 -->
<g id="node39" class="node">
<title>p0x5afc698ecda0</title>
<polygon fill="lightpink" stroke="purple" points="713,-320.5 713,-356.5 767,-356.5 767,-320.5 713,-320.5"/>
<text text-anchor="middle" x="740" y="-333.45" font-family="Times,serif" font-size="14.00">cos</text>
</g>
<!-- p0x5afc698ece60&#45;&gt;p0x5afc698ecda0 -->
<g id="edge38" class="edge">
<title>p0x5afc698ece60&#45;&gt;p0x5afc698ecda0</title>
<path fill="none" stroke="gray" d="M690.73,-393.31C699.76,-383.46 711.15,-371.01 720.71,-360.57"/>
<polygon fill="gray" stroke="gray" points="721.72,-361.54 723.39,-357.65 719.65,-359.65 721.72,-361.54"/>
</g>
<!-- p0x5afc698ed040 -->
<g id="node28" class="node">
<title>p0x5afc698ed040</title>
<polygon fill="lightpink" stroke="purple" points="508,-244 508,-280 562,-280 562,-244 508,-244"/>
<text text-anchor="middle" x="534.88" y="-256.95" font-family="Times,serif" font-size="14.00">*</text>
</g>
<!-- p0x5afc698ecd70&#45;&gt;p0x5afc698ed040 -->
<g id="edge27" class="edge">
<title>p0x5afc698ecd70&#45;&gt;p0x5afc698ed040</title>
<path fill="none" stroke="gray" d="M618.44,-320.03C602.32,-309.01 581.43,-294.73 564.59,-283.22"/>
<polygon fill="gray" stroke="gray" points="565.74,-282.31 561.65,-281.21 564.16,-284.62 565.74,-282.31"/>
</g>
<!-- p0x5afc698ecd40 -->
<g id="node33" class="node">
<title>p0x5afc698ecd40</title>
<polygon fill="lightpink" stroke="purple" points="617,-244 617,-280 671,-280 671,-244 617,-244"/>
<text text-anchor="middle" x="643.88" y="-256.95" font-family="Times,serif" font-size="14.00">*</text>
</g>
<!-- p0x5afc698ecd70&#45;&gt;p0x5afc698ecd40 -->
<g id="edge32" class="edge">
<title>p0x5afc698ecd70&#45;&gt;p0x5afc698ecd40</title>
<path fill="none" stroke="gray" d="M644,-320.22C644,-309.95 644,-296.81 644,-285.71"/>
<polygon fill="gray" stroke="gray" points="645.4,-285.96 644,-281.96 642.6,-285.96 645.4,-285.96"/>
</g>
<!-- p0x5afc698ecfe0 -->
<g id="node29" class="node">
<title>p0x5afc698ecfe0</title>
<ellipse fill="lightgreen" stroke="green" cx="461" cy="-182" rx="18" ry="18"/>
<text text-anchor="middle" x="461" y="-176.95" font-family="Times,serif" font-size="14.00">3</text>
</g>
<!-- p0x5afc698ed040&#45;&gt;p0x5afc698ecfe0 -->
<g id="edge28" class="edge">
<title>p0x5afc698ed040&#45;&gt;p0x5afc698ecfe0</title>
<path fill="none" stroke="gray" d="M518.58,-243.69C506.07,-230.51 488.98,-212.49 476.66,-199.51"/>
<polygon fill="gray" stroke="gray" points="477.82,-198.69 474.05,-196.75 475.79,-200.62 477.82,-198.69"/>
</g>
<!-- p0x5afc698ed0d0 -->
<g id="node30" class="node">
<title>p0x5afc698ed0d0</title>
<polygon fill="lightpink" stroke="purple" points="508,-164 508,-200 562,-200 562,-164 508,-164"/>
<text text-anchor="middle" x="534.88" y="-176.95" font-family="Times,serif" font-size="14.00">^</text>
</g>
<!-- p0x5afc698ed040&#45;&gt;p0x5afc698ed0d0 -->
<g id="edge29" class="edge">
<title>p0x5afc698ed040&#45;&gt;p0x5afc698ed0d0</title>
<path fill="none" stroke="gray" d="M535,-243.69C535,-232.48 535,-217.77 535,-205.63"/>
<polygon fill="gray" stroke="gray" points="536.4,-205.78 535,-201.78 533.6,-205.78 536.4,-205.78"/>
</g>
<!-- p0x5afc698ed100 -->
<g id="node31" class="node">
<title>p0x5afc698ed100</title>
<ellipse fill="lightblue" stroke="blue" cx="500" cy="-102" rx="18" ry="18"/>
<ellipse fill="none" stroke="blue" cx="500" cy="-102" rx="22" ry="22"/>
<text text-anchor="middle" x="500" y="-96.95" font-family="Times,serif" font-size="14.00">x</text>
</g>
<!-- p0x5afc698ed0d0&#45;&gt;p0x5afc698ed100 -->
<g id="edge30" class="edge">
<title>p0x5afc698ed0d0&#45;&gt;p0x5afc698ed100</title>
<path fill="none" stroke="gray" d="M527.23,-163.69C522.44,-153.01 516.22,-139.14 510.93,-127.36"/>
<polygon fill="gray" stroke="gray" points="512.26,-126.91 509.35,-123.84 509.71,-128.06 512.26,-126.91"/>
</g>
<!-- p0x5afc698ed130 -->
<g id="node32" class="node">
<title>p0x5afc698ed130</title>
<ellipse fill="lightgreen" stroke="green" cx="569" cy="-102" rx="18" ry="18"/>
<text text-anchor="middle" x="569" y="-96.95" font-family="Times,serif" font-size="14.00">2</text>
</g>
<!-- p0x5afc698ed0d0&#45;&gt;p0x5afc698ed130 -->
<g id="edge31" class="edge">
<title>p0x5afc698ed0d0&#45;&gt;p0x5afc698ed130</title>
<path fill="none" stroke="gray" d="M542.55,-163.69C547.69,-151.88 554.53,-136.19 559.97,-123.71"/>
<polygon fill="gray" stroke="gray" points="561.13,-124.55 561.45,-120.32 558.57,-123.43 561.13,-124.55"/>
</g>
<!-- p0x5afc698ecc50 -->
<g id="node34" class="node">
<title>p0x5afc698ecc50</title>
<ellipse fill="lightgreen" stroke="green" cx="610" cy="-182" rx="18.6" ry="18.6"/>
<text text-anchor="middle" x="610" y="-176.95" font-family="Times,serif" font-size="14.00">&#45;1</text>
</g>
<!-- p0x5afc698ecd40&#45;&gt;p0x5afc698ecc50 -->
<g id="edge33" class="edge">
<title>p0x5afc698ecd40&#45;&gt;p0x5afc698ecc50</title>
<path fill="none" stroke="gray" d="M636.45,-243.69C631.38,-232.04 624.65,-216.61 619.25,-204.22"/>
<polygon fill="gray" stroke="gray" points="620.66,-203.96 617.78,-200.85 618.1,-205.08 620.66,-203.96"/>
</g>
<!-- p0x5afc698ecd10 -->
<g id="node35" class="node">
<title>p0x5afc698ecd10</title>
<polygon fill="lightpink" stroke="purple" points="658,-164 658,-200 712,-200 712,-164 658,-164"/>
<text text-anchor="middle" x="684.88" y="-176.95" font-family="Times,serif" font-size="14.00">sin</text>
</g>
<!-- p0x5afc698ecd40&#45;&gt;p0x5afc698ecd10 -->
<g id="edge34" class="edge">
<title>p0x5afc698ecd40&#45;&gt;p0x5afc698ecd10</title>
<path fill="none" stroke="gray" d="M653.1,-243.69C659.1,-232.28 667,-217.23 673.45,-204.98"/>
<polygon fill="gray" stroke="gray" points="674.6,-205.79 675.22,-201.6 672.12,-204.49 674.6,-205.79"/>
</g>
<!-- p0x5afc698ecc80 -->
<g id="node36" class="node">
<title>p0x5afc698ecc80</title>
<polygon fill="lightpink" stroke="purple" points="658,-84 658,-120 712,-120 712,-84 658,-84"/>
<text text-anchor="middle" x="684.88" y="-96.95" font-family="Times,serif" font-size="14.00">^</text>
</g>
<!-- p0x5afc698ecd10&#45;&gt;p0x5afc698ecc80 -->
<g id="edge35" class="edge">
<title>p0x5afc698ecd10&#45;&gt;p0x5afc698ecc80</title>
<path fill="none" stroke="gray" d="M685,-163.69C685,-152.48 685,-137.77 685,-125.63"/>
<polygon fill="gray" stroke="gray" points="686.4,-125.78 685,-121.78 683.6,-125.78 686.4,-125.78"/>
</g>
<!-- p0x5afc698eccb0 -->
<g id="node37" class="node">
<title>p0x5afc698eccb0</title>
<ellipse fill="lightblue" stroke="blue" cx="650" cy="-22" rx="18" ry="18"/>
<ellipse fill="none" stroke="blue" cx="650" cy="-22" rx="22" ry="22"/>
<text text-anchor="middle" x="650" y="-16.95" font-family="Times,serif" font-size="14.00">x</text>
</g>
<!-- p0x5afc698ecc80&#45;&gt;p0x5afc698eccb0 -->
<g id="edge36" class="edge">
<title>p0x5afc698ecc80&#45;&gt;p0x5afc698eccb0</title>
<path fill="none" stroke="gray" d="M677.23,-83.69C672.44,-73.01 666.22,-59.14 660.93,-47.36"/>
<polygon fill="gray" stroke="gray" points="662.26,-46.91 659.35,-43.84 659.71,-48.06 662.26,-46.91"/>
</g>
<!-- p0x5afc698ecce0 -->
<g id="node38" class="node">
<title>p0x5afc698ecce0</title>
<ellipse fill="lightgreen" stroke="green" cx="719" cy="-22" rx="18" ry="18"/>
<text text-anchor="middle" x="719" y="-16.95" font-family="Times,serif" font-size="14.00">3</text>
</g>
<!-- p0x5afc698ecc80&#45;&gt;p0x5afc698ecce0 -->
<g id="edge37" class="edge">
<title>p0x5afc698ecc80&#45;&gt;p0x5afc698ecce0</title>
<path fill="none" stroke="gray" d="M692.55,-83.69C697.69,-71.88 704.53,-56.19 709.97,-43.71"/>
<polygon fill="gray" stroke="gray" points="711.13,-44.55 711.45,-40.32 708.57,-43.43 711.13,-44.55"/>
</g>
<!-- p0x5afc698ecdd0 -->
<g id="node40" class="node">
<title>p0x5afc698ecdd0</title>
<polygon fill="lightpink" stroke="purple" points="729,-244 729,-280 783,-280 783,-244 729,-244"/>
<text text-anchor="middle" x="755.88" y="-256.95" font-family="Times,serif" font-size="14.00">^</text>
</g>
<!-- p0x5afc698ecda0&#45;&gt;p0x5afc698ecdd0 -->
<g id="edge39" class="edge">
<title>p0x5afc698ecda0&#45;&gt;p0x5afc698ecdd0</title>
<path fill="none" stroke="gray" d="M743.71,-320.22C745.92,-309.95 748.74,-296.81 751.12,-285.71"/>
<polygon fill="gray" stroke="gray" points="752.46,-286.13 751.94,-281.92 749.73,-285.54 752.46,-286.13"/>
</g>
<!-- p0x5afc698ece00 -->
<g id="node41" class="node">
<title>p0x5afc698ece00</title>
<ellipse fill="lightblue" stroke="blue" cx="763" cy="-182" rx="18" ry="18"/>
<ellipse fill="none" stroke="blue" cx="763" cy="-182" rx="22" ry="22"/>
<text text-anchor="middle" x="763" y="-176.95" font-family="Times,serif" font-size="14.00">x</text>
</g>
<!-- p0x5afc698ecdd0&#45;&gt;p0x5afc698ece00 -->
<g id="edge40" class="edge">
<title>p0x5afc698ecdd0&#45;&gt;p0x5afc698ece00</title>
<path fill="none" stroke="gray" d="M757.55,-243.69C758.45,-233.66 759.61,-220.83 760.62,-209.55"/>
<polygon fill="gray" stroke="gray" points="762,-209.77 760.97,-205.66 759.21,-209.52 762,-209.77"/>
</g>
<!-- p0x5afc698ece30 -->
<g id="node42" class="node">
<title>p0x5afc698ece30</title>
<ellipse fill="lightgreen" stroke="green" cx="832" cy="-182" rx="18" ry="18"/>
<text text-anchor="middle" x="832" y="-176.95" font-family="Times,serif" font-size="14.00">3</text>
</g>
<!-- p0x5afc698ecdd0&#45;&gt;p0x5afc698ece30 -->
<g id="edge41" class="edge">
<title>p0x5afc698ecdd0&#45;&gt;p0x5afc698ece30</title>
<path fill="none" stroke="gray" d="M772.87,-243.69C785.71,-230.51 803.27,-212.49 815.91,-199.51"/>
<polygon fill="gray" stroke="gray" points="816.82,-200.58 818.61,-196.74 814.82,-198.63 816.82,-200.58"/>
</g>
<!-- p0x5afc698ecec0 -->
<g id="node44" class="node">
<title>p0x5afc698ecec0</title>
<polygon fill="lightpink" stroke="purple" points="803,-320.5 803,-356.5 857,-356.5 857,-320.5 803,-320.5"/>
<text text-anchor="middle" x="829.88" y="-333.45" font-family="Times,serif" font-size="14.00">*</text>
</g>
<!-- p0x5afc698ece90&#45;&gt;p0x5afc698ecec0 -->
<g id="edge43" class="edge">
<title>p0x5afc698ece90&#45;&gt;p0x5afc698ecec0</title>
<path fill="none" stroke="gray" d="M806.5,-393.31C810.69,-383.72 815.95,-371.67 820.44,-361.41"/>
<polygon fill="gray" stroke="gray" points="821.64,-362.14 821.96,-357.92 819.08,-361.02 821.64,-362.14"/>
</g>
<!-- p0x5afc698ecef0 -->
<g id="node45" class="node">
<title>p0x5afc698ecef0</title>
<ellipse fill="lightgreen" stroke="green" cx="830" cy="-262" rx="18" ry="18"/>
<text text-anchor="middle" x="830" y="-256.95" font-family="Times,serif" font-size="14.00">2</text>
</g>
<!-- p0x5afc698ecec0&#45;&gt;p0x5afc698ecef0 -->
<g id="edge44" class="edge">
<title>p0x5afc698ecec0&#45;&gt;p0x5afc698ecef0</title>
<path fill="none" stroke="gray" d="M830,-320.22C830,-309.95 830,-296.81 830,-285.71"/>
<polygon fill="gray" stroke="gray" points="831.4,-285.96 830,-281.96 828.6,-285.96 831.4,-285.96"/>
</g>
<!-- p0x5afc698ecf20 -->
<g id="node46" class="node">
<title>p0x5afc698ecf20</title>
<ellipse fill="lightblue" stroke="blue" cx="899" cy="-262" rx="18" ry="18"/>
<ellipse fill="none" stroke="blue" cx="899" cy="-262" rx="22" ry="22"/>
<text text-anchor="middle" x="899" y="-256.95" font-family="Times,serif" font-size="14.00">x</text>
</g>
<!-- p0x5afc698ecec0&#45;&gt;p0x5afc698ecf20 -->
<g id="edge45" class="edge">
<title>p0x5afc698ecec0&#45;&gt;p0x5afc698ecf20</title>
<path fill="none" stroke="gray" d="M846,-320.22C856.45,-308.94 870.1,-294.2 880.94,-282.5"/>
<polygon fill="gray" stroke="gray" points="881.77,-283.66 883.46,-279.77 879.72,-281.76 881.77,-283.66"/>
</g>
</g>
</svg>
