<?xml version="1.0" encoding="UTF-8" standalone="no"?>
<!DOCTYPE svg PUBLIC "-//W3C//DTD SVG 1.1//EN"
 "http://www.w3.org/Graphics/SVG/1.1/DTD/svg11.dtd">
<!-- Generated by graphviz version 12.1.2 (0)
 -->
<!-- Title: diffTree Pages: 1 -->
<svg width="451pt" height="535pt"
 viewBox="0.00 0.00 451.12 535.23" xmlns="http://www.w3.org/2000/svg" xmlns:xlink="http://www.w3.org/1999/xlink">
<g id="graph0" class="graph" transform="scale(1 1) rotate(0) translate(4 531.23)">
<title>diffTree</title>
<polygon fill="white" stroke="none" points="-4,4 -4,-531.23 447.12,-531.23 447.12,4 -4,4"/>
<!-- p0x576739b234a0 -->
<g id="node1" class="node">
<title>p0x576739b234a0</title>
<polygon fill="lightpink" stroke="purple" points="117,-490.73 117,-526.73 171,-526.73 171,-490.73 117,-490.73"/>
<text text-anchor="middle" x="143.62" y="-503.68" font-family="Times,serif" font-size="14.00">+</text>
</g>
<!-- p0x576739b23090 -->
<g id="node2" class="node">
<title>p0x576739b23090</title>
<polygon fill="lightpink" stroke="purple" points="76,-417.73 76,-453.73 130,-453.73 130,-417.73 76,-417.73"/>
<text text-anchor="middle" x="102.88" y="-430.68" font-family="Times,serif" font-size="14.00">sin</text>
</g>
<!-- p0x576739b234a0&#45;&gt;p0x576739b23090 -->
<g id="edge1" class="edge">
<title>p0x576739b234a0&#45;&gt;p0x576739b23090</title>
<path fill="none" stroke="gray" d="M134.08,-490.54C128.48,-480.86 121.45,-468.68 115.49,-458.36"/>
<polygon fill="gray" stroke="gray" points="116.8,-457.83 113.59,-455.07 114.38,-459.23 116.8,-457.83"/>
</g>
<!-- p0x576739b23470 -->
<g id="node6" class="node">
<title>p0x576739b23470</title>
<polygon fill="lightpink" stroke="purple" points="183,-417.73 183,-453.73 237,-453.73 237,-417.73 183,-417.73"/>
<text text-anchor="middle" x="209.62" y="-430.68" font-family="Times,serif" font-size="14.00">+</text>
</g>
<!-- p0x576739b234a0&#45;&gt;p0x576739b23470 -->
<g id="edge5" class="edge">
<title>p0x576739b234a0&#45;&gt;p0x576739b23470</title>
<path fill="none" stroke="gray" d="M159.98,-490.54C169.22,-480.6 180.91,-468.02 190.67,-457.52"/>
<polygon fill="gray" stroke="gray" points="191.44,-458.75 193.14,-454.87 189.39,-456.84 191.44,-458.75"/>
</g>
<!-- p0x576739b23060 -->
<g id="node3" class="node">
<title>p0x576739b23060</title>
<polygon fill="lightpink" stroke="purple" points="64,-344.73 64,-380.73 118,-380.73 118,-344.73 64,-344.73"/>
<text text-anchor="middle" x="90.88" y="-357.68" font-family="Times,serif" font-size="14.00">^</text>
</g>
<!-- p0x576739b23090&#45;&gt;p0x576739b23060 -->
<g id="edge2" class="edge">
<title>p0x576739b23090&#45;&gt;p0x576739b23060</title>
<path fill="none" stroke="gray" d="M100.1,-417.54C98.49,-408.04 96.47,-396.12 94.75,-385.92"/>
<polygon fill="gray" stroke="gray" points="96.18,-385.96 94.13,-382.25 93.42,-386.43 96.18,-385.96"/>
</g>
<!-- p0x576739b22fc0 -->
<g id="node4" class="node">
<title>p0x576739b22fc0</title>
<ellipse fill="lightblue" stroke="blue" cx="22" cy="-267.12" rx="18" ry="18"/>
<ellipse fill="none" stroke="blue" cx="22" cy="-267.12" rx="22" ry="22"/>
<text text-anchor="middle" x="22" y="-262.07" font-family="Times,serif" font-size="14.00">x</text>
</g>
<!-- p0x576739b23060&#45;&gt;p0x576739b22fc0 -->
<g id="edge3" class="edge">
<title>p0x576739b23060&#45;&gt;p0x576739b22fc0</title>
<path fill="none" stroke="gray" d="M78.34,-344.56C66.94,-329.09 50.12,-306.27 37.83,-289.59"/>
<polygon fill="gray" stroke="gray" points="39.21,-289.1 35.71,-286.71 36.95,-290.76 39.21,-289.1"/>
</g>
<!-- p0x576739b23030 -->
<g id="node5" class="node">
<title>p0x576739b23030</title>
<ellipse fill="lightgreen" stroke="green" cx="91" cy="-267.12" rx="18" ry="18"/>
<text text-anchor="middle" x="91" y="-262.07" font-family="Times,serif" font-size="14.00">5</text>
</g>
<!-- p0x576739b23060&#45;&gt;p0x576739b23030 -->
<g id="edge4" class="edge">
<title>p0x576739b23060&#45;&gt;p0x576739b23030</title>
<path fill="none" stroke="gray" d="M91,-344.56C91,-329.48 91,-307.43 91,-290.88"/>
<polygon fill="gray" stroke="gray" points="92.4,-291.01 91,-287.01 89.6,-291.01 92.4,-291.01"/>
</g>
<!-- p0x576739b231a0 -->
<g id="node7" class="node">
<title>p0x576739b231a0</title>
<polygon fill="lightpink" stroke="purple" points="183,-344.73 183,-380.73 237,-380.73 237,-344.73 183,-344.73"/>
<text text-anchor="middle" x="209.88" y="-357.68" font-family="Times,serif" font-size="14.00">*</text>
</g>
<!-- p0x576739b23470&#45;&gt;p0x576739b231a0 -->
<g id="edge6" class="edge">
<title>p0x576739b23470&#45;&gt;p0x576739b231a0</title>
<path fill="none" stroke="gray" d="M210,-417.54C210,-408.12 210,-396.34 210,-386.2"/>
<polygon fill="gray" stroke="gray" points="211.4,-386.27 210,-382.27 208.6,-386.27 211.4,-386.27"/>
</g>
<!-- p0x576739b23440 -->
<g id="node10" class="node">
<title>p0x576739b23440</title>
<polygon fill="lightpink" stroke="purple" points="278,-344.73 278,-380.73 332,-380.73 332,-344.73 278,-344.73"/>
<text text-anchor="middle" x="304.75" y="-357.68" font-family="Times,serif" font-size="14.00">&#45;</text>
</g>
<!-- p0x576739b23470&#45;&gt;p0x576739b23440 -->
<g id="edge9" class="edge">
<title>p0x576739b23470&#45;&gt;p0x576739b23440</title>
<path fill="none" stroke="gray" d="M233,-417.54C246.43,-407.5 263.47,-394.77 277.6,-384.21"/>
<polygon fill="gray" stroke="gray" points="278.31,-385.43 280.67,-381.91 276.63,-383.18 278.31,-385.43"/>
</g>
<!-- p0x576739b23100 -->
<g id="node8" class="node">
<title>p0x576739b23100</title>
<ellipse fill="lightgreen" stroke="green" cx="157" cy="-267.12" rx="18.6" ry="18.6"/>
<text text-anchor="middle" x="157" y="-262.07" font-family="Times,serif" font-size="14.00">&#45;1</text>
</g>
<!-- p0x576739b231a0&#45;&gt;p0x576739b23100 -->
<g id="edge7" class="edge">
<title>p0x576739b231a0&#45;&gt;p0x576739b23100</title>
<path fill="none" stroke="gray" d="M200.28,-344.56C191.32,-328.73 178.01,-305.23 168.52,-288.47"/>
<polygon fill="gray" stroke="gray" points="169.89,-288.04 166.7,-285.25 167.45,-289.42 169.89,-288.04"/>
</g>
<!-- p0x576739b23170 -->
<g id="node9" class="node">
<title>p0x576739b23170</title>
<ellipse fill="lightblue" stroke="blue" cx="227" cy="-267.12" rx="18" ry="18"/>
<ellipse fill="none" stroke="blue" cx="227" cy="-267.12" rx="22" ry="22"/>
<text text-anchor="middle" x="227" y="-262.07" font-family="Times,serif" font-size="14.00">x</text>
</g>
<!-- p0x576739b231a0&#45;&gt;p0x576739b23170 -->
<g id="edge8" class="edge">
<title>p0x576739b231a0&#45;&gt;p0x576739b23170</title>
<path fill="none" stroke="gray" d="M213.12,-344.56C215.67,-330.52 219.31,-310.44 222.23,-294.39"/>
<polygon fill="gray" stroke="gray" points="223.58,-294.78 222.92,-290.6 220.82,-294.28 223.58,-294.78"/>
</g>
<!-- p0x576739b23350 -->
<g id="node11" class="node">
<title>p0x576739b23350</title>
<polygon fill="lightpink" stroke="purple" points="278,-249.12 278,-285.12 332,-285.12 332,-249.12 278,-249.12"/>
<text text-anchor="middle" x="304.88" y="-262.07" font-family="Times,serif" font-size="14.00">sin</text>
</g>
<!-- p0x576739b23440&#45;&gt;p0x576739b23350 -->
<g id="edge10" class="edge">
<title>p0x576739b23440&#45;&gt;p0x576739b23350</title>
<path fill="none" stroke="gray" d="M305,-344.56C305,-329.48 305,-307.43 305,-290.88"/>
<polygon fill="gray" stroke="gray" points="306.4,-291.01 305,-287.01 303.6,-291.01 306.4,-291.01"/>
</g>
<!-- p0x576739b25630 -->
<g id="node16" class="node">
<title>p0x576739b25630</title>
<ellipse fill="lightgreen" stroke="green" cx="402" cy="-267.12" rx="41.12" ry="41.12"/>
<text text-anchor="middle" x="402" y="-262.07" font-family="Times,serif" font-size="14.00">7.38906</text>
</g>
<!-- p0x576739b23440&#45;&gt;p0x576739b25630 -->
<g id="edge15" class="edge">
<title>p0x576739b23440&#45;&gt;p0x576739b25630</title>
<path fill="none" stroke="gray" d="M322.79,-344.56C335.7,-332.1 353.54,-314.89 369.02,-299.95"/>
<polygon fill="gray" stroke="gray" points="369.9,-301.04 371.81,-297.25 367.96,-299.02 369.9,-301.04"/>
</g>
<!-- p0x576739b23320 -->
<g id="node12" class="node">
<title>p0x576739b23320</title>
<polygon fill="lightpink" stroke="purple" points="278,-153.5 278,-189.5 332,-189.5 332,-153.5 278,-153.5"/>
<text text-anchor="middle" x="304.75" y="-166.45" font-family="Times,serif" font-size="14.00">ln</text>
</g>
<!-- p0x576739b23350&#45;&gt;p0x576739b23320 -->
<g id="edge11" class="edge">
<title>p0x576739b23350&#45;&gt;p0x576739b23320</title>
<path fill="none" stroke="gray" d="M305,-248.94C305,-233.86 305,-211.81 305,-195.26"/>
<polygon fill="gray" stroke="gray" points="306.4,-195.39 305,-191.39 303.6,-195.39 306.4,-195.39"/>
</g>
<!-- p0x576739b232f0 -->
<g id="node13" class="node">
<title>p0x576739b232f0</title>
<polygon fill="lightpink" stroke="purple" points="278,-80.5 278,-116.5 332,-116.5 332,-80.5 278,-80.5"/>
<text text-anchor="middle" x="304.88" y="-93.45" font-family="Times,serif" font-size="14.00">^</text>
</g>
<!-- p0x576739b23320&#45;&gt;p0x576739b232f0 -->
<g id="edge12" class="edge">
<title>p0x576739b23320&#45;&gt;p0x576739b232f0</title>
<path fill="none" stroke="gray" d="M305,-153.31C305,-143.89 305,-132.11 305,-121.97"/>
<polygon fill="gray" stroke="gray" points="306.4,-122.04 305,-118.04 303.6,-122.04 306.4,-122.04"/>
</g>
<!-- p0x576739b23250 -->
<g id="node14" class="node">
<title>p0x576739b23250</title>
<ellipse fill="lightblue" stroke="blue" cx="271" cy="-22" rx="18" ry="18"/>
<ellipse fill="none" stroke="blue" cx="271" cy="-22" rx="22" ry="22"/>
<text text-anchor="middle" x="271" y="-16.95" font-family="Times,serif" font-size="14.00">x</text>
</g>
<!-- p0x576739b232f0&#45;&gt;p0x576739b23250 -->
<g id="edge13" class="edge">
<title>p0x576739b232f0&#45;&gt;p0x576739b23250</title>
<path fill="none" stroke="gray" d="M297.11,-80.22C292.66,-70.45 287.01,-58.09 282.11,-47.35"/>
<polygon fill="gray" stroke="gray" points="283.48,-46.98 280.55,-43.93 280.94,-48.15 283.48,-46.98"/>
</g>
<!-- p0x576739b232c0 -->
<g id="node15" class="node">
<title>p0x576739b232c0</title>
<ellipse fill="lightgreen" stroke="green" cx="340" cy="-22" rx="18" ry="18"/>
<text text-anchor="middle" x="340" y="-16.95" font-family="Times,serif" font-size="14.00">3</text>
</g>
<!-- p0x576739b232f0&#45;&gt;p0x576739b232c0 -->
<g id="edge14" class="edge">
<title>p0x576739b232f0&#45;&gt;p0x576739b232c0</title>
<path fill="none" stroke="gray" d="M313.12,-80.22C318.28,-69.24 324.98,-54.97 330.4,-43.43"/>
<polygon fill="gray" stroke="gray" points="331.56,-44.25 332,-40.03 329.03,-43.06 331.56,-44.25"/>
</g>
</g>
</svg>
