<?xml version="1.0" encoding="UTF-8" standalone="no"?>
<!DOCTYPE svg PUBLIC "-//W3C//DTD SVG 1.1//EN"
 "http://www.w3.org/Graphics/SVG/1.1/DTD/svg11.dtd">
<!-- Generated by graphviz version 12.1.2 (0)
 -->
<!-- Title: diffTree Pages: 1 -->
<svg width="62pt" height="198pt"
 viewBox="0.00 0.00 62.00 198.00" xmlns="http://www.w3.org/2000/svg" xmlns:xlink="http://www.w3.org/1999/xlink">
<g id="graph0" class="graph" transform="scale(1 1) rotate(0) translate(4 194)">
<title>diffTree</title>
<polygon fill="white" stroke="none" points="-4,4 -4,-194 58,-194 58,4 -4,4"/>
<!-- p0x60dad0d204e0 -->
<g id="node1" class="node">
<title>p0x60dad0d204e0</title>
<polygon fill="lightpink" stroke="purple" points="0,-153.5 0,-189.5 54,-189.5 54,-153.5 0,-153.5"/>
<text text-anchor="middle" x="27" y="-166.45" font-family="Times,serif" font-size="14.00">cos</text>
</g>
<!-- p0x60dad0d204b0 -->
<g id="node2" class="node">
<title>p0x60dad0d204b0</title>
<polygon fill="lightpink" stroke="purple" points="0,-80.5 0,-116.5 54,-116.5 54,-80.5 0,-80.5"/>
<text text-anchor="middle" x="26.75" y="-93.45" font-family="Times,serif" font-size="14.00">ln</text>
</g>
<!-- p0x60dad0d204e0&#45;&gt;p0x60dad0d204b0 -->
<g id="edge1" class="edge">
<title>p0x60dad0d204e0&#45;&gt;p0x60dad0d204b0</title>
<path fill="none" stroke="gray" d="M27,-153.31C27,-143.89 27,-132.11 27,-121.97"/>
<polygon fill="gray" stroke="gray" points="28.4,-122.04 27,-118.04 25.6,-122.04 28.4,-122.04"/>
</g>
<!-- p0x60dad0d20480 -->
<g id="node3" class="node">
<title>p0x60dad0d20480</title>
<ellipse fill="lightblue" stroke="blue" cx="27" cy="-22" rx="18" ry="18"/>
<ellipse fill="none" stroke="blue" cx="27" cy="-22" rx="22" ry="22"/>
<text text-anchor="middle" x="27" y="-16.95" font-family="Times,serif" font-size="14.00">x</text>
</g>
<!-- p0x60dad0d204b0&#45;&gt;p0x60dad0d20480 -->
<g id="edge2" class="edge">
<title>p0x60dad0d204b0&#45;&gt;p0x60dad0d20480</title>
<path fill="none" stroke="gray" d="M27,-80.22C27,-71.23 27,-60.03 27,-49.93"/>
<polygon fill="gray" stroke="gray" points="28.4,-49.96 27,-45.96 25.6,-49.96 28.4,-49.96"/>
</g>
</g>
</svg>
