<?xml version="1.0" encoding="UTF-8" standalone="no"?>
<!DOCTYPE svg PUBLIC "-//W3C//DTD SVG 1.1//EN"
 "http://www.w3.org/Graphics/SVG/1.1/DTD/svg11.dtd">
<!-- Generated by graphviz version 12.1.2 (0)
 -->
<!-- Title: diffTree Pages: 1 -->
<svg width="402pt" height="496pt"
 viewBox="0.00 0.00 402.00 496.00" xmlns="http://www.w3.org/2000/svg" xmlns:xlink="http://www.w3.org/1999/xlink">
<g id="graph0" class="graph" transform="scale(1 1) rotate(0) translate(4 492)">
<title>diffTree</title>
<polygon fill="white" stroke="none" points="-4,4 -4,-492 398,-492 398,4 -4,4"/>
<!-- p0x58b859198390 -->
<g id="node1" class="node">
<title>p0x58b859198390</title>
<polygon fill="lightpink" stroke="purple" points="129,-451.5 129,-487.5 183,-487.5 183,-451.5 129,-451.5"/>
<text text-anchor="middle" x="155.62" y="-464.45" font-family="Times,serif" font-size="14.00">+</text>
</g>
<!-- p0x58b859197fd0 -->
<g id="node2" class="node">
<title>p0x58b859197fd0</title>
<polygon fill="lightpink" stroke="purple" points="88,-378.5 88,-414.5 142,-414.5 142,-378.5 88,-378.5"/>
<text text-anchor="middle" x="114.88" y="-391.45" font-family="Times,serif" font-size="14.00">sin</text>
</g>
<!-- p0x58b859198390&#45;&gt;p0x58b859197fd0 -->
<g id="edge1" class="edge">
<title>p0x58b859198390&#45;&gt;p0x58b859197fd0</title>
<path fill="none" stroke="gray" d="M146.08,-451.31C140.48,-441.63 133.45,-429.45 127.49,-419.13"/>
<polygon fill="gray" stroke="gray" points="128.8,-418.6 125.59,-415.84 126.38,-420 128.8,-418.6"/>
</g>
<!-- p0x58b859198360 -->
<g id="node6" class="node">
<title>p0x58b859198360</title>
<polygon fill="lightpink" stroke="purple" points="171,-378.5 171,-414.5 225,-414.5 225,-378.5 171,-378.5"/>
<text text-anchor="middle" x="197.62" y="-391.45" font-family="Times,serif" font-size="14.00">+</text>
</g>
<!-- p0x58b859198390&#45;&gt;p0x58b859198360 -->
<g id="edge5" class="edge">
<title>p0x58b859198390&#45;&gt;p0x58b859198360</title>
<path fill="none" stroke="gray" d="M166.17,-451.31C171.89,-441.63 179.1,-429.45 185.21,-419.13"/>
<polygon fill="gray" stroke="gray" points="186.32,-419.99 187.16,-415.83 183.91,-418.56 186.32,-419.99"/>
</g>
<!-- p0x58b859197fa0 -->
<g id="node3" class="node">
<title>p0x58b859197fa0</title>
<polygon fill="lightpink" stroke="purple" points="64,-305.5 64,-341.5 118,-341.5 118,-305.5 64,-305.5"/>
<text text-anchor="middle" x="90.88" y="-318.45" font-family="Times,serif" font-size="14.00">^</text>
</g>
<!-- p0x58b859197fd0&#45;&gt;p0x58b859197fa0 -->
<g id="edge2" class="edge">
<title>p0x58b859197fd0&#45;&gt;p0x58b859197fa0</title>
<path fill="none" stroke="gray" d="M109.19,-378.31C105.98,-368.81 101.95,-356.89 98.5,-346.69"/>
<polygon fill="gray" stroke="gray" points="99.85,-346.3 97.24,-342.96 97.2,-347.2 99.85,-346.3"/>
</g>
<!-- p0x58b859197f00 -->
<g id="node4" class="node">
<title>p0x58b859197f00</title>
<ellipse fill="lightblue" stroke="blue" cx="22" cy="-247" rx="18" ry="18"/>
<ellipse fill="none" stroke="blue" cx="22" cy="-247" rx="22" ry="22"/>
<text text-anchor="middle" x="22" y="-241.95" font-family="Times,serif" font-size="14.00">x</text>
</g>
<!-- p0x58b859197fa0&#45;&gt;p0x58b859197f00 -->
<g id="edge3" class="edge">
<title>p0x58b859197fa0&#45;&gt;p0x58b859197f00</title>
<path fill="none" stroke="gray" d="M75,-305.22C64.55,-293.94 50.9,-279.2 40.06,-267.5"/>
<polygon fill="gray" stroke="gray" points="41.28,-266.76 37.54,-264.77 39.23,-268.66 41.28,-266.76"/>
</g>
<!-- p0x58b859197f70 -->
<g id="node5" class="node">
<title>p0x58b859197f70</title>
<ellipse fill="lightgreen" stroke="green" cx="91" cy="-247" rx="18" ry="18"/>
<text text-anchor="middle" x="91" y="-241.95" font-family="Times,serif" font-size="14.00">5</text>
</g>
<!-- p0x58b859197fa0&#45;&gt;p0x58b859197f70 -->
<g id="edge4" class="edge">
<title>p0x58b859197fa0&#45;&gt;p0x58b859197f70</title>
<path fill="none" stroke="gray" d="M91,-305.22C91,-294.95 91,-281.81 91,-270.71"/>
<polygon fill="gray" stroke="gray" points="92.4,-270.96 91,-266.96 89.6,-270.96 92.4,-270.96"/>
</g>
<!-- p0x58b8591980e0 -->
<g id="node7" class="node">
<title>p0x58b8591980e0</title>
<polygon fill="lightpink" stroke="purple" points="171,-305.5 171,-341.5 225,-341.5 225,-305.5 171,-305.5"/>
<text text-anchor="middle" x="197.88" y="-318.45" font-family="Times,serif" font-size="14.00">*</text>
</g>
<!-- p0x58b859198360&#45;&gt;p0x58b8591980e0 -->
<g id="edge6" class="edge">
<title>p0x58b859198360&#45;&gt;p0x58b8591980e0</title>
<path fill="none" stroke="gray" d="M198,-378.31C198,-368.89 198,-357.11 198,-346.97"/>
<polygon fill="gray" stroke="gray" points="199.4,-347.04 198,-343.04 196.6,-347.04 199.4,-347.04"/>
</g>
<!-- p0x58b859198330 -->
<g id="node10" class="node">
<title>p0x58b859198330</title>
<polygon fill="lightpink" stroke="purple" points="266,-305.5 266,-341.5 320,-341.5 320,-305.5 266,-305.5"/>
<text text-anchor="middle" x="292.88" y="-318.45" font-family="Times,serif" font-size="14.00">sin</text>
</g>
<!-- p0x58b859198360&#45;&gt;p0x58b859198330 -->
<g id="edge9" class="edge">
<title>p0x58b859198360&#45;&gt;p0x58b859198330</title>
<path fill="none" stroke="gray" d="M221,-378.31C234.43,-368.27 251.47,-355.54 265.6,-344.98"/>
<polygon fill="gray" stroke="gray" points="266.31,-346.2 268.67,-342.68 264.63,-343.95 266.31,-346.2"/>
</g>
<!-- p0x58b859198040 -->
<g id="node8" class="node">
<title>p0x58b859198040</title>
<ellipse fill="lightgreen" stroke="green" cx="157" cy="-247" rx="18.6" ry="18.6"/>
<text text-anchor="middle" x="157" y="-241.95" font-family="Times,serif" font-size="14.00">&#45;1</text>
</g>
<!-- p0x58b8591980e0&#45;&gt;p0x58b859198040 -->
<g id="edge7" class="edge">
<title>p0x58b8591980e0&#45;&gt;p0x58b859198040</title>
<path fill="none" stroke="gray" d="M188.49,-305.22C182.45,-294.24 174.59,-279.97 168.24,-268.43"/>
<polygon fill="gray" stroke="gray" points="169.5,-267.82 166.35,-264.99 167.05,-269.17 169.5,-267.82"/>
</g>
<!-- p0x58b8591980b0 -->
<g id="node9" class="node">
<title>p0x58b8591980b0</title>
<ellipse fill="lightblue" stroke="blue" cx="227" cy="-247" rx="18" ry="18"/>
<ellipse fill="none" stroke="blue" cx="227" cy="-247" rx="22" ry="22"/>
<text text-anchor="middle" x="227" y="-241.95" font-family="Times,serif" font-size="14.00">x</text>
</g>
<!-- p0x58b8591980e0&#45;&gt;p0x58b8591980b0 -->
<g id="edge8" class="edge">
<title>p0x58b8591980e0&#45;&gt;p0x58b8591980b0</title>
<path fill="none" stroke="gray" d="M204.73,-305.22C208.44,-295.69 213.11,-283.68 217.22,-273.13"/>
<polygon fill="gray" stroke="gray" points="218.49,-273.73 218.63,-269.5 215.88,-272.72 218.49,-273.73"/>
</g>
<!-- p0x58b859198300 -->
<g id="node11" class="node">
<title>p0x58b859198300</title>
<polygon fill="lightpink" stroke="purple" points="278,-229 278,-265 332,-265 332,-229 278,-229"/>
<text text-anchor="middle" x="304.75" y="-241.95" font-family="Times,serif" font-size="14.00">ln</text>
</g>
<!-- p0x58b859198330&#45;&gt;p0x58b859198300 -->
<g id="edge10" class="edge">
<title>p0x58b859198330&#45;&gt;p0x58b859198300</title>
<path fill="none" stroke="gray" d="M295.78,-305.22C297.44,-294.95 299.55,-281.81 301.34,-270.71"/>
<polygon fill="gray" stroke="gray" points="302.7,-271.11 301.95,-266.94 299.93,-270.66 302.7,-271.11"/>
</g>
<!-- p0x58b8591982d0 -->
<g id="node12" class="node">
<title>p0x58b8591982d0</title>
<polygon fill="lightpink" stroke="purple" points="278,-152.5 278,-188.5 332,-188.5 332,-152.5 278,-152.5"/>
<text text-anchor="middle" x="304.88" y="-165.45" font-family="Times,serif" font-size="14.00">^</text>
</g>
<!-- p0x58b859198300&#45;&gt;p0x58b8591982d0 -->
<g id="edge11" class="edge">
<title>p0x58b859198300&#45;&gt;p0x58b8591982d0</title>
<path fill="none" stroke="gray" d="M305,-228.72C305,-218.45 305,-205.31 305,-194.21"/>
<polygon fill="gray" stroke="gray" points="306.4,-194.46 305,-190.46 303.6,-194.46 306.4,-194.46"/>
</g>
<!-- p0x58b859198190 -->
<g id="node13" class="node">
<title>p0x58b859198190</title>
<ellipse fill="lightblue" stroke="blue" cx="266" cy="-94" rx="18" ry="18"/>
<ellipse fill="none" stroke="blue" cx="266" cy="-94" rx="22" ry="22"/>
<text text-anchor="middle" x="266" y="-88.95" font-family="Times,serif" font-size="14.00">x</text>
</g>
<!-- p0x58b8591982d0&#45;&gt;p0x58b859198190 -->
<g id="edge12" class="edge">
<title>p0x58b8591982d0&#45;&gt;p0x58b859198190</title>
<path fill="none" stroke="gray" d="M295.95,-152.22C290.76,-142.31 284.17,-129.71 278.49,-118.86"/>
<polygon fill="gray" stroke="gray" points="279.75,-118.25 276.66,-115.36 277.27,-119.55 279.75,-118.25"/>
</g>
<!-- p0x58b8591982a0 -->
<g id="node14" class="node">
<title>p0x58b8591982a0</title>
<polygon fill="lightpink" stroke="purple" points="317,-76 317,-112 371,-112 371,-76 317,-76"/>
<text text-anchor="middle" x="343.88" y="-88.95" font-family="Times,serif" font-size="14.00">/</text>
</g>
<!-- p0x58b8591982d0&#45;&gt;p0x58b8591982a0 -->
<g id="edge13" class="edge">
<title>p0x58b8591982d0&#45;&gt;p0x58b8591982a0</title>
<path fill="none" stroke="gray" d="M314.05,-152.22C319.52,-141.76 326.55,-128.33 332.43,-117.1"/>
<polygon fill="gray" stroke="gray" points="333.55,-117.98 334.17,-113.78 331.07,-116.68 333.55,-117.98"/>
</g>
<!-- p0x58b859198200 -->
<g id="node15" class="node">
<title>p0x58b859198200</title>
<ellipse fill="lightgreen" stroke="green" cx="311" cy="-18" rx="18" ry="18"/>
<text text-anchor="middle" x="311" y="-12.95" font-family="Times,serif" font-size="14.00">3</text>
</g>
<!-- p0x58b8591982a0&#45;&gt;p0x58b859198200 -->
<g id="edge14" class="edge">
<title>p0x58b8591982a0&#45;&gt;p0x58b859198200</title>
<path fill="none" stroke="gray" d="M336.35,-75.84C331.59,-65.17 325.44,-51.39 320.39,-40.07"/>
<polygon fill="gray" stroke="gray" points="321.68,-39.52 318.78,-36.44 319.13,-40.66 321.68,-39.52"/>
</g>
<!-- p0x58b859198270 -->
<g id="node16" class="node">
<title>p0x58b859198270</title>
<ellipse fill="lightgreen" stroke="green" cx="376" cy="-18" rx="18" ry="18"/>
<text text-anchor="middle" x="376" y="-12.95" font-family="Times,serif" font-size="14.00">4</text>
</g>
<!-- p0x58b8591982a0&#45;&gt;p0x58b859198270 -->
<g id="edge15" class="edge">
<title>p0x58b8591982a0&#45;&gt;p0x58b859198270</title>
<path fill="none" stroke="gray" d="M351.42,-75.84C356.03,-65.17 361.99,-51.39 366.89,-40.07"/>
<polygon fill="gray" stroke="gray" points="368.15,-40.67 368.46,-36.45 365.58,-39.56 368.15,-40.67"/>
</g>
</g>
</svg>
