<?xml version="1.0" encoding="UTF-8" standalone="no"?>
<!DOCTYPE svg PUBLIC "-//W3C//DTD SVG 1.1//EN"
 "http://www.w3.org/Graphics/SVG/1.1/DTD/svg11.dtd">
<!-- Generated by graphviz version 12.1.2 (0)
 -->
<!-- Title: diffTree Pages: 1 -->
<svg width="279pt" height="351pt"
 viewBox="0.00 0.00 279.00 351.00" xmlns="http://www.w3.org/2000/svg" xmlns:xlink="http://www.w3.org/1999/xlink">
<g id="graph0" class="graph" transform="scale(1 1) rotate(0) translate(4 347)">
<title>diffTree</title>
<polygon fill="white" stroke="none" points="-4,4 -4,-347 275,-347 275,4 -4,4"/>
<!-- p0x628783f6f610 -->
<g id="node1" class="node">
<title>p0x628783f6f610</title>
<polygon fill="lightpink" stroke="purple" points="103,-306.5 103,-342.5 157,-342.5 157,-306.5 103,-306.5"/>
<text text-anchor="middle" x="129.88" y="-319.45" font-family="Times,serif" font-size="14.00">/</text>
</g>
<!-- p0x628783f6f430 -->
<g id="node2" class="node">
<title>p0x628783f6f430</title>
<polygon fill="lightpink" stroke="purple" points="62,-233.5 62,-269.5 116,-269.5 116,-233.5 62,-233.5"/>
<text text-anchor="middle" x="88.88" y="-246.45" font-family="Times,serif" font-size="14.00">*</text>
</g>
<!-- p0x628783f6f610&#45;&gt;p0x628783f6f430 -->
<g id="edge1" class="edge">
<title>p0x628783f6f610&#45;&gt;p0x628783f6f430</title>
<path fill="none" stroke="gray" d="M120.08,-306.31C114.48,-296.63 107.45,-284.45 101.49,-274.13"/>
<polygon fill="gray" stroke="gray" points="102.8,-273.6 99.59,-270.84 100.38,-275 102.8,-273.6"/>
</g>
<!-- p0x628783f6f550 -->
<g id="node8" class="node">
<title>p0x628783f6f550</title>
<polygon fill="lightpink" stroke="purple" points="145,-233.5 145,-269.5 199,-269.5 199,-233.5 145,-233.5"/>
<text text-anchor="middle" x="171.88" y="-246.45" font-family="Times,serif" font-size="14.00">*</text>
</g>
<!-- p0x628783f6f610&#45;&gt;p0x628783f6f550 -->
<g id="edge7" class="edge">
<title>p0x628783f6f610&#45;&gt;p0x628783f6f550</title>
<path fill="none" stroke="gray" d="M140.17,-306.31C145.89,-296.63 153.1,-284.45 159.21,-274.13"/>
<polygon fill="gray" stroke="gray" points="160.32,-274.99 161.16,-270.83 157.91,-273.56 160.32,-274.99"/>
</g>
<!-- p0x628783f6f460 -->
<g id="node3" class="node">
<title>p0x628783f6f460</title>
<ellipse fill="lightgreen" stroke="green" cx="18" cy="-178.5" rx="18" ry="18"/>
<text text-anchor="middle" x="18" y="-173.45" font-family="Times,serif" font-size="14.00">5</text>
</g>
<!-- p0x628783f6f430&#45;&gt;p0x628783f6f460 -->
<g id="edge2" class="edge">
<title>p0x628783f6f430&#45;&gt;p0x628783f6f460</title>
<path fill="none" stroke="gray" d="M71.81,-233.31C60.31,-221.81 45.27,-206.77 34.02,-195.52"/>
<polygon fill="gray" stroke="gray" points="35.25,-194.77 31.43,-192.93 33.27,-196.75 35.25,-194.77"/>
</g>
<!-- p0x628783f6f490 -->
<g id="node4" class="node">
<title>p0x628783f6f490</title>
<polygon fill="lightpink" stroke="purple" points="65,-160.5 65,-196.5 119,-196.5 119,-160.5 65,-160.5"/>
<text text-anchor="middle" x="91.88" y="-173.45" font-family="Times,serif" font-size="14.00">*</text>
</g>
<!-- p0x628783f6f430&#45;&gt;p0x628783f6f490 -->
<g id="edge3" class="edge">
<title>p0x628783f6f430&#45;&gt;p0x628783f6f490</title>
<path fill="none" stroke="gray" d="M89.73,-233.31C90.12,-223.89 90.62,-212.11 91.05,-201.97"/>
<polygon fill="gray" stroke="gray" points="92.45,-202.1 91.22,-198.04 89.65,-201.98 92.45,-202.1"/>
</g>
<!-- p0x628783f6f760 -->
<g id="node5" class="node">
<title>p0x628783f6f760</title>
<ellipse fill="lightgreen" stroke="green" cx="54" cy="-102" rx="18.6" ry="18.6"/>
<text text-anchor="middle" x="54" y="-96.95" font-family="Times,serif" font-size="14.00">&#45;1</text>
</g>
<!-- p0x628783f6f490&#45;&gt;p0x628783f6f760 -->
<g id="edge4" class="edge">
<title>p0x628783f6f490&#45;&gt;p0x628783f6f760</title>
<path fill="none" stroke="gray" d="M83.19,-160.22C77.66,-149.39 70.5,-135.36 64.66,-123.9"/>
<polygon fill="gray" stroke="gray" points="66,-123.44 62.93,-120.51 63.5,-124.71 66,-123.44"/>
</g>
<!-- p0x628783f6f790 -->
<g id="node6" class="node">
<title>p0x628783f6f790</title>
<polygon fill="lightpink" stroke="purple" points="102,-84 102,-120 156,-120 156,-84 102,-84"/>
<text text-anchor="middle" x="128.88" y="-96.95" font-family="Times,serif" font-size="14.00">sin</text>
</g>
<!-- p0x628783f6f490&#45;&gt;p0x628783f6f790 -->
<g id="edge5" class="edge">
<title>p0x628783f6f490&#45;&gt;p0x628783f6f790</title>
<path fill="none" stroke="gray" d="M100.58,-160.22C105.77,-149.76 112.45,-136.33 118.02,-125.1"/>
<polygon fill="gray" stroke="gray" points="119.14,-126 119.66,-121.8 116.63,-124.76 119.14,-126"/>
</g>
<!-- p0x628783f6f7c0 -->
<g id="node7" class="node">
<title>p0x628783f6f7c0</title>
<ellipse fill="lightblue" stroke="blue" cx="129" cy="-22" rx="18" ry="18"/>
<ellipse fill="none" stroke="blue" cx="129" cy="-22" rx="22" ry="22"/>
<text text-anchor="middle" x="129" y="-16.95" font-family="Times,serif" font-size="14.00">x</text>
</g>
<!-- p0x628783f6f790&#45;&gt;p0x628783f6f7c0 -->
<g id="edge6" class="edge">
<title>p0x628783f6f790&#45;&gt;p0x628783f6f7c0</title>
<path fill="none" stroke="gray" d="M129,-83.69C129,-73.74 129,-61.02 129,-49.81"/>
<polygon fill="gray" stroke="gray" points="130.4,-49.95 129,-45.95 127.6,-49.95 130.4,-49.95"/>
</g>
<!-- p0x628783f6f580 -->
<g id="node9" class="node">
<title>p0x628783f6f580</title>
<ellipse fill="lightgreen" stroke="green" cx="170" cy="-178.5" rx="18" ry="18"/>
<text text-anchor="middle" x="170" y="-173.45" font-family="Times,serif" font-size="14.00">5</text>
</g>
<!-- p0x628783f6f550&#45;&gt;p0x628783f6f580 -->
<g id="edge8" class="edge">
<title>p0x628783f6f550&#45;&gt;p0x628783f6f580</title>
<path fill="none" stroke="gray" d="M171.52,-233.31C171.25,-223.89 170.92,-212.11 170.63,-201.97"/>
<polygon fill="gray" stroke="gray" points="172.03,-202 170.52,-198.04 169.24,-202.08 172.03,-202"/>
</g>
<!-- p0x628783f6f5b0 -->
<g id="node10" class="node">
<title>p0x628783f6f5b0</title>
<polygon fill="lightpink" stroke="purple" points="217,-160.5 217,-196.5 271,-196.5 271,-160.5 217,-160.5"/>
<text text-anchor="middle" x="244" y="-173.45" font-family="Times,serif" font-size="14.00">cos</text>
</g>
<!-- p0x628783f6f550&#45;&gt;p0x628783f6f5b0 -->
<g id="edge9" class="edge">
<title>p0x628783f6f550&#45;&gt;p0x628783f6f5b0</title>
<path fill="none" stroke="gray" d="M189.43,-233.31C199.44,-223.44 212.08,-210.97 222.68,-200.52"/>
<polygon fill="gray" stroke="gray" points="223.54,-201.64 225.4,-197.84 221.57,-199.65 223.54,-201.64"/>
</g>
<!-- p0x628783f6f5e0 -->
<g id="node11" class="node">
<title>p0x628783f6f5e0</title>
<ellipse fill="lightblue" stroke="blue" cx="244" cy="-102" rx="18" ry="18"/>
<ellipse fill="none" stroke="blue" cx="244" cy="-102" rx="22" ry="22"/>
<text text-anchor="middle" x="244" y="-96.95" font-family="Times,serif" font-size="14.00">x</text>
</g>
<!-- p0x628783f6f5b0&#45;&gt;p0x628783f6f5e0 -->
<g id="edge10" class="edge">
<title>p0x628783f6f5b0&#45;&gt;p0x628783f6f5e0</title>
<path fill="none" stroke="gray" d="M244,-160.22C244,-151.23 244,-140.03 244,-129.93"/>
<polygon fill="gray" stroke="gray" points="245.4,-129.96 244,-125.96 242.6,-129.96 245.4,-129.96"/>
</g>
</g>
</svg>
