<?xml version="1.0" encoding="UTF-8" standalone="no"?>
<!DOCTYPE svg PUBLIC "-//W3C//DTD SVG 1.1//EN"
 "http://www.w3.org/Graphics/SVG/1.1/DTD/svg11.dtd">
<!-- Generated by graphviz version 12.1.2 (0)
 -->
<!-- Title: diffTree Pages: 1 -->
<svg width="1205pt" height="746pt"
 viewBox="0.00 0.00 1205.12 746.13" xmlns="http://www.w3.org/2000/svg" xmlns:xlink="http://www.w3.org/1999/xlink">
<g id="graph0" class="graph" transform="scale(1 1) rotate(0) translate(4 742.13)">
<title>diffTree</title>
<polygon fill="white" stroke="none" points="-4,4 -4,-742.13 1201.12,-742.13 1201.12,4 -4,4"/>
<!-- p0x5b7926c2bb00 -->
<g id="node1" class="node">
<title>p0x5b7926c2bb00</title>
<polygon fill="lightpink" stroke="purple" points="543,-701.63 543,-737.63 597,-737.63 597,-701.63 543,-701.63"/>
<text text-anchor="middle" x="569.62" y="-714.58" font-family="Times,serif" font-size="14.00">+</text>
</g>
<!-- p0x5b7926c29ce0 -->
<g id="node2" class="node">
<title>p0x5b7926c29ce0</title>
<polygon fill="lightpink" stroke="purple" points="476,-628.63 476,-664.63 530,-664.63 530,-628.63 476,-628.63"/>
<text text-anchor="middle" x="502.88" y="-641.58" font-family="Times,serif" font-size="14.00">*</text>
</g>
<!-- p0x5b7926c2bb00&#45;&gt;p0x5b7926c29ce0 -->
<g id="edge1" class="edge">
<title>p0x5b7926c2bb00&#45;&gt;p0x5b7926c29ce0</title>
<path fill="none" stroke="gray" d="M553.78,-701.44C544.4,-691.5 532.53,-678.92 522.62,-668.42"/>
<polygon fill="gray" stroke="gray" points="523.87,-667.71 520.11,-665.76 521.84,-669.63 523.87,-667.71"/>
</g>
<!-- p0x5b7926c2bac0 -->
<g id="node30" class="node">
<title>p0x5b7926c2bac0</title>
<polygon fill="lightpink" stroke="purple" points="616,-628.63 616,-664.63 670,-664.63 670,-628.63 616,-628.63"/>
<text text-anchor="middle" x="642.75" y="-641.58" font-family="Times,serif" font-size="14.00">&#45;</text>
</g>
<!-- p0x5b7926c2bb00&#45;&gt;p0x5b7926c2bac0 -->
<g id="edge29" class="edge">
<title>p0x5b7926c2bb00&#45;&gt;p0x5b7926c2bac0</title>
<path fill="none" stroke="gray" d="M587.67,-701.44C597.82,-691.57 610.64,-679.1 621.38,-668.65"/>
<polygon fill="gray" stroke="gray" points="622.26,-669.75 624.15,-665.96 620.31,-667.74 622.26,-669.75"/>
</g>
<!-- p0x5b7926c29830 -->
<g id="node3" class="node">
<title>p0x5b7926c29830</title>
<polygon fill="lightpink" stroke="purple" points="368,-554 368,-590 422,-590 422,-554 368,-554"/>
<text text-anchor="middle" x="394.88" y="-566.95" font-family="Times,serif" font-size="14.00">/</text>
</g>
<!-- p0x5b7926c29ce0&#45;&gt;p0x5b7926c29830 -->
<g id="edge2" class="edge">
<title>p0x5b7926c29ce0&#45;&gt;p0x5b7926c29830</title>
<path fill="none" stroke="gray" d="M477.13,-628.23C461.5,-617.72 441.51,-604.27 425.16,-593.28"/>
<polygon fill="gray" stroke="gray" points="426.01,-592.17 421.91,-591.1 424.45,-594.49 426.01,-592.17"/>
</g>
<!-- p0x5b7926c29ca0 -->
<g id="node22" class="node">
<title>p0x5b7926c29ca0</title>
<polygon fill="lightpink" stroke="purple" points="476,-554 476,-590 530,-590 530,-554 476,-554"/>
<text text-anchor="middle" x="502.88" y="-566.95" font-family="Times,serif" font-size="14.00">*</text>
</g>
<!-- p0x5b7926c29ce0&#45;&gt;p0x5b7926c29ca0 -->
<g id="edge21" class="edge">
<title>p0x5b7926c29ce0&#45;&gt;p0x5b7926c29ca0</title>
<path fill="none" stroke="gray" d="M503,-628.41C503,-618.56 503,-606.07 503,-595.45"/>
<polygon fill="gray" stroke="gray" points="504.4,-595.6 503,-591.6 501.6,-595.6 504.4,-595.6"/>
</g>
<!-- p0x5b7926c29480 -->
<g id="node4" class="node">
<title>p0x5b7926c29480</title>
<polygon fill="lightpink" stroke="purple" points="255,-479.27 255,-515.27 309,-515.27 309,-479.27 255,-479.27"/>
<text text-anchor="middle" x="281.88" y="-492.22" font-family="Times,serif" font-size="14.00">/</text>
</g>
<!-- p0x5b7926c29830&#45;&gt;p0x5b7926c29480 -->
<g id="edge3" class="edge">
<title>p0x5b7926c29830&#45;&gt;p0x5b7926c29480</title>
<path fill="none" stroke="gray" d="M367.93,-553.58C351.44,-542.96 330.31,-529.36 313.12,-518.3"/>
<polygon fill="gray" stroke="gray" points="314.24,-517.35 310.12,-516.37 312.72,-519.71 314.24,-517.35"/>
</g>
<!-- p0x5b7926c29730 -->
<g id="node18" class="node">
<title>p0x5b7926c29730</title>
<polygon fill="lightpink" stroke="purple" points="368,-479.27 368,-515.27 422,-515.27 422,-479.27 368,-479.27"/>
<text text-anchor="middle" x="394.62" y="-492.22" font-family="Times,serif" font-size="14.00">sqrt</text>
</g>
<!-- p0x5b7926c29830&#45;&gt;p0x5b7926c29730 -->
<g id="edge17" class="edge">
<title>p0x5b7926c29830&#45;&gt;p0x5b7926c29730</title>
<path fill="none" stroke="gray" d="M395,-553.76C395,-543.96 395,-531.57 395,-520.98"/>
<polygon fill="gray" stroke="gray" points="396.4,-521.15 395,-517.15 393.6,-521.15 396.4,-521.15"/>
</g>
<!-- p0x5b7926c290c0 -->
<g id="node5" class="node">
<title>p0x5b7926c290c0</title>
<polygon fill="lightpink" stroke="purple" points="142,-406.17 142,-442.17 196,-442.17 196,-406.17 142,-406.17"/>
<text text-anchor="middle" x="168.88" y="-419.12" font-family="Times,serif" font-size="14.00">*</text>
</g>
<!-- p0x5b7926c29480&#45;&gt;p0x5b7926c290c0 -->
<g id="edge4" class="edge">
<title>p0x5b7926c29480&#45;&gt;p0x5b7926c290c0</title>
<path fill="none" stroke="gray" d="M254.65,-479.06C238.53,-468.92 218.05,-456.03 201.16,-445.41"/>
<polygon fill="gray" stroke="gray" points="201.91,-444.22 197.77,-443.28 200.42,-446.59 201.91,-444.22"/>
</g>
<!-- p0x5b7926c29440 -->
<g id="node12" class="node">
<title>p0x5b7926c29440</title>
<polygon fill="lightpink" stroke="purple" points="255,-406.17 255,-442.17 309,-442.17 309,-406.17 255,-406.17"/>
<text text-anchor="middle" x="281.88" y="-419.12" font-family="Times,serif" font-size="14.00">*</text>
</g>
<!-- p0x5b7926c29480&#45;&gt;p0x5b7926c29440 -->
<g id="edge11" class="edge">
<title>p0x5b7926c29480&#45;&gt;p0x5b7926c29440</title>
<path fill="none" stroke="gray" d="M282,-479.06C282,-469.63 282,-457.82 282,-447.67"/>
<polygon fill="gray" stroke="gray" points="283.4,-447.74 282,-443.74 280.6,-447.74 283.4,-447.74"/>
</g>
<!-- p0x5b7926c28e80 -->
<g id="node6" class="node">
<title>p0x5b7926c28e80</title>
<polygon fill="lightpink" stroke="purple" points="59,-305.95 59,-341.95 113,-341.95 113,-305.95 59,-305.95"/>
<text text-anchor="middle" x="85.88" y="-318.9" font-family="Times,serif" font-size="14.00">^</text>
</g>
<!-- p0x5b7926c290c0&#45;&gt;p0x5b7926c28e80 -->
<g id="edge5" class="edge">
<title>p0x5b7926c290c0&#45;&gt;p0x5b7926c28e80</title>
<path fill="none" stroke="gray" d="M154.54,-406.06C140.47,-389.41 119.04,-364.05 103.89,-346.13"/>
<polygon fill="gray" stroke="gray" points="105.2,-345.5 101.55,-343.35 103.06,-347.31 105.2,-345.5"/>
</g>
<!-- p0x5b7926c2bbc0 -->
<g id="node9" class="node">
<title>p0x5b7926c2bbc0</title>
<polygon fill="lightpink" stroke="purple" points="142,-305.95 142,-341.95 196,-341.95 196,-305.95 142,-305.95"/>
<text text-anchor="middle" x="168.88" y="-318.9" font-family="Times,serif" font-size="14.00">/</text>
</g>
<!-- p0x5b7926c290c0&#45;&gt;p0x5b7926c2bbc0 -->
<g id="edge8" class="edge">
<title>p0x5b7926c290c0&#45;&gt;p0x5b7926c2bbc0</title>
<path fill="none" stroke="gray" d="M169,-406.06C169,-389.83 169,-365.32 169,-347.5"/>
<polygon fill="gray" stroke="gray" points="170.4,-347.71 169,-343.71 167.6,-347.71 170.4,-347.71"/>
</g>
<!-- p0x5b7926c28e00 -->
<g id="node7" class="node">
<title>p0x5b7926c28e00</title>
<ellipse fill="lightblue" stroke="blue" cx="22" cy="-201.12" rx="18" ry="18"/>
<ellipse fill="none" stroke="blue" cx="22" cy="-201.12" rx="22" ry="22"/>
<text text-anchor="middle" x="22" y="-196.07" font-family="Times,serif" font-size="14.00">x</text>
</g>
<!-- p0x5b7926c28e80&#45;&gt;p0x5b7926c28e00 -->
<g id="edge6" class="edge">
<title>p0x5b7926c28e80&#45;&gt;p0x5b7926c28e00</title>
<path fill="none" stroke="gray" d="M76.83,-305.64C65.73,-284.68 46.98,-249.28 34.55,-225.81"/>
<polygon fill="gray" stroke="gray" points="35.81,-225.2 32.7,-222.33 33.34,-226.52 35.81,-225.2"/>
</g>
<!-- p0x5b7926c28e40 -->
<g id="node8" class="node">
<title>p0x5b7926c28e40</title>
<ellipse fill="lightgreen" stroke="green" cx="91" cy="-201.12" rx="18" ry="18"/>
<text text-anchor="middle" x="91" y="-196.07" font-family="Times,serif" font-size="14.00">2</text>
</g>
<!-- p0x5b7926c28e80&#45;&gt;p0x5b7926c28e40 -->
<g id="edge7" class="edge">
<title>p0x5b7926c28e80&#45;&gt;p0x5b7926c28e40</title>
<path fill="none" stroke="gray" d="M86.72,-305.64C87.6,-284.37 89.09,-248.24 90.06,-224.78"/>
<polygon fill="gray" stroke="gray" points="91.46,-224.96 90.22,-220.91 88.66,-224.85 91.46,-224.96"/>
</g>
<!-- p0x5b7926c2bc00 -->
<g id="node10" class="node">
<title>p0x5b7926c2bc00</title>
<ellipse fill="lightgreen" stroke="green" cx="165" cy="-201.12" rx="18" ry="18"/>
<text text-anchor="middle" x="165" y="-196.07" font-family="Times,serif" font-size="14.00">2</text>
</g>
<!-- p0x5b7926c2bbc0&#45;&gt;p0x5b7926c2bc00 -->
<g id="edge9" class="edge">
<title>p0x5b7926c2bbc0&#45;&gt;p0x5b7926c2bc00</title>
<path fill="none" stroke="gray" d="M168.43,-305.64C167.72,-284.37 166.53,-248.24 165.75,-224.78"/>
<polygon fill="gray" stroke="gray" points="167.15,-224.86 165.62,-220.91 164.36,-224.95 167.15,-224.86"/>
</g>
<!-- p0x5b7926c2bc40 -->
<g id="node11" class="node">
<title>p0x5b7926c2bc40</title>
<ellipse fill="lightblue" stroke="blue" cx="234" cy="-201.12" rx="18" ry="18"/>
<ellipse fill="none" stroke="blue" cx="234" cy="-201.12" rx="22" ry="22"/>
<text text-anchor="middle" x="234" y="-196.07" font-family="Times,serif" font-size="14.00">x</text>
</g>
<!-- p0x5b7926c2bbc0&#45;&gt;p0x5b7926c2bc40 -->
<g id="edge10" class="edge">
<title>p0x5b7926c2bbc0&#45;&gt;p0x5b7926c2bc40</title>
<path fill="none" stroke="gray" d="M178.31,-305.64C189.59,-284.68 208.63,-249.28 221.26,-225.81"/>
<polygon fill="gray" stroke="gray" points="222.47,-226.51 223.13,-222.32 220,-225.18 222.47,-226.51"/>
</g>
<!-- p0x5b7926c29300 -->
<g id="node13" class="node">
<title>p0x5b7926c29300</title>
<ellipse fill="lightgreen" stroke="green" cx="243" cy="-323.95" rx="18" ry="18"/>
<text text-anchor="middle" x="243" y="-318.9" font-family="Times,serif" font-size="14.00">2</text>
</g>
<!-- p0x5b7926c29440&#45;&gt;p0x5b7926c29300 -->
<g id="edge12" class="edge">
<title>p0x5b7926c29440&#45;&gt;p0x5b7926c29300</title>
<path fill="none" stroke="gray" d="M275.21,-406.06C268.58,-389.39 258.5,-363.98 251.38,-346.06"/>
<polygon fill="gray" stroke="gray" points="252.79,-345.82 250.02,-342.62 250.19,-346.85 252.79,-345.82"/>
</g>
<!-- p0x5b7926c29400 -->
<g id="node14" class="node">
<title>p0x5b7926c29400</title>
<polygon fill="lightpink" stroke="purple" points="290,-305.95 290,-341.95 344,-341.95 344,-305.95 290,-305.95"/>
<text text-anchor="middle" x="316.62" y="-318.9" font-family="Times,serif" font-size="14.00">sqrt</text>
</g>
<!-- p0x5b7926c29440&#45;&gt;p0x5b7926c29400 -->
<g id="edge13" class="edge">
<title>p0x5b7926c29440&#45;&gt;p0x5b7926c29400</title>
<path fill="none" stroke="gray" d="M288.1,-406.06C293.93,-389.69 302.77,-364.9 309.13,-347.04"/>
<polygon fill="gray" stroke="gray" points="310.32,-347.86 310.35,-343.62 307.69,-346.92 310.32,-347.86"/>
</g>
<!-- p0x5b7926c29340 -->
<g id="node15" class="node">
<title>p0x5b7926c29340</title>
<polygon fill="lightpink" stroke="purple" points="290,-183.12 290,-219.12 344,-219.12 344,-183.12 290,-183.12"/>
<text text-anchor="middle" x="316.88" y="-196.07" font-family="Times,serif" font-size="14.00">^</text>
</g>
<!-- p0x5b7926c29400&#45;&gt;p0x5b7926c29340 -->
<g id="edge14" class="edge">
<title>p0x5b7926c29400&#45;&gt;p0x5b7926c29340</title>
<path fill="none" stroke="gray" d="M317,-305.64C317,-284.37 317,-248.24 317,-224.78"/>
<polygon fill="gray" stroke="gray" points="318.4,-224.91 317,-220.91 315.6,-224.91 318.4,-224.91"/>
</g>
<!-- p0x5b7926c29380 -->
<g id="node16" class="node">
<title>p0x5b7926c29380</title>
<ellipse fill="lightblue" stroke="blue" cx="283" cy="-102" rx="18" ry="18"/>
<ellipse fill="none" stroke="blue" cx="283" cy="-102" rx="22" ry="22"/>
<text text-anchor="middle" x="283" y="-96.95" font-family="Times,serif" font-size="14.00">x</text>
</g>
<!-- p0x5b7926c29340&#45;&gt;p0x5b7926c29380 -->
<g id="edge15" class="edge">
<title>p0x5b7926c29340&#45;&gt;p0x5b7926c29380</title>
<path fill="none" stroke="gray" d="M310.92,-182.75C305.62,-167.62 297.87,-145.49 291.88,-128.37"/>
<polygon fill="gray" stroke="gray" points="293.23,-127.98 290.58,-124.66 290.58,-128.9 293.23,-127.98"/>
</g>
<!-- p0x5b7926c293c0 -->
<g id="node17" class="node">
<title>p0x5b7926c293c0</title>
<ellipse fill="lightgreen" stroke="green" cx="352" cy="-102" rx="18" ry="18"/>
<text text-anchor="middle" x="352" y="-96.95" font-family="Times,serif" font-size="14.00">2</text>
</g>
<!-- p0x5b7926c29340&#45;&gt;p0x5b7926c293c0 -->
<g id="edge16" class="edge">
<title>p0x5b7926c29340&#45;&gt;p0x5b7926c293c0</title>
<path fill="none" stroke="gray" d="M323.26,-182.75C329.19,-166.3 338.11,-141.55 344.43,-123.99"/>
<polygon fill="gray" stroke="gray" points="345.59,-124.9 345.63,-120.67 342.96,-123.96 345.59,-124.9"/>
</g>
<!-- p0x5b7926c29770 -->
<g id="node19" class="node">
<title>p0x5b7926c29770</title>
<polygon fill="lightpink" stroke="purple" points="368,-406.17 368,-442.17 422,-442.17 422,-406.17 368,-406.17"/>
<text text-anchor="middle" x="394.88" y="-419.12" font-family="Times,serif" font-size="14.00">^</text>
</g>
<!-- p0x5b7926c29730&#45;&gt;p0x5b7926c29770 -->
<g id="edge18" class="edge">
<title>p0x5b7926c29730&#45;&gt;p0x5b7926c29770</title>
<path fill="none" stroke="gray" d="M395,-479.06C395,-469.63 395,-457.82 395,-447.67"/>
<polygon fill="gray" stroke="gray" points="396.4,-447.74 395,-443.74 393.6,-447.74 396.4,-447.74"/>
</g>
<!-- p0x5b7926c297b0 -->
<g id="node20" class="node">
<title>p0x5b7926c297b0</title>
<ellipse fill="lightblue" stroke="blue" cx="395" cy="-323.95" rx="18" ry="18"/>
<ellipse fill="none" stroke="blue" cx="395" cy="-323.95" rx="22" ry="22"/>
<text text-anchor="middle" x="395" y="-318.9" font-family="Times,serif" font-size="14.00">x</text>
</g>
<!-- p0x5b7926c29770&#45;&gt;p0x5b7926c297b0 -->
<g id="edge19" class="edge">
<title>p0x5b7926c29770&#45;&gt;p0x5b7926c297b0</title>
<path fill="none" stroke="gray" d="M395,-406.06C395,-391.02 395,-368.88 395,-351.53"/>
<polygon fill="gray" stroke="gray" points="396.4,-351.83 395,-347.83 393.6,-351.83 396.4,-351.83"/>
</g>
<!-- p0x5b7926c297f0 -->
<g id="node21" class="node">
<title>p0x5b7926c297f0</title>
<ellipse fill="lightgreen" stroke="green" cx="464" cy="-323.95" rx="18" ry="18"/>
<text text-anchor="middle" x="464" y="-318.9" font-family="Times,serif" font-size="14.00">2</text>
</g>
<!-- p0x5b7926c29770&#45;&gt;p0x5b7926c297f0 -->
<g id="edge20" class="edge">
<title>p0x5b7926c29770&#45;&gt;p0x5b7926c297f0</title>
<path fill="none" stroke="gray" d="M407.02,-406.06C419.26,-388.63 438.2,-361.68 450.84,-343.68"/>
<polygon fill="gray" stroke="gray" points="451.89,-344.63 453.04,-340.55 449.6,-343.02 451.89,-344.63"/>
</g>
<!-- p0x5b7926c29ae0 -->
<g id="node23" class="node">
<title>p0x5b7926c29ae0</title>
<ellipse fill="lightgreen" stroke="green" cx="470" cy="-497.27" rx="18.6" ry="18.6"/>
<text text-anchor="middle" x="470" y="-492.22" font-family="Times,serif" font-size="14.00">&#45;1</text>
</g>
<!-- p0x5b7926c29ca0&#45;&gt;p0x5b7926c29ae0 -->
<g id="edge22" class="edge">
<title>p0x5b7926c29ca0&#45;&gt;p0x5b7926c29ae0</title>
<path fill="none" stroke="gray" d="M495.18,-553.76C490.49,-543.42 484.48,-530.18 479.51,-519.24"/>
<polygon fill="gray" stroke="gray" points="480.87,-518.83 477.94,-515.76 478.32,-519.98 480.87,-518.83"/>
</g>
<!-- p0x5b7926c29c60 -->
<g id="node24" class="node">
<title>p0x5b7926c29c60</title>
<polygon fill="lightpink" stroke="purple" points="518,-479.27 518,-515.27 572,-515.27 572,-479.27 518,-479.27"/>
<text text-anchor="middle" x="544.88" y="-492.22" font-family="Times,serif" font-size="14.00">sin</text>
</g>
<!-- p0x5b7926c29ca0&#45;&gt;p0x5b7926c29c60 -->
<g id="edge23" class="edge">
<title>p0x5b7926c29ca0&#45;&gt;p0x5b7926c29c60</title>
<path fill="none" stroke="gray" d="M512.95,-553.76C518.72,-543.78 526.03,-531.11 532.22,-520.4"/>
<polygon fill="gray" stroke="gray" points="533.43,-521.11 534.22,-516.94 531,-519.71 533.43,-521.11"/>
</g>
<!-- p0x5b7926c29b20 -->
<g id="node25" class="node">
<title>p0x5b7926c29b20</title>
<polygon fill="lightpink" stroke="purple" points="516,-406.17 516,-442.17 570,-442.17 570,-406.17 516,-406.17"/>
<text text-anchor="middle" x="542.75" y="-419.12" font-family="Times,serif" font-size="14.00">ln</text>
</g>
<!-- p0x5b7926c29c60&#45;&gt;p0x5b7926c29b20 -->
<g id="edge24" class="edge">
<title>p0x5b7926c29c60&#45;&gt;p0x5b7926c29b20</title>
<path fill="none" stroke="gray" d="M544.52,-479.06C544.25,-469.63 543.92,-457.82 543.63,-447.67"/>
<polygon fill="gray" stroke="gray" points="545.03,-447.7 543.52,-443.74 542.24,-447.78 545.03,-447.7"/>
</g>
<!-- p0x5b7926c29b60 -->
<g id="node26" class="node">
<title>p0x5b7926c29b60</title>
<polygon fill="lightpink" stroke="purple" points="514,-305.95 514,-341.95 568,-341.95 568,-305.95 514,-305.95"/>
<text text-anchor="middle" x="540.62" y="-318.9" font-family="Times,serif" font-size="14.00">sqrt</text>
</g>
<!-- p0x5b7926c29b20&#45;&gt;p0x5b7926c29b60 -->
<g id="edge25" class="edge">
<title>p0x5b7926c29b20&#45;&gt;p0x5b7926c29b60</title>
<path fill="none" stroke="gray" d="M542.65,-406.06C542.32,-389.83 541.82,-365.32 541.46,-347.5"/>
<polygon fill="gray" stroke="gray" points="542.86,-347.68 541.38,-343.71 540.06,-347.74 542.86,-347.68"/>
</g>
<!-- p0x5b7926c29ba0 -->
<g id="node27" class="node">
<title>p0x5b7926c29ba0</title>
<polygon fill="lightpink" stroke="purple" points="514,-183.12 514,-219.12 568,-219.12 568,-183.12 514,-183.12"/>
<text text-anchor="middle" x="540.88" y="-196.07" font-family="Times,serif" font-size="14.00">^</text>
</g>
<!-- p0x5b7926c29b60&#45;&gt;p0x5b7926c29ba0 -->
<g id="edge26" class="edge">
<title>p0x5b7926c29b60&#45;&gt;p0x5b7926c29ba0</title>
<path fill="none" stroke="gray" d="M541,-305.64C541,-284.37 541,-248.24 541,-224.78"/>
<polygon fill="gray" stroke="gray" points="542.4,-224.91 541,-220.91 539.6,-224.91 542.4,-224.91"/>
</g>
<!-- p0x5b7926c29be0 -->
<g id="node28" class="node">
<title>p0x5b7926c29be0</title>
<ellipse fill="lightblue" stroke="blue" cx="507" cy="-102" rx="18" ry="18"/>
<ellipse fill="none" stroke="blue" cx="507" cy="-102" rx="22" ry="22"/>
<text text-anchor="middle" x="507" y="-96.95" font-family="Times,serif" font-size="14.00">x</text>
</g>
<!-- p0x5b7926c29ba0&#45;&gt;p0x5b7926c29be0 -->
<g id="edge27" class="edge">
<title>p0x5b7926c29ba0&#45;&gt;p0x5b7926c29be0</title>
<path fill="none" stroke="gray" d="M534.92,-182.75C529.62,-167.62 521.87,-145.49 515.88,-128.37"/>
<polygon fill="gray" stroke="gray" points="517.23,-127.98 514.58,-124.66 514.58,-128.9 517.23,-127.98"/>
</g>
<!-- p0x5b7926c29c20 -->
<g id="node29" class="node">
<title>p0x5b7926c29c20</title>
<ellipse fill="lightgreen" stroke="green" cx="576" cy="-102" rx="18" ry="18"/>
<text text-anchor="middle" x="576" y="-96.95" font-family="Times,serif" font-size="14.00">2</text>
</g>
<!-- p0x5b7926c29ba0&#45;&gt;p0x5b7926c29c20 -->
<g id="edge28" class="edge">
<title>p0x5b7926c29ba0&#45;&gt;p0x5b7926c29c20</title>
<path fill="none" stroke="gray" d="M547.26,-182.75C553.19,-166.3 562.11,-141.55 568.43,-123.99"/>
<polygon fill="gray" stroke="gray" points="569.59,-124.9 569.63,-120.67 566.96,-123.96 569.59,-124.9"/>
</g>
<!-- p0x5b7926c29f90 -->
<g id="node31" class="node">
<title>p0x5b7926c29f90</title>
<ellipse fill="lightgreen" stroke="green" cx="643" cy="-572" rx="20.13" ry="20.13"/>
<text text-anchor="middle" x="643" y="-566.95" font-family="Times,serif" font-size="14.00">15</text>
</g>
<!-- p0x5b7926c2bac0&#45;&gt;p0x5b7926c29f90 -->
<g id="edge30" class="edge">
<title>p0x5b7926c2bac0&#45;&gt;p0x5b7926c29f90</title>
<path fill="none" stroke="gray" d="M643,-628.41C643,-619.28 643,-607.9 643,-597.83"/>
<polygon fill="gray" stroke="gray" points="644.4,-597.9 643,-593.9 641.6,-597.9 644.4,-597.9"/>
</g>
<!-- p0x5b7926c2ba80 -->
<g id="node32" class="node">
<title>p0x5b7926c2ba80</title>
<polygon fill="lightpink" stroke="purple" points="705,-554 705,-590 759,-590 759,-554 705,-554"/>
<text text-anchor="middle" x="731.88" y="-566.95" font-family="Times,serif" font-size="14.00">*</text>
</g>
<!-- p0x5b7926c2bac0&#45;&gt;p0x5b7926c2ba80 -->
<g id="edge31" class="edge">
<title>p0x5b7926c2bac0&#45;&gt;p0x5b7926c2ba80</title>
<path fill="none" stroke="gray" d="M664.09,-628.41C676.86,-618 693.21,-604.65 706.67,-593.66"/>
<polygon fill="gray" stroke="gray" points="707.36,-594.91 709.58,-591.29 705.59,-592.74 707.36,-594.91"/>
</g>
<!-- p0x5b7926c2b640 -->
<g id="node33" class="node">
<title>p0x5b7926c2b640</title>
<polygon fill="lightpink" stroke="purple" points="705,-479.27 705,-515.27 759,-515.27 759,-479.27 705,-479.27"/>
<text text-anchor="middle" x="731.62" y="-492.22" font-family="Times,serif" font-size="14.00">+</text>
</g>
<!-- p0x5b7926c2ba80&#45;&gt;p0x5b7926c2b640 -->
<g id="edge32" class="edge">
<title>p0x5b7926c2ba80&#45;&gt;p0x5b7926c2b640</title>
<path fill="none" stroke="gray" d="M732,-553.76C732,-543.96 732,-531.57 732,-520.98"/>
<polygon fill="gray" stroke="gray" points="733.4,-521.15 732,-517.15 730.6,-521.15 733.4,-521.15"/>
</g>
<!-- p0x5b7926c2ba40 -->
<g id="node49" class="node">
<title>p0x5b7926c2ba40</title>
<polygon fill="lightpink" stroke="purple" points="890,-479.27 890,-515.27 944,-515.27 944,-479.27 890,-479.27"/>
<text text-anchor="middle" x="917" y="-492.22" font-family="Times,serif" font-size="14.00">cos</text>
</g>
<!-- p0x5b7926c2ba80&#45;&gt;p0x5b7926c2ba40 -->
<g id="edge48" class="edge">
<title>p0x5b7926c2ba80&#45;&gt;p0x5b7926c2ba40</title>
<path fill="none" stroke="gray" d="M759.3,-560.26C792.64,-547.16 848.96,-525.02 884.5,-511.04"/>
<polygon fill="gray" stroke="gray" points="884.97,-512.36 888.18,-509.6 883.95,-509.76 884.97,-512.36"/>
</g>
<!-- p0x5b7926c29fd0 -->
<g id="node34" class="node">
<title>p0x5b7926c29fd0</title>
<polygon fill="lightpink" stroke="purple" points="664,-406.17 664,-442.17 718,-442.17 718,-406.17 664,-406.17"/>
<text text-anchor="middle" x="690.88" y="-419.12" font-family="Times,serif" font-size="14.00">*</text>
</g>
<!-- p0x5b7926c2b640&#45;&gt;p0x5b7926c29fd0 -->
<g id="edge33" class="edge">
<title>p0x5b7926c2b640&#45;&gt;p0x5b7926c29fd0</title>
<path fill="none" stroke="gray" d="M722.08,-479.06C716.48,-469.37 709.45,-457.17 703.49,-446.83"/>
<polygon fill="gray" stroke="gray" points="704.8,-446.3 701.59,-443.54 702.38,-447.7 704.8,-446.3"/>
</g>
<!-- p0x5b7926c2b600 -->
<g id="node38" class="node">
<title>p0x5b7926c2b600</title>
<polygon fill="lightpink" stroke="purple" points="747,-406.17 747,-442.17 801,-442.17 801,-406.17 747,-406.17"/>
<text text-anchor="middle" x="773.75" y="-419.12" font-family="Times,serif" font-size="14.00">&#45;</text>
</g>
<!-- p0x5b7926c2b640&#45;&gt;p0x5b7926c2b600 -->
<g id="edge37" class="edge">
<title>p0x5b7926c2b640&#45;&gt;p0x5b7926c2b600</title>
<path fill="none" stroke="gray" d="M742.17,-479.06C747.89,-469.37 755.1,-457.17 761.21,-446.83"/>
<polygon fill="gray" stroke="gray" points="762.33,-447.68 763.16,-443.53 759.92,-446.26 762.33,-447.68"/>
</g>
<!-- p0x5b7926c2a050 -->
<g id="node35" class="node">
<title>p0x5b7926c2a050</title>
<ellipse fill="lightgreen" stroke="green" cx="616" cy="-323.95" rx="18.6" ry="18.6"/>
<text text-anchor="middle" x="616" y="-318.9" font-family="Times,serif" font-size="14.00">&#45;1</text>
</g>
<!-- p0x5b7926c29fd0&#45;&gt;p0x5b7926c2a050 -->
<g id="edge34" class="edge">
<title>p0x5b7926c29fd0&#45;&gt;p0x5b7926c2a050</title>
<path fill="none" stroke="gray" d="M677.8,-405.95C665.82,-390.31 650,-369.67 650,-369.67 650,-369.67 639.28,-355.57 629.88,-343.21"/>
<polygon fill="gray" stroke="gray" points="631.21,-342.64 627.67,-340.31 628.98,-344.34 631.21,-342.64"/>
</g>
<!-- p0x5b7926c2a090 -->
<g id="node36" class="node">
<title>p0x5b7926c2a090</title>
<polygon fill="lightpink" stroke="purple" points="664,-305.95 664,-341.95 718,-341.95 718,-305.95 664,-305.95"/>
<text text-anchor="middle" x="690.88" y="-318.9" font-family="Times,serif" font-size="14.00">sin</text>
</g>
<!-- p0x5b7926c29fd0&#45;&gt;p0x5b7926c2a090 -->
<g id="edge35" class="edge">
<title>p0x5b7926c29fd0&#45;&gt;p0x5b7926c2a090</title>
<path fill="none" stroke="gray" d="M691,-406.06C691,-389.83 691,-365.32 691,-347.5"/>
<polygon fill="gray" stroke="gray" points="692.4,-347.71 691,-343.71 689.6,-347.71 692.4,-347.71"/>
</g>
<!-- p0x5b7926c29000 -->
<g id="node37" class="node">
<title>p0x5b7926c29000</title>
<ellipse fill="lightblue" stroke="blue" cx="691" cy="-201.12" rx="18" ry="18"/>
<ellipse fill="none" stroke="blue" cx="691" cy="-201.12" rx="22" ry="22"/>
<text text-anchor="middle" x="691" y="-196.07" font-family="Times,serif" font-size="14.00">x</text>
</g>
<!-- p0x5b7926c2a090&#45;&gt;p0x5b7926c29000 -->
<g id="edge36" class="edge">
<title>p0x5b7926c2a090&#45;&gt;p0x5b7926c29000</title>
<path fill="none" stroke="gray" d="M691,-305.64C691,-285.58 691,-252.3 691,-228.9"/>
<polygon fill="gray" stroke="gray" points="692.4,-228.98 691,-224.98 689.6,-228.98 692.4,-228.98"/>
</g>
<!-- p0x5b7926c2ab30 -->
<g id="node39" class="node">
<title>p0x5b7926c2ab30</title>
<polygon fill="lightpink" stroke="purple" points="747,-305.95 747,-341.95 801,-341.95 801,-305.95 747,-305.95"/>
<text text-anchor="middle" x="773.88" y="-318.9" font-family="Times,serif" font-size="14.00">*</text>
</g>
<!-- p0x5b7926c2b600&#45;&gt;p0x5b7926c2ab30 -->
<g id="edge38" class="edge">
<title>p0x5b7926c2b600&#45;&gt;p0x5b7926c2ab30</title>
<path fill="none" stroke="gray" d="M774,-406.06C774,-389.83 774,-365.32 774,-347.5"/>
<polygon fill="gray" stroke="gray" points="775.4,-347.71 774,-343.71 772.6,-347.71 775.4,-347.71"/>
</g>
<!-- p0x5b7926c2aeb0 -->
<g id="node48" class="node">
<title>p0x5b7926c2aeb0</title>
<ellipse fill="lightgreen" stroke="green" cx="876" cy="-323.95" rx="45.72" ry="45.72"/>
<text text-anchor="middle" x="876" y="-318.9" font-family="Times,serif" font-size="14.00">0.209987</text>
</g>
<!-- p0x5b7926c2b600&#45;&gt;p0x5b7926c2aeb0 -->
<g id="edge47" class="edge">
<title>p0x5b7926c2b600&#45;&gt;p0x5b7926c2aeb0</title>
<path fill="none" stroke="gray" d="M791.77,-406.06C805.03,-393.29 823.61,-375.4 839.95,-359.67"/>
<polygon fill="gray" stroke="gray" points="840.61,-360.97 842.52,-357.19 838.67,-358.96 840.61,-360.97"/>
</g>
<!-- p0x5b7926c2a870 -->
<g id="node40" class="node">
<title>p0x5b7926c2a870</title>
<polygon fill="lightpink" stroke="purple" points="744,-183.12 744,-219.12 798,-219.12 798,-183.12 744,-183.12"/>
<text text-anchor="middle" x="770.88" y="-196.07" font-family="Times,serif" font-size="14.00">^</text>
</g>
<!-- p0x5b7926c2ab30&#45;&gt;p0x5b7926c2a870 -->
<g id="edge39" class="edge">
<title>p0x5b7926c2ab30&#45;&gt;p0x5b7926c2a870</title>
<path fill="none" stroke="gray" d="M773.57,-305.64C773.04,-284.37 772.15,-248.24 771.56,-224.78"/>
<polygon fill="gray" stroke="gray" points="772.97,-224.87 771.47,-220.91 770.17,-224.94 772.97,-224.87"/>
</g>
<!-- p0x5b7926c2a8b0 -->
<g id="node44" class="node">
<title>p0x5b7926c2a8b0</title>
<polygon fill="lightpink" stroke="purple" points="827,-183.12 827,-219.12 881,-219.12 881,-183.12 827,-183.12"/>
<text text-anchor="middle" x="853.88" y="-196.07" font-family="Times,serif" font-size="14.00">/</text>
</g>
<!-- p0x5b7926c2ab30&#45;&gt;p0x5b7926c2a8b0 -->
<g id="edge43" class="edge">
<title>p0x5b7926c2ab30&#45;&gt;p0x5b7926c2a8b0</title>
<path fill="none" stroke="gray" d="M785.46,-305.64C799.72,-284.1 824.07,-247.32 839.58,-223.9"/>
<polygon fill="gray" stroke="gray" points="840.68,-224.77 841.72,-220.66 838.35,-223.22 840.68,-224.77"/>
</g>
<!-- p0x5b7926c2a7b0 -->
<g id="node41" class="node">
<title>p0x5b7926c2a7b0</title>
<polygon fill="lightpink" stroke="purple" points="674,-84 674,-120 728,-120 728,-84 674,-84"/>
<text text-anchor="middle" x="700.75" y="-96.95" font-family="Times,serif" font-size="14.00">exp</text>
</g>
<!-- p0x5b7926c2a870&#45;&gt;p0x5b7926c2a7b0 -->
<g id="edge40" class="edge">
<title>p0x5b7926c2a870&#45;&gt;p0x5b7926c2a7b0</title>
<path fill="none" stroke="gray" d="M758.49,-182.75C746.74,-166.46 729.13,-142.03 716.5,-124.51"/>
<polygon fill="gray" stroke="gray" points="717.77,-123.87 714.29,-121.44 715.49,-125.5 717.77,-123.87"/>
</g>
<!-- p0x5b7926c2a830 -->
<g id="node43" class="node">
<title>p0x5b7926c2a830</title>
<ellipse fill="lightgreen" stroke="green" cx="775" cy="-102" rx="18" ry="18"/>
<text text-anchor="middle" x="775" y="-96.95" font-family="Times,serif" font-size="14.00">2</text>
</g>
<!-- p0x5b7926c2a870&#45;&gt;p0x5b7926c2a830 -->
<g id="edge42" class="edge">
<title>p0x5b7926c2a870&#45;&gt;p0x5b7926c2a830</title>
<path fill="none" stroke="gray" d="M771.72,-182.75C772.37,-166.73 773.36,-142.86 774.08,-125.41"/>
<polygon fill="gray" stroke="gray" points="775.46,-125.78 774.23,-121.72 772.67,-125.66 775.46,-125.78"/>
</g>
<!-- p0x5b7926c2a7f0 -->
<g id="node42" class="node">
<title>p0x5b7926c2a7f0</title>
<ellipse fill="lightblue" stroke="blue" cx="701" cy="-22" rx="18" ry="18"/>
<ellipse fill="none" stroke="blue" cx="701" cy="-22" rx="22" ry="22"/>
<text text-anchor="middle" x="701" y="-16.95" font-family="Times,serif" font-size="14.00">x</text>
</g>
<!-- p0x5b7926c2a7b0&#45;&gt;p0x5b7926c2a7f0 -->
<g id="edge41" class="edge">
<title>p0x5b7926c2a7b0&#45;&gt;p0x5b7926c2a7f0</title>
<path fill="none" stroke="gray" d="M701,-83.69C701,-73.74 701,-61.02 701,-49.81"/>
<polygon fill="gray" stroke="gray" points="702.4,-49.95 701,-45.95 699.6,-49.95 702.4,-49.95"/>
</g>
<!-- p0x5b7926c2a8f0 -->
<g id="node45" class="node">
<title>p0x5b7926c2a8f0</title>
<ellipse fill="lightgreen" stroke="green" cx="849" cy="-102" rx="18" ry="18"/>
<text text-anchor="middle" x="849" y="-96.95" font-family="Times,serif" font-size="14.00">2</text>
</g>
<!-- p0x5b7926c2a8b0&#45;&gt;p0x5b7926c2a8f0 -->
<g id="edge44" class="edge">
<title>p0x5b7926c2a8b0&#45;&gt;p0x5b7926c2a8f0</title>
<path fill="none" stroke="gray" d="M853.11,-182.75C852.28,-166.73 851.05,-142.86 850.15,-125.41"/>
<polygon fill="gray" stroke="gray" points="851.57,-125.65 849.96,-121.72 848.77,-125.79 851.57,-125.65"/>
</g>
<!-- p0x5b7926c2a930 -->
<g id="node46" class="node">
<title>p0x5b7926c2a930</title>
<polygon fill="lightpink" stroke="purple" points="896,-84 896,-120 950,-120 950,-84 896,-84"/>
<text text-anchor="middle" x="922.75" y="-96.95" font-family="Times,serif" font-size="14.00">exp</text>
</g>
<!-- p0x5b7926c2a8b0&#45;&gt;p0x5b7926c2a930 -->
<g id="edge45" class="edge">
<title>p0x5b7926c2a8b0&#45;&gt;p0x5b7926c2a930</title>
<path fill="none" stroke="gray" d="M866.34,-182.75C877.91,-166.46 895.27,-142.03 907.72,-124.51"/>
<polygon fill="gray" stroke="gray" points="908.72,-125.52 909.89,-121.45 906.44,-123.9 908.72,-125.52"/>
</g>
<!-- p0x5b7926c2a970 -->
<g id="node47" class="node">
<title>p0x5b7926c2a970</title>
<ellipse fill="lightblue" stroke="blue" cx="923" cy="-22" rx="18" ry="18"/>
<ellipse fill="none" stroke="blue" cx="923" cy="-22" rx="22" ry="22"/>
<text text-anchor="middle" x="923" y="-16.95" font-family="Times,serif" font-size="14.00">x</text>
</g>
<!-- p0x5b7926c2a930&#45;&gt;p0x5b7926c2a970 -->
<g id="edge46" class="edge">
<title>p0x5b7926c2a930&#45;&gt;p0x5b7926c2a970</title>
<path fill="none" stroke="gray" d="M923,-83.69C923,-73.74 923,-61.02 923,-49.81"/>
<polygon fill="gray" stroke="gray" points="924.4,-49.95 923,-45.95 921.6,-49.95 924.4,-49.95"/>
</g>
<!-- p0x5b7926c2b680 -->
<g id="node50" class="node">
<title>p0x5b7926c2b680</title>
<polygon fill="lightpink" stroke="purple" points="951,-406.17 951,-442.17 1005,-442.17 1005,-406.17 951,-406.17"/>
<text text-anchor="middle" x="977.62" y="-419.12" font-family="Times,serif" font-size="14.00">+</text>
</g>
<!-- p0x5b7926c2ba40&#45;&gt;p0x5b7926c2b680 -->
<g id="edge49" class="edge">
<title>p0x5b7926c2ba40&#45;&gt;p0x5b7926c2b680</title>
<path fill="none" stroke="gray" d="M931.77,-479.06C940.23,-469.19 950.93,-456.73 959.9,-446.27"/>
<polygon fill="gray" stroke="gray" points="960.84,-447.32 962.38,-443.37 958.72,-445.5 960.84,-447.32"/>
</g>
<!-- p0x5b7926c2b6c0 -->
<g id="node51" class="node">
<title>p0x5b7926c2b6c0</title>
<polygon fill="lightpink" stroke="purple" points="951,-305.95 951,-341.95 1005,-341.95 1005,-305.95 951,-305.95"/>
<text text-anchor="middle" x="978" y="-318.9" font-family="Times,serif" font-size="14.00">cos</text>
</g>
<!-- p0x5b7926c2b680&#45;&gt;p0x5b7926c2b6c0 -->
<g id="edge50" class="edge">
<title>p0x5b7926c2b680&#45;&gt;p0x5b7926c2b6c0</title>
<path fill="none" stroke="gray" d="M978,-406.06C978,-389.83 978,-365.32 978,-347.5"/>
<polygon fill="gray" stroke="gray" points="979.4,-347.71 978,-343.71 976.6,-347.71 979.4,-347.71"/>
</g>
<!-- p0x5b7926c2b740 -->
<g id="node53" class="node">
<title>p0x5b7926c2b740</title>
<polygon fill="lightpink" stroke="purple" points="1034,-305.95 1034,-341.95 1088,-341.95 1088,-305.95 1034,-305.95"/>
<text text-anchor="middle" x="1060.75" y="-318.9" font-family="Times,serif" font-size="14.00">&#45;</text>
</g>
<!-- p0x5b7926c2b680&#45;&gt;p0x5b7926c2b740 -->
<g id="edge52" class="edge">
<title>p0x5b7926c2b680&#45;&gt;p0x5b7926c2b740</title>
<path fill="none" stroke="gray" d="M992.46,-406.06C1006.53,-389.41 1027.96,-364.05 1043.11,-346.13"/>
<polygon fill="gray" stroke="gray" points="1043.94,-347.31 1045.45,-343.35 1041.8,-345.5 1043.94,-347.31"/>
</g>
<!-- p0x5b7926c2b700 -->
<g id="node52" class="node">
<title>p0x5b7926c2b700</title>
<ellipse fill="lightblue" stroke="blue" cx="978" cy="-201.12" rx="18" ry="18"/>
<ellipse fill="none" stroke="blue" cx="978" cy="-201.12" rx="22" ry="22"/>
<text text-anchor="middle" x="978" y="-196.07" font-family="Times,serif" font-size="14.00">x</text>
</g>
<!-- p0x5b7926c2b6c0&#45;&gt;p0x5b7926c2b700 -->
<g id="edge51" class="edge">
<title>p0x5b7926c2b6c0&#45;&gt;p0x5b7926c2b700</title>
<path fill="none" stroke="gray" d="M978,-305.64C978,-285.58 978,-252.3 978,-228.9"/>
<polygon fill="gray" stroke="gray" points="979.4,-228.98 978,-224.98 976.6,-228.98 979.4,-228.98"/>
</g>
<!-- p0x5b7926c2b780 -->
<g id="node54" class="node">
<title>p0x5b7926c2b780</title>
<polygon fill="lightpink" stroke="purple" points="1032,-183.12 1032,-219.12 1086,-219.12 1086,-183.12 1032,-183.12"/>
<text text-anchor="middle" x="1058.88" y="-196.07" font-family="Times,serif" font-size="14.00">^</text>
</g>
<!-- p0x5b7926c2b740&#45;&gt;p0x5b7926c2b780 -->
<g id="edge53" class="edge">
<title>p0x5b7926c2b740&#45;&gt;p0x5b7926c2b780</title>
<path fill="none" stroke="gray" d="M1060.71,-305.64C1060.36,-284.37 1059.76,-248.24 1059.38,-224.78"/>
<polygon fill="gray" stroke="gray" points="1060.78,-224.89 1059.31,-220.91 1057.98,-224.93 1060.78,-224.89"/>
</g>
<!-- p0x5b7926c2b300 -->
<g id="node58" class="node">
<title>p0x5b7926c2b300</title>
<ellipse fill="lightgreen" stroke="green" cx="1156" cy="-201.12" rx="41.12" ry="41.12"/>
<text text-anchor="middle" x="1156" y="-196.07" font-family="Times,serif" font-size="14.00">1.25992</text>
</g>
<!-- p0x5b7926c2b740&#45;&gt;p0x5b7926c2b300 -->
<g id="edge57" class="edge">
<title>p0x5b7926c2b740&#45;&gt;p0x5b7926c2b300</title>
<path fill="none" stroke="gray" d="M1074.61,-305.64C1088.42,-288.07 1110.22,-260.35 1127.78,-238.01"/>
<polygon fill="gray" stroke="gray" points="1128.7,-239.11 1130.07,-235.1 1126.49,-237.38 1128.7,-239.11"/>
</g>
<!-- p0x5b7926c2b7c0 -->
<g id="node55" class="node">
<title>p0x5b7926c2b7c0</title>
<polygon fill="lightpink" stroke="purple" points="1009,-84 1009,-120 1063,-120 1063,-84 1009,-84"/>
<text text-anchor="middle" x="1035.75" y="-96.95" font-family="Times,serif" font-size="14.00">exp</text>
</g>
<!-- p0x5b7926c2b780&#45;&gt;p0x5b7926c2b7c0 -->
<g id="edge54" class="edge">
<title>p0x5b7926c2b780&#45;&gt;p0x5b7926c2b7c0</title>
<path fill="none" stroke="gray" d="M1054.89,-182.75C1051.09,-166.73 1045.44,-142.86 1041.31,-125.41"/>
<polygon fill="gray" stroke="gray" points="1042.71,-125.25 1040.43,-121.68 1039.98,-125.9 1042.71,-125.25"/>
</g>
<!-- p0x5b7926c2b840 -->
<g id="node57" class="node">
<title>p0x5b7926c2b840</title>
<ellipse fill="lightgreen" stroke="green" cx="1110" cy="-102" rx="18" ry="18"/>
<text text-anchor="middle" x="1110" y="-96.95" font-family="Times,serif" font-size="14.00">2</text>
</g>
<!-- p0x5b7926c2b780&#45;&gt;p0x5b7926c2b840 -->
<g id="edge56" class="edge">
<title>p0x5b7926c2b780&#45;&gt;p0x5b7926c2b840</title>
<path fill="none" stroke="gray" d="M1068.12,-182.75C1076.92,-166 1090.23,-140.65 1099.48,-123.04"/>
<polygon fill="gray" stroke="gray" points="1100.64,-123.83 1101.26,-119.63 1098.17,-122.52 1100.64,-123.83"/>
</g>
<!-- p0x5b7926c2b800 -->
<g id="node56" class="node">
<title>p0x5b7926c2b800</title>
<ellipse fill="lightblue" stroke="blue" cx="1036" cy="-22" rx="18" ry="18"/>
<ellipse fill="none" stroke="blue" cx="1036" cy="-22" rx="22" ry="22"/>
<text text-anchor="middle" x="1036" y="-16.95" font-family="Times,serif" font-size="14.00">x</text>
</g>
<!-- p0x5b7926c2b7c0&#45;&gt;p0x5b7926c2b800 -->
<g id="edge55" class="edge">
<title>p0x5b7926c2b7c0&#45;&gt;p0x5b7926c2b800</title>
<path fill="none" stroke="gray" d="M1036,-83.69C1036,-73.74 1036,-61.02 1036,-49.81"/>
<polygon fill="gray" stroke="gray" points="1037.4,-49.95 1036,-45.95 1034.6,-49.95 1037.4,-49.95"/>
</g>
</g>
</svg>
