<?xml version="1.0" encoding="UTF-8" standalone="no"?>
<!DOCTYPE svg PUBLIC "-//W3C//DTD SVG 1.1//EN"
 "http://www.w3.org/Graphics/SVG/1.1/DTD/svg11.dtd">
<!-- Generated by graphviz version 12.1.2 (0)
 -->
<!-- Title: diffTree Pages: 1 -->
<svg width="599pt" height="650pt"
 viewBox="0.00 0.00 599.00 650.00" xmlns="http://www.w3.org/2000/svg" xmlns:xlink="http://www.w3.org/1999/xlink">
<g id="graph0" class="graph" transform="scale(1 1) rotate(0) translate(4 646)">
<title>diffTree</title>
<polygon fill="white" stroke="none" points="-4,4 -4,-646 595,-646 595,4 -4,4"/>
<!-- p0x5606e6d12c30 -->
<g id="node1" class="node">
<title>p0x5606e6d12c30</title>
<polygon fill="lightpink" stroke="purple" points="145,-605.5 145,-641.5 199,-641.5 199,-605.5 145,-605.5"/>
<text text-anchor="middle" x="171.88" y="-618.45" font-family="Times,serif" font-size="14.00">*</text>
</g>
<!-- p0x5606e6d125d0 -->
<g id="node2" class="node">
<title>p0x5606e6d125d0</title>
<polygon fill="lightpink" stroke="purple" points="104,-532.5 104,-568.5 158,-568.5 158,-532.5 104,-532.5"/>
<text text-anchor="middle" x="130.75" y="-545.45" font-family="Times,serif" font-size="14.00">exp</text>
</g>
<!-- p0x5606e6d12c30&#45;&gt;p0x5606e6d125d0 -->
<g id="edge1" class="edge">
<title>p0x5606e6d12c30&#45;&gt;p0x5606e6d125d0</title>
<path fill="none" stroke="gray" d="M162.08,-605.31C156.48,-595.63 149.45,-583.45 143.49,-573.13"/>
<polygon fill="gray" stroke="gray" points="144.8,-572.6 141.59,-569.84 142.38,-574 144.8,-572.6"/>
</g>
<!-- p0x5606e6d12c00 -->
<g id="node11" class="node">
<title>p0x5606e6d12c00</title>
<polygon fill="lightpink" stroke="purple" points="228,-532.5 228,-568.5 282,-568.5 282,-532.5 228,-532.5"/>
<text text-anchor="middle" x="254.62" y="-545.45" font-family="Times,serif" font-size="14.00">+</text>
</g>
<!-- p0x5606e6d12c30&#45;&gt;p0x5606e6d12c00 -->
<g id="edge10" class="edge">
<title>p0x5606e6d12c30&#45;&gt;p0x5606e6d12c00</title>
<path fill="none" stroke="gray" d="M192.09,-605.31C203.73,-595.36 218.46,-582.76 230.74,-572.25"/>
<polygon fill="gray" stroke="gray" points="231.53,-573.42 233.66,-569.76 229.71,-571.3 231.53,-573.42"/>
</g>
<!-- p0x5606e6d125a0 -->
<g id="node3" class="node">
<title>p0x5606e6d125a0</title>
<polygon fill="lightpink" stroke="purple" points="83,-459.5 83,-495.5 137,-495.5 137,-459.5 83,-459.5"/>
<text text-anchor="middle" x="109.88" y="-472.45" font-family="Times,serif" font-size="14.00">*</text>
</g>
<!-- p0x5606e6d125d0&#45;&gt;p0x5606e6d125a0 -->
<g id="edge2" class="edge">
<title>p0x5606e6d125d0&#45;&gt;p0x5606e6d125a0</title>
<path fill="none" stroke="gray" d="M125.92,-532.31C123.1,-522.81 119.58,-510.89 116.56,-500.69"/>
<polygon fill="gray" stroke="gray" points="117.94,-500.42 115.47,-496.98 115.26,-501.21 117.94,-500.42"/>
</g>
<!-- p0x5606e6d12450 -->
<g id="node4" class="node">
<title>p0x5606e6d12450</title>
<polygon fill="lightpink" stroke="purple" points="0,-386.5 0,-422.5 54,-422.5 54,-386.5 0,-386.5"/>
<text text-anchor="middle" x="26.88" y="-399.45" font-family="Times,serif" font-size="14.00">sin</text>
</g>
<!-- p0x5606e6d125a0&#45;&gt;p0x5606e6d12450 -->
<g id="edge3" class="edge">
<title>p0x5606e6d125a0&#45;&gt;p0x5606e6d12450</title>
<path fill="none" stroke="gray" d="M89.91,-459.31C78.27,-449.36 63.54,-436.76 51.26,-426.25"/>
<polygon fill="gray" stroke="gray" points="52.29,-425.3 48.34,-423.76 50.47,-427.42 52.29,-425.3"/>
</g>
<!-- p0x5606e6d12570 -->
<g id="node6" class="node">
<title>p0x5606e6d12570</title>
<polygon fill="lightpink" stroke="purple" points="83,-386.5 83,-422.5 137,-422.5 137,-386.5 83,-386.5"/>
<text text-anchor="middle" x="109.75" y="-399.45" font-family="Times,serif" font-size="14.00">ln</text>
</g>
<!-- p0x5606e6d125a0&#45;&gt;p0x5606e6d12570 -->
<g id="edge5" class="edge">
<title>p0x5606e6d125a0&#45;&gt;p0x5606e6d12570</title>
<path fill="none" stroke="gray" d="M110,-459.31C110,-449.89 110,-438.11 110,-427.97"/>
<polygon fill="gray" stroke="gray" points="111.4,-428.04 110,-424.04 108.6,-428.04 111.4,-428.04"/>
</g>
<!-- p0x5606e6d12480 -->
<g id="node5" class="node">
<title>p0x5606e6d12480</title>
<ellipse fill="lightblue" stroke="blue" cx="27" cy="-328" rx="18" ry="18"/>
<ellipse fill="none" stroke="blue" cx="27" cy="-328" rx="22" ry="22"/>
<text text-anchor="middle" x="27" y="-322.95" font-family="Times,serif" font-size="14.00">x</text>
</g>
<!-- p0x5606e6d12450&#45;&gt;p0x5606e6d12480 -->
<g id="edge4" class="edge">
<title>p0x5606e6d12450&#45;&gt;p0x5606e6d12480</title>
<path fill="none" stroke="gray" d="M27,-386.22C27,-377.23 27,-366.03 27,-355.93"/>
<polygon fill="gray" stroke="gray" points="28.4,-355.96 27,-351.96 25.6,-355.96 28.4,-355.96"/>
</g>
<!-- p0x5606e6d124b0 -->
<g id="node7" class="node">
<title>p0x5606e6d124b0</title>
<polygon fill="lightpink" stroke="purple" points="83,-310 83,-346 137,-346 137,-310 83,-310"/>
<text text-anchor="middle" x="110" y="-322.95" font-family="Times,serif" font-size="14.00">cos</text>
</g>
<!-- p0x5606e6d12570&#45;&gt;p0x5606e6d124b0 -->
<g id="edge6" class="edge">
<title>p0x5606e6d12570&#45;&gt;p0x5606e6d124b0</title>
<path fill="none" stroke="gray" d="M110,-386.22C110,-375.95 110,-362.81 110,-351.71"/>
<polygon fill="gray" stroke="gray" points="111.4,-351.96 110,-347.96 108.6,-351.96 111.4,-351.96"/>
</g>
<!-- p0x5606e6d124e0 -->
<g id="node8" class="node">
<title>p0x5606e6d124e0</title>
<polygon fill="lightpink" stroke="purple" points="83,-233.5 83,-269.5 137,-269.5 137,-233.5 83,-233.5"/>
<text text-anchor="middle" x="109.88" y="-246.45" font-family="Times,serif" font-size="14.00">*</text>
</g>
<!-- p0x5606e6d124b0&#45;&gt;p0x5606e6d124e0 -->
<g id="edge7" class="edge">
<title>p0x5606e6d124b0&#45;&gt;p0x5606e6d124e0</title>
<path fill="none" stroke="gray" d="M110,-309.72C110,-299.45 110,-286.31 110,-275.21"/>
<polygon fill="gray" stroke="gray" points="111.4,-275.46 110,-271.46 108.6,-275.46 111.4,-275.46"/>
</g>
<!-- p0x5606e6d12510 -->
<g id="node9" class="node">
<title>p0x5606e6d12510</title>
<ellipse fill="lightgreen" stroke="green" cx="45" cy="-175" rx="18" ry="18"/>
<text text-anchor="middle" x="45" y="-169.95" font-family="Times,serif" font-size="14.00">5</text>
</g>
<!-- p0x5606e6d124e0&#45;&gt;p0x5606e6d12510 -->
<g id="edge8" class="edge">
<title>p0x5606e6d124e0&#45;&gt;p0x5606e6d12510</title>
<path fill="none" stroke="gray" d="M94.92,-233.22C84.41,-221.17 70.45,-205.16 59.96,-193.15"/>
<polygon fill="gray" stroke="gray" points="61.23,-192.47 57.54,-190.37 59.12,-194.31 61.23,-192.47"/>
</g>
<!-- p0x5606e6d12540 -->
<g id="node10" class="node">
<title>p0x5606e6d12540</title>
<ellipse fill="lightblue" stroke="blue" cx="114" cy="-175" rx="18" ry="18"/>
<ellipse fill="none" stroke="blue" cx="114" cy="-175" rx="22" ry="22"/>
<text text-anchor="middle" x="114" y="-169.95" font-family="Times,serif" font-size="14.00">x</text>
</g>
<!-- p0x5606e6d124e0&#45;&gt;p0x5606e6d12540 -->
<g id="edge9" class="edge">
<title>p0x5606e6d124e0&#45;&gt;p0x5606e6d12540</title>
<path fill="none" stroke="gray" d="M110.93,-233.22C111.41,-224.23 112.01,-213.03 112.55,-202.93"/>
<polygon fill="gray" stroke="gray" points="113.95,-203.03 112.77,-198.96 111.15,-202.88 113.95,-203.03"/>
</g>
<!-- p0x5606e6d127b0 -->
<g id="node12" class="node">
<title>p0x5606e6d127b0</title>
<polygon fill="lightpink" stroke="purple" points="228,-459.5 228,-495.5 282,-495.5 282,-459.5 228,-459.5"/>
<text text-anchor="middle" x="254.88" y="-472.45" font-family="Times,serif" font-size="14.00">*</text>
</g>
<!-- p0x5606e6d12c00&#45;&gt;p0x5606e6d127b0 -->
<g id="edge11" class="edge">
<title>p0x5606e6d12c00&#45;&gt;p0x5606e6d127b0</title>
<path fill="none" stroke="gray" d="M255,-532.31C255,-522.89 255,-511.11 255,-500.97"/>
<polygon fill="gray" stroke="gray" points="256.4,-501.04 255,-497.04 253.6,-501.04 256.4,-501.04"/>
</g>
<!-- p0x5606e6d12bd0 -->
<g id="node20" class="node">
<title>p0x5606e6d12bd0</title>
<polygon fill="lightpink" stroke="purple" points="332,-459.5 332,-495.5 386,-495.5 386,-459.5 332,-459.5"/>
<text text-anchor="middle" x="358.88" y="-472.45" font-family="Times,serif" font-size="14.00">*</text>
</g>
<!-- p0x5606e6d12c00&#45;&gt;p0x5606e6d12bd0 -->
<g id="edge19" class="edge">
<title>p0x5606e6d12c00&#45;&gt;p0x5606e6d12bd0</title>
<path fill="none" stroke="gray" d="M280.44,-532.13C295.17,-522.07 313.79,-509.36 329.2,-498.84"/>
<polygon fill="gray" stroke="gray" points="329.7,-500.2 332.21,-496.79 328.12,-497.89 329.7,-500.2"/>
</g>
<!-- p0x5606e6d12c60 -->
<g id="node13" class="node">
<title>p0x5606e6d12c60</title>
<polygon fill="lightpink" stroke="purple" points="166,-386.5 166,-422.5 220,-422.5 220,-386.5 166,-386.5"/>
<text text-anchor="middle" x="193" y="-399.45" font-family="Times,serif" font-size="14.00">cos</text>
</g>
<!-- p0x5606e6d127b0&#45;&gt;p0x5606e6d12c60 -->
<g id="edge12" class="edge">
<title>p0x5606e6d127b0&#45;&gt;p0x5606e6d12c60</title>
<path fill="none" stroke="gray" d="M239.99,-459.31C231.39,-449.46 220.52,-437.01 211.4,-426.57"/>
<polygon fill="gray" stroke="gray" points="212.55,-425.76 208.87,-423.67 210.44,-427.6 212.55,-425.76"/>
</g>
<!-- p0x5606e6d12780 -->
<g id="node15" class="node">
<title>p0x5606e6d12780</title>
<polygon fill="lightpink" stroke="purple" points="249,-386.5 249,-422.5 303,-422.5 303,-386.5 249,-386.5"/>
<text text-anchor="middle" x="275.75" y="-399.45" font-family="Times,serif" font-size="14.00">ln</text>
</g>
<!-- p0x5606e6d127b0&#45;&gt;p0x5606e6d12780 -->
<g id="edge14" class="edge">
<title>p0x5606e6d127b0&#45;&gt;p0x5606e6d12780</title>
<path fill="none" stroke="gray" d="M260.08,-459.31C262.9,-449.81 266.42,-437.89 269.44,-427.69"/>
<polygon fill="gray" stroke="gray" points="270.74,-428.21 270.53,-423.98 268.06,-427.42 270.74,-428.21"/>
</g>
<!-- p0x5606e6d12c90 -->
<g id="node14" class="node">
<title>p0x5606e6d12c90</title>
<ellipse fill="lightblue" stroke="blue" cx="193" cy="-328" rx="18" ry="18"/>
<ellipse fill="none" stroke="blue" cx="193" cy="-328" rx="22" ry="22"/>
<text text-anchor="middle" x="193" y="-322.95" font-family="Times,serif" font-size="14.00">x</text>
</g>
<!-- p0x5606e6d12c60&#45;&gt;p0x5606e6d12c90 -->
<g id="edge13" class="edge">
<title>p0x5606e6d12c60&#45;&gt;p0x5606e6d12c90</title>
<path fill="none" stroke="gray" d="M193,-386.22C193,-377.23 193,-366.03 193,-355.93"/>
<polygon fill="gray" stroke="gray" points="194.4,-355.96 193,-351.96 191.6,-355.96 194.4,-355.96"/>
</g>
<!-- p0x5606e6d126c0 -->
<g id="node16" class="node">
<title>p0x5606e6d126c0</title>
<polygon fill="lightpink" stroke="purple" points="246,-310 246,-346 300,-346 300,-310 246,-310"/>
<text text-anchor="middle" x="273" y="-322.95" font-family="Times,serif" font-size="14.00">cos</text>
</g>
<!-- p0x5606e6d12780&#45;&gt;p0x5606e6d126c0 -->
<g id="edge15" class="edge">
<title>p0x5606e6d12780&#45;&gt;p0x5606e6d126c0</title>
<path fill="none" stroke="gray" d="M275.3,-386.22C274.89,-375.95 274.36,-362.81 273.91,-351.71"/>
<polygon fill="gray" stroke="gray" points="275.32,-351.9 273.76,-347.96 272.53,-352.01 275.32,-351.9"/>
</g>
<!-- p0x5606e6d126f0 -->
<g id="node17" class="node">
<title>p0x5606e6d126f0</title>
<polygon fill="lightpink" stroke="purple" points="243,-233.5 243,-269.5 297,-269.5 297,-233.5 243,-233.5"/>
<text text-anchor="middle" x="269.88" y="-246.45" font-family="Times,serif" font-size="14.00">*</text>
</g>
<!-- p0x5606e6d126c0&#45;&gt;p0x5606e6d126f0 -->
<g id="edge16" class="edge">
<title>p0x5606e6d126c0&#45;&gt;p0x5606e6d126f0</title>
<path fill="none" stroke="gray" d="M272.3,-309.72C271.89,-299.45 271.36,-286.31 270.91,-275.21"/>
<polygon fill="gray" stroke="gray" points="272.32,-275.4 270.76,-271.46 269.53,-275.51 272.32,-275.4"/>
</g>
<!-- p0x5606e6d12720 -->
<g id="node18" class="node">
<title>p0x5606e6d12720</title>
<ellipse fill="lightgreen" stroke="green" cx="203" cy="-175" rx="18" ry="18"/>
<text text-anchor="middle" x="203" y="-169.95" font-family="Times,serif" font-size="14.00">5</text>
</g>
<!-- p0x5606e6d126f0&#45;&gt;p0x5606e6d12720 -->
<g id="edge17" class="edge">
<title>p0x5606e6d126f0&#45;&gt;p0x5606e6d12720</title>
<path fill="none" stroke="gray" d="M254.46,-233.22C243.49,-221.02 228.86,-204.75 218.01,-192.68"/>
<polygon fill="gray" stroke="gray" points="219.21,-191.93 215.49,-189.89 217.13,-193.8 219.21,-191.93"/>
</g>
<!-- p0x5606e6d12750 -->
<g id="node19" class="node">
<title>p0x5606e6d12750</title>
<ellipse fill="lightblue" stroke="blue" cx="272" cy="-175" rx="18" ry="18"/>
<ellipse fill="none" stroke="blue" cx="272" cy="-175" rx="22" ry="22"/>
<text text-anchor="middle" x="272" y="-169.95" font-family="Times,serif" font-size="14.00">x</text>
</g>
<!-- p0x5606e6d126f0&#45;&gt;p0x5606e6d12750 -->
<g id="edge18" class="edge">
<title>p0x5606e6d126f0&#45;&gt;p0x5606e6d12750</title>
<path fill="none" stroke="gray" d="M270.46,-233.22C270.71,-224.23 271.01,-213.03 271.28,-202.93"/>
<polygon fill="gray" stroke="gray" points="272.68,-203 271.38,-198.96 269.88,-202.92 272.68,-203"/>
</g>
<!-- p0x5606e6d12b40 -->
<g id="node21" class="node">
<title>p0x5606e6d12b40</title>
<polygon fill="lightpink" stroke="purple" points="332,-386.5 332,-422.5 386,-422.5 386,-386.5 332,-386.5"/>
<text text-anchor="middle" x="358.88" y="-399.45" font-family="Times,serif" font-size="14.00">/</text>
</g>
<!-- p0x5606e6d12bd0&#45;&gt;p0x5606e6d12b40 -->
<g id="edge20" class="edge">
<title>p0x5606e6d12bd0&#45;&gt;p0x5606e6d12b40</title>
<path fill="none" stroke="gray" d="M359,-459.31C359,-449.89 359,-438.11 359,-427.97"/>
<polygon fill="gray" stroke="gray" points="360.4,-428.04 359,-424.04 357.6,-428.04 360.4,-428.04"/>
</g>
<!-- p0x5606e6d12b70 -->
<g id="node34" class="node">
<title>p0x5606e6d12b70</title>
<polygon fill="lightpink" stroke="purple" points="454,-386.5 454,-422.5 508,-422.5 508,-386.5 454,-386.5"/>
<text text-anchor="middle" x="480.88" y="-399.45" font-family="Times,serif" font-size="14.00">sin</text>
</g>
<!-- p0x5606e6d12bd0&#45;&gt;p0x5606e6d12b70 -->
<g id="edge33" class="edge">
<title>p0x5606e6d12bd0&#45;&gt;p0x5606e6d12b70</title>
<path fill="none" stroke="gray" d="M386.38,-460.57C405.06,-449.7 429.86,-435.26 449.38,-423.9"/>
<polygon fill="gray" stroke="gray" points="449.65,-425.36 452.4,-422.14 448.24,-422.94 449.65,-425.36"/>
</g>
<!-- p0x5606e6d12a50 -->
<g id="node22" class="node">
<title>p0x5606e6d12a50</title>
<polygon fill="lightpink" stroke="purple" points="330,-310 330,-346 384,-346 384,-310 330,-310"/>
<text text-anchor="middle" x="356.88" y="-322.95" font-family="Times,serif" font-size="14.00">*</text>
</g>
<!-- p0x5606e6d12b40&#45;&gt;p0x5606e6d12a50 -->
<g id="edge21" class="edge">
<title>p0x5606e6d12b40&#45;&gt;p0x5606e6d12a50</title>
<path fill="none" stroke="gray" d="M358.54,-386.22C358.26,-375.95 357.91,-362.81 357.61,-351.71"/>
<polygon fill="gray" stroke="gray" points="359.02,-351.92 357.51,-347.96 356.22,-351.99 359.02,-351.92"/>
</g>
<!-- p0x5606e6d12a80 -->
<g id="node30" class="node">
<title>p0x5606e6d12a80</title>
<polygon fill="lightpink" stroke="purple" points="413,-310 413,-346 467,-346 467,-310 413,-310"/>
<text text-anchor="middle" x="440" y="-322.95" font-family="Times,serif" font-size="14.00">cos</text>
</g>
<!-- p0x5606e6d12b40&#45;&gt;p0x5606e6d12a80 -->
<g id="edge29" class="edge">
<title>p0x5606e6d12b40&#45;&gt;p0x5606e6d12a80</title>
<path fill="none" stroke="gray" d="M377.79,-386.22C389.56,-375.39 404.81,-361.36 417.27,-349.91"/>
<polygon fill="gray" stroke="gray" points="417.92,-351.21 419.92,-347.47 416.03,-349.15 417.92,-351.21"/>
</g>
<!-- p0x5606e6d12870 -->
<g id="node23" class="node">
<title>p0x5606e6d12870</title>
<ellipse fill="lightgreen" stroke="green" cx="344" cy="-251.5" rx="18" ry="18"/>
<text text-anchor="middle" x="344" y="-246.45" font-family="Times,serif" font-size="14.00">5</text>
</g>
<!-- p0x5606e6d12a50&#45;&gt;p0x5606e6d12870 -->
<g id="edge22" class="edge">
<title>p0x5606e6d12a50&#45;&gt;p0x5606e6d12870</title>
<path fill="none" stroke="gray" d="M353.98,-309.72C352.18,-299.38 349.87,-286.12 347.92,-274.97"/>
<polygon fill="gray" stroke="gray" points="349.33,-274.88 347.26,-271.18 346.57,-275.36 349.33,-274.88"/>
</g>
<!-- p0x5606e6d12a20 -->
<g id="node24" class="node">
<title>p0x5606e6d12a20</title>
<polygon fill="lightpink" stroke="purple" points="391,-233.5 391,-269.5 445,-269.5 445,-233.5 391,-233.5"/>
<text text-anchor="middle" x="417.88" y="-246.45" font-family="Times,serif" font-size="14.00">*</text>
</g>
<!-- p0x5606e6d12a50&#45;&gt;p0x5606e6d12a20 -->
<g id="edge23" class="edge">
<title>p0x5606e6d12a50&#45;&gt;p0x5606e6d12a20</title>
<path fill="none" stroke="gray" d="M371.15,-309.72C379.86,-299.08 391.1,-285.35 400.39,-274"/>
<polygon fill="gray" stroke="gray" points="401.31,-275.1 402.76,-271.11 399.14,-273.32 401.31,-275.1"/>
</g>
<!-- p0x5606e6d12930 -->
<g id="node25" class="node">
<title>p0x5606e6d12930</title>
<ellipse fill="lightgreen" stroke="green" cx="348" cy="-175" rx="18.6" ry="18.6"/>
<text text-anchor="middle" x="348" y="-169.95" font-family="Times,serif" font-size="14.00">&#45;1</text>
</g>
<!-- p0x5606e6d12a20&#45;&gt;p0x5606e6d12930 -->
<g id="edge24" class="edge">
<title>p0x5606e6d12a20&#45;&gt;p0x5606e6d12930</title>
<path fill="none" stroke="gray" d="M401.76,-233.22C390.44,-221.17 375.4,-205.16 364.11,-193.15"/>
<polygon fill="gray" stroke="gray" points="365.23,-192.29 361.47,-190.34 363.19,-194.21 365.23,-192.29"/>
</g>
<!-- p0x5606e6d129f0 -->
<g id="node26" class="node">
<title>p0x5606e6d129f0</title>
<polygon fill="lightpink" stroke="purple" points="396,-157 396,-193 450,-193 450,-157 396,-157"/>
<text text-anchor="middle" x="422.88" y="-169.95" font-family="Times,serif" font-size="14.00">sin</text>
</g>
<!-- p0x5606e6d12a20&#45;&gt;p0x5606e6d129f0 -->
<g id="edge25" class="edge">
<title>p0x5606e6d12a20&#45;&gt;p0x5606e6d129f0</title>
<path fill="none" stroke="gray" d="M419.16,-233.22C419.85,-222.95 420.73,-209.81 421.48,-198.71"/>
<polygon fill="gray" stroke="gray" points="422.86,-199.04 421.73,-194.95 420.06,-198.85 422.86,-199.04"/>
</g>
<!-- p0x5606e6d12960 -->
<g id="node27" class="node">
<title>p0x5606e6d12960</title>
<polygon fill="lightpink" stroke="purple" points="396,-80.5 396,-116.5 450,-116.5 450,-80.5 396,-80.5"/>
<text text-anchor="middle" x="422.88" y="-93.45" font-family="Times,serif" font-size="14.00">*</text>
</g>
<!-- p0x5606e6d129f0&#45;&gt;p0x5606e6d12960 -->
<g id="edge26" class="edge">
<title>p0x5606e6d129f0&#45;&gt;p0x5606e6d12960</title>
<path fill="none" stroke="gray" d="M423,-156.72C423,-146.45 423,-133.31 423,-122.21"/>
<polygon fill="gray" stroke="gray" points="424.4,-122.46 423,-118.46 421.6,-122.46 424.4,-122.46"/>
</g>
<!-- p0x5606e6d12990 -->
<g id="node28" class="node">
<title>p0x5606e6d12990</title>
<ellipse fill="lightgreen" stroke="green" cx="389" cy="-22" rx="18" ry="18"/>
<text text-anchor="middle" x="389" y="-16.95" font-family="Times,serif" font-size="14.00">5</text>
</g>
<!-- p0x5606e6d12960&#45;&gt;p0x5606e6d12990 -->
<g id="edge27" class="edge">
<title>p0x5606e6d12960&#45;&gt;p0x5606e6d12990</title>
<path fill="none" stroke="gray" d="M415.11,-80.22C410.1,-69.24 403.59,-54.97 398.32,-43.43"/>
<polygon fill="gray" stroke="gray" points="399.71,-43.1 396.78,-40.04 397.16,-44.26 399.71,-43.1"/>
</g>
<!-- p0x5606e6d129c0 -->
<g id="node29" class="node">
<title>p0x5606e6d129c0</title>
<ellipse fill="lightblue" stroke="blue" cx="458" cy="-22" rx="18" ry="18"/>
<ellipse fill="none" stroke="blue" cx="458" cy="-22" rx="22" ry="22"/>
<text text-anchor="middle" x="458" y="-16.95" font-family="Times,serif" font-size="14.00">x</text>
</g>
<!-- p0x5606e6d12960&#45;&gt;p0x5606e6d129c0 -->
<g id="edge28" class="edge">
<title>p0x5606e6d12960&#45;&gt;p0x5606e6d129c0</title>
<path fill="none" stroke="gray" d="M431.12,-80.22C435.74,-70.38 441.6,-57.9 446.67,-47.11"/>
<polygon fill="gray" stroke="gray" points="447.86,-47.87 448.3,-43.65 445.33,-46.68 447.86,-47.87"/>
</g>
<!-- p0x5606e6d12ab0 -->
<g id="node31" class="node">
<title>p0x5606e6d12ab0</title>
<polygon fill="lightpink" stroke="purple" points="474,-233.5 474,-269.5 528,-269.5 528,-233.5 474,-233.5"/>
<text text-anchor="middle" x="500.88" y="-246.45" font-family="Times,serif" font-size="14.00">*</text>
</g>
<!-- p0x5606e6d12a80&#45;&gt;p0x5606e6d12ab0 -->
<g id="edge30" class="edge">
<title>p0x5606e6d12a80&#45;&gt;p0x5606e6d12ab0</title>
<path fill="none" stroke="gray" d="M454.15,-309.72C462.86,-299.08 474.1,-285.35 483.39,-274"/>
<polygon fill="gray" stroke="gray" points="484.31,-275.1 485.76,-271.11 482.14,-273.32 484.31,-275.1"/>
</g>
<!-- p0x5606e6d12ae0 -->
<g id="node32" class="node">
<title>p0x5606e6d12ae0</title>
<ellipse fill="lightgreen" stroke="green" cx="500" cy="-175" rx="18" ry="18"/>
<text text-anchor="middle" x="500" y="-169.95" font-family="Times,serif" font-size="14.00">5</text>
</g>
<!-- p0x5606e6d12ab0&#45;&gt;p0x5606e6d12ae0 -->
<g id="edge31" class="edge">
<title>p0x5606e6d12ab0&#45;&gt;p0x5606e6d12ae0</title>
<path fill="none" stroke="gray" d="M500.77,-233.22C500.63,-222.95 500.45,-209.81 500.3,-198.71"/>
<polygon fill="gray" stroke="gray" points="501.71,-198.94 500.25,-194.96 498.91,-198.98 501.71,-198.94"/>
</g>
<!-- p0x5606e6d12b10 -->
<g id="node33" class="node">
<title>p0x5606e6d12b10</title>
<ellipse fill="lightblue" stroke="blue" cx="569" cy="-175" rx="18" ry="18"/>
<ellipse fill="none" stroke="blue" cx="569" cy="-175" rx="22" ry="22"/>
<text text-anchor="middle" x="569" y="-169.95" font-family="Times,serif" font-size="14.00">x</text>
</g>
<!-- p0x5606e6d12ab0&#45;&gt;p0x5606e6d12b10 -->
<g id="edge32" class="edge">
<title>p0x5606e6d12ab0&#45;&gt;p0x5606e6d12b10</title>
<path fill="none" stroke="gray" d="M516.77,-233.22C527.06,-221.94 540.52,-207.2 551.2,-195.5"/>
<polygon fill="gray" stroke="gray" points="552.02,-196.68 553.68,-192.78 549.95,-194.79 552.02,-196.68"/>
</g>
<!-- p0x5606e6d12ba0 -->
<g id="node35" class="node">
<title>p0x5606e6d12ba0</title>
<ellipse fill="lightblue" stroke="blue" cx="518" cy="-328" rx="18" ry="18"/>
<ellipse fill="none" stroke="blue" cx="518" cy="-328" rx="22" ry="22"/>
<text text-anchor="middle" x="518" y="-322.95" font-family="Times,serif" font-size="14.00">x</text>
</g>
<!-- p0x5606e6d12b70&#45;&gt;p0x5606e6d12ba0 -->
<g id="edge34" class="edge">
<title>p0x5606e6d12b70&#45;&gt;p0x5606e6d12ba0</title>
<path fill="none" stroke="gray" d="M489.58,-386.22C494.47,-376.38 500.67,-363.9 506.03,-353.11"/>
<polygon fill="gray" stroke="gray" points="507.22,-353.84 507.75,-349.64 504.72,-352.6 507.22,-353.84"/>
</g>
</g>
</svg>
