<?xml version="1.0" encoding="UTF-8" standalone="no"?>
<!DOCTYPE svg PUBLIC "-//W3C//DTD SVG 1.1//EN"
 "http://www.w3.org/Graphics/SVG/1.1/DTD/svg11.dtd">
<!-- Generated by graphviz version 12.1.2 (0)
 -->
<!-- Title: diffTree Pages: 1 -->
<svg width="513pt" height="577pt"
 viewBox="0.00 0.00 513.00 577.00" xmlns="http://www.w3.org/2000/svg" xmlns:xlink="http://www.w3.org/1999/xlink">
<g id="graph0" class="graph" transform="scale(1 1) rotate(0) translate(4 573)">
<title>diffTree</title>
<polygon fill="white" stroke="none" points="-4,4 -4,-573 509,-573 509,4 -4,4"/>
<!-- p0x5687785f6af0 -->
<g id="node1" class="node">
<title>p0x5687785f6af0</title>
<polygon fill="lightpink" stroke="purple" points="290,-532.5 290,-568.5 344,-568.5 344,-532.5 290,-532.5"/>
<text text-anchor="middle" x="316.88" y="-545.45" font-family="Times,serif" font-size="14.00">/</text>
</g>
<!-- p0x5687785f69a0 -->
<g id="node2" class="node">
<title>p0x5687785f69a0</title>
<polygon fill="lightpink" stroke="purple" points="249,-459.5 249,-495.5 303,-495.5 303,-459.5 249,-459.5"/>
<text text-anchor="middle" x="275.75" y="-472.45" font-family="Times,serif" font-size="14.00">&#45;</text>
</g>
<!-- p0x5687785f6af0&#45;&gt;p0x5687785f69a0 -->
<g id="edge1" class="edge">
<title>p0x5687785f6af0&#45;&gt;p0x5687785f69a0</title>
<path fill="none" stroke="gray" d="M307.08,-532.31C301.48,-522.63 294.45,-510.45 288.49,-500.13"/>
<polygon fill="gray" stroke="gray" points="289.8,-499.6 286.59,-496.84 287.38,-501 289.8,-499.6"/>
</g>
<!-- p0x5687785f6ac0 -->
<g id="node21" class="node">
<title>p0x5687785f6ac0</title>
<polygon fill="lightpink" stroke="purple" points="373,-459.5 373,-495.5 427,-495.5 427,-459.5 373,-459.5"/>
<text text-anchor="middle" x="399.88" y="-472.45" font-family="Times,serif" font-size="14.00">^</text>
</g>
<!-- p0x5687785f6af0&#45;&gt;p0x5687785f6ac0 -->
<g id="edge20" class="edge">
<title>p0x5687785f6af0&#45;&gt;p0x5687785f6ac0</title>
<path fill="none" stroke="gray" d="M337.09,-532.31C348.73,-522.36 363.46,-509.76 375.74,-499.25"/>
<polygon fill="gray" stroke="gray" points="376.53,-500.42 378.66,-496.76 374.71,-498.3 376.53,-500.42"/>
</g>
<!-- p0x5687785f67c0 -->
<g id="node3" class="node">
<title>p0x5687785f67c0</title>
<polygon fill="lightpink" stroke="purple" points="145,-386.5 145,-422.5 199,-422.5 199,-386.5 145,-386.5"/>
<text text-anchor="middle" x="171.88" y="-399.45" font-family="Times,serif" font-size="14.00">*</text>
</g>
<!-- p0x5687785f69a0&#45;&gt;p0x5687785f67c0 -->
<g id="edge2" class="edge">
<title>p0x5687785f69a0&#45;&gt;p0x5687785f67c0</title>
<path fill="none" stroke="gray" d="M250.56,-459.13C235.83,-449.07 217.21,-436.36 201.8,-425.84"/>
<polygon fill="gray" stroke="gray" points="202.88,-424.89 198.79,-423.79 201.3,-427.2 202.88,-424.89"/>
</g>
<!-- p0x5687785f6970 -->
<g id="node14" class="node">
<title>p0x5687785f6970</title>
<polygon fill="lightpink" stroke="purple" points="249,-386.5 249,-422.5 303,-422.5 303,-386.5 249,-386.5"/>
<text text-anchor="middle" x="275.88" y="-399.45" font-family="Times,serif" font-size="14.00">*</text>
</g>
<!-- p0x5687785f69a0&#45;&gt;p0x5687785f6970 -->
<g id="edge13" class="edge">
<title>p0x5687785f69a0&#45;&gt;p0x5687785f6970</title>
<path fill="none" stroke="gray" d="M276,-459.31C276,-449.89 276,-438.11 276,-427.97"/>
<polygon fill="gray" stroke="gray" points="277.4,-428.04 276,-424.04 274.6,-428.04 277.4,-428.04"/>
</g>
<!-- p0x5687785f6730 -->
<g id="node4" class="node">
<title>p0x5687785f6730</title>
<polygon fill="lightpink" stroke="purple" points="62,-313.5 62,-349.5 116,-349.5 116,-313.5 62,-313.5"/>
<text text-anchor="middle" x="88.88" y="-326.45" font-family="Times,serif" font-size="14.00">*</text>
</g>
<!-- p0x5687785f67c0&#45;&gt;p0x5687785f6730 -->
<g id="edge3" class="edge">
<title>p0x5687785f67c0&#45;&gt;p0x5687785f6730</title>
<path fill="none" stroke="gray" d="M151.91,-386.31C140.27,-376.36 125.54,-363.76 113.26,-353.25"/>
<polygon fill="gray" stroke="gray" points="114.29,-352.3 110.34,-350.76 112.47,-354.42 114.29,-352.3"/>
</g>
<!-- p0x5687785f6760 -->
<g id="node12" class="node">
<title>p0x5687785f6760</title>
<polygon fill="lightpink" stroke="purple" points="145,-313.5 145,-349.5 199,-349.5 199,-313.5 145,-313.5"/>
<text text-anchor="middle" x="171.88" y="-326.45" font-family="Times,serif" font-size="14.00">sin</text>
</g>
<!-- p0x5687785f67c0&#45;&gt;p0x5687785f6760 -->
<g id="edge11" class="edge">
<title>p0x5687785f67c0&#45;&gt;p0x5687785f6760</title>
<path fill="none" stroke="gray" d="M172,-386.31C172,-376.89 172,-365.11 172,-354.97"/>
<polygon fill="gray" stroke="gray" points="173.4,-355.04 172,-351.04 170.6,-355.04 173.4,-355.04"/>
</g>
<!-- p0x5687785f6be0 -->
<g id="node5" class="node">
<title>p0x5687785f6be0</title>
<ellipse fill="lightgreen" stroke="green" cx="18" cy="-255" rx="18" ry="18"/>
<text text-anchor="middle" x="18" y="-249.95" font-family="Times,serif" font-size="14.00">5</text>
</g>
<!-- p0x5687785f6730&#45;&gt;p0x5687785f6be0 -->
<g id="edge4" class="edge">
<title>p0x5687785f6730&#45;&gt;p0x5687785f6be0</title>
<path fill="none" stroke="gray" d="M72.53,-313.22C60.9,-301.02 45.4,-284.75 33.9,-272.68"/>
<polygon fill="gray" stroke="gray" points="34.98,-271.79 31.21,-269.86 32.96,-273.72 34.98,-271.79"/>
</g>
<!-- p0x5687785f6700 -->
<g id="node6" class="node">
<title>p0x5687785f6700</title>
<polygon fill="lightpink" stroke="purple" points="65,-237 65,-273 119,-273 119,-237 65,-237"/>
<text text-anchor="middle" x="91.88" y="-249.95" font-family="Times,serif" font-size="14.00">*</text>
</g>
<!-- p0x5687785f6730&#45;&gt;p0x5687785f6700 -->
<g id="edge5" class="edge">
<title>p0x5687785f6730&#45;&gt;p0x5687785f6700</title>
<path fill="none" stroke="gray" d="M89.7,-313.22C90.11,-302.95 90.64,-289.81 91.09,-278.71"/>
<polygon fill="gray" stroke="gray" points="92.47,-279.01 91.24,-274.96 89.68,-278.9 92.47,-279.01"/>
</g>
<!-- p0x5687785f6610 -->
<g id="node7" class="node">
<title>p0x5687785f6610</title>
<ellipse fill="lightgreen" stroke="green" cx="44" cy="-175" rx="18.6" ry="18.6"/>
<text text-anchor="middle" x="44" y="-169.95" font-family="Times,serif" font-size="14.00">&#45;1</text>
</g>
<!-- p0x5687785f6700&#45;&gt;p0x5687785f6610 -->
<g id="edge6" class="edge">
<title>p0x5687785f6700&#45;&gt;p0x5687785f6610</title>
<path fill="none" stroke="gray" d="M81.35,-236.69C73.92,-224.62 63.99,-208.48 56.23,-195.88"/>
<polygon fill="gray" stroke="gray" points="57.57,-195.38 54.28,-192.7 55.18,-196.84 57.57,-195.38"/>
</g>
<!-- p0x5687785f66d0 -->
<g id="node8" class="node">
<title>p0x5687785f66d0</title>
<polygon fill="lightpink" stroke="purple" points="92,-157 92,-193 146,-193 146,-157 92,-157"/>
<text text-anchor="middle" x="118.88" y="-169.95" font-family="Times,serif" font-size="14.00">sin</text>
</g>
<!-- p0x5687785f6700&#45;&gt;p0x5687785f66d0 -->
<g id="edge7" class="edge">
<title>p0x5687785f6700&#45;&gt;p0x5687785f66d0</title>
<path fill="none" stroke="gray" d="M97.99,-236.69C101.91,-225.38 107.06,-210.5 111.28,-198.31"/>
<polygon fill="gray" stroke="gray" points="112.54,-198.93 112.53,-194.69 109.9,-198.01 112.54,-198.93"/>
</g>
<!-- p0x5687785f6640 -->
<g id="node9" class="node">
<title>p0x5687785f6640</title>
<polygon fill="lightpink" stroke="purple" points="92,-80.5 92,-116.5 146,-116.5 146,-80.5 92,-80.5"/>
<text text-anchor="middle" x="118.88" y="-93.45" font-family="Times,serif" font-size="14.00">*</text>
</g>
<!-- p0x5687785f66d0&#45;&gt;p0x5687785f6640 -->
<g id="edge8" class="edge">
<title>p0x5687785f66d0&#45;&gt;p0x5687785f6640</title>
<path fill="none" stroke="gray" d="M119,-156.72C119,-146.45 119,-133.31 119,-122.21"/>
<polygon fill="gray" stroke="gray" points="120.4,-122.46 119,-118.46 117.6,-122.46 120.4,-122.46"/>
</g>
<!-- p0x5687785f6670 -->
<g id="node10" class="node">
<title>p0x5687785f6670</title>
<ellipse fill="lightgreen" stroke="green" cx="85" cy="-22" rx="18" ry="18"/>
<text text-anchor="middle" x="85" y="-16.95" font-family="Times,serif" font-size="14.00">5</text>
</g>
<!-- p0x5687785f6640&#45;&gt;p0x5687785f6670 -->
<g id="edge9" class="edge">
<title>p0x5687785f6640&#45;&gt;p0x5687785f6670</title>
<path fill="none" stroke="gray" d="M111.11,-80.22C106.1,-69.24 99.59,-54.97 94.32,-43.43"/>
<polygon fill="gray" stroke="gray" points="95.71,-43.1 92.78,-40.04 93.16,-44.26 95.71,-43.1"/>
</g>
<!-- p0x5687785f66a0 -->
<g id="node11" class="node">
<title>p0x5687785f66a0</title>
<ellipse fill="lightblue" stroke="blue" cx="154" cy="-22" rx="18" ry="18"/>
<ellipse fill="none" stroke="blue" cx="154" cy="-22" rx="22" ry="22"/>
<text text-anchor="middle" x="154" y="-16.95" font-family="Times,serif" font-size="14.00">x</text>
</g>
<!-- p0x5687785f6640&#45;&gt;p0x5687785f66a0 -->
<g id="edge10" class="edge">
<title>p0x5687785f6640&#45;&gt;p0x5687785f66a0</title>
<path fill="none" stroke="gray" d="M127.12,-80.22C131.74,-70.38 137.6,-57.9 142.67,-47.11"/>
<polygon fill="gray" stroke="gray" points="143.86,-47.87 144.3,-43.65 141.33,-46.68 143.86,-47.87"/>
</g>
<!-- p0x5687785f6790 -->
<g id="node13" class="node">
<title>p0x5687785f6790</title>
<ellipse fill="lightblue" stroke="blue" cx="172" cy="-255" rx="18" ry="18"/>
<ellipse fill="none" stroke="blue" cx="172" cy="-255" rx="22" ry="22"/>
<text text-anchor="middle" x="172" y="-249.95" font-family="Times,serif" font-size="14.00">x</text>
</g>
<!-- p0x5687785f6760&#45;&gt;p0x5687785f6790 -->
<g id="edge12" class="edge">
<title>p0x5687785f6760&#45;&gt;p0x5687785f6790</title>
<path fill="none" stroke="gray" d="M172,-313.22C172,-304.23 172,-293.03 172,-282.93"/>
<polygon fill="gray" stroke="gray" points="173.4,-282.96 172,-278.96 170.6,-282.96 173.4,-282.96"/>
</g>
<!-- p0x5687785f67f0 -->
<g id="node15" class="node">
<title>p0x5687785f67f0</title>
<polygon fill="lightpink" stroke="purple" points="228,-313.5 228,-349.5 282,-349.5 282,-313.5 228,-313.5"/>
<text text-anchor="middle" x="255" y="-326.45" font-family="Times,serif" font-size="14.00">cos</text>
</g>
<!-- p0x5687785f6970&#45;&gt;p0x5687785f67f0 -->
<g id="edge14" class="edge">
<title>p0x5687785f6970&#45;&gt;p0x5687785f67f0</title>
<path fill="none" stroke="gray" d="M270.92,-386.31C268.1,-376.81 264.58,-364.89 261.56,-354.69"/>
<polygon fill="gray" stroke="gray" points="262.94,-354.42 260.47,-350.98 260.26,-355.21 262.94,-354.42"/>
</g>
<!-- p0x5687785f6b80 -->
<g id="node19" class="node">
<title>p0x5687785f6b80</title>
<polygon fill="lightpink" stroke="purple" points="311,-313.5 311,-349.5 365,-349.5 365,-313.5 311,-313.5"/>
<text text-anchor="middle" x="338" y="-326.45" font-family="Times,serif" font-size="14.00">cos</text>
</g>
<!-- p0x5687785f6970&#45;&gt;p0x5687785f6b80 -->
<g id="edge18" class="edge">
<title>p0x5687785f6970&#45;&gt;p0x5687785f6b80</title>
<path fill="none" stroke="gray" d="M291.01,-386.31C299.61,-376.46 310.48,-364.01 319.6,-353.57"/>
<polygon fill="gray" stroke="gray" points="320.56,-354.6 322.13,-350.67 318.45,-352.76 320.56,-354.6"/>
</g>
<!-- p0x5687785f6820 -->
<g id="node16" class="node">
<title>p0x5687785f6820</title>
<polygon fill="lightpink" stroke="purple" points="228,-237 228,-273 282,-273 282,-237 228,-237"/>
<text text-anchor="middle" x="254.88" y="-249.95" font-family="Times,serif" font-size="14.00">*</text>
</g>
<!-- p0x5687785f67f0&#45;&gt;p0x5687785f6820 -->
<g id="edge15" class="edge">
<title>p0x5687785f67f0&#45;&gt;p0x5687785f6820</title>
<path fill="none" stroke="gray" d="M255,-313.22C255,-302.95 255,-289.81 255,-278.71"/>
<polygon fill="gray" stroke="gray" points="256.4,-278.96 255,-274.96 253.6,-278.96 256.4,-278.96"/>
</g>
<!-- p0x5687785f6850 -->
<g id="node17" class="node">
<title>p0x5687785f6850</title>
<ellipse fill="lightgreen" stroke="green" cx="220" cy="-175" rx="18" ry="18"/>
<text text-anchor="middle" x="220" y="-169.95" font-family="Times,serif" font-size="14.00">5</text>
</g>
<!-- p0x5687785f6820&#45;&gt;p0x5687785f6850 -->
<g id="edge16" class="edge">
<title>p0x5687785f6820&#45;&gt;p0x5687785f6850</title>
<path fill="none" stroke="gray" d="M247.23,-236.69C241.93,-224.88 234.89,-209.19 229.29,-196.71"/>
<polygon fill="gray" stroke="gray" points="230.68,-196.39 227.77,-193.32 228.13,-197.54 230.68,-196.39"/>
</g>
<!-- p0x5687785f6880 -->
<g id="node18" class="node">
<title>p0x5687785f6880</title>
<ellipse fill="lightblue" stroke="blue" cx="289" cy="-175" rx="18" ry="18"/>
<ellipse fill="none" stroke="blue" cx="289" cy="-175" rx="22" ry="22"/>
<text text-anchor="middle" x="289" y="-169.95" font-family="Times,serif" font-size="14.00">x</text>
</g>
<!-- p0x5687785f6820&#45;&gt;p0x5687785f6880 -->
<g id="edge17" class="edge">
<title>p0x5687785f6820&#45;&gt;p0x5687785f6880</title>
<path fill="none" stroke="gray" d="M262.55,-236.69C267.17,-226.09 273.16,-212.35 278.27,-200.62"/>
<polygon fill="gray" stroke="gray" points="279.48,-201.35 279.79,-197.12 276.91,-200.23 279.48,-201.35"/>
</g>
<!-- p0x5687785f6b20 -->
<g id="node20" class="node">
<title>p0x5687785f6b20</title>
<ellipse fill="lightblue" stroke="blue" cx="338" cy="-255" rx="18" ry="18"/>
<ellipse fill="none" stroke="blue" cx="338" cy="-255" rx="22" ry="22"/>
<text text-anchor="middle" x="338" y="-249.95" font-family="Times,serif" font-size="14.00">x</text>
</g>
<!-- p0x5687785f6b80&#45;&gt;p0x5687785f6b20 -->
<g id="edge19" class="edge">
<title>p0x5687785f6b80&#45;&gt;p0x5687785f6b20</title>
<path fill="none" stroke="gray" d="M338,-313.22C338,-304.23 338,-293.03 338,-282.93"/>
<polygon fill="gray" stroke="gray" points="339.4,-282.96 338,-278.96 336.6,-282.96 339.4,-282.96"/>
</g>
<!-- p0x5687785f69d0 -->
<g id="node22" class="node">
<title>p0x5687785f69d0</title>
<polygon fill="lightpink" stroke="purple" points="373,-386.5 373,-422.5 427,-422.5 427,-386.5 373,-386.5"/>
<text text-anchor="middle" x="400" y="-399.45" font-family="Times,serif" font-size="14.00">cos</text>
</g>
<!-- p0x5687785f6ac0&#45;&gt;p0x5687785f69d0 -->
<g id="edge21" class="edge">
<title>p0x5687785f6ac0&#45;&gt;p0x5687785f69d0</title>
<path fill="none" stroke="gray" d="M400,-459.31C400,-449.89 400,-438.11 400,-427.97"/>
<polygon fill="gray" stroke="gray" points="401.4,-428.04 400,-424.04 398.6,-428.04 401.4,-428.04"/>
</g>
<!-- p0x5687785f6a90 -->
<g id="node26" class="node">
<title>p0x5687785f6a90</title>
<ellipse fill="lightgreen" stroke="green" cx="474" cy="-404.5" rx="18" ry="18"/>
<text text-anchor="middle" x="474" y="-399.45" font-family="Times,serif" font-size="14.00">2</text>
</g>
<!-- p0x5687785f6ac0&#45;&gt;p0x5687785f6a90 -->
<g id="edge25" class="edge">
<title>p0x5687785f6ac0&#45;&gt;p0x5687785f6a90</title>
<path fill="none" stroke="gray" d="M417.91,-459.31C430.06,-447.66 445.98,-432.39 457.75,-421.09"/>
<polygon fill="gray" stroke="gray" points="458.57,-422.25 460.49,-418.47 456.63,-420.23 458.57,-422.25"/>
</g>
<!-- p0x5687785f6a00 -->
<g id="node23" class="node">
<title>p0x5687785f6a00</title>
<polygon fill="lightpink" stroke="purple" points="394,-313.5 394,-349.5 448,-349.5 448,-313.5 394,-313.5"/>
<text text-anchor="middle" x="420.88" y="-326.45" font-family="Times,serif" font-size="14.00">*</text>
</g>
<!-- p0x5687785f69d0&#45;&gt;p0x5687785f6a00 -->
<g id="edge22" class="edge">
<title>p0x5687785f69d0&#45;&gt;p0x5687785f6a00</title>
<path fill="none" stroke="gray" d="M405.08,-386.31C407.9,-376.81 411.42,-364.89 414.44,-354.69"/>
<polygon fill="gray" stroke="gray" points="415.74,-355.21 415.53,-350.98 413.06,-354.42 415.74,-355.21"/>
</g>
<!-- p0x5687785f6a30 -->
<g id="node24" class="node">
<title>p0x5687785f6a30</title>
<ellipse fill="lightgreen" stroke="green" cx="414" cy="-255" rx="18" ry="18"/>
<text text-anchor="middle" x="414" y="-249.95" font-family="Times,serif" font-size="14.00">5</text>
</g>
<!-- p0x5687785f6a00&#45;&gt;p0x5687785f6a30 -->
<g id="edge23" class="edge">
<title>p0x5687785f6a00&#45;&gt;p0x5687785f6a30</title>
<path fill="none" stroke="gray" d="M419.38,-313.22C418.4,-302.88 417.16,-289.62 416.11,-278.47"/>
<polygon fill="gray" stroke="gray" points="417.52,-278.54 415.76,-274.69 414.74,-278.81 417.52,-278.54"/>
</g>
<!-- p0x5687785f6a60 -->
<g id="node25" class="node">
<title>p0x5687785f6a60</title>
<ellipse fill="lightblue" stroke="blue" cx="483" cy="-255" rx="18" ry="18"/>
<ellipse fill="none" stroke="blue" cx="483" cy="-255" rx="22" ry="22"/>
<text text-anchor="middle" x="483" y="-249.95" font-family="Times,serif" font-size="14.00">x</text>
</g>
<!-- p0x5687785f6a00&#45;&gt;p0x5687785f6a60 -->
<g id="edge24" class="edge">
<title>p0x5687785f6a00&#45;&gt;p0x5687785f6a60</title>
<path fill="none" stroke="gray" d="M435.38,-313.22C444.43,-302.35 456.16,-288.25 465.71,-276.77"/>
<polygon fill="gray" stroke="gray" points="466.67,-277.81 468.16,-273.84 464.52,-276.02 466.67,-277.81"/>
</g>
</g>
</svg>
