<?xml version="1.0" encoding="UTF-8" standalone="no"?>
<!DOCTYPE svg PUBLIC "-//W3C//DTD SVG 1.1//EN"
 "http://www.w3.org/Graphics/SVG/1.1/DTD/svg11.dtd">
<!-- Generated by graphviz version 12.1.2 (0)
 -->
<!-- Title: diffTree Pages: 1 -->
<svg width="369pt" height="351pt"
 viewBox="0.00 0.00 369.00 351.00" xmlns="http://www.w3.org/2000/svg" xmlns:xlink="http://www.w3.org/1999/xlink">
<g id="graph0" class="graph" transform="scale(1 1) rotate(0) translate(4 347)">
<title>diffTree</title>
<polygon fill="white" stroke="none" points="-4,4 -4,-347 365,-347 365,4 -4,4"/>
<!-- p0x5e97f619f210 -->
<g id="node1" class="node">
<title>p0x5e97f619f210</title>
<polygon fill="lightpink" stroke="purple" points="111,-306.5 111,-342.5 165,-342.5 165,-306.5 111,-306.5"/>
<text text-anchor="middle" x="137.88" y="-319.45" font-family="Times,serif" font-size="14.00">*</text>
</g>
<!-- p0x5e97f619f000 -->
<g id="node2" class="node">
<title>p0x5e97f619f000</title>
<polygon fill="lightpink" stroke="purple" points="70,-233.5 70,-269.5 124,-269.5 124,-233.5 70,-233.5"/>
<text text-anchor="middle" x="96.75" y="-246.45" font-family="Times,serif" font-size="14.00">exp</text>
</g>
<!-- p0x5e97f619f210&#45;&gt;p0x5e97f619f000 -->
<g id="edge1" class="edge">
<title>p0x5e97f619f210&#45;&gt;p0x5e97f619f000</title>
<path fill="none" stroke="gray" d="M128.08,-306.31C122.48,-296.63 115.45,-284.45 109.49,-274.13"/>
<polygon fill="gray" stroke="gray" points="110.8,-273.6 107.59,-270.84 108.38,-275 110.8,-273.6"/>
</g>
<!-- p0x5e97f619f1e0 -->
<g id="node7" class="node">
<title>p0x5e97f619f1e0</title>
<polygon fill="lightpink" stroke="purple" points="153,-233.5 153,-269.5 207,-269.5 207,-233.5 153,-233.5"/>
<text text-anchor="middle" x="179.62" y="-246.45" font-family="Times,serif" font-size="14.00">+</text>
</g>
<!-- p0x5e97f619f210&#45;&gt;p0x5e97f619f1e0 -->
<g id="edge6" class="edge">
<title>p0x5e97f619f210&#45;&gt;p0x5e97f619f1e0</title>
<path fill="none" stroke="gray" d="M148.17,-306.31C153.89,-296.63 161.1,-284.45 167.21,-274.13"/>
<polygon fill="gray" stroke="gray" points="168.32,-274.99 169.16,-270.83 165.91,-273.56 168.32,-274.99"/>
</g>
<!-- p0x5e97f619efd0 -->
<g id="node3" class="node">
<title>p0x5e97f619efd0</title>
<polygon fill="lightpink" stroke="purple" points="70,-160.5 70,-196.5 124,-196.5 124,-160.5 70,-160.5"/>
<text text-anchor="middle" x="96.88" y="-173.45" font-family="Times,serif" font-size="14.00">*</text>
</g>
<!-- p0x5e97f619f000&#45;&gt;p0x5e97f619efd0 -->
<g id="edge2" class="edge">
<title>p0x5e97f619f000&#45;&gt;p0x5e97f619efd0</title>
<path fill="none" stroke="gray" d="M97,-233.31C97,-223.89 97,-212.11 97,-201.97"/>
<polygon fill="gray" stroke="gray" points="98.4,-202.04 97,-198.04 95.6,-202.04 98.4,-202.04"/>
</g>
<!-- p0x5e97f619ef40 -->
<g id="node4" class="node">
<title>p0x5e97f619ef40</title>
<ellipse fill="lightblue" stroke="blue" cx="22" cy="-102" rx="18" ry="18"/>
<ellipse fill="none" stroke="blue" cx="22" cy="-102" rx="22" ry="22"/>
<text text-anchor="middle" x="22" y="-96.95" font-family="Times,serif" font-size="14.00">x</text>
</g>
<!-- p0x5e97f619efd0&#45;&gt;p0x5e97f619ef40 -->
<g id="edge3" class="edge">
<title>p0x5e97f619efd0&#45;&gt;p0x5e97f619ef40</title>
<path fill="none" stroke="gray" d="M79.6,-160.22C68.1,-148.79 53,-133.8 41.15,-122.02"/>
<polygon fill="gray" stroke="gray" points="42.17,-121.06 38.34,-119.23 40.19,-123.04 42.17,-121.06"/>
</g>
<!-- p0x5e97f619efa0 -->
<g id="node5" class="node">
<title>p0x5e97f619efa0</title>
<polygon fill="lightpink" stroke="purple" points="73,-84 73,-120 127,-120 127,-84 73,-84"/>
<text text-anchor="middle" x="99.75" y="-96.95" font-family="Times,serif" font-size="14.00">ln</text>
</g>
<!-- p0x5e97f619efd0&#45;&gt;p0x5e97f619efa0 -->
<g id="edge4" class="edge">
<title>p0x5e97f619efd0&#45;&gt;p0x5e97f619efa0</title>
<path fill="none" stroke="gray" d="M97.7,-160.22C98.11,-149.95 98.64,-136.81 99.09,-125.71"/>
<polygon fill="gray" stroke="gray" points="100.47,-126.01 99.24,-121.96 97.68,-125.9 100.47,-126.01"/>
</g>
<!-- p0x5e97f619ef70 -->
<g id="node6" class="node">
<title>p0x5e97f619ef70</title>
<ellipse fill="lightblue" stroke="blue" cx="100" cy="-22" rx="18" ry="18"/>
<ellipse fill="none" stroke="blue" cx="100" cy="-22" rx="22" ry="22"/>
<text text-anchor="middle" x="100" y="-16.95" font-family="Times,serif" font-size="14.00">x</text>
</g>
<!-- p0x5e97f619efa0&#45;&gt;p0x5e97f619ef70 -->
<g id="edge5" class="edge">
<title>p0x5e97f619efa0&#45;&gt;p0x5e97f619ef70</title>
<path fill="none" stroke="gray" d="M100,-83.69C100,-73.74 100,-61.02 100,-49.81"/>
<polygon fill="gray" stroke="gray" points="101.4,-49.95 100,-45.95 98.6,-49.95 101.4,-49.95"/>
</g>
<!-- p0x5e97f619f240 -->
<g id="node8" class="node">
<title>p0x5e97f619f240</title>
<polygon fill="lightpink" stroke="purple" points="153,-160.5 153,-196.5 207,-196.5 207,-160.5 153,-160.5"/>
<text text-anchor="middle" x="179.75" y="-173.45" font-family="Times,serif" font-size="14.00">ln</text>
</g>
<!-- p0x5e97f619f1e0&#45;&gt;p0x5e97f619f240 -->
<g id="edge7" class="edge">
<title>p0x5e97f619f1e0&#45;&gt;p0x5e97f619f240</title>
<path fill="none" stroke="gray" d="M180,-233.31C180,-223.89 180,-212.11 180,-201.97"/>
<polygon fill="gray" stroke="gray" points="181.4,-202.04 180,-198.04 178.6,-202.04 181.4,-202.04"/>
</g>
<!-- p0x5e97f619f1b0 -->
<g id="node10" class="node">
<title>p0x5e97f619f1b0</title>
<polygon fill="lightpink" stroke="purple" points="236,-160.5 236,-196.5 290,-196.5 290,-160.5 236,-160.5"/>
<text text-anchor="middle" x="262.88" y="-173.45" font-family="Times,serif" font-size="14.00">*</text>
</g>
<!-- p0x5e97f619f1e0&#45;&gt;p0x5e97f619f1b0 -->
<g id="edge9" class="edge">
<title>p0x5e97f619f1e0&#45;&gt;p0x5e97f619f1b0</title>
<path fill="none" stroke="gray" d="M200.09,-233.31C211.73,-223.36 226.46,-210.76 238.74,-200.25"/>
<polygon fill="gray" stroke="gray" points="239.53,-201.42 241.66,-197.76 237.71,-199.3 239.53,-201.42"/>
</g>
<!-- p0x5e97f619f270 -->
<g id="node9" class="node">
<title>p0x5e97f619f270</title>
<ellipse fill="lightblue" stroke="blue" cx="180" cy="-102" rx="18" ry="18"/>
<ellipse fill="none" stroke="blue" cx="180" cy="-102" rx="22" ry="22"/>
<text text-anchor="middle" x="180" y="-96.95" font-family="Times,serif" font-size="14.00">x</text>
</g>
<!-- p0x5e97f619f240&#45;&gt;p0x5e97f619f270 -->
<g id="edge8" class="edge">
<title>p0x5e97f619f240&#45;&gt;p0x5e97f619f270</title>
<path fill="none" stroke="gray" d="M180,-160.22C180,-151.23 180,-140.03 180,-129.93"/>
<polygon fill="gray" stroke="gray" points="181.4,-129.96 180,-125.96 178.6,-129.96 181.4,-129.96"/>
</g>
<!-- p0x5e97f619f150 -->
<g id="node11" class="node">
<title>p0x5e97f619f150</title>
<polygon fill="lightpink" stroke="purple" points="234,-84 234,-120 288,-120 288,-84 234,-84"/>
<text text-anchor="middle" x="260.88" y="-96.95" font-family="Times,serif" font-size="14.00">/</text>
</g>
<!-- p0x5e97f619f1b0&#45;&gt;p0x5e97f619f150 -->
<g id="edge10" class="edge">
<title>p0x5e97f619f1b0&#45;&gt;p0x5e97f619f150</title>
<path fill="none" stroke="gray" d="M262.54,-160.22C262.26,-149.95 261.91,-136.81 261.61,-125.71"/>
<polygon fill="gray" stroke="gray" points="263.02,-125.92 261.51,-121.96 260.22,-125.99 263.02,-125.92"/>
</g>
<!-- p0x5e97f619f180 -->
<g id="node14" class="node">
<title>p0x5e97f619f180</title>
<ellipse fill="lightblue" stroke="blue" cx="339" cy="-102" rx="18" ry="18"/>
<ellipse fill="none" stroke="blue" cx="339" cy="-102" rx="22" ry="22"/>
<text text-anchor="middle" x="339" y="-96.95" font-family="Times,serif" font-size="14.00">x</text>
</g>
<!-- p0x5e97f619f1b0&#45;&gt;p0x5e97f619f180 -->
<g id="edge13" class="edge">
<title>p0x5e97f619f1b0&#45;&gt;p0x5e97f619f180</title>
<path fill="none" stroke="gray" d="M280.63,-160.22C292.29,-148.79 307.58,-133.8 319.59,-122.02"/>
<polygon fill="gray" stroke="gray" points="320.57,-123.03 322.45,-119.23 318.61,-121.03 320.57,-123.03"/>
</g>
<!-- p0x5e97f619f0f0 -->
<g id="node12" class="node">
<title>p0x5e97f619f0f0</title>
<ellipse fill="lightgreen" stroke="green" cx="226" cy="-22" rx="18" ry="18"/>
<text text-anchor="middle" x="226" y="-16.95" font-family="Times,serif" font-size="14.00">1</text>
</g>
<!-- p0x5e97f619f150&#45;&gt;p0x5e97f619f0f0 -->
<g id="edge11" class="edge">
<title>p0x5e97f619f150&#45;&gt;p0x5e97f619f0f0</title>
<path fill="none" stroke="gray" d="M253.23,-83.69C247.93,-71.88 240.89,-56.19 235.29,-43.71"/>
<polygon fill="gray" stroke="gray" points="236.68,-43.39 233.77,-40.32 234.13,-44.54 236.68,-43.39"/>
</g>
<!-- p0x5e97f619f120 -->
<g id="node13" class="node">
<title>p0x5e97f619f120</title>
<ellipse fill="lightblue" stroke="blue" cx="295" cy="-22" rx="18" ry="18"/>
<ellipse fill="none" stroke="blue" cx="295" cy="-22" rx="22" ry="22"/>
<text text-anchor="middle" x="295" y="-16.95" font-family="Times,serif" font-size="14.00">x</text>
</g>
<!-- p0x5e97f619f150&#45;&gt;p0x5e97f619f120 -->
<g id="edge12" class="edge">
<title>p0x5e97f619f150&#45;&gt;p0x5e97f619f120</title>
<path fill="none" stroke="gray" d="M268.55,-83.69C273.17,-73.09 279.16,-59.35 284.27,-47.62"/>
<polygon fill="gray" stroke="gray" points="285.48,-48.35 285.79,-44.12 282.91,-47.23 285.48,-48.35"/>
</g>
</g>
</svg>
