<?xml version="1.0" encoding="UTF-8" standalone="no"?>
<!DOCTYPE svg PUBLIC "-//W3C//DTD SVG 1.1//EN"
 "http://www.w3.org/Graphics/SVG/1.1/DTD/svg11.dtd">
<!-- Generated by graphviz version 12.1.2 (0)
 -->
<!-- Title: diffTree Pages: 1 -->
<svg width="614pt" height="580pt"
 viewBox="0.00 0.00 614.13 579.79" xmlns="http://www.w3.org/2000/svg" xmlns:xlink="http://www.w3.org/1999/xlink">
<g id="graph0" class="graph" transform="scale(1 1) rotate(0) translate(4 575.79)">
<title>diffTree</title>
<polygon fill="white" stroke="none" points="-4,4 -4,-575.79 610.13,-575.79 610.13,4 -4,4"/>
<!-- p0x5fce2c60f670 -->
<g id="node1" class="node">
<title>p0x5fce2c60f670</title>
<polygon fill="lightpink" stroke="purple" points="195.13,-535.29 195.13,-571.29 249.13,-571.29 249.13,-535.29 195.13,-535.29"/>
<text text-anchor="middle" x="221.76" y="-548.24" font-family="Times,serif" font-size="14.00">+</text>
</g>
<!-- p0x5fce2c60eef0 -->
<g id="node2" class="node">
<title>p0x5fce2c60eef0</title>
<polygon fill="lightpink" stroke="purple" points="154.13,-462.29 154.13,-498.29 208.13,-498.29 208.13,-462.29 154.13,-462.29"/>
<text text-anchor="middle" x="181.01" y="-475.24" font-family="Times,serif" font-size="14.00">*</text>
</g>
<!-- p0x5fce2c60f670&#45;&gt;p0x5fce2c60eef0 -->
<g id="edge1" class="edge">
<title>p0x5fce2c60f670&#45;&gt;p0x5fce2c60eef0</title>
<path fill="none" stroke="gray" d="M212.21,-535.1C206.62,-525.42 199.58,-513.24 193.62,-502.91"/>
<polygon fill="gray" stroke="gray" points="194.93,-502.39 191.72,-499.63 192.51,-503.79 194.93,-502.39"/>
</g>
<!-- p0x5fce2c60f640 -->
<g id="node18" class="node">
<title>p0x5fce2c60f640</title>
<polygon fill="lightpink" stroke="purple" points="266.13,-462.29 266.13,-498.29 320.13,-498.29 320.13,-462.29 266.13,-462.29"/>
<text text-anchor="middle" x="293.01" y="-475.24" font-family="Times,serif" font-size="14.00">*</text>
</g>
<!-- p0x5fce2c60f670&#45;&gt;p0x5fce2c60f640 -->
<g id="edge17" class="edge">
<title>p0x5fce2c60f670&#45;&gt;p0x5fce2c60f640</title>
<path fill="none" stroke="gray" d="M239.32,-535.1C249.26,-525.16 261.84,-512.58 272.34,-502.08"/>
<polygon fill="gray" stroke="gray" points="273.19,-503.2 275.03,-499.39 271.21,-501.22 273.19,-503.2"/>
</g>
<!-- p0x5fce2c60f6d0 -->
<g id="node3" class="node">
<title>p0x5fce2c60f6d0</title>
<ellipse fill="lightgreen" stroke="green" cx="107.13" cy="-407.29" rx="18" ry="18"/>
<text text-anchor="middle" x="107.13" y="-402.24" font-family="Times,serif" font-size="14.00">5</text>
</g>
<!-- p0x5fce2c60eef0&#45;&gt;p0x5fce2c60f6d0 -->
<g id="edge2" class="edge">
<title>p0x5fce2c60eef0&#45;&gt;p0x5fce2c60f6d0</title>
<path fill="none" stroke="gray" d="M163.22,-462.1C151.07,-450.45 135.15,-435.17 123.38,-423.87"/>
<polygon fill="gray" stroke="gray" points="124.5,-423.01 120.65,-421.25 122.56,-425.03 124.5,-423.01"/>
</g>
<!-- p0x5fce2c60ed70 -->
<g id="node4" class="node">
<title>p0x5fce2c60ed70</title>
<polygon fill="lightpink" stroke="purple" points="154.13,-389.29 154.13,-425.29 208.13,-425.29 208.13,-389.29 154.13,-389.29"/>
<text text-anchor="middle" x="181.01" y="-402.24" font-family="Times,serif" font-size="14.00">*</text>
</g>
<!-- p0x5fce2c60eef0&#45;&gt;p0x5fce2c60ed70 -->
<g id="edge3" class="edge">
<title>p0x5fce2c60eef0&#45;&gt;p0x5fce2c60ed70</title>
<path fill="none" stroke="gray" d="M181.13,-462.1C181.13,-452.68 181.13,-440.89 181.13,-430.75"/>
<polygon fill="gray" stroke="gray" points="182.53,-430.83 181.13,-426.83 179.73,-430.83 182.53,-430.83"/>
</g>
<!-- p0x5fce2c60eb00 -->
<g id="node5" class="node">
<title>p0x5fce2c60eb00</title>
<polygon fill="lightpink" stroke="purple" points="69.13,-314.66 69.13,-350.66 123.13,-350.66 123.13,-314.66 69.13,-314.66"/>
<text text-anchor="middle" x="96.01" y="-327.61" font-family="Times,serif" font-size="14.00">*</text>
</g>
<!-- p0x5fce2c60ed70&#45;&gt;p0x5fce2c60eb00 -->
<g id="edge4" class="edge">
<title>p0x5fce2c60ed70&#45;&gt;p0x5fce2c60eb00</title>
<path fill="none" stroke="gray" d="M160.99,-389.07C148.8,-378.66 133.18,-365.31 120.32,-354.32"/>
<polygon fill="gray" stroke="gray" points="121.53,-353.51 117.58,-351.98 119.71,-355.64 121.53,-353.51"/>
</g>
<!-- p0x5fce2c60f790 -->
<g id="node12" class="node">
<title>p0x5fce2c60f790</title>
<polygon fill="lightpink" stroke="purple" points="154.13,-314.66 154.13,-350.66 208.13,-350.66 208.13,-314.66 154.13,-314.66"/>
<text text-anchor="middle" x="181.13" y="-327.61" font-family="Times,serif" font-size="14.00">cos</text>
</g>
<!-- p0x5fce2c60ed70&#45;&gt;p0x5fce2c60f790 -->
<g id="edge11" class="edge">
<title>p0x5fce2c60ed70&#45;&gt;p0x5fce2c60f790</title>
<path fill="none" stroke="gray" d="M181.13,-389.07C181.13,-379.21 181.13,-366.73 181.13,-356.11"/>
<polygon fill="gray" stroke="gray" points="182.53,-356.26 181.13,-352.26 179.73,-356.26 182.53,-356.26"/>
</g>
<!-- p0x5fce2c60ec80 -->
<g id="node6" class="node">
<title>p0x5fce2c60ec80</title>
<ellipse fill="lightgreen" stroke="green" cx="20.13" cy="-256.39" rx="20.13" ry="20.13"/>
<text text-anchor="middle" x="20.13" y="-251.34" font-family="Times,serif" font-size="14.00">10</text>
</g>
<!-- p0x5fce2c60eb00&#45;&gt;p0x5fce2c60ec80 -->
<g id="edge5" class="edge">
<title>p0x5fce2c60eb00&#45;&gt;p0x5fce2c60ec80</title>
<path fill="none" stroke="gray" d="M78.5,-314.43C66.26,-302.47 50.02,-286.6 37.78,-274.64"/>
<polygon fill="gray" stroke="gray" points="39.04,-273.91 35.2,-272.12 37.08,-275.91 39.04,-273.91"/>
</g>
<!-- p0x5fce2c60ecb0 -->
<g id="node7" class="node">
<title>p0x5fce2c60ecb0</title>
<polygon fill="lightpink" stroke="purple" points="69.13,-238.39 69.13,-274.39 123.13,-274.39 123.13,-238.39 69.13,-238.39"/>
<text text-anchor="middle" x="96.01" y="-251.34" font-family="Times,serif" font-size="14.00">*</text>
</g>
<!-- p0x5fce2c60eb00&#45;&gt;p0x5fce2c60ecb0 -->
<g id="edge6" class="edge">
<title>p0x5fce2c60eb00&#45;&gt;p0x5fce2c60ecb0</title>
<path fill="none" stroke="gray" d="M96.13,-314.43C96.13,-304.2 96.13,-291.09 96.13,-280.03"/>
<polygon fill="gray" stroke="gray" points="97.53,-280.29 96.13,-276.29 94.73,-280.29 97.53,-280.29"/>
</g>
<!-- p0x5fce2c60ece0 -->
<g id="node8" class="node">
<title>p0x5fce2c60ece0</title>
<ellipse fill="lightgreen" stroke="green" cx="22.13" cy="-180.13" rx="18" ry="18"/>
<text text-anchor="middle" x="22.13" y="-175.08" font-family="Times,serif" font-size="14.00">3</text>
</g>
<!-- p0x5fce2c60ecb0&#45;&gt;p0x5fce2c60ece0 -->
<g id="edge7" class="edge">
<title>p0x5fce2c60ecb0&#45;&gt;p0x5fce2c60ece0</title>
<path fill="none" stroke="gray" d="M78.97,-238.17C66.59,-225.74 50,-209.1 37.94,-196.99"/>
<polygon fill="gray" stroke="gray" points="39.23,-196.31 35.42,-194.47 37.25,-198.29 39.23,-196.31"/>
</g>
<!-- p0x5fce2c60ed10 -->
<g id="node9" class="node">
<title>p0x5fce2c60ed10</title>
<polygon fill="lightpink" stroke="purple" points="69.13,-162.13 69.13,-198.13 123.13,-198.13 123.13,-162.13 69.13,-162.13"/>
<text text-anchor="middle" x="96.01" y="-175.08" font-family="Times,serif" font-size="14.00">^</text>
</g>
<!-- p0x5fce2c60ecb0&#45;&gt;p0x5fce2c60ed10 -->
<g id="edge8" class="edge">
<title>p0x5fce2c60ecb0&#45;&gt;p0x5fce2c60ed10</title>
<path fill="none" stroke="gray" d="M96.13,-238.17C96.13,-227.93 96.13,-214.83 96.13,-203.77"/>
<polygon fill="gray" stroke="gray" points="97.53,-204.03 96.13,-200.03 94.73,-204.03 97.53,-204.03"/>
</g>
<!-- p0x5fce2c60f730 -->
<g id="node10" class="node">
<title>p0x5fce2c60f730</title>
<ellipse fill="lightblue" stroke="blue" cx="34.13" cy="-102" rx="18" ry="18"/>
<ellipse fill="none" stroke="blue" cx="34.13" cy="-102" rx="22" ry="22"/>
<text text-anchor="middle" x="34.13" y="-96.95" font-family="Times,serif" font-size="14.00">x</text>
</g>
<!-- p0x5fce2c60ed10&#45;&gt;p0x5fce2c60f730 -->
<g id="edge9" class="edge">
<title>p0x5fce2c60ed10&#45;&gt;p0x5fce2c60f730</title>
<path fill="none" stroke="gray" d="M82.06,-161.86C72.9,-150.6 60.89,-135.85 51.18,-123.93"/>
<polygon fill="gray" stroke="gray" points="52.29,-123.07 48.67,-120.86 50.11,-124.84 52.29,-123.07"/>
</g>
<!-- p0x5fce2c60f760 -->
<g id="node11" class="node">
<title>p0x5fce2c60f760</title>
<ellipse fill="lightgreen" stroke="green" cx="103.13" cy="-102" rx="18" ry="18"/>
<text text-anchor="middle" x="103.13" y="-96.95" font-family="Times,serif" font-size="14.00">2</text>
</g>
<!-- p0x5fce2c60ed10&#45;&gt;p0x5fce2c60f760 -->
<g id="edge10" class="edge">
<title>p0x5fce2c60ed10&#45;&gt;p0x5fce2c60f760</title>
<path fill="none" stroke="gray" d="M97.72,-161.86C98.7,-151.15 99.98,-137.28 101.05,-125.69"/>
<polygon fill="gray" stroke="gray" points="102.44,-125.83 101.41,-121.71 99.65,-125.57 102.44,-125.83"/>
</g>
<!-- p0x5fce2c60f7c0 -->
<g id="node13" class="node">
<title>p0x5fce2c60f7c0</title>
<polygon fill="lightpink" stroke="purple" points="154.13,-238.39 154.13,-274.39 208.13,-274.39 208.13,-238.39 154.13,-238.39"/>
<text text-anchor="middle" x="181.01" y="-251.34" font-family="Times,serif" font-size="14.00">*</text>
</g>
<!-- p0x5fce2c60f790&#45;&gt;p0x5fce2c60f7c0 -->
<g id="edge12" class="edge">
<title>p0x5fce2c60f790&#45;&gt;p0x5fce2c60f7c0</title>
<path fill="none" stroke="gray" d="M181.13,-314.43C181.13,-304.2 181.13,-291.09 181.13,-280.03"/>
<polygon fill="gray" stroke="gray" points="182.53,-280.29 181.13,-276.29 179.73,-280.29 182.53,-280.29"/>
</g>
<!-- p0x5fce2c60f7f0 -->
<g id="node14" class="node">
<title>p0x5fce2c60f7f0</title>
<ellipse fill="lightgreen" stroke="green" cx="172.13" cy="-180.13" rx="20.13" ry="20.13"/>
<text text-anchor="middle" x="172.13" y="-175.08" font-family="Times,serif" font-size="14.00">10</text>
</g>
<!-- p0x5fce2c60f7c0&#45;&gt;p0x5fce2c60f7f0 -->
<g id="edge13" class="edge">
<title>p0x5fce2c60f7c0&#45;&gt;p0x5fce2c60f7f0</title>
<path fill="none" stroke="gray" d="M179.04,-238.17C177.89,-228.61 176.42,-216.55 175.14,-205.99"/>
<polygon fill="gray" stroke="gray" points="176.55,-205.92 174.67,-202.12 173.77,-206.26 176.55,-205.92"/>
</g>
<!-- p0x5fce2c60f820 -->
<g id="node15" class="node">
<title>p0x5fce2c60f820</title>
<polygon fill="lightpink" stroke="purple" points="221.13,-162.13 221.13,-198.13 275.13,-198.13 275.13,-162.13 221.13,-162.13"/>
<text text-anchor="middle" x="248.01" y="-175.08" font-family="Times,serif" font-size="14.00">^</text>
</g>
<!-- p0x5fce2c60f7c0&#45;&gt;p0x5fce2c60f820 -->
<g id="edge14" class="edge">
<title>p0x5fce2c60f7c0&#45;&gt;p0x5fce2c60f820</title>
<path fill="none" stroke="gray" d="M196.67,-238.17C206.24,-227.56 218.59,-213.87 228.79,-202.57"/>
<polygon fill="gray" stroke="gray" points="229.79,-203.55 231.43,-199.64 227.71,-201.67 229.79,-203.55"/>
</g>
<!-- p0x5fce2c60f850 -->
<g id="node16" class="node">
<title>p0x5fce2c60f850</title>
<ellipse fill="lightblue" stroke="blue" cx="181.13" cy="-102" rx="18" ry="18"/>
<ellipse fill="none" stroke="blue" cx="181.13" cy="-102" rx="22" ry="22"/>
<text text-anchor="middle" x="181.13" y="-96.95" font-family="Times,serif" font-size="14.00">x</text>
</g>
<!-- p0x5fce2c60f820&#45;&gt;p0x5fce2c60f850 -->
<g id="edge15" class="edge">
<title>p0x5fce2c60f820&#45;&gt;p0x5fce2c60f850</title>
<path fill="none" stroke="gray" d="M232.93,-161.86C222.8,-150.35 209.45,-135.18 198.84,-123.12"/>
<polygon fill="gray" stroke="gray" points="200.05,-122.38 196.36,-120.3 197.95,-124.23 200.05,-122.38"/>
</g>
<!-- p0x5fce2c60f880 -->
<g id="node17" class="node">
<title>p0x5fce2c60f880</title>
<ellipse fill="lightgreen" stroke="green" cx="250.13" cy="-102" rx="18" ry="18"/>
<text text-anchor="middle" x="250.13" y="-96.95" font-family="Times,serif" font-size="14.00">3</text>
</g>
<!-- p0x5fce2c60f820&#45;&gt;p0x5fce2c60f880 -->
<g id="edge16" class="edge">
<title>p0x5fce2c60f820&#45;&gt;p0x5fce2c60f880</title>
<path fill="none" stroke="gray" d="M248.58,-161.86C248.86,-151.22 249.23,-137.47 249.53,-125.93"/>
<polygon fill="gray" stroke="gray" points="250.93,-126.02 249.63,-121.98 248.13,-125.95 250.93,-126.02"/>
</g>
<!-- p0x5fce2c60f2b0 -->
<g id="node19" class="node">
<title>p0x5fce2c60f2b0</title>
<polygon fill="lightpink" stroke="purple" points="266.13,-389.29 266.13,-425.29 320.13,-425.29 320.13,-389.29 266.13,-389.29"/>
<text text-anchor="middle" x="293.01" y="-402.24" font-family="Times,serif" font-size="14.00">*</text>
</g>
<!-- p0x5fce2c60f640&#45;&gt;p0x5fce2c60f2b0 -->
<g id="edge18" class="edge">
<title>p0x5fce2c60f640&#45;&gt;p0x5fce2c60f2b0</title>
<path fill="none" stroke="gray" d="M293.13,-462.1C293.13,-452.68 293.13,-440.89 293.13,-430.75"/>
<polygon fill="gray" stroke="gray" points="294.53,-430.83 293.13,-426.83 291.73,-430.83 294.53,-430.83"/>
</g>
<!-- p0x5fce2c60f610 -->
<g id="node29" class="node">
<title>p0x5fce2c60f610</title>
<polygon fill="lightpink" stroke="purple" points="379.13,-389.29 379.13,-425.29 433.13,-425.29 433.13,-389.29 379.13,-389.29"/>
<text text-anchor="middle" x="406.01" y="-402.24" font-family="Times,serif" font-size="14.00">*</text>
</g>
<!-- p0x5fce2c60f640&#45;&gt;p0x5fce2c60f610 -->
<g id="edge28" class="edge">
<title>p0x5fce2c60f640&#45;&gt;p0x5fce2c60f610</title>
<path fill="none" stroke="gray" d="M320.49,-462.1C336.61,-451.97 357.08,-439.1 373.98,-428.49"/>
<polygon fill="gray" stroke="gray" points="374.71,-429.68 377.36,-426.37 373.22,-427.31 374.71,-429.68"/>
</g>
<!-- p0x5fce2c60f100 -->
<g id="node20" class="node">
<title>p0x5fce2c60f100</title>
<ellipse fill="lightgreen" stroke="green" cx="256.13" cy="-332.66" rx="18" ry="18"/>
<text text-anchor="middle" x="256.13" y="-327.61" font-family="Times,serif" font-size="14.00">3</text>
</g>
<!-- p0x5fce2c60f2b0&#45;&gt;p0x5fce2c60f100 -->
<g id="edge19" class="edge">
<title>p0x5fce2c60f2b0&#45;&gt;p0x5fce2c60f100</title>
<path fill="none" stroke="gray" d="M284.36,-389.07C279.03,-378.6 272.18,-365.16 266.56,-354.13"/>
<polygon fill="gray" stroke="gray" points="267.83,-353.54 264.77,-350.61 265.34,-354.81 267.83,-353.54"/>
</g>
<!-- p0x5fce2c60f280 -->
<g id="node21" class="node">
<title>p0x5fce2c60f280</title>
<polygon fill="lightpink" stroke="purple" points="303.13,-314.66 303.13,-350.66 357.13,-350.66 357.13,-314.66 303.13,-314.66"/>
<text text-anchor="middle" x="330.01" y="-327.61" font-family="Times,serif" font-size="14.00">^</text>
</g>
<!-- p0x5fce2c60f2b0&#45;&gt;p0x5fce2c60f280 -->
<g id="edge20" class="edge">
<title>p0x5fce2c60f2b0&#45;&gt;p0x5fce2c60f280</title>
<path fill="none" stroke="gray" d="M301.9,-389.07C307.01,-379.03 313.52,-366.27 318.99,-355.52"/>
<polygon fill="gray" stroke="gray" points="320.17,-356.29 320.74,-352.09 317.68,-355.02 320.17,-356.29"/>
</g>
<!-- p0x5fce2c60f130 -->
<g id="node22" class="node">
<title>p0x5fce2c60f130</title>
<polygon fill="lightpink" stroke="purple" points="303.13,-238.39 303.13,-274.39 357.13,-274.39 357.13,-238.39 303.13,-238.39"/>
<text text-anchor="middle" x="330.13" y="-251.34" font-family="Times,serif" font-size="14.00">cos</text>
</g>
<!-- p0x5fce2c60f280&#45;&gt;p0x5fce2c60f130 -->
<g id="edge21" class="edge">
<title>p0x5fce2c60f280&#45;&gt;p0x5fce2c60f130</title>
<path fill="none" stroke="gray" d="M330.13,-314.43C330.13,-304.2 330.13,-291.09 330.13,-280.03"/>
<polygon fill="gray" stroke="gray" points="331.53,-280.29 330.13,-276.29 328.73,-280.29 331.53,-280.29"/>
</g>
<!-- p0x5fce2c60f250 -->
<g id="node28" class="node">
<title>p0x5fce2c60f250</title>
<ellipse fill="lightgreen" stroke="green" cx="404.13" cy="-256.39" rx="18" ry="18"/>
<text text-anchor="middle" x="404.13" y="-251.34" font-family="Times,serif" font-size="14.00">2</text>
</g>
<!-- p0x5fce2c60f280&#45;&gt;p0x5fce2c60f250 -->
<g id="edge27" class="edge">
<title>p0x5fce2c60f280&#45;&gt;p0x5fce2c60f250</title>
<path fill="none" stroke="gray" d="M347.29,-314.43C359.68,-302.01 376.27,-285.36 388.32,-273.26"/>
<polygon fill="gray" stroke="gray" points="389.01,-274.55 390.84,-270.73 387.03,-272.57 389.01,-274.55"/>
</g>
<!-- p0x5fce2c60f160 -->
<g id="node23" class="node">
<title>p0x5fce2c60f160</title>
<polygon fill="lightpink" stroke="purple" points="304.13,-162.13 304.13,-198.13 358.13,-198.13 358.13,-162.13 304.13,-162.13"/>
<text text-anchor="middle" x="330.88" y="-175.08" font-family="Times,serif" font-size="14.00">&#45;</text>
</g>
<!-- p0x5fce2c60f130&#45;&gt;p0x5fce2c60f160 -->
<g id="edge22" class="edge">
<title>p0x5fce2c60f130&#45;&gt;p0x5fce2c60f160</title>
<path fill="none" stroke="gray" d="M330.36,-238.17C330.5,-227.93 330.68,-214.83 330.83,-203.77"/>
<polygon fill="gray" stroke="gray" points="332.22,-204.05 330.88,-200.03 329.42,-204.01 332.22,-204.05"/>
</g>
<!-- p0x5fce2c60f190 -->
<g id="node24" class="node">
<title>p0x5fce2c60f190</title>
<polygon fill="lightpink" stroke="purple" points="300.13,-84 300.13,-120 354.13,-120 354.13,-84 300.13,-84"/>
<text text-anchor="middle" x="327.01" y="-96.95" font-family="Times,serif" font-size="14.00">*</text>
</g>
<!-- p0x5fce2c60f160&#45;&gt;p0x5fce2c60f190 -->
<g id="edge23" class="edge">
<title>p0x5fce2c60f160&#45;&gt;p0x5fce2c60f190</title>
<path fill="none" stroke="gray" d="M330.22,-161.86C329.66,-151.22 328.94,-137.47 328.34,-125.93"/>
<polygon fill="gray" stroke="gray" points="329.74,-125.9 328.13,-121.98 326.94,-126.05 329.74,-125.9"/>
</g>
<!-- p0x5fce2c60f220 -->
<g id="node27" class="node">
<title>p0x5fce2c60f220</title>
<ellipse fill="lightgreen" stroke="green" cx="401.13" cy="-102" rx="18" ry="18"/>
<text text-anchor="middle" x="401.13" y="-96.95" font-family="Times,serif" font-size="14.00">1</text>
</g>
<!-- p0x5fce2c60f160&#45;&gt;p0x5fce2c60f220 -->
<g id="edge26" class="edge">
<title>p0x5fce2c60f160&#45;&gt;p0x5fce2c60f220</title>
<path fill="none" stroke="gray" d="M347.02,-161.86C358.61,-149.24 374.25,-132.24 385.73,-119.75"/>
<polygon fill="gray" stroke="gray" points="386.75,-120.71 388.43,-116.81 384.69,-118.81 386.75,-120.71"/>
</g>
<!-- p0x5fce2c60f1c0 -->
<g id="node25" class="node">
<title>p0x5fce2c60f1c0</title>
<ellipse fill="lightgreen" stroke="green" cx="291.13" cy="-22" rx="20.13" ry="20.13"/>
<text text-anchor="middle" x="291.13" y="-16.95" font-family="Times,serif" font-size="14.00">20</text>
</g>
<!-- p0x5fce2c60f190&#45;&gt;p0x5fce2c60f1c0 -->
<g id="edge24" class="edge">
<title>p0x5fce2c60f190&#45;&gt;p0x5fce2c60f1c0</title>
<path fill="none" stroke="gray" d="M319.14,-83.69C313.95,-72.44 307.12,-57.65 301.51,-45.49"/>
<polygon fill="gray" stroke="gray" points="302.93,-45.22 299.98,-42.18 300.39,-46.4 302.93,-45.22"/>
</g>
<!-- p0x5fce2c60f1f0 -->
<g id="node26" class="node">
<title>p0x5fce2c60f1f0</title>
<ellipse fill="lightblue" stroke="blue" cx="362.13" cy="-22" rx="18" ry="18"/>
<ellipse fill="none" stroke="blue" cx="362.13" cy="-22" rx="22" ry="22"/>
<text text-anchor="middle" x="362.13" y="-16.95" font-family="Times,serif" font-size="14.00">x</text>
</g>
<!-- p0x5fce2c60f190&#45;&gt;p0x5fce2c60f1f0 -->
<g id="edge25" class="edge">
<title>p0x5fce2c60f190&#45;&gt;p0x5fce2c60f1f0</title>
<path fill="none" stroke="gray" d="M334.9,-83.69C339.69,-73.01 345.91,-59.14 351.2,-47.36"/>
<polygon fill="gray" stroke="gray" points="352.42,-48.06 352.78,-43.84 349.87,-46.91 352.42,-48.06"/>
</g>
<!-- p0x5fce2c60ec50 -->
<g id="node30" class="node">
<title>p0x5fce2c60ec50</title>
<ellipse fill="lightgreen" stroke="green" cx="406.13" cy="-332.66" rx="20.13" ry="20.13"/>
<text text-anchor="middle" x="406.13" y="-327.61" font-family="Times,serif" font-size="14.00">20</text>
</g>
<!-- p0x5fce2c60f610&#45;&gt;p0x5fce2c60ec50 -->
<g id="edge29" class="edge">
<title>p0x5fce2c60f610&#45;&gt;p0x5fce2c60ec50</title>
<path fill="none" stroke="gray" d="M406.13,-389.07C406.13,-379.94 406.13,-368.56 406.13,-358.49"/>
<polygon fill="gray" stroke="gray" points="407.53,-358.56 406.13,-354.56 404.73,-358.56 407.53,-358.56"/>
</g>
<!-- p0x5fce2c60f5e0 -->
<g id="node31" class="node">
<title>p0x5fce2c60f5e0</title>
<polygon fill="lightpink" stroke="purple" points="455.13,-314.66 455.13,-350.66 509.13,-350.66 509.13,-314.66 455.13,-314.66"/>
<text text-anchor="middle" x="482.01" y="-327.61" font-family="Times,serif" font-size="14.00">*</text>
</g>
<!-- p0x5fce2c60f610&#45;&gt;p0x5fce2c60f5e0 -->
<g id="edge30" class="edge">
<title>p0x5fce2c60f610&#45;&gt;p0x5fce2c60f5e0</title>
<path fill="none" stroke="gray" d="M424.14,-389.07C434.95,-378.75 448.77,-365.54 460.21,-354.61"/>
<polygon fill="gray" stroke="gray" points="460.97,-355.82 462.89,-352.04 459.03,-353.79 460.97,-355.82"/>
</g>
<!-- p0x5fce2c60f490 -->
<g id="node32" class="node">
<title>p0x5fce2c60f490</title>
<ellipse fill="lightgreen" stroke="green" cx="476.13" cy="-256.39" rx="18.6" ry="18.6"/>
<text text-anchor="middle" x="476.13" y="-251.34" font-family="Times,serif" font-size="14.00">&#45;1</text>
</g>
<!-- p0x5fce2c60f5e0&#45;&gt;p0x5fce2c60f490 -->
<g id="edge31" class="edge">
<title>p0x5fce2c60f5e0&#45;&gt;p0x5fce2c60f490</title>
<path fill="none" stroke="gray" d="M480.74,-314.43C479.92,-304.34 478.88,-291.47 478,-280.51"/>
<polygon fill="gray" stroke="gray" points="479.42,-280.68 477.7,-276.81 476.63,-280.91 479.42,-280.68"/>
</g>
<!-- p0x5fce2c60f5b0 -->
<g id="node33" class="node">
<title>p0x5fce2c60f5b0</title>
<polygon fill="lightpink" stroke="purple" points="524.13,-238.39 524.13,-274.39 578.13,-274.39 578.13,-238.39 524.13,-238.39"/>
<text text-anchor="middle" x="551.01" y="-251.34" font-family="Times,serif" font-size="14.00">sin</text>
</g>
<!-- p0x5fce2c60f5e0&#45;&gt;p0x5fce2c60f5b0 -->
<g id="edge32" class="edge">
<title>p0x5fce2c60f5e0&#45;&gt;p0x5fce2c60f5b0</title>
<path fill="none" stroke="gray" d="M498.13,-314.43C508.08,-303.73 520.93,-289.9 531.49,-278.53"/>
<polygon fill="gray" stroke="gray" points="532.25,-279.77 533.95,-275.89 530.2,-277.87 532.25,-279.77"/>
</g>
<!-- p0x5fce2c60f4c0 -->
<g id="node34" class="node">
<title>p0x5fce2c60f4c0</title>
<polygon fill="lightpink" stroke="purple" points="524.13,-162.13 524.13,-198.13 578.13,-198.13 578.13,-162.13 524.13,-162.13"/>
<text text-anchor="middle" x="550.88" y="-175.08" font-family="Times,serif" font-size="14.00">&#45;</text>
</g>
<!-- p0x5fce2c60f5b0&#45;&gt;p0x5fce2c60f4c0 -->
<g id="edge33" class="edge">
<title>p0x5fce2c60f5b0&#45;&gt;p0x5fce2c60f4c0</title>
<path fill="none" stroke="gray" d="M551.13,-238.17C551.13,-227.93 551.13,-214.83 551.13,-203.77"/>
<polygon fill="gray" stroke="gray" points="552.53,-204.03 551.13,-200.03 549.73,-204.03 552.53,-204.03"/>
</g>
<!-- p0x5fce2c60f4f0 -->
<g id="node35" class="node">
<title>p0x5fce2c60f4f0</title>
<polygon fill="lightpink" stroke="purple" points="487.13,-84 487.13,-120 541.13,-120 541.13,-84 487.13,-84"/>
<text text-anchor="middle" x="514.01" y="-96.95" font-family="Times,serif" font-size="14.00">*</text>
</g>
<!-- p0x5fce2c60f4c0&#45;&gt;p0x5fce2c60f4f0 -->
<g id="edge34" class="edge">
<title>p0x5fce2c60f4c0&#45;&gt;p0x5fce2c60f4f0</title>
<path fill="none" stroke="gray" d="M542.74,-161.86C537.47,-151.03 530.64,-136.97 524.97,-125.31"/>
<polygon fill="gray" stroke="gray" points="526.29,-124.82 523.28,-121.83 523.77,-126.04 526.29,-124.82"/>
</g>
<!-- p0x5fce2c60f580 -->
<g id="node38" class="node">
<title>p0x5fce2c60f580</title>
<ellipse fill="lightgreen" stroke="green" cx="588.13" cy="-102" rx="18" ry="18"/>
<text text-anchor="middle" x="588.13" y="-96.95" font-family="Times,serif" font-size="14.00">1</text>
</g>
<!-- p0x5fce2c60f4c0&#45;&gt;p0x5fce2c60f580 -->
<g id="edge37" class="edge">
<title>p0x5fce2c60f4c0&#45;&gt;p0x5fce2c60f580</title>
<path fill="none" stroke="gray" d="M559.53,-161.86C565.05,-150.49 572.3,-135.57 578.13,-123.59"/>
<polygon fill="gray" stroke="gray" points="579.37,-124.22 579.86,-120.01 576.85,-123 579.37,-124.22"/>
</g>
<!-- p0x5fce2c60f520 -->
<g id="node36" class="node">
<title>p0x5fce2c60f520</title>
<ellipse fill="lightgreen" stroke="green" cx="478.13" cy="-22" rx="20.13" ry="20.13"/>
<text text-anchor="middle" x="478.13" y="-16.95" font-family="Times,serif" font-size="14.00">20</text>
</g>
<!-- p0x5fce2c60f4f0&#45;&gt;p0x5fce2c60f520 -->
<g id="edge35" class="edge">
<title>p0x5fce2c60f4f0&#45;&gt;p0x5fce2c60f520</title>
<path fill="none" stroke="gray" d="M506.14,-83.69C500.95,-72.44 494.12,-57.65 488.51,-45.49"/>
<polygon fill="gray" stroke="gray" points="489.93,-45.22 486.98,-42.18 487.39,-46.4 489.93,-45.22"/>
</g>
<!-- p0x5fce2c60f550 -->
<g id="node37" class="node">
<title>p0x5fce2c60f550</title>
<ellipse fill="lightblue" stroke="blue" cx="549.13" cy="-22" rx="18" ry="18"/>
<ellipse fill="none" stroke="blue" cx="549.13" cy="-22" rx="22" ry="22"/>
<text text-anchor="middle" x="549.13" y="-16.95" font-family="Times,serif" font-size="14.00">x</text>
</g>
<!-- p0x5fce2c60f4f0&#45;&gt;p0x5fce2c60f550 -->
<g id="edge36" class="edge">
<title>p0x5fce2c60f4f0&#45;&gt;p0x5fce2c60f550</title>
<path fill="none" stroke="gray" d="M521.9,-83.69C526.69,-73.01 532.91,-59.14 538.2,-47.36"/>
<polygon fill="gray" stroke="gray" points="539.42,-48.06 539.78,-43.84 536.87,-46.91 539.42,-48.06"/>
</g>
</g>
</svg>
