<?xml version="1.0" encoding="UTF-8" standalone="no"?>
<!DOCTYPE svg PUBLIC "-//W3C//DTD SVG 1.1//EN"
 "http://www.w3.org/Graphics/SVG/1.1/DTD/svg11.dtd">
<!-- Generated by graphviz version 12.1.2 (0)
 -->
<!-- Title: diffTree Pages: 1 -->
<svg width="369pt" height="218pt"
 viewBox="0.00 0.00 369.00 218.00" xmlns="http://www.w3.org/2000/svg" xmlns:xlink="http://www.w3.org/1999/xlink">
<g id="graph0" class="graph" transform="scale(1 1) rotate(0) translate(4 214)">
<title>diffTree</title>
<polygon fill="white" stroke="none" points="-4,4 -4,-214 365,-214 365,4 -4,4"/>
<!-- p0x5a9d413f92b0 -->
<g id="node1" class="node">
<title>p0x5a9d413f92b0</title>
<path fill="none" stroke="purple" d="M83,-123.5C83,-123.5 283,-123.5 283,-123.5 289,-123.5 295,-129.5 295,-135.5 295,-135.5 295,-197.5 295,-197.5 295,-203.5 289,-209.5 283,-209.5 283,-209.5 83,-209.5 83,-209.5 77,-209.5 71,-203.5 71,-197.5 71,-197.5 71,-135.5 71,-135.5 71,-129.5 77,-123.5 83,-123.5"/>
<text text-anchor="middle" x="183" y="-196" font-family="JetBrains Mono" font-size="10.00">[0x5a9d413f92b0]</text>
<polyline fill="none" stroke="purple" points="71,-188 295,-188"/>
<text text-anchor="middle" x="183" y="-174.5" font-family="JetBrains Mono" font-size="10.00">type = OPERATION_NODE [&#45;1]</text>
<polyline fill="none" stroke="purple" points="71,-166.5 295,-166.5"/>
<text text-anchor="middle" x="183" y="-153" font-family="JetBrains Mono" font-size="10.00">data = [ADD]</text>
<polyline fill="none" stroke="purple" points="71,-145 295,-145"/>
<text text-anchor="middle" x="127" y="-131.5" font-family="JetBrains Mono" font-size="10.00">[0x5a9d413f9fe0]</text>
<polyline fill="none" stroke="purple" points="183,-123.5 183,-145"/>
<text text-anchor="middle" x="239" y="-131.5" font-family="JetBrains Mono" font-size="10.00">[0x5a9d413fa290]</text>
</g>
<!-- p0x5a9d413f9fe0 -->
<g id="node2" class="node">
<title>p0x5a9d413f9fe0</title>
<path fill="none" stroke="green" d="M12,-0.5C12,-0.5 160,-0.5 160,-0.5 166,-0.5 172,-6.5 172,-12.5 172,-12.5 172,-74.5 172,-74.5 172,-80.5 166,-86.5 160,-86.5 160,-86.5 12,-86.5 12,-86.5 6,-86.5 0,-80.5 0,-74.5 0,-74.5 0,-12.5 0,-12.5 0,-6.5 6,-0.5 12,-0.5"/>
<text text-anchor="middle" x="86" y="-73" font-family="JetBrains Mono" font-size="10.00">[0x5a9d413f9fe0]</text>
<polyline fill="none" stroke="green" points="0,-65 172,-65"/>
<text text-anchor="middle" x="86" y="-51.5" font-family="JetBrains Mono" font-size="10.00">type = NUMERICAL_NODE [&#45;2]</text>
<polyline fill="none" stroke="green" points="0,-43.5 172,-43.5"/>
<text text-anchor="middle" x="86" y="-30" font-family="JetBrains Mono" font-size="10.00">data = [100]</text>
<polyline fill="none" stroke="green" points="0,-22 172,-22"/>
<text text-anchor="middle" x="43" y="-8.5" font-family="JetBrains Mono" font-size="10.00">[(nil)]</text>
<polyline fill="none" stroke="green" points="86,-0.5 86,-22"/>
<text text-anchor="middle" x="129" y="-8.5" font-family="JetBrains Mono" font-size="10.00">[(nil)]</text>
</g>
<!-- p0x5a9d413f92b0&#45;&gt;p0x5a9d413f9fe0 -->
<g id="edge1" class="edge">
<title>p0x5a9d413f92b0:l&#45;&gt;p0x5a9d413f9fe0</title>
<path fill="none" stroke="green" stroke-width="2" stroke-dasharray="5,2" d="M127,-123C127,-123 119.73,-109.09 111.32,-92.98"/>
<polygon fill="green" stroke="green" stroke-width="2" points="112.67,-92.55 109.58,-89.65 110.19,-93.84 112.67,-92.55"/>
</g>
<!-- p0x5a9d413fa290 -->
<g id="node3" class="node">
<title>p0x5a9d413fa290</title>
<path fill="none" stroke="blue" d="M213,-0.5C213,-0.5 349,-0.5 349,-0.5 355,-0.5 361,-6.5 361,-12.5 361,-12.5 361,-74.5 361,-74.5 361,-80.5 355,-86.5 349,-86.5 349,-86.5 213,-86.5 213,-86.5 207,-86.5 201,-80.5 201,-74.5 201,-74.5 201,-12.5 201,-12.5 201,-6.5 207,-0.5 213,-0.5"/>
<text text-anchor="middle" x="281" y="-73" font-family="JetBrains Mono" font-size="10.00">[0x5a9d413fa290]</text>
<polyline fill="none" stroke="blue" points="201,-65 361,-65"/>
<text text-anchor="middle" x="281" y="-51.5" font-family="JetBrains Mono" font-size="10.00">type = VARIABLE_NODE [0]</text>
<polyline fill="none" stroke="blue" points="201,-43.5 361,-43.5"/>
<text text-anchor="middle" x="281" y="-30" font-family="JetBrains Mono" font-size="10.00">data = [x]</text>
<polyline fill="none" stroke="blue" points="201,-22 361,-22"/>
<text text-anchor="middle" x="241" y="-8.5" font-family="JetBrains Mono" font-size="10.00">[(nil)]</text>
<polyline fill="none" stroke="blue" points="281,-0.5 281,-22"/>
<text text-anchor="middle" x="321" y="-8.5" font-family="JetBrains Mono" font-size="10.00">[(nil)]</text>
</g>
<!-- p0x5a9d413f92b0&#45;&gt;p0x5a9d413fa290 -->
<g id="edge2" class="edge">
<title>p0x5a9d413f92b0:r&#45;&gt;p0x5a9d413fa290</title>
<path fill="none" stroke="green" stroke-width="2" stroke-dasharray="5,2" d="M239,-123C239,-123 246.44,-109.09 255.06,-92.98"/>
<polygon fill="green" stroke="green" stroke-width="2" points="256.2,-93.82 256.85,-89.64 253.73,-92.5 256.2,-93.82"/>
</g>
</g>
</svg>
